M48
;DRILL file {KiCad 4.0.7} date 01/20/18 20:29:42
;FORMAT={-:-/ absolute / metric / decimal}
FMAT,2
METRIC,TZ
T1C1.200
T2C1.700
T3C2.000
T4C2.200
T5C3.000
%
G90
G05
M71
T1
X299.Y-40.5
X299.Y-43.
X304.Y-48.
X309.Y-40.5
X309.Y-43.
X311.5Y-40.5
X311.5Y-43.
X316.5Y-48.
X321.5Y-40.5
X321.5Y-43.
T2
X278.Y-45.5
X278.Y-54.5
X278.Y-70.5
X278.Y-79.5
X278.Y-95.5
X278.Y-104.5
X278.Y-120.5
X278.Y-129.5
X278.Y-145.5
X278.Y-154.5
X278.Y-170.5
X278.Y-179.5
X278.Y-195.5
X278.Y-204.5
X278.Y-220.5
X278.Y-229.5
X303.Y-145.5
X303.Y-154.5
X303.Y-170.5
X303.Y-179.5
X303.Y-195.5
X303.Y-204.5
X328.Y-145.5
X328.Y-154.5
X328.Y-170.5
X328.Y-179.5
X328.Y-195.5
X328.Y-204.5
T3
X295.Y-39.5
X295.Y-80.5
X336.Y-39.5
X336.Y-80.5
T4
X68.Y-40.
X68.Y-85.
X68.Y-90.
X68.Y-135.
X68.Y-140.
X68.Y-185.
X68.Y-190.
X68.Y-235.
X113.Y-40.
X113.Y-85.
X113.Y-90.
X113.Y-135.
X113.Y-140.
X113.Y-185.
X113.Y-190.
X113.Y-235.
X118.Y-40.
X118.Y-85.
X118.Y-90.
X118.Y-135.
X118.Y-140.
X118.Y-185.
X118.Y-190.
X118.Y-235.
X163.Y-40.
X163.Y-85.
X163.Y-90.
X163.Y-135.
X163.Y-140.
X163.Y-185.
X163.Y-190.
X163.Y-235.
X168.Y-40.
X168.Y-85.
X168.Y-90.
X168.Y-135.
X168.Y-140.
X168.Y-185.
X168.Y-190.
X168.Y-235.
X213.Y-40.
X213.Y-85.
X213.Y-90.
X213.Y-135.
X213.Y-140.
X213.Y-185.
X213.Y-190.
X213.Y-235.
X218.Y-40.
X218.Y-85.
X218.Y-90.
X218.Y-135.
X218.Y-140.
X218.Y-185.
X218.Y-190.
X218.Y-235.
X263.Y-40.
X263.Y-85.
X263.Y-90.
X263.Y-135.
X263.Y-140.
X263.Y-185.
X263.Y-190.
X263.Y-235.
X338.Y-44.
X338.Y-135.
X338.Y-235.
T5
X78.Y-62.5
X78.Y-112.5
X78.Y-162.5
X78.Y-212.5
X90.5Y-50.
X90.5Y-75.
X90.5Y-100.
X90.5Y-125.
X90.5Y-150.
X90.5Y-175.
X90.5Y-200.
X90.5Y-225.
X103.Y-62.5
X103.Y-112.5
X103.Y-162.5
X103.Y-212.5
X128.Y-62.5
X128.Y-112.5
X128.Y-162.5
X128.Y-212.5
X140.5Y-50.
X140.5Y-75.
X140.5Y-100.
X140.5Y-125.
X140.5Y-150.
X140.5Y-175.
X140.5Y-200.
X140.5Y-225.
X153.Y-62.5
X153.Y-112.5
X153.Y-162.5
X153.Y-212.5
X178.Y-62.5
X178.Y-112.5
X178.Y-162.5
X178.Y-212.5
X190.5Y-50.
X190.5Y-75.
X190.5Y-100.
X190.5Y-125.
X190.5Y-150.
X190.5Y-175.
X190.5Y-200.
X190.5Y-225.
X203.Y-62.5
X203.Y-112.5
X203.Y-162.5
X203.Y-212.5
X228.Y-62.5
X228.Y-112.5
X228.Y-162.5
X228.Y-212.5
X240.5Y-50.
X240.5Y-75.
X240.5Y-100.
X240.5Y-125.
X240.5Y-150.
X240.5Y-175.
X240.5Y-200.
X240.5Y-225.
X253.Y-62.5
X253.Y-112.5
X253.Y-162.5
X253.Y-212.5
T0
M30
