M48
;DRILL file {KiCad 4.0.7} date 01/20/18 20:29:42
;FORMAT={-:-/ absolute / metric / decimal}
FMAT,2
METRIC,TZ
T1C0.500
T2C0.700
T3C0.800
T4C0.900
T5C1.000
T6C1.200
T7C2.200
%
G90
G05
M71
T1
X68.Y-45.
X68.Y-80.
X68.Y-95.
X68.Y-130.
X68.Y-145.
X68.Y-180.
X68.Y-195.
X68.Y-230.
X70.Y-116.5
X70.Y-166.5
X73.Y-40.
X73.Y-235.
X77.Y-57.5
X77.Y-82.5
X77.Y-107.5
X77.Y-132.5
X77.Y-157.5
X77.Y-182.5
X77.Y-207.5
X77.Y-232.5
X90.5Y-62.5
X90.5Y-87.5
X90.5Y-112.5
X90.5Y-137.5
X90.5Y-162.5
X90.5Y-187.5
X90.5Y-212.5
X95.Y-118.
X95.Y-168.
X102.Y-57.5
X102.Y-82.5
X102.Y-107.5
X102.Y-132.5
X102.Y-157.5
X102.Y-182.5
X102.Y-207.5
X102.Y-232.5
X103.Y-87.5
X103.Y-187.5
X108.Y-40.
X108.Y-137.5
X108.Y-235.
X115.5Y-62.5
X115.5Y-112.5
X115.5Y-162.5
X115.5Y-212.5
X120.Y-119.5
X120.Y-169.5
X123.Y-40.
X123.Y-235.
X127.Y-57.5
X127.Y-82.5
X127.Y-107.5
X127.Y-132.5
X127.Y-157.5
X127.Y-182.5
X127.Y-207.5
X127.Y-232.5
X140.5Y-62.5
X140.5Y-87.5
X140.5Y-112.5
X140.5Y-137.5
X140.5Y-162.5
X140.5Y-187.5
X140.5Y-212.5
X145.Y-121.
X145.Y-171.
X148.Y-212.5
X152.Y-57.5
X152.Y-82.5
X152.Y-107.5
X152.Y-132.5
X152.Y-157.5
X152.Y-182.5
X152.Y-207.5
X152.Y-232.5
X158.Y-40.
X158.Y-187.5
X158.Y-235.
X160.5Y-162.5
X161.5Y-95.5
X161.5Y-153.5
X162.Y-54.
X163.Y-178.5
X163.5Y-79.
X163.5Y-95.5
X165.5Y-62.5
X165.5Y-82.5
X167.Y-96.
X167.5Y-103.5
X167.5Y-204.5
X168.5Y-96.5
X168.5Y-128.5
X169.5Y-228.5
X173.Y-40.
X173.Y-112.5
X173.Y-193.
X173.Y-235.
X173.5Y-132.5
X175.5Y-140.
X177.Y-57.5
X177.Y-82.5
X177.Y-107.5
X177.Y-132.5
X177.Y-157.5
X177.Y-182.5
X177.Y-207.5
X177.Y-232.5
X178.Y-87.5
X178.Y-187.5
X183.Y-87.5
X185.Y-137.5
X185.5Y-112.5
X185.5Y-162.5
X186.5Y-52.
X186.5Y-71.
X186.5Y-152.5
X188.Y-178.5
X188.5Y-71.
X188.5Y-79.
X190.5Y-62.5
X190.5Y-187.5
X190.5Y-212.5
X192.Y-71.
X192.5Y-104.
X192.5Y-204.
X193.5Y-71.5
X193.5Y-128.
X194.5Y-227.
X195.5Y-144.5
X195.5Y-194.5
X198.Y-112.5
X198.Y-212.5
X202.Y-57.5
X202.Y-82.5
X202.Y-107.5
X202.Y-132.5
X202.Y-157.5
X202.Y-182.5
X202.Y-207.5
X202.Y-232.5
X203.Y-87.5
X203.Y-137.5
X203.Y-187.5
X207.Y-160.
X208.Y-40.
X208.Y-62.5
X208.Y-235.
X210.5Y-112.5
X211.5Y-150.
X212.Y-50.
X213.5Y-75.
X213.5Y-175.
X215.5Y-62.5
X215.5Y-82.5
X217.5Y-200.
X218.5Y-100.
X218.5Y-125.
X218.5Y-225.
X220.5Y-146.
X220.5Y-196.
X223.Y-40.
X223.Y-112.5
X223.Y-235.
X227.Y-57.5
X227.Y-82.5
X227.Y-107.5
X227.Y-132.5
X227.Y-157.5
X227.Y-182.5
X227.Y-207.5
X227.Y-232.5
X228.Y-87.5
X228.Y-137.5
X228.Y-187.5
X230.5Y-215.
X232.Y-160.
X233.Y-87.5
X234.5Y-62.5
X235.5Y-112.5
X236.Y-181.
X236.5Y-94.
X236.5Y-148.
X237.Y-48.
X238.5Y-73.
X238.5Y-94.
X238.5Y-173.
X240.5Y-62.5
X241.5Y-94.
X242.5Y-198.
X242.595Y-98.095
X243.5Y-94.
X243.5Y-122.5
X243.5Y-222.5
X245.5Y-145.5
X245.5Y-195.5
X250.5Y-215.
X252.Y-57.5
X252.Y-82.5
X252.Y-107.5
X252.Y-132.5
X252.Y-157.5
X252.Y-182.5
X252.Y-207.5
X252.Y-232.5
X253.Y-85.
X258.Y-40.
X258.Y-107.5
X258.Y-117.5
X258.Y-157.5
X258.Y-235.
X259.5Y-140.
X259.5Y-187.5
X259.5Y-205.25
X260.5Y-196.25
X260.75Y-221.5
X261.5Y-110.5
X261.5Y-123.
X261.5Y-146.75
X261.5Y-160.5
X261.5Y-173.
X263.Y-121.75
X263.Y-130.5
X263.Y-171.75
X263.Y-180.5
X263.25Y-105.25
X263.25Y-145.25
X263.25Y-155.25
X263.5Y-65.5
X264.Y-120.5
X264.Y-132.
X264.Y-170.5
X264.Y-182.
X265.Y-87.5
X265.Y-121.75
X265.Y-130.5
X265.Y-171.75
X265.Y-180.5
X265.5Y-57.5
X265.5Y-118.75
X265.5Y-168.75
X265.75Y-110.5
X265.75Y-160.5
X266.Y-120.5
X266.Y-170.5
X267.Y-132.
X267.Y-182.
X267.25Y-130.25
X267.25Y-173.25
X267.25Y-180.25
X267.75Y-167.75
X268.Y-40.
X268.Y-117.75
X268.Y-122.5
X268.Y-235.
X268.25Y-138.5
X270.Y-159.25
X270.Y-161.
X270.5Y-105.25
X270.5Y-111.
X271.Y-164.25
X271.25Y-93.75
X271.25Y-130.25
X271.25Y-145.25
X271.25Y-155.25
X271.5Y-83.
X271.5Y-86.75
X271.5Y-90.75
X271.5Y-161.5
X271.75Y-166.75
X272.Y-111.5
X272.Y-113.
X272.Y-141.5
X272.Y-163.
X272.5Y-140.
X272.75Y-62.5
X272.75Y-66.25
X272.75Y-69.5
X273.Y-72.5
X273.Y-115.5
X273.Y-138.5
X273.5Y-113.
X273.5Y-117.25
X274.5Y-109.25
X275.Y-133.25
X275.25Y-145.75
X275.25Y-155.25
X275.25Y-173.25
X275.75Y-122.75
X275.75Y-130.25
X276.Y-196.5
X276.25Y-83.
X276.25Y-142.75
X276.75Y-136.25
X277.75Y-89.
X278.5Y-81.5
X278.75Y-86.5
X279.25Y-77.75
X279.5Y-142.5
X279.5Y-219.
X279.75Y-227.5
X282.Y-50.
X282.Y-59.75
X282.Y-75.25
X282.Y-79.
X282.Y-84.75
X282.Y-100.25
X282.Y-105.5
X282.Y-113.
X282.Y-116.5
X282.Y-125.25
X282.Y-150.
X282.Y-166.5
X282.Y-175.
X282.Y-191.5
X282.Y-200.25
X282.75Y-134.
X285.Y-54.75
X285.Y-59.75
X285.Y-79.75
X285.Y-84.75
X285.Y-110.25
X285.Y-129.75
X285.Y-163.75
X285.Y-179.75
X285.Y-188.5
X285.Y-204.75
X285.Y-213.5
X287.5Y-44.5
X287.5Y-69.5
X287.5Y-90.75
X287.75Y-65.75
X288.25Y-139.5
X288.5Y-46.
X288.5Y-71.
X288.5Y-96.
X288.5Y-115.5
X288.5Y-121.
X288.5Y-146.
X288.5Y-171.
X288.5Y-196.
X288.5Y-221.
X290.Y-77.
X290.Y-105.
X290.Y-170.
X290.Y-220.
X290.25Y-139.5
X290.5Y-121.
X290.5Y-147.5
X291.Y-191.25
X291.75Y-68.75
X292.25Y-93.75
X292.5Y-95.5
X292.5Y-97.
X293.Y-63.25
X293.Y-158.5
X293.75Y-179.75
X294.Y-97.
X294.Y-98.5
X294.5Y-71.5
X294.75Y-59.75
X295.25Y-139.5
X295.25Y-141.75
X295.5Y-98.5
X295.5Y-100.
X295.75Y-211.25
X296.Y-132.5
X296.5Y-89.25
X296.75Y-42.25
X296.75Y-73.75
X297.Y-121.
X297.25Y-100.
X297.5Y-115.5
X297.75Y-200.75
X298.Y-162.
X298.75Y-102.5
X299.25Y-76.25
X299.25Y-87.
X299.75Y-51.75
X299.75Y-110.
X300.25Y-91.75
X300.25Y-116.75
X300.25Y-127.
X300.5Y-90.25
X301.Y-99.25
X301.25Y-180.75
X301.75Y-114.
X302.Y-93.
X302.Y-95.
X302.75Y-73.
X303.Y-235.
X303.75Y-85.75
X304.Y-96.5
X304.Y-111.75
X304.Y-137.75
X304.5Y-59.75
X304.5Y-63.25
X304.75Y-82.5
X304.75Y-116.75
X305.25Y-110.25
X305.5Y-139.
X305.5Y-147.5
X305.5Y-154.5
X305.5Y-160.5
X305.5Y-168.
X305.5Y-176.5
X305.5Y-193.
X305.5Y-201.75
X305.75Y-98.
X306.25Y-111.5
X307.Y-114.
X307.25Y-110.25
X307.5Y-99.5
X308.Y-107.
X308.Y-127.5
X308.5Y-87.75
X308.5Y-101.
X308.5Y-204.5
X309.Y-179.75
X309.Y-189.5
X310.Y-90.5
X310.25Y-66.75
X310.25Y-106.25
X310.5Y-78.5
X310.5Y-82.5
X310.5Y-88.75
X311.25Y-99.5
X311.25Y-101.25
X311.25Y-119.75
X311.5Y-84.
X311.5Y-111.
X311.75Y-195.25
X312.5Y-136.5
X313.Y-61.5
X313.25Y-59.75
X313.5Y-146.
X313.5Y-171.
X313.75Y-50.75
X314.Y-55.5
X314.Y-84.75
X315.Y-95.75
X315.25Y-106.75
X315.5Y-171.
X316.Y-217.5
X316.25Y-138.5
X316.75Y-69.25
X317.Y-88.
X317.Y-156.5
X317.Y-160.5
X317.5Y-71.
X317.5Y-78.25
X317.5Y-110.
X318.Y-89.
X318.Y-100.
X318.25Y-95.25
X318.75Y-69.25
X318.75Y-87.5
X318.75Y-179.75
X319.25Y-72.
X319.5Y-89.5
X319.75Y-138.5
X320.Y-94.
X320.Y-97.5
X320.25Y-59.75
X320.25Y-86.5
X320.25Y-117.75
X320.25Y-132.75
X321.Y-78.25
X321.Y-90.5
X321.Y-160.5
X321.Y-186.25
X321.25Y-52.5
X321.865Y-168.135
X322.Y-60.
X322.5Y-144.25
X323.25Y-105.5
X323.25Y-138.5
X323.5Y-46.25
X323.5Y-178.
X324.5Y-144.25
X324.75Y-116.25
X324.75Y-122.5
X324.75Y-128.25
X325.Y-173.5
X325.25Y-50.75
X325.5Y-56.5
X325.5Y-58.75
X325.5Y-61.
X326.Y-48.
X326.25Y-155.75
X326.75Y-55.
X326.75Y-64.25
X326.75Y-109.
X327.Y-138.5
X327.75Y-46.25
X327.75Y-84.
X328.Y-56.5
X328.Y-58.75
X328.Y-61.
X328.Y-63.
X328.25Y-106.
X328.75Y-49.25
X329.Y-109.
X329.25Y-152.75
X329.5Y-169.
X329.5Y-177.75
X329.5Y-193.75
X329.5Y-211.25
X330.25Y-134.
X331.Y-132.75
X331.25Y-122.5
X331.25Y-129.75
X332.Y-98.
X332.25Y-133.5
X332.75Y-49.
X332.75Y-118.75
X333.Y-106.
X333.Y-173.5
X333.Y-175.5
X333.Y-235.
X334.5Y-122.5
X334.5Y-131.
X335.25Y-42.75
X336.Y-90.5
X336.75Y-92.75
X337.Y-145.5
X337.75Y-54.
X337.75Y-66.5
X337.75Y-83.25
X338.Y-205.
X338.Y-230.
X339.25Y-46.75
X339.25Y-51.
X339.25Y-92.75
X339.25Y-94.5
X339.25Y-112.5
X339.25Y-132.25
X339.25Y-179.75
T2
X78.Y-48.095
X78.Y-49.365
X78.Y-50.635
X78.Y-51.905
X78.Y-73.095
X78.Y-74.365
X78.Y-75.635
X78.Y-76.905
X78.Y-98.095
X78.Y-99.365
X78.Y-100.635
X78.Y-101.905
X78.Y-123.095
X78.Y-124.365
X78.Y-125.635
X78.Y-126.905
X78.Y-148.095
X78.Y-149.365
X78.Y-150.635
X78.Y-151.905
X78.Y-173.095
X78.Y-174.365
X78.Y-175.635
X78.Y-176.905
X78.Y-198.095
X78.Y-199.365
X78.Y-200.635
X78.Y-201.905
X78.Y-223.095
X78.Y-224.365
X78.Y-225.635
X78.Y-226.905
X103.Y-48.095
X103.Y-49.365
X103.Y-50.635
X103.Y-51.905
X103.Y-73.095
X103.Y-74.365
X103.Y-75.635
X103.Y-76.905
X103.Y-98.095
X103.Y-99.365
X103.Y-100.635
X103.Y-101.905
X103.Y-123.095
X103.Y-124.365
X103.Y-125.635
X103.Y-126.905
X103.Y-148.095
X103.Y-149.365
X103.Y-150.635
X103.Y-151.905
X103.Y-173.095
X103.Y-174.365
X103.Y-175.635
X103.Y-176.905
X103.Y-198.095
X103.Y-199.365
X103.Y-200.635
X103.Y-201.905
X103.Y-223.095
X103.Y-224.365
X103.Y-225.635
X103.Y-226.905
X128.Y-48.095
X128.Y-49.365
X128.Y-50.635
X128.Y-51.905
X128.Y-73.095
X128.Y-74.365
X128.Y-75.635
X128.Y-76.905
X128.Y-98.095
X128.Y-99.365
X128.Y-100.635
X128.Y-101.905
X128.Y-123.095
X128.Y-124.365
X128.Y-125.635
X128.Y-126.905
X128.Y-148.095
X128.Y-149.365
X128.Y-150.635
X128.Y-151.905
X128.Y-173.095
X128.Y-174.365
X128.Y-175.635
X128.Y-176.905
X128.Y-198.095
X128.Y-199.365
X128.Y-200.635
X128.Y-201.905
X128.Y-223.095
X128.Y-224.365
X128.Y-225.635
X128.Y-226.905
X153.Y-48.095
X153.Y-49.365
X153.Y-50.635
X153.Y-51.905
X153.Y-73.095
X153.Y-74.365
X153.Y-75.635
X153.Y-76.905
X153.Y-98.095
X153.Y-99.365
X153.Y-100.635
X153.Y-101.905
X153.Y-123.095
X153.Y-124.365
X153.Y-125.635
X153.Y-126.905
X153.Y-148.095
X153.Y-149.365
X153.Y-150.635
X153.Y-151.905
X153.Y-173.095
X153.Y-174.365
X153.Y-175.635
X153.Y-176.905
X153.Y-198.095
X153.Y-199.365
X153.Y-200.635
X153.Y-201.905
X153.Y-223.095
X153.Y-224.365
X153.Y-225.635
X153.Y-226.905
X178.Y-48.095
X178.Y-49.365
X178.Y-50.635
X178.Y-51.905
X178.Y-73.095
X178.Y-74.365
X178.Y-75.635
X178.Y-76.905
X178.Y-98.095
X178.Y-99.365
X178.Y-100.635
X178.Y-101.905
X178.Y-123.095
X178.Y-124.365
X178.Y-125.635
X178.Y-126.905
X178.Y-148.095
X178.Y-149.365
X178.Y-150.635
X178.Y-151.905
X178.Y-173.095
X178.Y-174.365
X178.Y-175.635
X178.Y-176.905
X178.Y-198.095
X178.Y-199.365
X178.Y-200.635
X178.Y-201.905
X178.Y-223.095
X178.Y-224.365
X178.Y-225.635
X178.Y-226.905
X203.Y-48.095
X203.Y-49.365
X203.Y-50.635
X203.Y-51.905
X203.Y-73.095
X203.Y-74.365
X203.Y-75.635
X203.Y-76.905
X203.Y-98.095
X203.Y-99.365
X203.Y-100.635
X203.Y-101.905
X203.Y-123.095
X203.Y-124.365
X203.Y-125.635
X203.Y-126.905
X203.Y-148.095
X203.Y-149.365
X203.Y-150.635
X203.Y-151.905
X203.Y-173.095
X203.Y-174.365
X203.Y-175.635
X203.Y-176.905
X203.Y-198.095
X203.Y-199.365
X203.Y-200.635
X203.Y-201.905
X203.Y-223.095
X203.Y-224.365
X203.Y-225.635
X203.Y-226.905
X228.Y-48.095
X228.Y-49.365
X228.Y-50.635
X228.Y-51.905
X228.Y-73.095
X228.Y-74.365
X228.Y-75.635
X228.Y-76.905
X228.Y-98.095
X228.Y-99.365
X228.Y-100.635
X228.Y-101.905
X228.Y-123.095
X228.Y-124.365
X228.Y-125.635
X228.Y-126.905
X228.Y-148.095
X228.Y-149.365
X228.Y-150.635
X228.Y-151.905
X228.Y-173.095
X228.Y-174.365
X228.Y-175.635
X228.Y-176.905
X228.Y-198.095
X228.Y-199.365
X228.Y-200.635
X228.Y-201.905
X228.Y-223.095
X228.Y-224.365
X228.Y-225.635
X228.Y-226.905
X253.Y-48.095
X253.Y-49.365
X253.Y-50.635
X253.Y-51.905
X253.Y-73.095
X253.Y-74.365
X253.Y-75.635
X253.Y-76.905
X253.Y-98.095
X253.Y-99.365
X253.Y-100.635
X253.Y-101.905
X253.Y-123.095
X253.Y-124.365
X253.Y-125.635
X253.Y-126.905
X253.Y-148.095
X253.Y-149.365
X253.Y-150.635
X253.Y-151.905
X253.Y-173.095
X253.Y-174.365
X253.Y-175.635
X253.Y-176.905
X253.Y-198.095
X253.Y-199.365
X253.Y-200.635
X253.Y-201.905
X253.Y-223.095
X253.Y-224.365
X253.Y-225.635
X253.Y-226.905
X285.5Y-40.595
X285.5Y-41.865
X285.5Y-43.135
X285.5Y-44.405
X285.5Y-65.595
X285.5Y-66.865
X285.5Y-68.135
X285.5Y-69.405
X285.5Y-90.595
X285.5Y-91.865
X285.5Y-93.135
X285.5Y-94.405
X285.5Y-115.595
X285.5Y-116.865
X285.5Y-118.135
X285.5Y-119.405
X285.5Y-140.595
X285.5Y-141.865
X285.5Y-143.135
X285.5Y-144.405
X285.5Y-165.595
X285.5Y-166.865
X285.5Y-168.135
X285.5Y-169.405
X285.5Y-190.595
X285.5Y-191.865
X285.5Y-193.135
X285.5Y-194.405
X285.5Y-215.595
X285.5Y-216.865
X285.5Y-218.135
X285.5Y-219.405
X310.5Y-140.595
X310.5Y-141.865
X310.5Y-143.135
X310.5Y-144.405
X310.5Y-165.595
X310.5Y-166.865
X310.5Y-168.135
X310.5Y-169.405
X315.5Y-110.595
X315.5Y-111.865
X315.5Y-113.135
X315.5Y-114.405
X335.5Y-140.595
X335.5Y-141.865
X335.5Y-143.135
X335.5Y-144.405
X335.5Y-165.595
X335.5Y-166.865
X335.5Y-168.135
X335.5Y-169.405
T3
X326.5Y-41.85
X331.5Y-41.85
T4
X306.61Y-80.5
X309.15Y-80.5
X311.69Y-80.5
X314.23Y-80.5
X316.77Y-80.5
X319.31Y-80.5
X321.85Y-80.5
X324.39Y-80.5
T5
X300.5Y-217.5
X303.Y-217.5
X305.5Y-217.5
X325.5Y-217.5
X328.Y-217.5
X330.5Y-217.5
X335.5Y-96.
X335.5Y-98.54
X335.5Y-101.08
X335.5Y-103.62
T6
X299.Y-48.
X301.5Y-48.
X304.Y-43.
X306.5Y-48.
X309.Y-48.
X311.5Y-48.
X314.Y-48.
X316.5Y-43.
X319.Y-48.
X321.5Y-48.
X325.5Y-39.15
X332.5Y-39.15
T7
X296.Y-225.
X310.Y-225.
X321.Y-225.
X335.Y-225.
T0
M30
