G04 #@! TF.FileFunction,Soldermask,Bot*
%FSLAX46Y46*%
G04 Gerber Fmt 4.6, Leading zero omitted, Abs format (unit mm)*
G04 Created by KiCad (PCBNEW 4.0.7) date 01/20/18 20:27:55*
%MOMM*%
%LPD*%
G01*
G04 APERTURE LIST*
%ADD10C,0.100000*%
%ADD11C,2.000000*%
%ADD12C,0.010000*%
%ADD13O,2.200000X1.430000*%
%ADD14R,2.200000X1.430000*%
%ADD15O,2.400000X3.400000*%
%ADD16C,1.600000*%
%ADD17R,2.400000X3.400000*%
%ADD18O,3.400000X3.400000*%
%ADD19C,4.200000*%
%ADD20C,2.600000*%
%ADD21C,3.400000*%
%ADD22C,2.100000*%
%ADD23R,1.700000X1.950000*%
%ADD24C,4.400000*%
%ADD25R,2.100000X1.700000*%
%ADD26R,1.700000X2.100000*%
%ADD27R,0.900000X1.300000*%
%ADD28R,1.300000X0.900000*%
%ADD29R,1.150000X1.200000*%
%ADD30R,1.200000X1.150000*%
%ADD31R,1.300000X1.200000*%
%ADD32R,1.200000X1.300000*%
%ADD33R,1.300000X2.100000*%
%ADD34R,2.100000X1.300000*%
%ADD35O,2.200000X2.900000*%
%ADD36R,2.200000X2.900000*%
%ADD37R,1.900000X0.850000*%
%ADD38R,1.940000X2.200000*%
%ADD39R,3.000000X2.400000*%
%ADD40O,3.000000X2.400000*%
%ADD41C,1.850000*%
%ADD42O,2.400000X2.400000*%
%ADD43O,2.400000X2.300000*%
G04 APERTURE END LIST*
D10*
D11*
X158700000Y-214200000D02*
G75*
G03X158700000Y-214200000I-100000J0D01*
G01*
X161000000Y-209500000D02*
G75*
G03X161000000Y-209500000I-100000J0D01*
G01*
X165600000Y-208200000D02*
G75*
G03X165600000Y-208200000I-100000J0D01*
G01*
X165600000Y-207300000D02*
G75*
G03X165600000Y-207300000I-100000J0D01*
G01*
X170400000Y-209500000D02*
G75*
G03X170400000Y-209500000I-100000J0D01*
G01*
X172500000Y-214200000D02*
G75*
G03X172500000Y-214200000I-100000J0D01*
G01*
X170400000Y-219000000D02*
G75*
G03X170400000Y-219000000I-100000J0D01*
G01*
D12*
G36*
X164408931Y-206173250D02*
X164403664Y-206178428D01*
X164398556Y-206185518D01*
X164393315Y-206195916D01*
X164387647Y-206211016D01*
X164381260Y-206232213D01*
X164373861Y-206260902D01*
X164365157Y-206298477D01*
X164354856Y-206346334D01*
X164342663Y-206405868D01*
X164328287Y-206478474D01*
X164311435Y-206565545D01*
X164291813Y-206668478D01*
X164269129Y-206788667D01*
X164243091Y-206927508D01*
X164213404Y-207086394D01*
X164183113Y-207248823D01*
X164149418Y-207429362D01*
X164119598Y-207588557D01*
X164093373Y-207727774D01*
X164070460Y-207848384D01*
X164050579Y-207951754D01*
X164033448Y-208039254D01*
X164018785Y-208112250D01*
X164006309Y-208172113D01*
X163995739Y-208220210D01*
X163986793Y-208257911D01*
X163979190Y-208286583D01*
X163972648Y-208307595D01*
X163966887Y-208322316D01*
X163961623Y-208332115D01*
X163959824Y-208334665D01*
X163952078Y-208342890D01*
X163939862Y-208352225D01*
X163921631Y-208363355D01*
X163895841Y-208376964D01*
X163860949Y-208393735D01*
X163815412Y-208414355D01*
X163757685Y-208439507D01*
X163686224Y-208469877D01*
X163599486Y-208506148D01*
X163495928Y-208549004D01*
X163374005Y-208599132D01*
X163235384Y-208655901D01*
X163114248Y-208705409D01*
X162998646Y-208752581D01*
X162890479Y-208796649D01*
X162791649Y-208836839D01*
X162704057Y-208872381D01*
X162629604Y-208902504D01*
X162570191Y-208926437D01*
X162527721Y-208943408D01*
X162504094Y-208952645D01*
X162500778Y-208953858D01*
X162461714Y-208960953D01*
X162424246Y-208959561D01*
X162407320Y-208951548D01*
X162371973Y-208930554D01*
X162318669Y-208896886D01*
X162247871Y-208850851D01*
X162160040Y-208792757D01*
X162055640Y-208722912D01*
X161935134Y-208641623D01*
X161798983Y-208549199D01*
X161647652Y-208445947D01*
X161510776Y-208352194D01*
X161359525Y-208248495D01*
X161226105Y-208157182D01*
X161109361Y-208077497D01*
X161008140Y-208008685D01*
X160921284Y-207949989D01*
X160847641Y-207900652D01*
X160786055Y-207859917D01*
X160735370Y-207827029D01*
X160694433Y-207801231D01*
X160662087Y-207781766D01*
X160637179Y-207767877D01*
X160618553Y-207758809D01*
X160605054Y-207753805D01*
X160595527Y-207752108D01*
X160594612Y-207752091D01*
X160586856Y-207752702D01*
X160578084Y-207755198D01*
X160567242Y-207760573D01*
X160553281Y-207769820D01*
X160535148Y-207783933D01*
X160511793Y-207803906D01*
X160482163Y-207830732D01*
X160445208Y-207865406D01*
X160399876Y-207908921D01*
X160345115Y-207962270D01*
X160279874Y-208026448D01*
X160203102Y-208102448D01*
X160113747Y-208191264D01*
X160010758Y-208293890D01*
X159893083Y-208411319D01*
X159821955Y-208482341D01*
X159713604Y-208590715D01*
X159609716Y-208694958D01*
X159511488Y-208793849D01*
X159420118Y-208886166D01*
X159336803Y-208970690D01*
X159262740Y-209046200D01*
X159199127Y-209111474D01*
X159147162Y-209165293D01*
X159108041Y-209206436D01*
X159082963Y-209233682D01*
X159073235Y-209245584D01*
X159062132Y-209281167D01*
X159062951Y-209307240D01*
X159070436Y-209320848D01*
X159090079Y-209352052D01*
X159120931Y-209399440D01*
X159162044Y-209461599D01*
X159212467Y-209537115D01*
X159271251Y-209624577D01*
X159337446Y-209722570D01*
X159410104Y-209829682D01*
X159488275Y-209944501D01*
X159571009Y-210065612D01*
X159648776Y-210179101D01*
X159735060Y-210305080D01*
X159817790Y-210426343D01*
X159895997Y-210541445D01*
X159968716Y-210648940D01*
X160034976Y-210747382D01*
X160093812Y-210835325D01*
X160144255Y-210911323D01*
X160185338Y-210973930D01*
X160216092Y-211021700D01*
X160235550Y-211053188D01*
X160242564Y-211066291D01*
X160251299Y-211100530D01*
X160249704Y-211131816D01*
X160242156Y-211160119D01*
X160233644Y-211183353D01*
X160217143Y-211224685D01*
X160193571Y-211281988D01*
X160163848Y-211353134D01*
X160128892Y-211435997D01*
X160089625Y-211528451D01*
X160046964Y-211628369D01*
X160001830Y-211733625D01*
X159955142Y-211842091D01*
X159907819Y-211951641D01*
X159860781Y-212060149D01*
X159814947Y-212165487D01*
X159771237Y-212265530D01*
X159730571Y-212358151D01*
X159693867Y-212441223D01*
X159662045Y-212512619D01*
X159636024Y-212570213D01*
X159616725Y-212611878D01*
X159605066Y-212635488D01*
X159602375Y-212639873D01*
X159576928Y-212661730D01*
X159553134Y-212676722D01*
X159537518Y-212681105D01*
X159500881Y-212689337D01*
X159444908Y-212701087D01*
X159371289Y-212716025D01*
X159281710Y-212733820D01*
X159177858Y-212754141D01*
X159061422Y-212776659D01*
X158934088Y-212801042D01*
X158797544Y-212826960D01*
X158653478Y-212854083D01*
X158525903Y-212877924D01*
X158364092Y-212908203D01*
X158211875Y-212936968D01*
X158070639Y-212963942D01*
X157941773Y-212988852D01*
X157826665Y-213011420D01*
X157726704Y-213031372D01*
X157643277Y-213048432D01*
X157577774Y-213062324D01*
X157531581Y-213072773D01*
X157506088Y-213079502D01*
X157501713Y-213081261D01*
X157476910Y-213105521D01*
X157463848Y-213127855D01*
X157461832Y-213144589D01*
X157460015Y-213182310D01*
X157458397Y-213238992D01*
X157456975Y-213312611D01*
X157455749Y-213401143D01*
X157454718Y-213502564D01*
X157453879Y-213614848D01*
X157453233Y-213735973D01*
X157452776Y-213863912D01*
X157452509Y-213996642D01*
X157452430Y-214132138D01*
X157452538Y-214268376D01*
X157452831Y-214403332D01*
X157453308Y-214534980D01*
X157453968Y-214661297D01*
X157454809Y-214780258D01*
X157455831Y-214889839D01*
X157457031Y-214988015D01*
X157458409Y-215072762D01*
X157459964Y-215142055D01*
X157461693Y-215193870D01*
X157463597Y-215226183D01*
X157465185Y-215236511D01*
X157468269Y-215244457D01*
X157470602Y-215251462D01*
X157473433Y-215257804D01*
X157478012Y-215263758D01*
X157485590Y-215269604D01*
X157497416Y-215275616D01*
X157514741Y-215282074D01*
X157538816Y-215289255D01*
X157570890Y-215297435D01*
X157612213Y-215306891D01*
X157664035Y-215317902D01*
X157727608Y-215330744D01*
X157804180Y-215345695D01*
X157895002Y-215363031D01*
X158001325Y-215383030D01*
X158124398Y-215405970D01*
X158265472Y-215432128D01*
X158425797Y-215461780D01*
X158606622Y-215495204D01*
X158757454Y-215523101D01*
X158881304Y-215546095D01*
X158999147Y-215568121D01*
X159108892Y-215588779D01*
X159208445Y-215607667D01*
X159295716Y-215624385D01*
X159368611Y-215638533D01*
X159425039Y-215649708D01*
X159462907Y-215657512D01*
X159480027Y-215661512D01*
X159512895Y-215678180D01*
X159543606Y-215703037D01*
X159544785Y-215704289D01*
X159553165Y-215719320D01*
X159569144Y-215753730D01*
X159591882Y-215805442D01*
X159620538Y-215872381D01*
X159654274Y-215952469D01*
X159692251Y-216043630D01*
X159733628Y-216143787D01*
X159777566Y-216250862D01*
X159823227Y-216362780D01*
X159869770Y-216477464D01*
X159916356Y-216592837D01*
X159962146Y-216706821D01*
X160006301Y-216817341D01*
X160047980Y-216922319D01*
X160086344Y-217019680D01*
X160120555Y-217107345D01*
X160149773Y-217183238D01*
X160173157Y-217245284D01*
X160189870Y-217291404D01*
X160199070Y-217319522D01*
X160200636Y-217326890D01*
X160196292Y-217351219D01*
X160185766Y-217382548D01*
X160185058Y-217384257D01*
X160176214Y-217399377D01*
X160155272Y-217432009D01*
X160123244Y-217480655D01*
X160081139Y-217543817D01*
X160029969Y-217619997D01*
X159970742Y-217707696D01*
X159904471Y-217805417D01*
X159832165Y-217911662D01*
X159754834Y-218024931D01*
X159673489Y-218143728D01*
X159635654Y-218198867D01*
X159552679Y-218319778D01*
X159473094Y-218435876D01*
X159397927Y-218545657D01*
X159328204Y-218647615D01*
X159264951Y-218740246D01*
X159209194Y-218822045D01*
X159161960Y-218891506D01*
X159124275Y-218947126D01*
X159097165Y-218987400D01*
X159081656Y-219010822D01*
X159078754Y-219015432D01*
X159061926Y-219059264D01*
X159062804Y-219086971D01*
X159072047Y-219100372D01*
X159096386Y-219128491D01*
X159134400Y-219169908D01*
X159184672Y-219223205D01*
X159245782Y-219286963D01*
X159316311Y-219359763D01*
X159394841Y-219440186D01*
X159479952Y-219526813D01*
X159570226Y-219618225D01*
X159664244Y-219713003D01*
X159760586Y-219809729D01*
X159857835Y-219906983D01*
X159954571Y-220003346D01*
X160049375Y-220097400D01*
X160140829Y-220187726D01*
X160227513Y-220272904D01*
X160308009Y-220351516D01*
X160380897Y-220422143D01*
X160444759Y-220483365D01*
X160498176Y-220533764D01*
X160539730Y-220571922D01*
X160568000Y-220596418D01*
X160581569Y-220605835D01*
X160581636Y-220605851D01*
X160614239Y-220605801D01*
X160640433Y-220598493D01*
X160654436Y-220589948D01*
X160685962Y-220569309D01*
X160733523Y-220537586D01*
X160795629Y-220495789D01*
X160870791Y-220444928D01*
X160957521Y-220386015D01*
X161054330Y-220320058D01*
X161159729Y-220248069D01*
X161272229Y-220171058D01*
X161390341Y-220090035D01*
X161439817Y-220056046D01*
X161559862Y-219973607D01*
X161674944Y-219894702D01*
X161783567Y-219820347D01*
X161884238Y-219751560D01*
X161975462Y-219689357D01*
X162055744Y-219634757D01*
X162123592Y-219588776D01*
X162177509Y-219552431D01*
X162216003Y-219526739D01*
X162237578Y-219512718D01*
X162241157Y-219510594D01*
X162276735Y-219498124D01*
X162307684Y-219493889D01*
X162329187Y-219499649D01*
X162370302Y-219516868D01*
X162430693Y-219545380D01*
X162510018Y-219585021D01*
X162607940Y-219635626D01*
X162711094Y-219690091D01*
X162801705Y-219737872D01*
X162884922Y-219780887D01*
X162958507Y-219818038D01*
X163020224Y-219848225D01*
X163067837Y-219870350D01*
X163099111Y-219883314D01*
X163110507Y-219886363D01*
X163140327Y-219879031D01*
X163158365Y-219866159D01*
X163165543Y-219852285D01*
X163180844Y-219818455D01*
X163203700Y-219766047D01*
X163233543Y-219696441D01*
X163269804Y-219611017D01*
X163311915Y-219511155D01*
X163359307Y-219398233D01*
X163411413Y-219273631D01*
X163467665Y-219138729D01*
X163527493Y-218994907D01*
X163590329Y-218843544D01*
X163655606Y-218686020D01*
X163722755Y-218523713D01*
X163791208Y-218358004D01*
X163860396Y-218190273D01*
X163929751Y-218021898D01*
X163998706Y-217854259D01*
X164066690Y-217688737D01*
X164133137Y-217526710D01*
X164197478Y-217369557D01*
X164259145Y-217218660D01*
X164317569Y-217075396D01*
X164372183Y-216941146D01*
X164422417Y-216817289D01*
X164467704Y-216705205D01*
X164507475Y-216606273D01*
X164541163Y-216521873D01*
X164568198Y-216453385D01*
X164588012Y-216402187D01*
X164600038Y-216369660D01*
X164603734Y-216357419D01*
X164602394Y-216335208D01*
X164595907Y-216316312D01*
X164581263Y-216297731D01*
X164555453Y-216276465D01*
X164515470Y-216249512D01*
X164462165Y-216216245D01*
X164411573Y-216184435D01*
X164363371Y-216152867D01*
X164323948Y-216125791D01*
X164304402Y-216111319D01*
X164276924Y-216090167D01*
X164236368Y-216059626D01*
X164188333Y-216023889D01*
X164141377Y-215989310D01*
X163973072Y-215851802D01*
X163818866Y-215696396D01*
X163679552Y-215524067D01*
X163555925Y-215335792D01*
X163455589Y-215146954D01*
X163370066Y-214941383D01*
X163306293Y-214730639D01*
X163264009Y-214516368D01*
X163242951Y-214300215D01*
X163242858Y-214083826D01*
X163263467Y-213868845D01*
X163304517Y-213656918D01*
X163365745Y-213449689D01*
X163391184Y-213386712D01*
X159196181Y-213386712D01*
X159196181Y-215000999D01*
X159131459Y-215014435D01*
X159074471Y-215025209D01*
X159018089Y-215033330D01*
X158958081Y-215039053D01*
X158890211Y-215042637D01*
X158810248Y-215044338D01*
X158713957Y-215044413D01*
X158647772Y-215043799D01*
X158558073Y-215042474D01*
X158487514Y-215040693D01*
X158432144Y-215038146D01*
X158388014Y-215034524D01*
X158351172Y-215029519D01*
X158317669Y-215022823D01*
X158289863Y-215015839D01*
X158175223Y-214976288D01*
X158077369Y-214924075D01*
X157997441Y-214860077D01*
X157936579Y-214785171D01*
X157902110Y-214717285D01*
X157884268Y-214651404D01*
X157875093Y-214573063D01*
X157874604Y-214490575D01*
X157882819Y-214412254D01*
X157899757Y-214346413D01*
X157901263Y-214342504D01*
X157941175Y-214270854D01*
X157999003Y-214207430D01*
X158069759Y-214157548D01*
X158079822Y-214152247D01*
X158136380Y-214123586D01*
X158090798Y-214090066D01*
X158030195Y-214032137D01*
X157986929Y-213962651D01*
X157960817Y-213885087D01*
X157951676Y-213802928D01*
X157959321Y-213719654D01*
X157983570Y-213638747D01*
X158024238Y-213563688D01*
X158081141Y-213497958D01*
X158123838Y-213463868D01*
X158196411Y-213421758D01*
X158279153Y-213389078D01*
X158374383Y-213365400D01*
X158484418Y-213350294D01*
X158611579Y-213343331D01*
X158758183Y-213344081D01*
X158769000Y-213344404D01*
X158904580Y-213350207D01*
X159017562Y-213358441D01*
X159108314Y-213369139D01*
X159170204Y-213380646D01*
X159196181Y-213386712D01*
X163391184Y-213386712D01*
X163446891Y-213248805D01*
X163547690Y-213055909D01*
X163667883Y-212872649D01*
X163807206Y-212700667D01*
X163853036Y-212651160D01*
X164019079Y-212491750D01*
X164192966Y-212353609D01*
X164376302Y-212235771D01*
X164570693Y-212137271D01*
X164777744Y-212057147D01*
X164907365Y-212017861D01*
X165106241Y-211974306D01*
X165314109Y-211949478D01*
X165526416Y-211943403D01*
X165738611Y-211956108D01*
X165946142Y-211987618D01*
X166050487Y-212011387D01*
X166264708Y-212077924D01*
X166470154Y-212165285D01*
X166665426Y-212272414D01*
X166849125Y-212398254D01*
X167019852Y-212541749D01*
X167176209Y-212701842D01*
X167316796Y-212877477D01*
X167433356Y-213055863D01*
X167536307Y-213253119D01*
X167618213Y-213458086D01*
X167679098Y-213669021D01*
X167718981Y-213884176D01*
X167737886Y-214101808D01*
X167735834Y-214320172D01*
X167712846Y-214537521D01*
X167668944Y-214752112D01*
X167604150Y-214962199D01*
X167518485Y-215166036D01*
X167411972Y-215361880D01*
X167404561Y-215373915D01*
X167325119Y-215491373D01*
X167232470Y-215610408D01*
X167131065Y-215726160D01*
X167025354Y-215833768D01*
X166919787Y-215928371D01*
X166840733Y-215989772D01*
X166793660Y-216023839D01*
X166747831Y-216057479D01*
X166710246Y-216085532D01*
X166696501Y-216096032D01*
X166668179Y-216116555D01*
X166625842Y-216145475D01*
X166575103Y-216179030D01*
X166521575Y-216213454D01*
X166518914Y-216215138D01*
X166460821Y-216252871D01*
X166420241Y-216282568D01*
X166394535Y-216307468D01*
X166381066Y-216330808D01*
X166377194Y-216355827D01*
X166380212Y-216385352D01*
X166385440Y-216400978D01*
X166398954Y-216436336D01*
X166420182Y-216490052D01*
X166448554Y-216560753D01*
X166483500Y-216647065D01*
X166524447Y-216747615D01*
X166570827Y-216861031D01*
X166622067Y-216985938D01*
X166677598Y-217120963D01*
X166736847Y-217264734D01*
X166799246Y-217415877D01*
X166864222Y-217573018D01*
X166931205Y-217734784D01*
X166999624Y-217899803D01*
X167068909Y-218066700D01*
X167138489Y-218234103D01*
X167207793Y-218400638D01*
X167276250Y-218564932D01*
X167343289Y-218725612D01*
X167408341Y-218881304D01*
X167470833Y-219030636D01*
X167530195Y-219172233D01*
X167585857Y-219304722D01*
X167637247Y-219426731D01*
X167683796Y-219536886D01*
X167724931Y-219633814D01*
X167760083Y-219716142D01*
X167788680Y-219782495D01*
X167810153Y-219831501D01*
X167823929Y-219861787D01*
X167829309Y-219871932D01*
X167856134Y-219883752D01*
X167874775Y-219886363D01*
X167890845Y-219881057D01*
X167924723Y-219865964D01*
X167973928Y-219842320D01*
X168035980Y-219811362D01*
X168108395Y-219774327D01*
X168188695Y-219732451D01*
X168268565Y-219690091D01*
X168370751Y-219635662D01*
X168454852Y-219591503D01*
X168523027Y-219556769D01*
X168577431Y-219530617D01*
X168620223Y-219512205D01*
X168653558Y-219500687D01*
X168679594Y-219495222D01*
X168700489Y-219494965D01*
X168718398Y-219499074D01*
X168735480Y-219506704D01*
X168736372Y-219507174D01*
X168749592Y-219515642D01*
X168780377Y-219536199D01*
X168827269Y-219567849D01*
X168888808Y-219609597D01*
X168963532Y-219660448D01*
X169049983Y-219719407D01*
X169146701Y-219785479D01*
X169252224Y-219857667D01*
X169365094Y-219934978D01*
X169483851Y-220016415D01*
X169549329Y-220061356D01*
X169690636Y-220158331D01*
X169814214Y-220243021D01*
X169921343Y-220316253D01*
X170013302Y-220378852D01*
X170091370Y-220431646D01*
X170156825Y-220475461D01*
X170210946Y-220511124D01*
X170255013Y-220539461D01*
X170290304Y-220561299D01*
X170318098Y-220577464D01*
X170339675Y-220588783D01*
X170356313Y-220596082D01*
X170369291Y-220600188D01*
X170379888Y-220601928D01*
X170386160Y-220602182D01*
X170435252Y-220602182D01*
X171160725Y-219877704D01*
X171268611Y-219769803D01*
X171306169Y-219732125D01*
X170937909Y-219732125D01*
X170927865Y-219742891D01*
X170901126Y-219758865D01*
X170862783Y-219777597D01*
X170817923Y-219796637D01*
X170771637Y-219813534D01*
X170762990Y-219816335D01*
X170681363Y-219836390D01*
X170583897Y-219851119D01*
X170477296Y-219860197D01*
X170368262Y-219863302D01*
X170263499Y-219860111D01*
X170169711Y-219850301D01*
X170145174Y-219846106D01*
X170036841Y-219816341D01*
X169941773Y-219771365D01*
X169861938Y-219712606D01*
X169799304Y-219641491D01*
X169758177Y-219565419D01*
X169746297Y-219532270D01*
X169738514Y-219499387D01*
X169734012Y-219460507D01*
X169731976Y-219409366D01*
X169731579Y-219361045D01*
X169731852Y-219301124D01*
X169733547Y-219258045D01*
X169737718Y-219225560D01*
X169745420Y-219197423D01*
X169757707Y-219167389D01*
X169767997Y-219145269D01*
X169799098Y-219089499D01*
X169837907Y-219039491D01*
X169886819Y-218993605D01*
X169948229Y-218950198D01*
X170024532Y-218907630D01*
X170118122Y-218864261D01*
X170231395Y-218818449D01*
X170261819Y-218806892D01*
X170349745Y-218771696D01*
X170417052Y-218739277D01*
X170465756Y-218707833D01*
X170497871Y-218675558D01*
X170515409Y-218640648D01*
X170520387Y-218601299D01*
X170518482Y-218576980D01*
X170504629Y-218531759D01*
X170475790Y-218497690D01*
X170430526Y-218474169D01*
X170367396Y-218460594D01*
X170284960Y-218456360D01*
X170233636Y-218457665D01*
X170166103Y-218462255D01*
X170112913Y-218470003D01*
X170065374Y-218482501D01*
X170031591Y-218494619D01*
X169983427Y-218513258D01*
X169949406Y-218523617D01*
X169925424Y-218523391D01*
X169907376Y-218510273D01*
X169891158Y-218481955D01*
X169872666Y-218436131D01*
X169857912Y-218397000D01*
X169838518Y-218344862D01*
X169822498Y-218300141D01*
X169811478Y-218267491D01*
X169807083Y-218251569D01*
X169807069Y-218251372D01*
X169816881Y-218239905D01*
X169843961Y-218223597D01*
X169883582Y-218204638D01*
X169931020Y-218185218D01*
X169981547Y-218167528D01*
X170000435Y-218161756D01*
X170086957Y-218142332D01*
X170185660Y-218129579D01*
X170286476Y-218124289D01*
X170379337Y-218127253D01*
X170404886Y-218129966D01*
X170522234Y-218151740D01*
X170622162Y-218185452D01*
X170707844Y-218232596D01*
X170782453Y-218294664D01*
X170804544Y-218317962D01*
X170849589Y-218376080D01*
X170880522Y-218436881D01*
X170899221Y-218505966D01*
X170907563Y-218588937D01*
X170908424Y-218627909D01*
X170908080Y-218685290D01*
X170905615Y-218726581D01*
X170899885Y-218758763D01*
X170889749Y-218788817D01*
X170877613Y-218816203D01*
X170844341Y-218875374D01*
X170801853Y-218928136D01*
X170747668Y-218976244D01*
X170679308Y-219021458D01*
X170594292Y-219065533D01*
X170490140Y-219110227D01*
X170429909Y-219133431D01*
X170335558Y-219170503D01*
X170261550Y-219204040D01*
X170205699Y-219235588D01*
X170165823Y-219266692D01*
X170139737Y-219298898D01*
X170125259Y-219333752D01*
X170121840Y-219351511D01*
X170124064Y-219411294D01*
X170147075Y-219461869D01*
X170189765Y-219501053D01*
X170201013Y-219507569D01*
X170223018Y-219518300D01*
X170245019Y-219525677D01*
X170271839Y-219530293D01*
X170308302Y-219532741D01*
X170359233Y-219533613D01*
X170412591Y-219533580D01*
X170478346Y-219533019D01*
X170527427Y-219531306D01*
X170566252Y-219527486D01*
X170601237Y-219520604D01*
X170638799Y-219509704D01*
X170685354Y-219493829D01*
X170689681Y-219492308D01*
X170739207Y-219474725D01*
X170781676Y-219459359D01*
X170811661Y-219448190D01*
X170822454Y-219443867D01*
X170831323Y-219444965D01*
X170841619Y-219457858D01*
X170854703Y-219485291D01*
X170871935Y-219530012D01*
X170888841Y-219577819D01*
X170907249Y-219631924D01*
X170922509Y-219678530D01*
X170933180Y-219713106D01*
X170937822Y-219731123D01*
X170937909Y-219732125D01*
X171306169Y-219732125D01*
X171372015Y-219666070D01*
X171469737Y-219567726D01*
X171560575Y-219475994D01*
X171643329Y-219392097D01*
X171716801Y-219317257D01*
X171779788Y-219252696D01*
X171831091Y-219199637D01*
X171869510Y-219159301D01*
X171893845Y-219132911D01*
X171902735Y-219122050D01*
X171915012Y-219089691D01*
X171919272Y-219063100D01*
X171912675Y-219048182D01*
X171893098Y-219014874D01*
X171860864Y-218963664D01*
X171816296Y-218895035D01*
X171759714Y-218809475D01*
X171691443Y-218707468D01*
X171611804Y-218589501D01*
X171521121Y-218456059D01*
X171419714Y-218307627D01*
X171357459Y-218216822D01*
X171258134Y-218072045D01*
X171171119Y-217945014D01*
X171095601Y-217834478D01*
X171030765Y-217739185D01*
X170975799Y-217657882D01*
X170929889Y-217589319D01*
X170892220Y-217532243D01*
X170861981Y-217485402D01*
X170838356Y-217447543D01*
X170820533Y-217417416D01*
X170807698Y-217393767D01*
X170799037Y-217375345D01*
X170793736Y-217360898D01*
X170790983Y-217349174D01*
X170790319Y-217344069D01*
X170789832Y-217332430D01*
X170790915Y-217318594D01*
X170794135Y-217301023D01*
X170800058Y-217278182D01*
X170809248Y-217248531D01*
X170822272Y-217210534D01*
X170839694Y-217162655D01*
X170862081Y-217103355D01*
X170889997Y-217031098D01*
X170924008Y-216944347D01*
X170964680Y-216841564D01*
X171012578Y-216721213D01*
X171068267Y-216581755D01*
X171099286Y-216504193D01*
X171160785Y-216350698D01*
X171214442Y-216217330D01*
X171260843Y-216102720D01*
X171300572Y-216005499D01*
X171334216Y-215924296D01*
X171362359Y-215857740D01*
X171385587Y-215804463D01*
X171404485Y-215763094D01*
X171419639Y-215732263D01*
X171431633Y-215710599D01*
X171441054Y-215696734D01*
X171446946Y-215690489D01*
X171452537Y-215685360D01*
X171456986Y-215680936D01*
X171461702Y-215676926D01*
X171468092Y-215673037D01*
X171477565Y-215668978D01*
X171491531Y-215664455D01*
X171511397Y-215659176D01*
X171538573Y-215652849D01*
X171574466Y-215645182D01*
X171620486Y-215635882D01*
X171678041Y-215624656D01*
X171748539Y-215611213D01*
X171833389Y-215595260D01*
X171934001Y-215576504D01*
X172051781Y-215554654D01*
X172188140Y-215529416D01*
X172344485Y-215500498D01*
X172508091Y-215470226D01*
X172650125Y-215443920D01*
X172785992Y-215418731D01*
X172913920Y-215394989D01*
X173032141Y-215373022D01*
X173138886Y-215353162D01*
X173232385Y-215335736D01*
X173310868Y-215321076D01*
X173372567Y-215309510D01*
X173415713Y-215301367D01*
X173438535Y-215296978D01*
X173441380Y-215296393D01*
X173468541Y-215283973D01*
X173496106Y-215262579D01*
X173496221Y-215262464D01*
X173524091Y-215234595D01*
X173524091Y-214578525D01*
X173117955Y-214578525D01*
X173117871Y-214688272D01*
X173117633Y-214785744D01*
X173117245Y-214869055D01*
X173116714Y-214936320D01*
X173116046Y-214985654D01*
X173115246Y-215015170D01*
X173114578Y-215023135D01*
X173106720Y-215028917D01*
X173086536Y-215032793D01*
X173051329Y-215034930D01*
X172998400Y-215035493D01*
X172926863Y-215034680D01*
X172744772Y-215031500D01*
X172741681Y-214751522D01*
X172738589Y-214471545D01*
X172608908Y-214471501D01*
X172467232Y-214465150D01*
X172336311Y-214446647D01*
X172218275Y-214416670D01*
X172115255Y-214375899D01*
X172029382Y-214325012D01*
X171964072Y-214266161D01*
X171913465Y-214192739D01*
X171876188Y-214105189D01*
X171854792Y-214009804D01*
X171852761Y-213991622D01*
X171848531Y-213865219D01*
X171861377Y-213754083D01*
X171891886Y-213657371D01*
X171940644Y-213574240D01*
X172008236Y-213503847D01*
X172095249Y-213445348D01*
X172202267Y-213397901D01*
X172282954Y-213372555D01*
X172314510Y-213364454D01*
X172344680Y-213358301D01*
X172377243Y-213353844D01*
X172415978Y-213350834D01*
X172464664Y-213349021D01*
X172527078Y-213348153D01*
X172606999Y-213347981D01*
X172652409Y-213348071D01*
X172769409Y-213349278D01*
X172868898Y-213352163D01*
X172949195Y-213356648D01*
X173008619Y-213362659D01*
X173021863Y-213364704D01*
X173114227Y-213380576D01*
X173117215Y-214194492D01*
X173117633Y-214329750D01*
X173117877Y-214458389D01*
X173117955Y-214578525D01*
X173524091Y-214578525D01*
X173524091Y-213123876D01*
X173495367Y-213095153D01*
X173477260Y-213080980D01*
X173451610Y-213069187D01*
X173413799Y-213058237D01*
X173359210Y-213046593D01*
X173336617Y-213042316D01*
X173197457Y-213016498D01*
X173038118Y-212986916D01*
X172861123Y-212954039D01*
X172668991Y-212918335D01*
X172464244Y-212880272D01*
X172249405Y-212840319D01*
X172026993Y-212798945D01*
X172018545Y-212797373D01*
X171906355Y-212776286D01*
X171800270Y-212755934D01*
X171702619Y-212736793D01*
X171615728Y-212719339D01*
X171541924Y-212704047D01*
X171483536Y-212691391D01*
X171442889Y-212681848D01*
X171422312Y-212675893D01*
X171421177Y-212675378D01*
X171391365Y-212654177D01*
X171370663Y-212631360D01*
X171363202Y-212616375D01*
X171347462Y-212581960D01*
X171324231Y-212529921D01*
X171294300Y-212462062D01*
X171258457Y-212380190D01*
X171217491Y-212286110D01*
X171172191Y-212181628D01*
X171123347Y-212068549D01*
X171071748Y-211948679D01*
X171041515Y-211878260D01*
X170976246Y-211725745D01*
X170919842Y-211593156D01*
X170871822Y-211479302D01*
X170831705Y-211382993D01*
X170799013Y-211303039D01*
X170773265Y-211238248D01*
X170753982Y-211187432D01*
X170740682Y-211149398D01*
X170732887Y-211122958D01*
X170730116Y-211106920D01*
X170730096Y-211105922D01*
X170729707Y-211098178D01*
X170729042Y-211091800D01*
X170728854Y-211085633D01*
X170729894Y-211078523D01*
X170732915Y-211069315D01*
X170738669Y-211056854D01*
X170747908Y-211039985D01*
X170761384Y-211017554D01*
X170779849Y-210988407D01*
X170804056Y-210951388D01*
X170834755Y-210905343D01*
X170872701Y-210849117D01*
X170918643Y-210781556D01*
X170973335Y-210701504D01*
X171037529Y-210607808D01*
X171111977Y-210499312D01*
X171197430Y-210374862D01*
X171294642Y-210233303D01*
X171369218Y-210124682D01*
X171451686Y-210004388D01*
X171530505Y-209889104D01*
X171604676Y-209780312D01*
X171673194Y-209679499D01*
X171735059Y-209588147D01*
X171789268Y-209507740D01*
X171834819Y-209439764D01*
X171870710Y-209385702D01*
X171895940Y-209347038D01*
X171909507Y-209325256D01*
X171911515Y-209321422D01*
X171917606Y-209288135D01*
X171915634Y-209263695D01*
X171906426Y-209251201D01*
X171881779Y-209223478D01*
X171842674Y-209181534D01*
X171790092Y-209126376D01*
X171725013Y-209059011D01*
X171648419Y-208980447D01*
X171561290Y-208891690D01*
X171464606Y-208793748D01*
X171359349Y-208687628D01*
X171347495Y-208675727D01*
X170845545Y-208675727D01*
X170845545Y-209505075D01*
X170845437Y-209641417D01*
X170845124Y-209770991D01*
X170844623Y-209891951D01*
X170843953Y-210002449D01*
X170843131Y-210100639D01*
X170842174Y-210184673D01*
X170841101Y-210252704D01*
X170839928Y-210302884D01*
X170838673Y-210333368D01*
X170837573Y-210342396D01*
X170823873Y-210344908D01*
X170791170Y-210346697D01*
X170743542Y-210347664D01*
X170685070Y-210347706D01*
X170644186Y-210347207D01*
X170458772Y-210344045D01*
X170452656Y-209657091D01*
X169794257Y-209657091D01*
X169797186Y-209512299D01*
X161412909Y-209512299D01*
X161412909Y-210324224D01*
X161386931Y-210330389D01*
X161359793Y-210335202D01*
X161315853Y-210341264D01*
X161261320Y-210347876D01*
X161202401Y-210354338D01*
X161145303Y-210359951D01*
X161096234Y-210364017D01*
X161078091Y-210365173D01*
X161004176Y-210368757D01*
X160944895Y-210370271D01*
X160891875Y-210369614D01*
X160836742Y-210366684D01*
X160771759Y-210361434D01*
X160612870Y-210338734D01*
X160470535Y-210300286D01*
X160344889Y-210246178D01*
X160236065Y-210176498D01*
X160144197Y-210091335D01*
X160069418Y-209990778D01*
X160011863Y-209874914D01*
X160003933Y-209854061D01*
X159971025Y-209737110D01*
X159952541Y-209610136D01*
X159948320Y-209478727D01*
X159958199Y-209348471D01*
X159982019Y-209224954D01*
X160019617Y-209113766D01*
X160025692Y-209100109D01*
X160087292Y-208991138D01*
X160165054Y-208897744D01*
X160259465Y-208819570D01*
X160371014Y-208756256D01*
X160500189Y-208707443D01*
X160593066Y-208683489D01*
X160636390Y-208674870D01*
X160678683Y-208668577D01*
X160724697Y-208664290D01*
X160779189Y-208661693D01*
X160846912Y-208660467D01*
X160932621Y-208660293D01*
X160939545Y-208660313D01*
X161050290Y-208661936D01*
X161152483Y-208665947D01*
X161242844Y-208672099D01*
X161318096Y-208680144D01*
X161374960Y-208689838D01*
X161392704Y-208694381D01*
X161396606Y-208696588D01*
X161399972Y-208701789D01*
X161402842Y-208711576D01*
X161405255Y-208727541D01*
X161407250Y-208751276D01*
X161408868Y-208784373D01*
X161410146Y-208828424D01*
X161411124Y-208885022D01*
X161411843Y-208955757D01*
X161412340Y-209042223D01*
X161412656Y-209146011D01*
X161412829Y-209268713D01*
X161412900Y-209411921D01*
X161412909Y-209512299D01*
X169797186Y-209512299D01*
X169800681Y-209339591D01*
X170126841Y-209336524D01*
X170453000Y-209333458D01*
X170453000Y-208999000D01*
X169714091Y-208999000D01*
X169714091Y-208675727D01*
X170845545Y-208675727D01*
X171347495Y-208675727D01*
X171246500Y-208574337D01*
X171164753Y-208492546D01*
X170421035Y-207749410D01*
X170376404Y-207754115D01*
X170365504Y-207756995D01*
X170348906Y-207764342D01*
X170325505Y-207776887D01*
X170294193Y-207795358D01*
X170253865Y-207820482D01*
X170203413Y-207852989D01*
X170141732Y-207893607D01*
X170067715Y-207943064D01*
X169980255Y-208002089D01*
X169878247Y-208071410D01*
X169760583Y-208151755D01*
X169626158Y-208243854D01*
X169477409Y-208345998D01*
X169350777Y-208432919D01*
X169228997Y-208516299D01*
X169113488Y-208595176D01*
X169005672Y-208668591D01*
X168906970Y-208735583D01*
X168818801Y-208795190D01*
X168742588Y-208846453D01*
X168679751Y-208888411D01*
X168631710Y-208920103D01*
X168599886Y-208940569D01*
X168585893Y-208948770D01*
X168552814Y-208959657D01*
X168524376Y-208964359D01*
X168523760Y-208964363D01*
X168510038Y-208960130D01*
X168477118Y-208948011D01*
X168427167Y-208928881D01*
X168362353Y-208903613D01*
X168284842Y-208873081D01*
X168196802Y-208838159D01*
X168100400Y-208799720D01*
X167997803Y-208758638D01*
X167891178Y-208715786D01*
X167782693Y-208672038D01*
X167674515Y-208628268D01*
X167568812Y-208585349D01*
X167467749Y-208544155D01*
X167373495Y-208505559D01*
X167288217Y-208470436D01*
X167214082Y-208439659D01*
X167153257Y-208414101D01*
X167107910Y-208394636D01*
X167084833Y-208384318D01*
X167049253Y-208362059D01*
X167019800Y-208334015D01*
X167013540Y-208325309D01*
X167007993Y-208308423D01*
X167007466Y-208306272D01*
X166448460Y-208306272D01*
X166263086Y-208306272D01*
X166193910Y-208306173D01*
X166144401Y-208305564D01*
X166111135Y-208303980D01*
X166090690Y-208300953D01*
X166079642Y-208296017D01*
X166074566Y-208288706D01*
X166072395Y-208280295D01*
X166070475Y-208261252D01*
X166068168Y-208222994D01*
X166065650Y-208169393D01*
X166063100Y-208104319D01*
X166060693Y-208031641D01*
X166060110Y-208011863D01*
X166056210Y-207892427D01*
X166051352Y-207769599D01*
X166045777Y-207648189D01*
X166039732Y-207533002D01*
X166033459Y-207428848D01*
X166027204Y-207340533D01*
X166024115Y-207303312D01*
X166016571Y-207218215D01*
X165829259Y-207655448D01*
X165641946Y-208092682D01*
X165377302Y-208099150D01*
X165187537Y-207657188D01*
X164997772Y-207215227D01*
X164990332Y-207320903D01*
X164985950Y-207388160D01*
X164980924Y-207473682D01*
X164975498Y-207572663D01*
X164969914Y-207680295D01*
X164964415Y-207791769D01*
X164959243Y-207902278D01*
X164954642Y-208007015D01*
X164950854Y-208101171D01*
X164950630Y-208107113D01*
X164943173Y-208306272D01*
X164572813Y-208306272D01*
X164580581Y-208130204D01*
X164586290Y-208012826D01*
X164593424Y-207885585D01*
X164601749Y-207751449D01*
X164611030Y-207613386D01*
X164621032Y-207474363D01*
X164631519Y-207337347D01*
X164642259Y-207205306D01*
X164653015Y-207081207D01*
X164663553Y-206968017D01*
X164673638Y-206868705D01*
X164683035Y-206786237D01*
X164691510Y-206723580D01*
X164692258Y-206718772D01*
X164698076Y-206680655D01*
X164702075Y-206652080D01*
X164703276Y-206640841D01*
X164714185Y-206637819D01*
X164744179Y-206635257D01*
X164789253Y-206633355D01*
X164845403Y-206632315D01*
X164875558Y-206632182D01*
X165047753Y-206632182D01*
X165075124Y-206681250D01*
X165097885Y-206724399D01*
X165128090Y-206785183D01*
X165164079Y-206860018D01*
X165204188Y-206945320D01*
X165246755Y-207037505D01*
X165290119Y-207132989D01*
X165332618Y-207228188D01*
X165372588Y-207319518D01*
X165391029Y-207362432D01*
X165420666Y-207431269D01*
X165447484Y-207492373D01*
X165470122Y-207542743D01*
X165487221Y-207579376D01*
X165497420Y-207599268D01*
X165499533Y-207602000D01*
X165505687Y-207591868D01*
X165519477Y-207563470D01*
X165539539Y-207519806D01*
X165564506Y-207463874D01*
X165593012Y-207398673D01*
X165608639Y-207362432D01*
X165651373Y-207263882D01*
X165695604Y-207163721D01*
X165739929Y-207064982D01*
X165782947Y-206970700D01*
X165823255Y-206883909D01*
X165859448Y-206807641D01*
X165890126Y-206744931D01*
X165913884Y-206698814D01*
X165923206Y-206682111D01*
X165952803Y-206631608D01*
X166133378Y-206634781D01*
X166313954Y-206637954D01*
X166333646Y-206793818D01*
X166344289Y-206885443D01*
X166355611Y-206996308D01*
X166367292Y-207122585D01*
X166379018Y-207260443D01*
X166390469Y-207406054D01*
X166401330Y-207555588D01*
X166411283Y-207705216D01*
X166417310Y-207804045D01*
X166422472Y-207891555D01*
X166427596Y-207977371D01*
X166432407Y-208056953D01*
X166436628Y-208125760D01*
X166439985Y-208179251D01*
X166441679Y-208205250D01*
X166448460Y-208306272D01*
X167007466Y-208306272D01*
X166998606Y-208270115D01*
X166985633Y-208211687D01*
X166969325Y-208134444D01*
X166949936Y-208039687D01*
X166927716Y-207928721D01*
X166902918Y-207802848D01*
X166875795Y-207663371D01*
X166846599Y-207511595D01*
X166815582Y-207348821D01*
X166782996Y-207176353D01*
X166749094Y-206995494D01*
X166714127Y-206807548D01*
X166678349Y-206613817D01*
X166642011Y-206415605D01*
X166612446Y-206253243D01*
X166599887Y-206217699D01*
X166578793Y-206183231D01*
X166577034Y-206181084D01*
X166548583Y-206147272D01*
X164439105Y-206147272D01*
X164408931Y-206173250D01*
X164408931Y-206173250D01*
G37*
X164408931Y-206173250D02*
X164403664Y-206178428D01*
X164398556Y-206185518D01*
X164393315Y-206195916D01*
X164387647Y-206211016D01*
X164381260Y-206232213D01*
X164373861Y-206260902D01*
X164365157Y-206298477D01*
X164354856Y-206346334D01*
X164342663Y-206405868D01*
X164328287Y-206478474D01*
X164311435Y-206565545D01*
X164291813Y-206668478D01*
X164269129Y-206788667D01*
X164243091Y-206927508D01*
X164213404Y-207086394D01*
X164183113Y-207248823D01*
X164149418Y-207429362D01*
X164119598Y-207588557D01*
X164093373Y-207727774D01*
X164070460Y-207848384D01*
X164050579Y-207951754D01*
X164033448Y-208039254D01*
X164018785Y-208112250D01*
X164006309Y-208172113D01*
X163995739Y-208220210D01*
X163986793Y-208257911D01*
X163979190Y-208286583D01*
X163972648Y-208307595D01*
X163966887Y-208322316D01*
X163961623Y-208332115D01*
X163959824Y-208334665D01*
X163952078Y-208342890D01*
X163939862Y-208352225D01*
X163921631Y-208363355D01*
X163895841Y-208376964D01*
X163860949Y-208393735D01*
X163815412Y-208414355D01*
X163757685Y-208439507D01*
X163686224Y-208469877D01*
X163599486Y-208506148D01*
X163495928Y-208549004D01*
X163374005Y-208599132D01*
X163235384Y-208655901D01*
X163114248Y-208705409D01*
X162998646Y-208752581D01*
X162890479Y-208796649D01*
X162791649Y-208836839D01*
X162704057Y-208872381D01*
X162629604Y-208902504D01*
X162570191Y-208926437D01*
X162527721Y-208943408D01*
X162504094Y-208952645D01*
X162500778Y-208953858D01*
X162461714Y-208960953D01*
X162424246Y-208959561D01*
X162407320Y-208951548D01*
X162371973Y-208930554D01*
X162318669Y-208896886D01*
X162247871Y-208850851D01*
X162160040Y-208792757D01*
X162055640Y-208722912D01*
X161935134Y-208641623D01*
X161798983Y-208549199D01*
X161647652Y-208445947D01*
X161510776Y-208352194D01*
X161359525Y-208248495D01*
X161226105Y-208157182D01*
X161109361Y-208077497D01*
X161008140Y-208008685D01*
X160921284Y-207949989D01*
X160847641Y-207900652D01*
X160786055Y-207859917D01*
X160735370Y-207827029D01*
X160694433Y-207801231D01*
X160662087Y-207781766D01*
X160637179Y-207767877D01*
X160618553Y-207758809D01*
X160605054Y-207753805D01*
X160595527Y-207752108D01*
X160594612Y-207752091D01*
X160586856Y-207752702D01*
X160578084Y-207755198D01*
X160567242Y-207760573D01*
X160553281Y-207769820D01*
X160535148Y-207783933D01*
X160511793Y-207803906D01*
X160482163Y-207830732D01*
X160445208Y-207865406D01*
X160399876Y-207908921D01*
X160345115Y-207962270D01*
X160279874Y-208026448D01*
X160203102Y-208102448D01*
X160113747Y-208191264D01*
X160010758Y-208293890D01*
X159893083Y-208411319D01*
X159821955Y-208482341D01*
X159713604Y-208590715D01*
X159609716Y-208694958D01*
X159511488Y-208793849D01*
X159420118Y-208886166D01*
X159336803Y-208970690D01*
X159262740Y-209046200D01*
X159199127Y-209111474D01*
X159147162Y-209165293D01*
X159108041Y-209206436D01*
X159082963Y-209233682D01*
X159073235Y-209245584D01*
X159062132Y-209281167D01*
X159062951Y-209307240D01*
X159070436Y-209320848D01*
X159090079Y-209352052D01*
X159120931Y-209399440D01*
X159162044Y-209461599D01*
X159212467Y-209537115D01*
X159271251Y-209624577D01*
X159337446Y-209722570D01*
X159410104Y-209829682D01*
X159488275Y-209944501D01*
X159571009Y-210065612D01*
X159648776Y-210179101D01*
X159735060Y-210305080D01*
X159817790Y-210426343D01*
X159895997Y-210541445D01*
X159968716Y-210648940D01*
X160034976Y-210747382D01*
X160093812Y-210835325D01*
X160144255Y-210911323D01*
X160185338Y-210973930D01*
X160216092Y-211021700D01*
X160235550Y-211053188D01*
X160242564Y-211066291D01*
X160251299Y-211100530D01*
X160249704Y-211131816D01*
X160242156Y-211160119D01*
X160233644Y-211183353D01*
X160217143Y-211224685D01*
X160193571Y-211281988D01*
X160163848Y-211353134D01*
X160128892Y-211435997D01*
X160089625Y-211528451D01*
X160046964Y-211628369D01*
X160001830Y-211733625D01*
X159955142Y-211842091D01*
X159907819Y-211951641D01*
X159860781Y-212060149D01*
X159814947Y-212165487D01*
X159771237Y-212265530D01*
X159730571Y-212358151D01*
X159693867Y-212441223D01*
X159662045Y-212512619D01*
X159636024Y-212570213D01*
X159616725Y-212611878D01*
X159605066Y-212635488D01*
X159602375Y-212639873D01*
X159576928Y-212661730D01*
X159553134Y-212676722D01*
X159537518Y-212681105D01*
X159500881Y-212689337D01*
X159444908Y-212701087D01*
X159371289Y-212716025D01*
X159281710Y-212733820D01*
X159177858Y-212754141D01*
X159061422Y-212776659D01*
X158934088Y-212801042D01*
X158797544Y-212826960D01*
X158653478Y-212854083D01*
X158525903Y-212877924D01*
X158364092Y-212908203D01*
X158211875Y-212936968D01*
X158070639Y-212963942D01*
X157941773Y-212988852D01*
X157826665Y-213011420D01*
X157726704Y-213031372D01*
X157643277Y-213048432D01*
X157577774Y-213062324D01*
X157531581Y-213072773D01*
X157506088Y-213079502D01*
X157501713Y-213081261D01*
X157476910Y-213105521D01*
X157463848Y-213127855D01*
X157461832Y-213144589D01*
X157460015Y-213182310D01*
X157458397Y-213238992D01*
X157456975Y-213312611D01*
X157455749Y-213401143D01*
X157454718Y-213502564D01*
X157453879Y-213614848D01*
X157453233Y-213735973D01*
X157452776Y-213863912D01*
X157452509Y-213996642D01*
X157452430Y-214132138D01*
X157452538Y-214268376D01*
X157452831Y-214403332D01*
X157453308Y-214534980D01*
X157453968Y-214661297D01*
X157454809Y-214780258D01*
X157455831Y-214889839D01*
X157457031Y-214988015D01*
X157458409Y-215072762D01*
X157459964Y-215142055D01*
X157461693Y-215193870D01*
X157463597Y-215226183D01*
X157465185Y-215236511D01*
X157468269Y-215244457D01*
X157470602Y-215251462D01*
X157473433Y-215257804D01*
X157478012Y-215263758D01*
X157485590Y-215269604D01*
X157497416Y-215275616D01*
X157514741Y-215282074D01*
X157538816Y-215289255D01*
X157570890Y-215297435D01*
X157612213Y-215306891D01*
X157664035Y-215317902D01*
X157727608Y-215330744D01*
X157804180Y-215345695D01*
X157895002Y-215363031D01*
X158001325Y-215383030D01*
X158124398Y-215405970D01*
X158265472Y-215432128D01*
X158425797Y-215461780D01*
X158606622Y-215495204D01*
X158757454Y-215523101D01*
X158881304Y-215546095D01*
X158999147Y-215568121D01*
X159108892Y-215588779D01*
X159208445Y-215607667D01*
X159295716Y-215624385D01*
X159368611Y-215638533D01*
X159425039Y-215649708D01*
X159462907Y-215657512D01*
X159480027Y-215661512D01*
X159512895Y-215678180D01*
X159543606Y-215703037D01*
X159544785Y-215704289D01*
X159553165Y-215719320D01*
X159569144Y-215753730D01*
X159591882Y-215805442D01*
X159620538Y-215872381D01*
X159654274Y-215952469D01*
X159692251Y-216043630D01*
X159733628Y-216143787D01*
X159777566Y-216250862D01*
X159823227Y-216362780D01*
X159869770Y-216477464D01*
X159916356Y-216592837D01*
X159962146Y-216706821D01*
X160006301Y-216817341D01*
X160047980Y-216922319D01*
X160086344Y-217019680D01*
X160120555Y-217107345D01*
X160149773Y-217183238D01*
X160173157Y-217245284D01*
X160189870Y-217291404D01*
X160199070Y-217319522D01*
X160200636Y-217326890D01*
X160196292Y-217351219D01*
X160185766Y-217382548D01*
X160185058Y-217384257D01*
X160176214Y-217399377D01*
X160155272Y-217432009D01*
X160123244Y-217480655D01*
X160081139Y-217543817D01*
X160029969Y-217619997D01*
X159970742Y-217707696D01*
X159904471Y-217805417D01*
X159832165Y-217911662D01*
X159754834Y-218024931D01*
X159673489Y-218143728D01*
X159635654Y-218198867D01*
X159552679Y-218319778D01*
X159473094Y-218435876D01*
X159397927Y-218545657D01*
X159328204Y-218647615D01*
X159264951Y-218740246D01*
X159209194Y-218822045D01*
X159161960Y-218891506D01*
X159124275Y-218947126D01*
X159097165Y-218987400D01*
X159081656Y-219010822D01*
X159078754Y-219015432D01*
X159061926Y-219059264D01*
X159062804Y-219086971D01*
X159072047Y-219100372D01*
X159096386Y-219128491D01*
X159134400Y-219169908D01*
X159184672Y-219223205D01*
X159245782Y-219286963D01*
X159316311Y-219359763D01*
X159394841Y-219440186D01*
X159479952Y-219526813D01*
X159570226Y-219618225D01*
X159664244Y-219713003D01*
X159760586Y-219809729D01*
X159857835Y-219906983D01*
X159954571Y-220003346D01*
X160049375Y-220097400D01*
X160140829Y-220187726D01*
X160227513Y-220272904D01*
X160308009Y-220351516D01*
X160380897Y-220422143D01*
X160444759Y-220483365D01*
X160498176Y-220533764D01*
X160539730Y-220571922D01*
X160568000Y-220596418D01*
X160581569Y-220605835D01*
X160581636Y-220605851D01*
X160614239Y-220605801D01*
X160640433Y-220598493D01*
X160654436Y-220589948D01*
X160685962Y-220569309D01*
X160733523Y-220537586D01*
X160795629Y-220495789D01*
X160870791Y-220444928D01*
X160957521Y-220386015D01*
X161054330Y-220320058D01*
X161159729Y-220248069D01*
X161272229Y-220171058D01*
X161390341Y-220090035D01*
X161439817Y-220056046D01*
X161559862Y-219973607D01*
X161674944Y-219894702D01*
X161783567Y-219820347D01*
X161884238Y-219751560D01*
X161975462Y-219689357D01*
X162055744Y-219634757D01*
X162123592Y-219588776D01*
X162177509Y-219552431D01*
X162216003Y-219526739D01*
X162237578Y-219512718D01*
X162241157Y-219510594D01*
X162276735Y-219498124D01*
X162307684Y-219493889D01*
X162329187Y-219499649D01*
X162370302Y-219516868D01*
X162430693Y-219545380D01*
X162510018Y-219585021D01*
X162607940Y-219635626D01*
X162711094Y-219690091D01*
X162801705Y-219737872D01*
X162884922Y-219780887D01*
X162958507Y-219818038D01*
X163020224Y-219848225D01*
X163067837Y-219870350D01*
X163099111Y-219883314D01*
X163110507Y-219886363D01*
X163140327Y-219879031D01*
X163158365Y-219866159D01*
X163165543Y-219852285D01*
X163180844Y-219818455D01*
X163203700Y-219766047D01*
X163233543Y-219696441D01*
X163269804Y-219611017D01*
X163311915Y-219511155D01*
X163359307Y-219398233D01*
X163411413Y-219273631D01*
X163467665Y-219138729D01*
X163527493Y-218994907D01*
X163590329Y-218843544D01*
X163655606Y-218686020D01*
X163722755Y-218523713D01*
X163791208Y-218358004D01*
X163860396Y-218190273D01*
X163929751Y-218021898D01*
X163998706Y-217854259D01*
X164066690Y-217688737D01*
X164133137Y-217526710D01*
X164197478Y-217369557D01*
X164259145Y-217218660D01*
X164317569Y-217075396D01*
X164372183Y-216941146D01*
X164422417Y-216817289D01*
X164467704Y-216705205D01*
X164507475Y-216606273D01*
X164541163Y-216521873D01*
X164568198Y-216453385D01*
X164588012Y-216402187D01*
X164600038Y-216369660D01*
X164603734Y-216357419D01*
X164602394Y-216335208D01*
X164595907Y-216316312D01*
X164581263Y-216297731D01*
X164555453Y-216276465D01*
X164515470Y-216249512D01*
X164462165Y-216216245D01*
X164411573Y-216184435D01*
X164363371Y-216152867D01*
X164323948Y-216125791D01*
X164304402Y-216111319D01*
X164276924Y-216090167D01*
X164236368Y-216059626D01*
X164188333Y-216023889D01*
X164141377Y-215989310D01*
X163973072Y-215851802D01*
X163818866Y-215696396D01*
X163679552Y-215524067D01*
X163555925Y-215335792D01*
X163455589Y-215146954D01*
X163370066Y-214941383D01*
X163306293Y-214730639D01*
X163264009Y-214516368D01*
X163242951Y-214300215D01*
X163242858Y-214083826D01*
X163263467Y-213868845D01*
X163304517Y-213656918D01*
X163365745Y-213449689D01*
X163391184Y-213386712D01*
X159196181Y-213386712D01*
X159196181Y-215000999D01*
X159131459Y-215014435D01*
X159074471Y-215025209D01*
X159018089Y-215033330D01*
X158958081Y-215039053D01*
X158890211Y-215042637D01*
X158810248Y-215044338D01*
X158713957Y-215044413D01*
X158647772Y-215043799D01*
X158558073Y-215042474D01*
X158487514Y-215040693D01*
X158432144Y-215038146D01*
X158388014Y-215034524D01*
X158351172Y-215029519D01*
X158317669Y-215022823D01*
X158289863Y-215015839D01*
X158175223Y-214976288D01*
X158077369Y-214924075D01*
X157997441Y-214860077D01*
X157936579Y-214785171D01*
X157902110Y-214717285D01*
X157884268Y-214651404D01*
X157875093Y-214573063D01*
X157874604Y-214490575D01*
X157882819Y-214412254D01*
X157899757Y-214346413D01*
X157901263Y-214342504D01*
X157941175Y-214270854D01*
X157999003Y-214207430D01*
X158069759Y-214157548D01*
X158079822Y-214152247D01*
X158136380Y-214123586D01*
X158090798Y-214090066D01*
X158030195Y-214032137D01*
X157986929Y-213962651D01*
X157960817Y-213885087D01*
X157951676Y-213802928D01*
X157959321Y-213719654D01*
X157983570Y-213638747D01*
X158024238Y-213563688D01*
X158081141Y-213497958D01*
X158123838Y-213463868D01*
X158196411Y-213421758D01*
X158279153Y-213389078D01*
X158374383Y-213365400D01*
X158484418Y-213350294D01*
X158611579Y-213343331D01*
X158758183Y-213344081D01*
X158769000Y-213344404D01*
X158904580Y-213350207D01*
X159017562Y-213358441D01*
X159108314Y-213369139D01*
X159170204Y-213380646D01*
X159196181Y-213386712D01*
X163391184Y-213386712D01*
X163446891Y-213248805D01*
X163547690Y-213055909D01*
X163667883Y-212872649D01*
X163807206Y-212700667D01*
X163853036Y-212651160D01*
X164019079Y-212491750D01*
X164192966Y-212353609D01*
X164376302Y-212235771D01*
X164570693Y-212137271D01*
X164777744Y-212057147D01*
X164907365Y-212017861D01*
X165106241Y-211974306D01*
X165314109Y-211949478D01*
X165526416Y-211943403D01*
X165738611Y-211956108D01*
X165946142Y-211987618D01*
X166050487Y-212011387D01*
X166264708Y-212077924D01*
X166470154Y-212165285D01*
X166665426Y-212272414D01*
X166849125Y-212398254D01*
X167019852Y-212541749D01*
X167176209Y-212701842D01*
X167316796Y-212877477D01*
X167433356Y-213055863D01*
X167536307Y-213253119D01*
X167618213Y-213458086D01*
X167679098Y-213669021D01*
X167718981Y-213884176D01*
X167737886Y-214101808D01*
X167735834Y-214320172D01*
X167712846Y-214537521D01*
X167668944Y-214752112D01*
X167604150Y-214962199D01*
X167518485Y-215166036D01*
X167411972Y-215361880D01*
X167404561Y-215373915D01*
X167325119Y-215491373D01*
X167232470Y-215610408D01*
X167131065Y-215726160D01*
X167025354Y-215833768D01*
X166919787Y-215928371D01*
X166840733Y-215989772D01*
X166793660Y-216023839D01*
X166747831Y-216057479D01*
X166710246Y-216085532D01*
X166696501Y-216096032D01*
X166668179Y-216116555D01*
X166625842Y-216145475D01*
X166575103Y-216179030D01*
X166521575Y-216213454D01*
X166518914Y-216215138D01*
X166460821Y-216252871D01*
X166420241Y-216282568D01*
X166394535Y-216307468D01*
X166381066Y-216330808D01*
X166377194Y-216355827D01*
X166380212Y-216385352D01*
X166385440Y-216400978D01*
X166398954Y-216436336D01*
X166420182Y-216490052D01*
X166448554Y-216560753D01*
X166483500Y-216647065D01*
X166524447Y-216747615D01*
X166570827Y-216861031D01*
X166622067Y-216985938D01*
X166677598Y-217120963D01*
X166736847Y-217264734D01*
X166799246Y-217415877D01*
X166864222Y-217573018D01*
X166931205Y-217734784D01*
X166999624Y-217899803D01*
X167068909Y-218066700D01*
X167138489Y-218234103D01*
X167207793Y-218400638D01*
X167276250Y-218564932D01*
X167343289Y-218725612D01*
X167408341Y-218881304D01*
X167470833Y-219030636D01*
X167530195Y-219172233D01*
X167585857Y-219304722D01*
X167637247Y-219426731D01*
X167683796Y-219536886D01*
X167724931Y-219633814D01*
X167760083Y-219716142D01*
X167788680Y-219782495D01*
X167810153Y-219831501D01*
X167823929Y-219861787D01*
X167829309Y-219871932D01*
X167856134Y-219883752D01*
X167874775Y-219886363D01*
X167890845Y-219881057D01*
X167924723Y-219865964D01*
X167973928Y-219842320D01*
X168035980Y-219811362D01*
X168108395Y-219774327D01*
X168188695Y-219732451D01*
X168268565Y-219690091D01*
X168370751Y-219635662D01*
X168454852Y-219591503D01*
X168523027Y-219556769D01*
X168577431Y-219530617D01*
X168620223Y-219512205D01*
X168653558Y-219500687D01*
X168679594Y-219495222D01*
X168700489Y-219494965D01*
X168718398Y-219499074D01*
X168735480Y-219506704D01*
X168736372Y-219507174D01*
X168749592Y-219515642D01*
X168780377Y-219536199D01*
X168827269Y-219567849D01*
X168888808Y-219609597D01*
X168963532Y-219660448D01*
X169049983Y-219719407D01*
X169146701Y-219785479D01*
X169252224Y-219857667D01*
X169365094Y-219934978D01*
X169483851Y-220016415D01*
X169549329Y-220061356D01*
X169690636Y-220158331D01*
X169814214Y-220243021D01*
X169921343Y-220316253D01*
X170013302Y-220378852D01*
X170091370Y-220431646D01*
X170156825Y-220475461D01*
X170210946Y-220511124D01*
X170255013Y-220539461D01*
X170290304Y-220561299D01*
X170318098Y-220577464D01*
X170339675Y-220588783D01*
X170356313Y-220596082D01*
X170369291Y-220600188D01*
X170379888Y-220601928D01*
X170386160Y-220602182D01*
X170435252Y-220602182D01*
X171160725Y-219877704D01*
X171268611Y-219769803D01*
X171306169Y-219732125D01*
X170937909Y-219732125D01*
X170927865Y-219742891D01*
X170901126Y-219758865D01*
X170862783Y-219777597D01*
X170817923Y-219796637D01*
X170771637Y-219813534D01*
X170762990Y-219816335D01*
X170681363Y-219836390D01*
X170583897Y-219851119D01*
X170477296Y-219860197D01*
X170368262Y-219863302D01*
X170263499Y-219860111D01*
X170169711Y-219850301D01*
X170145174Y-219846106D01*
X170036841Y-219816341D01*
X169941773Y-219771365D01*
X169861938Y-219712606D01*
X169799304Y-219641491D01*
X169758177Y-219565419D01*
X169746297Y-219532270D01*
X169738514Y-219499387D01*
X169734012Y-219460507D01*
X169731976Y-219409366D01*
X169731579Y-219361045D01*
X169731852Y-219301124D01*
X169733547Y-219258045D01*
X169737718Y-219225560D01*
X169745420Y-219197423D01*
X169757707Y-219167389D01*
X169767997Y-219145269D01*
X169799098Y-219089499D01*
X169837907Y-219039491D01*
X169886819Y-218993605D01*
X169948229Y-218950198D01*
X170024532Y-218907630D01*
X170118122Y-218864261D01*
X170231395Y-218818449D01*
X170261819Y-218806892D01*
X170349745Y-218771696D01*
X170417052Y-218739277D01*
X170465756Y-218707833D01*
X170497871Y-218675558D01*
X170515409Y-218640648D01*
X170520387Y-218601299D01*
X170518482Y-218576980D01*
X170504629Y-218531759D01*
X170475790Y-218497690D01*
X170430526Y-218474169D01*
X170367396Y-218460594D01*
X170284960Y-218456360D01*
X170233636Y-218457665D01*
X170166103Y-218462255D01*
X170112913Y-218470003D01*
X170065374Y-218482501D01*
X170031591Y-218494619D01*
X169983427Y-218513258D01*
X169949406Y-218523617D01*
X169925424Y-218523391D01*
X169907376Y-218510273D01*
X169891158Y-218481955D01*
X169872666Y-218436131D01*
X169857912Y-218397000D01*
X169838518Y-218344862D01*
X169822498Y-218300141D01*
X169811478Y-218267491D01*
X169807083Y-218251569D01*
X169807069Y-218251372D01*
X169816881Y-218239905D01*
X169843961Y-218223597D01*
X169883582Y-218204638D01*
X169931020Y-218185218D01*
X169981547Y-218167528D01*
X170000435Y-218161756D01*
X170086957Y-218142332D01*
X170185660Y-218129579D01*
X170286476Y-218124289D01*
X170379337Y-218127253D01*
X170404886Y-218129966D01*
X170522234Y-218151740D01*
X170622162Y-218185452D01*
X170707844Y-218232596D01*
X170782453Y-218294664D01*
X170804544Y-218317962D01*
X170849589Y-218376080D01*
X170880522Y-218436881D01*
X170899221Y-218505966D01*
X170907563Y-218588937D01*
X170908424Y-218627909D01*
X170908080Y-218685290D01*
X170905615Y-218726581D01*
X170899885Y-218758763D01*
X170889749Y-218788817D01*
X170877613Y-218816203D01*
X170844341Y-218875374D01*
X170801853Y-218928136D01*
X170747668Y-218976244D01*
X170679308Y-219021458D01*
X170594292Y-219065533D01*
X170490140Y-219110227D01*
X170429909Y-219133431D01*
X170335558Y-219170503D01*
X170261550Y-219204040D01*
X170205699Y-219235588D01*
X170165823Y-219266692D01*
X170139737Y-219298898D01*
X170125259Y-219333752D01*
X170121840Y-219351511D01*
X170124064Y-219411294D01*
X170147075Y-219461869D01*
X170189765Y-219501053D01*
X170201013Y-219507569D01*
X170223018Y-219518300D01*
X170245019Y-219525677D01*
X170271839Y-219530293D01*
X170308302Y-219532741D01*
X170359233Y-219533613D01*
X170412591Y-219533580D01*
X170478346Y-219533019D01*
X170527427Y-219531306D01*
X170566252Y-219527486D01*
X170601237Y-219520604D01*
X170638799Y-219509704D01*
X170685354Y-219493829D01*
X170689681Y-219492308D01*
X170739207Y-219474725D01*
X170781676Y-219459359D01*
X170811661Y-219448190D01*
X170822454Y-219443867D01*
X170831323Y-219444965D01*
X170841619Y-219457858D01*
X170854703Y-219485291D01*
X170871935Y-219530012D01*
X170888841Y-219577819D01*
X170907249Y-219631924D01*
X170922509Y-219678530D01*
X170933180Y-219713106D01*
X170937822Y-219731123D01*
X170937909Y-219732125D01*
X171306169Y-219732125D01*
X171372015Y-219666070D01*
X171469737Y-219567726D01*
X171560575Y-219475994D01*
X171643329Y-219392097D01*
X171716801Y-219317257D01*
X171779788Y-219252696D01*
X171831091Y-219199637D01*
X171869510Y-219159301D01*
X171893845Y-219132911D01*
X171902735Y-219122050D01*
X171915012Y-219089691D01*
X171919272Y-219063100D01*
X171912675Y-219048182D01*
X171893098Y-219014874D01*
X171860864Y-218963664D01*
X171816296Y-218895035D01*
X171759714Y-218809475D01*
X171691443Y-218707468D01*
X171611804Y-218589501D01*
X171521121Y-218456059D01*
X171419714Y-218307627D01*
X171357459Y-218216822D01*
X171258134Y-218072045D01*
X171171119Y-217945014D01*
X171095601Y-217834478D01*
X171030765Y-217739185D01*
X170975799Y-217657882D01*
X170929889Y-217589319D01*
X170892220Y-217532243D01*
X170861981Y-217485402D01*
X170838356Y-217447543D01*
X170820533Y-217417416D01*
X170807698Y-217393767D01*
X170799037Y-217375345D01*
X170793736Y-217360898D01*
X170790983Y-217349174D01*
X170790319Y-217344069D01*
X170789832Y-217332430D01*
X170790915Y-217318594D01*
X170794135Y-217301023D01*
X170800058Y-217278182D01*
X170809248Y-217248531D01*
X170822272Y-217210534D01*
X170839694Y-217162655D01*
X170862081Y-217103355D01*
X170889997Y-217031098D01*
X170924008Y-216944347D01*
X170964680Y-216841564D01*
X171012578Y-216721213D01*
X171068267Y-216581755D01*
X171099286Y-216504193D01*
X171160785Y-216350698D01*
X171214442Y-216217330D01*
X171260843Y-216102720D01*
X171300572Y-216005499D01*
X171334216Y-215924296D01*
X171362359Y-215857740D01*
X171385587Y-215804463D01*
X171404485Y-215763094D01*
X171419639Y-215732263D01*
X171431633Y-215710599D01*
X171441054Y-215696734D01*
X171446946Y-215690489D01*
X171452537Y-215685360D01*
X171456986Y-215680936D01*
X171461702Y-215676926D01*
X171468092Y-215673037D01*
X171477565Y-215668978D01*
X171491531Y-215664455D01*
X171511397Y-215659176D01*
X171538573Y-215652849D01*
X171574466Y-215645182D01*
X171620486Y-215635882D01*
X171678041Y-215624656D01*
X171748539Y-215611213D01*
X171833389Y-215595260D01*
X171934001Y-215576504D01*
X172051781Y-215554654D01*
X172188140Y-215529416D01*
X172344485Y-215500498D01*
X172508091Y-215470226D01*
X172650125Y-215443920D01*
X172785992Y-215418731D01*
X172913920Y-215394989D01*
X173032141Y-215373022D01*
X173138886Y-215353162D01*
X173232385Y-215335736D01*
X173310868Y-215321076D01*
X173372567Y-215309510D01*
X173415713Y-215301367D01*
X173438535Y-215296978D01*
X173441380Y-215296393D01*
X173468541Y-215283973D01*
X173496106Y-215262579D01*
X173496221Y-215262464D01*
X173524091Y-215234595D01*
X173524091Y-214578525D01*
X173117955Y-214578525D01*
X173117871Y-214688272D01*
X173117633Y-214785744D01*
X173117245Y-214869055D01*
X173116714Y-214936320D01*
X173116046Y-214985654D01*
X173115246Y-215015170D01*
X173114578Y-215023135D01*
X173106720Y-215028917D01*
X173086536Y-215032793D01*
X173051329Y-215034930D01*
X172998400Y-215035493D01*
X172926863Y-215034680D01*
X172744772Y-215031500D01*
X172741681Y-214751522D01*
X172738589Y-214471545D01*
X172608908Y-214471501D01*
X172467232Y-214465150D01*
X172336311Y-214446647D01*
X172218275Y-214416670D01*
X172115255Y-214375899D01*
X172029382Y-214325012D01*
X171964072Y-214266161D01*
X171913465Y-214192739D01*
X171876188Y-214105189D01*
X171854792Y-214009804D01*
X171852761Y-213991622D01*
X171848531Y-213865219D01*
X171861377Y-213754083D01*
X171891886Y-213657371D01*
X171940644Y-213574240D01*
X172008236Y-213503847D01*
X172095249Y-213445348D01*
X172202267Y-213397901D01*
X172282954Y-213372555D01*
X172314510Y-213364454D01*
X172344680Y-213358301D01*
X172377243Y-213353844D01*
X172415978Y-213350834D01*
X172464664Y-213349021D01*
X172527078Y-213348153D01*
X172606999Y-213347981D01*
X172652409Y-213348071D01*
X172769409Y-213349278D01*
X172868898Y-213352163D01*
X172949195Y-213356648D01*
X173008619Y-213362659D01*
X173021863Y-213364704D01*
X173114227Y-213380576D01*
X173117215Y-214194492D01*
X173117633Y-214329750D01*
X173117877Y-214458389D01*
X173117955Y-214578525D01*
X173524091Y-214578525D01*
X173524091Y-213123876D01*
X173495367Y-213095153D01*
X173477260Y-213080980D01*
X173451610Y-213069187D01*
X173413799Y-213058237D01*
X173359210Y-213046593D01*
X173336617Y-213042316D01*
X173197457Y-213016498D01*
X173038118Y-212986916D01*
X172861123Y-212954039D01*
X172668991Y-212918335D01*
X172464244Y-212880272D01*
X172249405Y-212840319D01*
X172026993Y-212798945D01*
X172018545Y-212797373D01*
X171906355Y-212776286D01*
X171800270Y-212755934D01*
X171702619Y-212736793D01*
X171615728Y-212719339D01*
X171541924Y-212704047D01*
X171483536Y-212691391D01*
X171442889Y-212681848D01*
X171422312Y-212675893D01*
X171421177Y-212675378D01*
X171391365Y-212654177D01*
X171370663Y-212631360D01*
X171363202Y-212616375D01*
X171347462Y-212581960D01*
X171324231Y-212529921D01*
X171294300Y-212462062D01*
X171258457Y-212380190D01*
X171217491Y-212286110D01*
X171172191Y-212181628D01*
X171123347Y-212068549D01*
X171071748Y-211948679D01*
X171041515Y-211878260D01*
X170976246Y-211725745D01*
X170919842Y-211593156D01*
X170871822Y-211479302D01*
X170831705Y-211382993D01*
X170799013Y-211303039D01*
X170773265Y-211238248D01*
X170753982Y-211187432D01*
X170740682Y-211149398D01*
X170732887Y-211122958D01*
X170730116Y-211106920D01*
X170730096Y-211105922D01*
X170729707Y-211098178D01*
X170729042Y-211091800D01*
X170728854Y-211085633D01*
X170729894Y-211078523D01*
X170732915Y-211069315D01*
X170738669Y-211056854D01*
X170747908Y-211039985D01*
X170761384Y-211017554D01*
X170779849Y-210988407D01*
X170804056Y-210951388D01*
X170834755Y-210905343D01*
X170872701Y-210849117D01*
X170918643Y-210781556D01*
X170973335Y-210701504D01*
X171037529Y-210607808D01*
X171111977Y-210499312D01*
X171197430Y-210374862D01*
X171294642Y-210233303D01*
X171369218Y-210124682D01*
X171451686Y-210004388D01*
X171530505Y-209889104D01*
X171604676Y-209780312D01*
X171673194Y-209679499D01*
X171735059Y-209588147D01*
X171789268Y-209507740D01*
X171834819Y-209439764D01*
X171870710Y-209385702D01*
X171895940Y-209347038D01*
X171909507Y-209325256D01*
X171911515Y-209321422D01*
X171917606Y-209288135D01*
X171915634Y-209263695D01*
X171906426Y-209251201D01*
X171881779Y-209223478D01*
X171842674Y-209181534D01*
X171790092Y-209126376D01*
X171725013Y-209059011D01*
X171648419Y-208980447D01*
X171561290Y-208891690D01*
X171464606Y-208793748D01*
X171359349Y-208687628D01*
X171347495Y-208675727D01*
X170845545Y-208675727D01*
X170845545Y-209505075D01*
X170845437Y-209641417D01*
X170845124Y-209770991D01*
X170844623Y-209891951D01*
X170843953Y-210002449D01*
X170843131Y-210100639D01*
X170842174Y-210184673D01*
X170841101Y-210252704D01*
X170839928Y-210302884D01*
X170838673Y-210333368D01*
X170837573Y-210342396D01*
X170823873Y-210344908D01*
X170791170Y-210346697D01*
X170743542Y-210347664D01*
X170685070Y-210347706D01*
X170644186Y-210347207D01*
X170458772Y-210344045D01*
X170452656Y-209657091D01*
X169794257Y-209657091D01*
X169797186Y-209512299D01*
X161412909Y-209512299D01*
X161412909Y-210324224D01*
X161386931Y-210330389D01*
X161359793Y-210335202D01*
X161315853Y-210341264D01*
X161261320Y-210347876D01*
X161202401Y-210354338D01*
X161145303Y-210359951D01*
X161096234Y-210364017D01*
X161078091Y-210365173D01*
X161004176Y-210368757D01*
X160944895Y-210370271D01*
X160891875Y-210369614D01*
X160836742Y-210366684D01*
X160771759Y-210361434D01*
X160612870Y-210338734D01*
X160470535Y-210300286D01*
X160344889Y-210246178D01*
X160236065Y-210176498D01*
X160144197Y-210091335D01*
X160069418Y-209990778D01*
X160011863Y-209874914D01*
X160003933Y-209854061D01*
X159971025Y-209737110D01*
X159952541Y-209610136D01*
X159948320Y-209478727D01*
X159958199Y-209348471D01*
X159982019Y-209224954D01*
X160019617Y-209113766D01*
X160025692Y-209100109D01*
X160087292Y-208991138D01*
X160165054Y-208897744D01*
X160259465Y-208819570D01*
X160371014Y-208756256D01*
X160500189Y-208707443D01*
X160593066Y-208683489D01*
X160636390Y-208674870D01*
X160678683Y-208668577D01*
X160724697Y-208664290D01*
X160779189Y-208661693D01*
X160846912Y-208660467D01*
X160932621Y-208660293D01*
X160939545Y-208660313D01*
X161050290Y-208661936D01*
X161152483Y-208665947D01*
X161242844Y-208672099D01*
X161318096Y-208680144D01*
X161374960Y-208689838D01*
X161392704Y-208694381D01*
X161396606Y-208696588D01*
X161399972Y-208701789D01*
X161402842Y-208711576D01*
X161405255Y-208727541D01*
X161407250Y-208751276D01*
X161408868Y-208784373D01*
X161410146Y-208828424D01*
X161411124Y-208885022D01*
X161411843Y-208955757D01*
X161412340Y-209042223D01*
X161412656Y-209146011D01*
X161412829Y-209268713D01*
X161412900Y-209411921D01*
X161412909Y-209512299D01*
X169797186Y-209512299D01*
X169800681Y-209339591D01*
X170126841Y-209336524D01*
X170453000Y-209333458D01*
X170453000Y-208999000D01*
X169714091Y-208999000D01*
X169714091Y-208675727D01*
X170845545Y-208675727D01*
X171347495Y-208675727D01*
X171246500Y-208574337D01*
X171164753Y-208492546D01*
X170421035Y-207749410D01*
X170376404Y-207754115D01*
X170365504Y-207756995D01*
X170348906Y-207764342D01*
X170325505Y-207776887D01*
X170294193Y-207795358D01*
X170253865Y-207820482D01*
X170203413Y-207852989D01*
X170141732Y-207893607D01*
X170067715Y-207943064D01*
X169980255Y-208002089D01*
X169878247Y-208071410D01*
X169760583Y-208151755D01*
X169626158Y-208243854D01*
X169477409Y-208345998D01*
X169350777Y-208432919D01*
X169228997Y-208516299D01*
X169113488Y-208595176D01*
X169005672Y-208668591D01*
X168906970Y-208735583D01*
X168818801Y-208795190D01*
X168742588Y-208846453D01*
X168679751Y-208888411D01*
X168631710Y-208920103D01*
X168599886Y-208940569D01*
X168585893Y-208948770D01*
X168552814Y-208959657D01*
X168524376Y-208964359D01*
X168523760Y-208964363D01*
X168510038Y-208960130D01*
X168477118Y-208948011D01*
X168427167Y-208928881D01*
X168362353Y-208903613D01*
X168284842Y-208873081D01*
X168196802Y-208838159D01*
X168100400Y-208799720D01*
X167997803Y-208758638D01*
X167891178Y-208715786D01*
X167782693Y-208672038D01*
X167674515Y-208628268D01*
X167568812Y-208585349D01*
X167467749Y-208544155D01*
X167373495Y-208505559D01*
X167288217Y-208470436D01*
X167214082Y-208439659D01*
X167153257Y-208414101D01*
X167107910Y-208394636D01*
X167084833Y-208384318D01*
X167049253Y-208362059D01*
X167019800Y-208334015D01*
X167013540Y-208325309D01*
X167007993Y-208308423D01*
X167007466Y-208306272D01*
X166448460Y-208306272D01*
X166263086Y-208306272D01*
X166193910Y-208306173D01*
X166144401Y-208305564D01*
X166111135Y-208303980D01*
X166090690Y-208300953D01*
X166079642Y-208296017D01*
X166074566Y-208288706D01*
X166072395Y-208280295D01*
X166070475Y-208261252D01*
X166068168Y-208222994D01*
X166065650Y-208169393D01*
X166063100Y-208104319D01*
X166060693Y-208031641D01*
X166060110Y-208011863D01*
X166056210Y-207892427D01*
X166051352Y-207769599D01*
X166045777Y-207648189D01*
X166039732Y-207533002D01*
X166033459Y-207428848D01*
X166027204Y-207340533D01*
X166024115Y-207303312D01*
X166016571Y-207218215D01*
X165829259Y-207655448D01*
X165641946Y-208092682D01*
X165377302Y-208099150D01*
X165187537Y-207657188D01*
X164997772Y-207215227D01*
X164990332Y-207320903D01*
X164985950Y-207388160D01*
X164980924Y-207473682D01*
X164975498Y-207572663D01*
X164969914Y-207680295D01*
X164964415Y-207791769D01*
X164959243Y-207902278D01*
X164954642Y-208007015D01*
X164950854Y-208101171D01*
X164950630Y-208107113D01*
X164943173Y-208306272D01*
X164572813Y-208306272D01*
X164580581Y-208130204D01*
X164586290Y-208012826D01*
X164593424Y-207885585D01*
X164601749Y-207751449D01*
X164611030Y-207613386D01*
X164621032Y-207474363D01*
X164631519Y-207337347D01*
X164642259Y-207205306D01*
X164653015Y-207081207D01*
X164663553Y-206968017D01*
X164673638Y-206868705D01*
X164683035Y-206786237D01*
X164691510Y-206723580D01*
X164692258Y-206718772D01*
X164698076Y-206680655D01*
X164702075Y-206652080D01*
X164703276Y-206640841D01*
X164714185Y-206637819D01*
X164744179Y-206635257D01*
X164789253Y-206633355D01*
X164845403Y-206632315D01*
X164875558Y-206632182D01*
X165047753Y-206632182D01*
X165075124Y-206681250D01*
X165097885Y-206724399D01*
X165128090Y-206785183D01*
X165164079Y-206860018D01*
X165204188Y-206945320D01*
X165246755Y-207037505D01*
X165290119Y-207132989D01*
X165332618Y-207228188D01*
X165372588Y-207319518D01*
X165391029Y-207362432D01*
X165420666Y-207431269D01*
X165447484Y-207492373D01*
X165470122Y-207542743D01*
X165487221Y-207579376D01*
X165497420Y-207599268D01*
X165499533Y-207602000D01*
X165505687Y-207591868D01*
X165519477Y-207563470D01*
X165539539Y-207519806D01*
X165564506Y-207463874D01*
X165593012Y-207398673D01*
X165608639Y-207362432D01*
X165651373Y-207263882D01*
X165695604Y-207163721D01*
X165739929Y-207064982D01*
X165782947Y-206970700D01*
X165823255Y-206883909D01*
X165859448Y-206807641D01*
X165890126Y-206744931D01*
X165913884Y-206698814D01*
X165923206Y-206682111D01*
X165952803Y-206631608D01*
X166133378Y-206634781D01*
X166313954Y-206637954D01*
X166333646Y-206793818D01*
X166344289Y-206885443D01*
X166355611Y-206996308D01*
X166367292Y-207122585D01*
X166379018Y-207260443D01*
X166390469Y-207406054D01*
X166401330Y-207555588D01*
X166411283Y-207705216D01*
X166417310Y-207804045D01*
X166422472Y-207891555D01*
X166427596Y-207977371D01*
X166432407Y-208056953D01*
X166436628Y-208125760D01*
X166439985Y-208179251D01*
X166441679Y-208205250D01*
X166448460Y-208306272D01*
X167007466Y-208306272D01*
X166998606Y-208270115D01*
X166985633Y-208211687D01*
X166969325Y-208134444D01*
X166949936Y-208039687D01*
X166927716Y-207928721D01*
X166902918Y-207802848D01*
X166875795Y-207663371D01*
X166846599Y-207511595D01*
X166815582Y-207348821D01*
X166782996Y-207176353D01*
X166749094Y-206995494D01*
X166714127Y-206807548D01*
X166678349Y-206613817D01*
X166642011Y-206415605D01*
X166612446Y-206253243D01*
X166599887Y-206217699D01*
X166578793Y-206183231D01*
X166577034Y-206181084D01*
X166548583Y-206147272D01*
X164439105Y-206147272D01*
X164408931Y-206173250D01*
D11*
X69000000Y-40000000D02*
G75*
G03X69000000Y-40000000I-1000000J0D01*
G01*
X164000000Y-40000000D02*
G75*
G03X164000000Y-40000000I-1000000J0D01*
G01*
X69000000Y-135000000D02*
G75*
G03X69000000Y-135000000I-1000000J0D01*
G01*
X164000000Y-135000000D02*
G75*
G03X164000000Y-135000000I-1000000J0D01*
G01*
X114000000Y-40000000D02*
G75*
G03X114000000Y-40000000I-1000000J0D01*
G01*
X119000000Y-40000000D02*
G75*
G03X119000000Y-40000000I-1000000J0D01*
G01*
X114000000Y-135000000D02*
G75*
G03X114000000Y-135000000I-1000000J0D01*
G01*
X119000000Y-135000000D02*
G75*
G03X119000000Y-135000000I-1000000J0D01*
G01*
X69000000Y-90000000D02*
G75*
G03X69000000Y-90000000I-1000000J0D01*
G01*
X69000000Y-85000000D02*
G75*
G03X69000000Y-85000000I-1000000J0D01*
G01*
X164000000Y-90000000D02*
G75*
G03X164000000Y-90000000I-1000000J0D01*
G01*
X164000000Y-85000000D02*
G75*
G03X164000000Y-85000000I-1000000J0D01*
G01*
X119000000Y-90000000D02*
G75*
G03X119000000Y-90000000I-1000000J0D01*
G01*
X114000000Y-90000000D02*
G75*
G03X114000000Y-90000000I-1000000J0D01*
G01*
X119000000Y-85000000D02*
G75*
G03X119000000Y-85000000I-1000000J0D01*
G01*
X114000000Y-85000000D02*
G75*
G03X114000000Y-85000000I-1000000J0D01*
G01*
X169000000Y-40000000D02*
G75*
G03X169000000Y-40000000I-1000000J0D01*
G01*
X264000000Y-40000000D02*
G75*
G03X264000000Y-40000000I-1000000J0D01*
G01*
X169000000Y-135000000D02*
G75*
G03X169000000Y-135000000I-1000000J0D01*
G01*
X264000000Y-135000000D02*
G75*
G03X264000000Y-135000000I-1000000J0D01*
G01*
X214000000Y-40000000D02*
G75*
G03X214000000Y-40000000I-1000000J0D01*
G01*
X219000000Y-40000000D02*
G75*
G03X219000000Y-40000000I-1000000J0D01*
G01*
X214000000Y-135000000D02*
G75*
G03X214000000Y-135000000I-1000000J0D01*
G01*
X219000000Y-135000000D02*
G75*
G03X219000000Y-135000000I-1000000J0D01*
G01*
X169000000Y-90000000D02*
G75*
G03X169000000Y-90000000I-1000000J0D01*
G01*
X169000000Y-85000000D02*
G75*
G03X169000000Y-85000000I-1000000J0D01*
G01*
X264000000Y-90000000D02*
G75*
G03X264000000Y-90000000I-1000000J0D01*
G01*
X264000000Y-85000000D02*
G75*
G03X264000000Y-85000000I-1000000J0D01*
G01*
X219000000Y-90000000D02*
G75*
G03X219000000Y-90000000I-1000000J0D01*
G01*
X214000000Y-90000000D02*
G75*
G03X214000000Y-90000000I-1000000J0D01*
G01*
X219000000Y-85000000D02*
G75*
G03X219000000Y-85000000I-1000000J0D01*
G01*
X214000000Y-85000000D02*
G75*
G03X214000000Y-85000000I-1000000J0D01*
G01*
X69000000Y-140000000D02*
G75*
G03X69000000Y-140000000I-1000000J0D01*
G01*
X164000000Y-140000000D02*
G75*
G03X164000000Y-140000000I-1000000J0D01*
G01*
X69000000Y-235000000D02*
G75*
G03X69000000Y-235000000I-1000000J0D01*
G01*
X164000000Y-235000000D02*
G75*
G03X164000000Y-235000000I-1000000J0D01*
G01*
X114000000Y-140000000D02*
G75*
G03X114000000Y-140000000I-1000000J0D01*
G01*
X119000000Y-140000000D02*
G75*
G03X119000000Y-140000000I-1000000J0D01*
G01*
X114000000Y-235000000D02*
G75*
G03X114000000Y-235000000I-1000000J0D01*
G01*
X119000000Y-235000000D02*
G75*
G03X119000000Y-235000000I-1000000J0D01*
G01*
X69000000Y-190000000D02*
G75*
G03X69000000Y-190000000I-1000000J0D01*
G01*
X69000000Y-185000000D02*
G75*
G03X69000000Y-185000000I-1000000J0D01*
G01*
X164000000Y-190000000D02*
G75*
G03X164000000Y-190000000I-1000000J0D01*
G01*
X164000000Y-185000000D02*
G75*
G03X164000000Y-185000000I-1000000J0D01*
G01*
X119000000Y-190000000D02*
G75*
G03X119000000Y-190000000I-1000000J0D01*
G01*
X114000000Y-190000000D02*
G75*
G03X114000000Y-190000000I-1000000J0D01*
G01*
X119000000Y-185000000D02*
G75*
G03X119000000Y-185000000I-1000000J0D01*
G01*
X114000000Y-185000000D02*
G75*
G03X114000000Y-185000000I-1000000J0D01*
G01*
X169000000Y-140000000D02*
G75*
G03X169000000Y-140000000I-1000000J0D01*
G01*
X264000000Y-140000000D02*
G75*
G03X264000000Y-140000000I-1000000J0D01*
G01*
X169000000Y-235000000D02*
G75*
G03X169000000Y-235000000I-1000000J0D01*
G01*
X264000000Y-235000000D02*
G75*
G03X264000000Y-235000000I-1000000J0D01*
G01*
X214000000Y-140000000D02*
G75*
G03X214000000Y-140000000I-1000000J0D01*
G01*
X219000000Y-140000000D02*
G75*
G03X219000000Y-140000000I-1000000J0D01*
G01*
X214000000Y-235000000D02*
G75*
G03X214000000Y-235000000I-1000000J0D01*
G01*
X219000000Y-235000000D02*
G75*
G03X219000000Y-235000000I-1000000J0D01*
G01*
X169000000Y-190000000D02*
G75*
G03X169000000Y-190000000I-1000000J0D01*
G01*
X169000000Y-185000000D02*
G75*
G03X169000000Y-185000000I-1000000J0D01*
G01*
X264000000Y-190000000D02*
G75*
G03X264000000Y-190000000I-1000000J0D01*
G01*
X264000000Y-185000000D02*
G75*
G03X264000000Y-185000000I-1000000J0D01*
G01*
X219000000Y-190000000D02*
G75*
G03X219000000Y-190000000I-1000000J0D01*
G01*
X214000000Y-190000000D02*
G75*
G03X214000000Y-190000000I-1000000J0D01*
G01*
X219000000Y-185000000D02*
G75*
G03X219000000Y-185000000I-1000000J0D01*
G01*
X214000000Y-185000000D02*
G75*
G03X214000000Y-185000000I-1000000J0D01*
G01*
D13*
X78000000Y-48095000D03*
D14*
X78000000Y-49365000D03*
D13*
X78000000Y-50635000D03*
X78000000Y-51905000D03*
X103000000Y-48095000D03*
D14*
X103000000Y-49365000D03*
D13*
X103000000Y-50635000D03*
X103000000Y-51905000D03*
X128000000Y-48095000D03*
D14*
X128000000Y-49365000D03*
D13*
X128000000Y-50635000D03*
X128000000Y-51905000D03*
X153000000Y-48095000D03*
D14*
X153000000Y-49365000D03*
D13*
X153000000Y-50635000D03*
X153000000Y-51905000D03*
X78000000Y-73095000D03*
D14*
X78000000Y-74365000D03*
D13*
X78000000Y-75635000D03*
X78000000Y-76905000D03*
X103000000Y-73095000D03*
D14*
X103000000Y-74365000D03*
D13*
X103000000Y-75635000D03*
X103000000Y-76905000D03*
X128000000Y-73095000D03*
D14*
X128000000Y-74365000D03*
D13*
X128000000Y-75635000D03*
X128000000Y-76905000D03*
X153000000Y-73095000D03*
D14*
X153000000Y-74365000D03*
D13*
X153000000Y-75635000D03*
X153000000Y-76905000D03*
X78000000Y-98095000D03*
D14*
X78000000Y-99365000D03*
D13*
X78000000Y-100635000D03*
X78000000Y-101905000D03*
X103000000Y-98095000D03*
D14*
X103000000Y-99365000D03*
D13*
X103000000Y-100635000D03*
X103000000Y-101905000D03*
X128000000Y-98095000D03*
D14*
X128000000Y-99365000D03*
D13*
X128000000Y-100635000D03*
X128000000Y-101905000D03*
X153000000Y-98095000D03*
D14*
X153000000Y-99365000D03*
D13*
X153000000Y-100635000D03*
X153000000Y-101905000D03*
X78000000Y-123095000D03*
D14*
X78000000Y-124365000D03*
D13*
X78000000Y-125635000D03*
X78000000Y-126905000D03*
X103000000Y-123095000D03*
D14*
X103000000Y-124365000D03*
D13*
X103000000Y-125635000D03*
X103000000Y-126905000D03*
X128000000Y-123095000D03*
D14*
X128000000Y-124365000D03*
D13*
X128000000Y-125635000D03*
X128000000Y-126905000D03*
X153000000Y-123095000D03*
D14*
X153000000Y-124365000D03*
D13*
X153000000Y-125635000D03*
X153000000Y-126905000D03*
X178000000Y-48095000D03*
D14*
X178000000Y-49365000D03*
D13*
X178000000Y-50635000D03*
X178000000Y-51905000D03*
X203000000Y-48095000D03*
D14*
X203000000Y-49365000D03*
D13*
X203000000Y-50635000D03*
X203000000Y-51905000D03*
X228000000Y-48095000D03*
D14*
X228000000Y-49365000D03*
D13*
X228000000Y-50635000D03*
X228000000Y-51905000D03*
X253000000Y-48095000D03*
D14*
X253000000Y-49365000D03*
D13*
X253000000Y-50635000D03*
X253000000Y-51905000D03*
X178000000Y-73095000D03*
D14*
X178000000Y-74365000D03*
D13*
X178000000Y-75635000D03*
X178000000Y-76905000D03*
X203000000Y-73095000D03*
D14*
X203000000Y-74365000D03*
D13*
X203000000Y-75635000D03*
X203000000Y-76905000D03*
X228000000Y-73095000D03*
D14*
X228000000Y-74365000D03*
D13*
X228000000Y-75635000D03*
X228000000Y-76905000D03*
X253000000Y-73095000D03*
D14*
X253000000Y-74365000D03*
D13*
X253000000Y-75635000D03*
X253000000Y-76905000D03*
X178000000Y-98095000D03*
D14*
X178000000Y-99365000D03*
D13*
X178000000Y-100635000D03*
X178000000Y-101905000D03*
X203000000Y-98095000D03*
D14*
X203000000Y-99365000D03*
D13*
X203000000Y-100635000D03*
X203000000Y-101905000D03*
X228000000Y-98095000D03*
D14*
X228000000Y-99365000D03*
D13*
X228000000Y-100635000D03*
X228000000Y-101905000D03*
X253000000Y-98095000D03*
D14*
X253000000Y-99365000D03*
D13*
X253000000Y-100635000D03*
X253000000Y-101905000D03*
X178000000Y-123095000D03*
D14*
X178000000Y-124365000D03*
D13*
X178000000Y-125635000D03*
X178000000Y-126905000D03*
X203000000Y-123095000D03*
D14*
X203000000Y-124365000D03*
D13*
X203000000Y-125635000D03*
X203000000Y-126905000D03*
X228000000Y-123095000D03*
D14*
X228000000Y-124365000D03*
D13*
X228000000Y-125635000D03*
X228000000Y-126905000D03*
X253000000Y-123095000D03*
D14*
X253000000Y-124365000D03*
D13*
X253000000Y-125635000D03*
X253000000Y-126905000D03*
X78000000Y-148095000D03*
D14*
X78000000Y-149365000D03*
D13*
X78000000Y-150635000D03*
X78000000Y-151905000D03*
X103000000Y-148095000D03*
D14*
X103000000Y-149365000D03*
D13*
X103000000Y-150635000D03*
X103000000Y-151905000D03*
X128000000Y-148095000D03*
D14*
X128000000Y-149365000D03*
D13*
X128000000Y-150635000D03*
X128000000Y-151905000D03*
X153000000Y-148095000D03*
D14*
X153000000Y-149365000D03*
D13*
X153000000Y-150635000D03*
X153000000Y-151905000D03*
X78000000Y-173095000D03*
D14*
X78000000Y-174365000D03*
D13*
X78000000Y-175635000D03*
X78000000Y-176905000D03*
X103000000Y-173095000D03*
D14*
X103000000Y-174365000D03*
D13*
X103000000Y-175635000D03*
X103000000Y-176905000D03*
X128000000Y-173095000D03*
D14*
X128000000Y-174365000D03*
D13*
X128000000Y-175635000D03*
X128000000Y-176905000D03*
X153000000Y-173095000D03*
D14*
X153000000Y-174365000D03*
D13*
X153000000Y-175635000D03*
X153000000Y-176905000D03*
X78000000Y-198095000D03*
D14*
X78000000Y-199365000D03*
D13*
X78000000Y-200635000D03*
X78000000Y-201905000D03*
X103000000Y-198095000D03*
D14*
X103000000Y-199365000D03*
D13*
X103000000Y-200635000D03*
X103000000Y-201905000D03*
X128000000Y-198095000D03*
D14*
X128000000Y-199365000D03*
D13*
X128000000Y-200635000D03*
X128000000Y-201905000D03*
X153000000Y-198095000D03*
D14*
X153000000Y-199365000D03*
D13*
X153000000Y-200635000D03*
X153000000Y-201905000D03*
X78000000Y-223095000D03*
D14*
X78000000Y-224365000D03*
D13*
X78000000Y-225635000D03*
X78000000Y-226905000D03*
X103000000Y-223095000D03*
D14*
X103000000Y-224365000D03*
D13*
X103000000Y-225635000D03*
X103000000Y-226905000D03*
X128000000Y-223095000D03*
D14*
X128000000Y-224365000D03*
D13*
X128000000Y-225635000D03*
X128000000Y-226905000D03*
X153000000Y-223095000D03*
D14*
X153000000Y-224365000D03*
D13*
X153000000Y-225635000D03*
X153000000Y-226905000D03*
X178000000Y-148095000D03*
D14*
X178000000Y-149365000D03*
D13*
X178000000Y-150635000D03*
X178000000Y-151905000D03*
X203000000Y-148095000D03*
D14*
X203000000Y-149365000D03*
D13*
X203000000Y-150635000D03*
X203000000Y-151905000D03*
X228000000Y-148095000D03*
D14*
X228000000Y-149365000D03*
D13*
X228000000Y-150635000D03*
X228000000Y-151905000D03*
X253000000Y-148095000D03*
D14*
X253000000Y-149365000D03*
D13*
X253000000Y-150635000D03*
X253000000Y-151905000D03*
X178000000Y-173095000D03*
D14*
X178000000Y-174365000D03*
D13*
X178000000Y-175635000D03*
X178000000Y-176905000D03*
X203000000Y-173095000D03*
D14*
X203000000Y-174365000D03*
D13*
X203000000Y-175635000D03*
X203000000Y-176905000D03*
X228000000Y-173095000D03*
D14*
X228000000Y-174365000D03*
D13*
X228000000Y-175635000D03*
X228000000Y-176905000D03*
X253000000Y-173095000D03*
D14*
X253000000Y-174365000D03*
D13*
X253000000Y-175635000D03*
X253000000Y-176905000D03*
X178000000Y-198095000D03*
D14*
X178000000Y-199365000D03*
D13*
X178000000Y-200635000D03*
X178000000Y-201905000D03*
X203000000Y-198095000D03*
D14*
X203000000Y-199365000D03*
D13*
X203000000Y-200635000D03*
X203000000Y-201905000D03*
X228000000Y-198095000D03*
D14*
X228000000Y-199365000D03*
D13*
X228000000Y-200635000D03*
X228000000Y-201905000D03*
X253000000Y-198095000D03*
D14*
X253000000Y-199365000D03*
D13*
X253000000Y-200635000D03*
X253000000Y-201905000D03*
X178000000Y-223095000D03*
D14*
X178000000Y-224365000D03*
D13*
X178000000Y-225635000D03*
X178000000Y-226905000D03*
X203000000Y-223095000D03*
D14*
X203000000Y-224365000D03*
D13*
X203000000Y-225635000D03*
X203000000Y-226905000D03*
X228000000Y-223095000D03*
D14*
X228000000Y-224365000D03*
D13*
X228000000Y-225635000D03*
X228000000Y-226905000D03*
X253000000Y-223095000D03*
D14*
X253000000Y-224365000D03*
D13*
X253000000Y-225635000D03*
X253000000Y-226905000D03*
X285500000Y-40595000D03*
D14*
X285500000Y-41865000D03*
D13*
X285500000Y-43135000D03*
X285500000Y-44405000D03*
X285500000Y-65595000D03*
D14*
X285500000Y-66865000D03*
D13*
X285500000Y-68135000D03*
X285500000Y-69405000D03*
X315500000Y-110595000D03*
D14*
X315500000Y-111865000D03*
D13*
X315500000Y-113135000D03*
X315500000Y-114405000D03*
X285500000Y-90595000D03*
D14*
X285500000Y-91865000D03*
D13*
X285500000Y-93135000D03*
X285500000Y-94405000D03*
X285500000Y-115595000D03*
D14*
X285500000Y-116865000D03*
D13*
X285500000Y-118135000D03*
X285500000Y-119405000D03*
X285500000Y-140595000D03*
D14*
X285500000Y-141865000D03*
D13*
X285500000Y-143135000D03*
X285500000Y-144405000D03*
X310500000Y-140595000D03*
D14*
X310500000Y-141865000D03*
D13*
X310500000Y-143135000D03*
X310500000Y-144405000D03*
X335500000Y-140595000D03*
D14*
X335500000Y-141865000D03*
D13*
X335500000Y-143135000D03*
X335500000Y-144405000D03*
X285500000Y-165595000D03*
D14*
X285500000Y-166865000D03*
D13*
X285500000Y-168135000D03*
X285500000Y-169405000D03*
X285500000Y-190595000D03*
D14*
X285500000Y-191865000D03*
D13*
X285500000Y-193135000D03*
X285500000Y-194405000D03*
X310500000Y-165595000D03*
D14*
X310500000Y-166865000D03*
D13*
X310500000Y-168135000D03*
X310500000Y-169405000D03*
X335500000Y-165595000D03*
D14*
X335500000Y-166865000D03*
D13*
X335500000Y-168135000D03*
X335500000Y-169405000D03*
X285500000Y-215595000D03*
D14*
X285500000Y-216865000D03*
D13*
X285500000Y-218135000D03*
X285500000Y-219405000D03*
D15*
X301500000Y-48000000D03*
D16*
X309000000Y-43000000D03*
X309000000Y-40500000D03*
X299000000Y-40500000D03*
X299000000Y-43000000D03*
D17*
X299000000Y-48000000D03*
D16*
X304000000Y-48000000D03*
D15*
X306500000Y-48000000D03*
X309000000Y-48000000D03*
D18*
X304000000Y-43000000D03*
D15*
X314000000Y-48000000D03*
D16*
X321500000Y-43000000D03*
X321500000Y-40500000D03*
X311500000Y-40500000D03*
X311500000Y-43000000D03*
D17*
X311500000Y-48000000D03*
D16*
X316500000Y-48000000D03*
D15*
X319000000Y-48000000D03*
X321500000Y-48000000D03*
D18*
X316500000Y-43000000D03*
D19*
X338000000Y-44000000D03*
X338000000Y-135000000D03*
X338000000Y-235000000D03*
D20*
X163000000Y-135000000D03*
X163000000Y-40000000D03*
X68000000Y-40000000D03*
X68000000Y-135000000D03*
X68000000Y-85000000D03*
X68000000Y-90000000D03*
X163000000Y-85000000D03*
X163000000Y-90000000D03*
X113000000Y-40000000D03*
X118000000Y-40000000D03*
X118000000Y-135000000D03*
X113000000Y-135000000D03*
X118000000Y-90000000D03*
X113000000Y-90000000D03*
X113000000Y-85000000D03*
X118000000Y-85000000D03*
D21*
X90500000Y-100000000D03*
X90500000Y-125000000D03*
X78000000Y-112500000D03*
X103000000Y-112500000D03*
X103000000Y-62500000D03*
X78000000Y-62500000D03*
X90500000Y-75000000D03*
X90500000Y-50000000D03*
X140500000Y-50000000D03*
X140500000Y-75000000D03*
X128000000Y-62500000D03*
X153000000Y-62500000D03*
X153000000Y-112500000D03*
X128000000Y-112500000D03*
X140500000Y-125000000D03*
X140500000Y-100000000D03*
D20*
X263000000Y-135000000D03*
X263000000Y-40000000D03*
X168000000Y-40000000D03*
X168000000Y-135000000D03*
X168000000Y-85000000D03*
X168000000Y-90000000D03*
X263000000Y-85000000D03*
X263000000Y-90000000D03*
X213000000Y-40000000D03*
X218000000Y-40000000D03*
X218000000Y-135000000D03*
X213000000Y-135000000D03*
X218000000Y-90000000D03*
X213000000Y-90000000D03*
X213000000Y-85000000D03*
X218000000Y-85000000D03*
D21*
X190500000Y-100000000D03*
X190500000Y-125000000D03*
X178000000Y-112500000D03*
X203000000Y-112500000D03*
X203000000Y-62500000D03*
X178000000Y-62500000D03*
X190500000Y-75000000D03*
X190500000Y-50000000D03*
X240500000Y-50000000D03*
X240500000Y-75000000D03*
X228000000Y-62500000D03*
X253000000Y-62500000D03*
X253000000Y-112500000D03*
X228000000Y-112500000D03*
X240500000Y-125000000D03*
X240500000Y-100000000D03*
D20*
X163000000Y-235000000D03*
X163000000Y-140000000D03*
X68000000Y-140000000D03*
X68000000Y-235000000D03*
X68000000Y-185000000D03*
X68000000Y-190000000D03*
X163000000Y-185000000D03*
X163000000Y-190000000D03*
X113000000Y-140000000D03*
X118000000Y-140000000D03*
X118000000Y-235000000D03*
X113000000Y-235000000D03*
X118000000Y-190000000D03*
X113000000Y-190000000D03*
X113000000Y-185000000D03*
X118000000Y-185000000D03*
D21*
X90500000Y-200000000D03*
X90500000Y-225000000D03*
X78000000Y-212500000D03*
X103000000Y-212500000D03*
X103000000Y-162500000D03*
X78000000Y-162500000D03*
X90500000Y-175000000D03*
X90500000Y-150000000D03*
X140500000Y-150000000D03*
X140500000Y-175000000D03*
X128000000Y-162500000D03*
X153000000Y-162500000D03*
X153000000Y-212500000D03*
X128000000Y-212500000D03*
X140500000Y-225000000D03*
X140500000Y-200000000D03*
D20*
X263000000Y-235000000D03*
X263000000Y-140000000D03*
X168000000Y-140000000D03*
X168000000Y-235000000D03*
X168000000Y-185000000D03*
X168000000Y-190000000D03*
X263000000Y-185000000D03*
X263000000Y-190000000D03*
X213000000Y-140000000D03*
X218000000Y-140000000D03*
X218000000Y-235000000D03*
X213000000Y-235000000D03*
X218000000Y-190000000D03*
X213000000Y-190000000D03*
X213000000Y-185000000D03*
X218000000Y-185000000D03*
D21*
X190500000Y-200000000D03*
X190500000Y-225000000D03*
X178000000Y-212500000D03*
X203000000Y-212500000D03*
X203000000Y-162500000D03*
X178000000Y-162500000D03*
X190500000Y-175000000D03*
X190500000Y-150000000D03*
X240500000Y-150000000D03*
X240500000Y-175000000D03*
X228000000Y-162500000D03*
X253000000Y-162500000D03*
X253000000Y-212500000D03*
X228000000Y-212500000D03*
X240500000Y-225000000D03*
X240500000Y-200000000D03*
D22*
X278000000Y-45500000D03*
X278000000Y-54500000D03*
X278000000Y-70500000D03*
X278000000Y-79500000D03*
X278000000Y-95500000D03*
X278000000Y-104500000D03*
X278000000Y-120500000D03*
X278000000Y-129500000D03*
X278000000Y-145500000D03*
X278000000Y-154500000D03*
X303000000Y-145500000D03*
X303000000Y-154500000D03*
X328000000Y-145500000D03*
X328000000Y-154500000D03*
X278000000Y-170500000D03*
X278000000Y-179500000D03*
X278000000Y-195500000D03*
X278000000Y-204500000D03*
X303000000Y-170500000D03*
X303000000Y-179500000D03*
X328000000Y-170500000D03*
X328000000Y-179500000D03*
X278000000Y-220500000D03*
X278000000Y-229500000D03*
D23*
X330250000Y-95020000D03*
X325750000Y-95020000D03*
X325750000Y-102980000D03*
X330250000Y-102980000D03*
X297250000Y-105020000D03*
X292750000Y-105020000D03*
X292750000Y-112980000D03*
X297250000Y-112980000D03*
D22*
X303000000Y-195500000D03*
X303000000Y-204500000D03*
X328000000Y-195500000D03*
X328000000Y-204500000D03*
D15*
X300500000Y-217500000D03*
D17*
X305500000Y-217500000D03*
D24*
X310000000Y-225000000D03*
X296000000Y-225000000D03*
D15*
X303000000Y-217500000D03*
X325500000Y-217500000D03*
D17*
X330500000Y-217500000D03*
D24*
X335000000Y-225000000D03*
X321000000Y-225000000D03*
D15*
X328000000Y-217500000D03*
D21*
X278500000Y-65500000D03*
X329250000Y-136500000D03*
X327000000Y-133000000D03*
X320250000Y-64500000D03*
D10*
G36*
X308355977Y-103906943D02*
X307896358Y-103447324D01*
X308886307Y-102457375D01*
X309345926Y-102916994D01*
X308355977Y-103906943D01*
X308355977Y-103906943D01*
G37*
G36*
X308002423Y-103553390D02*
X307542804Y-103093771D01*
X308532753Y-102103822D01*
X308992372Y-102563441D01*
X308002423Y-103553390D01*
X308002423Y-103553390D01*
G37*
G36*
X307648870Y-103199836D02*
X307189251Y-102740217D01*
X308179200Y-101750268D01*
X308638819Y-102209887D01*
X307648870Y-103199836D01*
X307648870Y-103199836D01*
G37*
G36*
X307295317Y-102846283D02*
X306835698Y-102386664D01*
X307825647Y-101396715D01*
X308285266Y-101856334D01*
X307295317Y-102846283D01*
X307295317Y-102846283D01*
G37*
G36*
X306941763Y-102492730D02*
X306482144Y-102033111D01*
X307472093Y-101043162D01*
X307931712Y-101502781D01*
X306941763Y-102492730D01*
X306941763Y-102492730D01*
G37*
G36*
X306588210Y-102139176D02*
X306128591Y-101679557D01*
X307118540Y-100689608D01*
X307578159Y-101149227D01*
X306588210Y-102139176D01*
X306588210Y-102139176D01*
G37*
G36*
X306234656Y-101785623D02*
X305775037Y-101326004D01*
X306764986Y-100336055D01*
X307224605Y-100795674D01*
X306234656Y-101785623D01*
X306234656Y-101785623D01*
G37*
G36*
X305881103Y-101432069D02*
X305421484Y-100972450D01*
X306411433Y-99982501D01*
X306871052Y-100442120D01*
X305881103Y-101432069D01*
X305881103Y-101432069D01*
G37*
G36*
X305527550Y-101078516D02*
X305067931Y-100618897D01*
X306057880Y-99628948D01*
X306517499Y-100088567D01*
X305527550Y-101078516D01*
X305527550Y-101078516D01*
G37*
G36*
X305173996Y-100724963D02*
X304714377Y-100265344D01*
X305704326Y-99275395D01*
X306163945Y-99735014D01*
X305173996Y-100724963D01*
X305173996Y-100724963D01*
G37*
G36*
X304820443Y-100371409D02*
X304360824Y-99911790D01*
X305350773Y-98921841D01*
X305810392Y-99381460D01*
X304820443Y-100371409D01*
X304820443Y-100371409D01*
G37*
G36*
X304466889Y-100017856D02*
X304007270Y-99558237D01*
X304997219Y-98568288D01*
X305456838Y-99027907D01*
X304466889Y-100017856D01*
X304466889Y-100017856D01*
G37*
G36*
X304113336Y-99664302D02*
X303653717Y-99204683D01*
X304643666Y-98214734D01*
X305103285Y-98674353D01*
X304113336Y-99664302D01*
X304113336Y-99664302D01*
G37*
G36*
X303759783Y-99310749D02*
X303300164Y-98851130D01*
X304290113Y-97861181D01*
X304749732Y-98320800D01*
X303759783Y-99310749D01*
X303759783Y-99310749D01*
G37*
G36*
X303406229Y-98957196D02*
X302946610Y-98497577D01*
X303936559Y-97507628D01*
X304396178Y-97967247D01*
X303406229Y-98957196D01*
X303406229Y-98957196D01*
G37*
G36*
X303052676Y-98603642D02*
X302593057Y-98144023D01*
X303583006Y-97154074D01*
X304042625Y-97613693D01*
X303052676Y-98603642D01*
X303052676Y-98603642D01*
G37*
G36*
X302593057Y-94855977D02*
X303052676Y-94396358D01*
X304042625Y-95386307D01*
X303583006Y-95845926D01*
X302593057Y-94855977D01*
X302593057Y-94855977D01*
G37*
G36*
X302946610Y-94502423D02*
X303406229Y-94042804D01*
X304396178Y-95032753D01*
X303936559Y-95492372D01*
X302946610Y-94502423D01*
X302946610Y-94502423D01*
G37*
G36*
X303300164Y-94148870D02*
X303759783Y-93689251D01*
X304749732Y-94679200D01*
X304290113Y-95138819D01*
X303300164Y-94148870D01*
X303300164Y-94148870D01*
G37*
G36*
X303653717Y-93795317D02*
X304113336Y-93335698D01*
X305103285Y-94325647D01*
X304643666Y-94785266D01*
X303653717Y-93795317D01*
X303653717Y-93795317D01*
G37*
G36*
X304007270Y-93441763D02*
X304466889Y-92982144D01*
X305456838Y-93972093D01*
X304997219Y-94431712D01*
X304007270Y-93441763D01*
X304007270Y-93441763D01*
G37*
G36*
X304360824Y-93088210D02*
X304820443Y-92628591D01*
X305810392Y-93618540D01*
X305350773Y-94078159D01*
X304360824Y-93088210D01*
X304360824Y-93088210D01*
G37*
G36*
X304714377Y-92734656D02*
X305173996Y-92275037D01*
X306163945Y-93264986D01*
X305704326Y-93724605D01*
X304714377Y-92734656D01*
X304714377Y-92734656D01*
G37*
G36*
X305067931Y-92381103D02*
X305527550Y-91921484D01*
X306517499Y-92911433D01*
X306057880Y-93371052D01*
X305067931Y-92381103D01*
X305067931Y-92381103D01*
G37*
G36*
X305421484Y-92027550D02*
X305881103Y-91567931D01*
X306871052Y-92557880D01*
X306411433Y-93017499D01*
X305421484Y-92027550D01*
X305421484Y-92027550D01*
G37*
G36*
X305775037Y-91673996D02*
X306234656Y-91214377D01*
X307224605Y-92204326D01*
X306764986Y-92663945D01*
X305775037Y-91673996D01*
X305775037Y-91673996D01*
G37*
G36*
X306128591Y-91320443D02*
X306588210Y-90860824D01*
X307578159Y-91850773D01*
X307118540Y-92310392D01*
X306128591Y-91320443D01*
X306128591Y-91320443D01*
G37*
G36*
X306482144Y-90966889D02*
X306941763Y-90507270D01*
X307931712Y-91497219D01*
X307472093Y-91956838D01*
X306482144Y-90966889D01*
X306482144Y-90966889D01*
G37*
G36*
X306835698Y-90613336D02*
X307295317Y-90153717D01*
X308285266Y-91143666D01*
X307825647Y-91603285D01*
X306835698Y-90613336D01*
X306835698Y-90613336D01*
G37*
G36*
X307189251Y-90259783D02*
X307648870Y-89800164D01*
X308638819Y-90790113D01*
X308179200Y-91249732D01*
X307189251Y-90259783D01*
X307189251Y-90259783D01*
G37*
G36*
X307542804Y-89906229D02*
X308002423Y-89446610D01*
X308992372Y-90436559D01*
X308532753Y-90896178D01*
X307542804Y-89906229D01*
X307542804Y-89906229D01*
G37*
G36*
X307896358Y-89552676D02*
X308355977Y-89093057D01*
X309345926Y-90083006D01*
X308886307Y-90542625D01*
X307896358Y-89552676D01*
X307896358Y-89552676D01*
G37*
G36*
X311113693Y-90542625D02*
X310654074Y-90083006D01*
X311644023Y-89093057D01*
X312103642Y-89552676D01*
X311113693Y-90542625D01*
X311113693Y-90542625D01*
G37*
G36*
X311467247Y-90896178D02*
X311007628Y-90436559D01*
X311997577Y-89446610D01*
X312457196Y-89906229D01*
X311467247Y-90896178D01*
X311467247Y-90896178D01*
G37*
G36*
X311820800Y-91249732D02*
X311361181Y-90790113D01*
X312351130Y-89800164D01*
X312810749Y-90259783D01*
X311820800Y-91249732D01*
X311820800Y-91249732D01*
G37*
G36*
X312174353Y-91603285D02*
X311714734Y-91143666D01*
X312704683Y-90153717D01*
X313164302Y-90613336D01*
X312174353Y-91603285D01*
X312174353Y-91603285D01*
G37*
G36*
X312527907Y-91956838D02*
X312068288Y-91497219D01*
X313058237Y-90507270D01*
X313517856Y-90966889D01*
X312527907Y-91956838D01*
X312527907Y-91956838D01*
G37*
G36*
X312881460Y-92310392D02*
X312421841Y-91850773D01*
X313411790Y-90860824D01*
X313871409Y-91320443D01*
X312881460Y-92310392D01*
X312881460Y-92310392D01*
G37*
G36*
X313235014Y-92663945D02*
X312775395Y-92204326D01*
X313765344Y-91214377D01*
X314224963Y-91673996D01*
X313235014Y-92663945D01*
X313235014Y-92663945D01*
G37*
G36*
X313588567Y-93017499D02*
X313128948Y-92557880D01*
X314118897Y-91567931D01*
X314578516Y-92027550D01*
X313588567Y-93017499D01*
X313588567Y-93017499D01*
G37*
G36*
X313942120Y-93371052D02*
X313482501Y-92911433D01*
X314472450Y-91921484D01*
X314932069Y-92381103D01*
X313942120Y-93371052D01*
X313942120Y-93371052D01*
G37*
G36*
X314295674Y-93724605D02*
X313836055Y-93264986D01*
X314826004Y-92275037D01*
X315285623Y-92734656D01*
X314295674Y-93724605D01*
X314295674Y-93724605D01*
G37*
G36*
X314649227Y-94078159D02*
X314189608Y-93618540D01*
X315179557Y-92628591D01*
X315639176Y-93088210D01*
X314649227Y-94078159D01*
X314649227Y-94078159D01*
G37*
G36*
X315002781Y-94431712D02*
X314543162Y-93972093D01*
X315533111Y-92982144D01*
X315992730Y-93441763D01*
X315002781Y-94431712D01*
X315002781Y-94431712D01*
G37*
G36*
X315356334Y-94785266D02*
X314896715Y-94325647D01*
X315886664Y-93335698D01*
X316346283Y-93795317D01*
X315356334Y-94785266D01*
X315356334Y-94785266D01*
G37*
G36*
X315709887Y-95138819D02*
X315250268Y-94679200D01*
X316240217Y-93689251D01*
X316699836Y-94148870D01*
X315709887Y-95138819D01*
X315709887Y-95138819D01*
G37*
G36*
X316063441Y-95492372D02*
X315603822Y-95032753D01*
X316593771Y-94042804D01*
X317053390Y-94502423D01*
X316063441Y-95492372D01*
X316063441Y-95492372D01*
G37*
G36*
X316416994Y-95845926D02*
X315957375Y-95386307D01*
X316947324Y-94396358D01*
X317406943Y-94855977D01*
X316416994Y-95845926D01*
X316416994Y-95845926D01*
G37*
G36*
X315957375Y-97613693D02*
X316416994Y-97154074D01*
X317406943Y-98144023D01*
X316947324Y-98603642D01*
X315957375Y-97613693D01*
X315957375Y-97613693D01*
G37*
G36*
X315603822Y-97967247D02*
X316063441Y-97507628D01*
X317053390Y-98497577D01*
X316593771Y-98957196D01*
X315603822Y-97967247D01*
X315603822Y-97967247D01*
G37*
G36*
X315250268Y-98320800D02*
X315709887Y-97861181D01*
X316699836Y-98851130D01*
X316240217Y-99310749D01*
X315250268Y-98320800D01*
X315250268Y-98320800D01*
G37*
G36*
X314896715Y-98674353D02*
X315356334Y-98214734D01*
X316346283Y-99204683D01*
X315886664Y-99664302D01*
X314896715Y-98674353D01*
X314896715Y-98674353D01*
G37*
G36*
X314543162Y-99027907D02*
X315002781Y-98568288D01*
X315992730Y-99558237D01*
X315533111Y-100017856D01*
X314543162Y-99027907D01*
X314543162Y-99027907D01*
G37*
G36*
X314189608Y-99381460D02*
X314649227Y-98921841D01*
X315639176Y-99911790D01*
X315179557Y-100371409D01*
X314189608Y-99381460D01*
X314189608Y-99381460D01*
G37*
G36*
X313836055Y-99735014D02*
X314295674Y-99275395D01*
X315285623Y-100265344D01*
X314826004Y-100724963D01*
X313836055Y-99735014D01*
X313836055Y-99735014D01*
G37*
G36*
X313482501Y-100088567D02*
X313942120Y-99628948D01*
X314932069Y-100618897D01*
X314472450Y-101078516D01*
X313482501Y-100088567D01*
X313482501Y-100088567D01*
G37*
G36*
X313128948Y-100442120D02*
X313588567Y-99982501D01*
X314578516Y-100972450D01*
X314118897Y-101432069D01*
X313128948Y-100442120D01*
X313128948Y-100442120D01*
G37*
G36*
X312775395Y-100795674D02*
X313235014Y-100336055D01*
X314224963Y-101326004D01*
X313765344Y-101785623D01*
X312775395Y-100795674D01*
X312775395Y-100795674D01*
G37*
G36*
X312421841Y-101149227D02*
X312881460Y-100689608D01*
X313871409Y-101679557D01*
X313411790Y-102139176D01*
X312421841Y-101149227D01*
X312421841Y-101149227D01*
G37*
G36*
X312068288Y-101502781D02*
X312527907Y-101043162D01*
X313517856Y-102033111D01*
X313058237Y-102492730D01*
X312068288Y-101502781D01*
X312068288Y-101502781D01*
G37*
G36*
X311714734Y-101856334D02*
X312174353Y-101396715D01*
X313164302Y-102386664D01*
X312704683Y-102846283D01*
X311714734Y-101856334D01*
X311714734Y-101856334D01*
G37*
G36*
X311361181Y-102209887D02*
X311820800Y-101750268D01*
X312810749Y-102740217D01*
X312351130Y-103199836D01*
X311361181Y-102209887D01*
X311361181Y-102209887D01*
G37*
G36*
X311007628Y-102563441D02*
X311467247Y-102103822D01*
X312457196Y-103093771D01*
X311997577Y-103553390D01*
X311007628Y-102563441D01*
X311007628Y-102563441D01*
G37*
G36*
X310654074Y-102916994D02*
X311113693Y-102457375D01*
X312103642Y-103447324D01*
X311644023Y-103906943D01*
X310654074Y-102916994D01*
X310654074Y-102916994D01*
G37*
D25*
X253000000Y-228750000D03*
X253000000Y-232250000D03*
X228000000Y-228750000D03*
X228000000Y-232250000D03*
X203000000Y-228750000D03*
X203000000Y-232250000D03*
X178000000Y-228750000D03*
X178000000Y-232250000D03*
X253000000Y-203750000D03*
X253000000Y-207250000D03*
D26*
X230750000Y-205500000D03*
X227250000Y-205500000D03*
X205750000Y-205500000D03*
X202250000Y-205500000D03*
X180750000Y-205500000D03*
X177250000Y-205500000D03*
D25*
X253000000Y-178750000D03*
X253000000Y-182250000D03*
X228000000Y-178750000D03*
X228000000Y-182250000D03*
X203000000Y-178750000D03*
X203000000Y-182250000D03*
X178000000Y-178750000D03*
X178000000Y-182250000D03*
X253000000Y-153750000D03*
X253000000Y-157250000D03*
X228000000Y-153750000D03*
X228000000Y-157250000D03*
X203000000Y-153750000D03*
X203000000Y-157250000D03*
X178000000Y-153750000D03*
X178000000Y-157250000D03*
X153000000Y-228750000D03*
X153000000Y-232250000D03*
X128000000Y-228750000D03*
X128000000Y-232250000D03*
X103000000Y-228750000D03*
X103000000Y-232250000D03*
X78000000Y-228750000D03*
X78000000Y-232250000D03*
X153000000Y-203750000D03*
X153000000Y-207250000D03*
X128000000Y-203750000D03*
X128000000Y-207250000D03*
X103000000Y-203750000D03*
X103000000Y-207250000D03*
X78000000Y-203750000D03*
X78000000Y-207250000D03*
X153000000Y-178750000D03*
X153000000Y-182250000D03*
X128000000Y-178750000D03*
X128000000Y-182250000D03*
X103000000Y-178750000D03*
X103000000Y-182250000D03*
X78000000Y-178750000D03*
X78000000Y-182250000D03*
X153000000Y-153750000D03*
X153000000Y-157250000D03*
X128000000Y-153750000D03*
X128000000Y-157250000D03*
X103000000Y-153750000D03*
X103000000Y-157250000D03*
X78000000Y-153750000D03*
X78000000Y-157250000D03*
X253000000Y-128750000D03*
X253000000Y-132250000D03*
X228000000Y-128750000D03*
X228000000Y-132250000D03*
X203000000Y-128750000D03*
X203000000Y-132250000D03*
X178000000Y-128750000D03*
X178000000Y-132250000D03*
X253000000Y-103750000D03*
X253000000Y-107250000D03*
X228000000Y-103750000D03*
X228000000Y-107250000D03*
X203000000Y-103750000D03*
X203000000Y-107250000D03*
X178000000Y-103750000D03*
X178000000Y-107250000D03*
X253000000Y-78750000D03*
X253000000Y-82250000D03*
X228000000Y-78750000D03*
X228000000Y-82250000D03*
X203000000Y-78750000D03*
X203000000Y-82250000D03*
X178000000Y-78750000D03*
X178000000Y-82250000D03*
X253000000Y-53750000D03*
X253000000Y-57250000D03*
X228000000Y-53750000D03*
X228000000Y-57250000D03*
X203000000Y-53750000D03*
X203000000Y-57250000D03*
X178000000Y-53750000D03*
X178000000Y-57250000D03*
X153000000Y-128750000D03*
X153000000Y-132250000D03*
X128000000Y-128750000D03*
X128000000Y-132250000D03*
X103000000Y-128750000D03*
X103000000Y-132250000D03*
X78000000Y-128750000D03*
X78000000Y-132250000D03*
X153000000Y-103750000D03*
X153000000Y-107250000D03*
X128000000Y-103750000D03*
X128000000Y-107250000D03*
X103000000Y-103750000D03*
X103000000Y-107250000D03*
X78000000Y-103750000D03*
X78000000Y-107250000D03*
X153000000Y-78750000D03*
X153000000Y-82250000D03*
X128000000Y-78750000D03*
X128000000Y-82250000D03*
X103000000Y-78750000D03*
X103000000Y-82250000D03*
X78000000Y-78750000D03*
X78000000Y-82250000D03*
X153000000Y-53750000D03*
X153000000Y-57250000D03*
X128000000Y-53750000D03*
X128000000Y-57250000D03*
X103000000Y-53750000D03*
X103000000Y-57250000D03*
X78000000Y-53750000D03*
X78000000Y-57250000D03*
D27*
X325250000Y-48000000D03*
X323750000Y-48000000D03*
X305500000Y-86750000D03*
X307000000Y-86750000D03*
D28*
X323500000Y-95750000D03*
X323500000Y-97250000D03*
X273250000Y-135750000D03*
X273250000Y-137250000D03*
X270500000Y-115250000D03*
X270500000Y-113750000D03*
D27*
X274000000Y-160000000D03*
X272500000Y-160000000D03*
X274000000Y-161500000D03*
X272500000Y-161500000D03*
X274000000Y-163000000D03*
X272500000Y-163000000D03*
X274000000Y-164500000D03*
X272500000Y-164500000D03*
D28*
X275750000Y-70250000D03*
X275750000Y-71750000D03*
X275750000Y-66750000D03*
X275750000Y-68250000D03*
X275750000Y-63250000D03*
X275750000Y-64750000D03*
X275750000Y-59750000D03*
X275750000Y-61250000D03*
D27*
X324750000Y-135500000D03*
X326250000Y-135500000D03*
X321250000Y-135500000D03*
X322750000Y-135500000D03*
X317750000Y-135500000D03*
X319250000Y-135500000D03*
X314250000Y-135500000D03*
X315750000Y-135500000D03*
D28*
X274500000Y-90750000D03*
X274500000Y-92250000D03*
X274500000Y-87750000D03*
X274500000Y-89250000D03*
X274500000Y-84250000D03*
X274500000Y-85750000D03*
X274500000Y-80750000D03*
X274500000Y-82250000D03*
D27*
X231250000Y-96500000D03*
X232750000Y-96500000D03*
X231250000Y-95000000D03*
X232750000Y-95000000D03*
X231250000Y-93500000D03*
X232750000Y-93500000D03*
X231250000Y-92000000D03*
X232750000Y-92000000D03*
X298750000Y-135750000D03*
X297250000Y-135750000D03*
X295250000Y-135750000D03*
X293750000Y-135750000D03*
X291750000Y-135750000D03*
X290250000Y-135750000D03*
X288250000Y-135750000D03*
X286750000Y-135750000D03*
D28*
X249500000Y-146750000D03*
X249500000Y-145250000D03*
X249500000Y-196750000D03*
X249500000Y-195250000D03*
X249500000Y-143250000D03*
X249500000Y-141750000D03*
X249500000Y-193250000D03*
X249500000Y-191750000D03*
X249500000Y-139750000D03*
X249500000Y-138250000D03*
X249500000Y-189750000D03*
X249500000Y-188250000D03*
X249500000Y-136250000D03*
X249500000Y-134750000D03*
X249500000Y-186250000D03*
X249500000Y-184750000D03*
X249500000Y-121750000D03*
X249500000Y-120250000D03*
X249500000Y-171750000D03*
X249500000Y-170250000D03*
X249500000Y-118250000D03*
X249500000Y-116750000D03*
X249500000Y-168250000D03*
X249500000Y-166750000D03*
X249500000Y-114750000D03*
X249500000Y-113250000D03*
X249500000Y-164750000D03*
X249500000Y-163250000D03*
X249500000Y-111250000D03*
X249500000Y-109750000D03*
X249500000Y-161250000D03*
X249500000Y-159750000D03*
D29*
X299250000Y-107750000D03*
X299250000Y-106250000D03*
D30*
X302000000Y-110250000D03*
X303500000Y-110250000D03*
X294250000Y-104500000D03*
X295750000Y-104500000D03*
D10*
G36*
X308012652Y-89050520D02*
X307199480Y-88237348D01*
X308048008Y-87388820D01*
X308861180Y-88201992D01*
X308012652Y-89050520D01*
X308012652Y-89050520D01*
G37*
G36*
X306951992Y-90111180D02*
X306138820Y-89298008D01*
X306987348Y-88449480D01*
X307800520Y-89262652D01*
X306951992Y-90111180D01*
X306951992Y-90111180D01*
G37*
G36*
X301949480Y-100762652D02*
X302762652Y-99949480D01*
X303611180Y-100798008D01*
X302798008Y-101611180D01*
X301949480Y-100762652D01*
X301949480Y-100762652D01*
G37*
G36*
X300888820Y-99701992D02*
X301701992Y-98888820D01*
X302550520Y-99737348D01*
X301737348Y-100550520D01*
X300888820Y-99701992D01*
X300888820Y-99701992D01*
G37*
G36*
X307949480Y-105512652D02*
X308762652Y-104699480D01*
X309611180Y-105548008D01*
X308798008Y-106361180D01*
X307949480Y-105512652D01*
X307949480Y-105512652D01*
G37*
G36*
X306888820Y-104451992D02*
X307701992Y-103638820D01*
X308550520Y-104487348D01*
X307737348Y-105300520D01*
X306888820Y-104451992D01*
X306888820Y-104451992D01*
G37*
G36*
X312512652Y-105050520D02*
X311699480Y-104237348D01*
X312548008Y-103388820D01*
X313361180Y-104201992D01*
X312512652Y-105050520D01*
X312512652Y-105050520D01*
G37*
G36*
X311451992Y-106111180D02*
X310638820Y-105298008D01*
X311487348Y-104449480D01*
X312300520Y-105262652D01*
X311451992Y-106111180D01*
X311451992Y-106111180D01*
G37*
G36*
X318550520Y-93737348D02*
X317737348Y-94550520D01*
X316888820Y-93701992D01*
X317701992Y-92888820D01*
X318550520Y-93737348D01*
X318550520Y-93737348D01*
G37*
G36*
X319611180Y-94798008D02*
X318798008Y-95611180D01*
X317949480Y-94762652D01*
X318762652Y-93949480D01*
X319611180Y-94798008D01*
X319611180Y-94798008D01*
G37*
G36*
X301487348Y-93699480D02*
X302300520Y-94512652D01*
X301451992Y-95361180D01*
X300638820Y-94548008D01*
X301487348Y-93699480D01*
X301487348Y-93699480D01*
G37*
G36*
X302548008Y-92638820D02*
X303361180Y-93451992D01*
X302512652Y-94300520D01*
X301699480Y-93487348D01*
X302548008Y-92638820D01*
X302548008Y-92638820D01*
G37*
G36*
X309800520Y-87237348D02*
X308987348Y-88050520D01*
X308138820Y-87201992D01*
X308951992Y-86388820D01*
X309800520Y-87237348D01*
X309800520Y-87237348D01*
G37*
G36*
X310861180Y-88298008D02*
X310048008Y-89111180D01*
X309199480Y-88262652D01*
X310012652Y-87449480D01*
X310861180Y-88298008D01*
X310861180Y-88298008D01*
G37*
D30*
X308750000Y-84000000D03*
X310250000Y-84000000D03*
X308750000Y-85500000D03*
X310250000Y-85500000D03*
X279750000Y-140750000D03*
X281250000Y-140750000D03*
X264250000Y-110500000D03*
X262750000Y-110500000D03*
X264250000Y-160500000D03*
X262750000Y-160500000D03*
D31*
X274250000Y-70050000D03*
X274250000Y-71950000D03*
X272250000Y-71000000D03*
X274250000Y-66550000D03*
X274250000Y-68450000D03*
X272250000Y-67500000D03*
X274250000Y-63050000D03*
X274250000Y-64950000D03*
X272250000Y-64000000D03*
X274250000Y-59550000D03*
X274250000Y-61450000D03*
X272250000Y-60500000D03*
D32*
X324550000Y-137000000D03*
X326450000Y-137000000D03*
X325500000Y-139000000D03*
X321050000Y-137000000D03*
X322950000Y-137000000D03*
X322000000Y-139000000D03*
X317550000Y-137000000D03*
X319450000Y-137000000D03*
X318500000Y-139000000D03*
X314050000Y-137000000D03*
X315950000Y-137000000D03*
X315000000Y-139000000D03*
D31*
X273000000Y-91050000D03*
X273000000Y-92950000D03*
X271000000Y-92000000D03*
X273000000Y-87550000D03*
X273000000Y-89450000D03*
X271000000Y-88500000D03*
X273000000Y-84050000D03*
X273000000Y-85950000D03*
X271000000Y-85000000D03*
X273000000Y-80550000D03*
X273000000Y-82450000D03*
X271000000Y-81500000D03*
D32*
X297050000Y-137250000D03*
X298950000Y-137250000D03*
X298000000Y-139250000D03*
X293550000Y-137250000D03*
X295450000Y-137250000D03*
X294500000Y-139250000D03*
X290050000Y-137250000D03*
X291950000Y-137250000D03*
X291000000Y-139250000D03*
X286550000Y-137250000D03*
X288450000Y-137250000D03*
X287500000Y-139250000D03*
D31*
X248000000Y-145050000D03*
X248000000Y-146950000D03*
X246000000Y-146000000D03*
X248000000Y-195050000D03*
X248000000Y-196950000D03*
X246000000Y-196000000D03*
X248000000Y-141550000D03*
X248000000Y-143450000D03*
X246000000Y-142500000D03*
X248000000Y-191550000D03*
X248000000Y-193450000D03*
X246000000Y-192500000D03*
X248000000Y-138050000D03*
X248000000Y-139950000D03*
X246000000Y-139000000D03*
X248000000Y-188050000D03*
X248000000Y-189950000D03*
X246000000Y-189000000D03*
X248000000Y-134550000D03*
X248000000Y-136450000D03*
X246000000Y-135500000D03*
X248000000Y-184550000D03*
X248000000Y-186450000D03*
X246000000Y-185500000D03*
X248000000Y-120050000D03*
X248000000Y-121950000D03*
X246000000Y-121000000D03*
X248000000Y-170050000D03*
X248000000Y-171950000D03*
X246000000Y-171000000D03*
X248000000Y-116550000D03*
X248000000Y-118450000D03*
X246000000Y-117500000D03*
X248000000Y-166550000D03*
X248000000Y-168450000D03*
X246000000Y-167500000D03*
X248000000Y-113050000D03*
X248000000Y-114950000D03*
X246000000Y-114000000D03*
X248000000Y-163050000D03*
X248000000Y-164950000D03*
X246000000Y-164000000D03*
X248000000Y-109550000D03*
X248000000Y-111450000D03*
X246000000Y-110500000D03*
X248000000Y-159550000D03*
X248000000Y-161450000D03*
X246000000Y-160500000D03*
D33*
X267800000Y-71500000D03*
X270700000Y-71500000D03*
X267800000Y-69000000D03*
X270700000Y-69000000D03*
X267800000Y-66500000D03*
X270700000Y-66500000D03*
X267800000Y-64000000D03*
X270700000Y-64000000D03*
D34*
X325000000Y-143450000D03*
X325000000Y-140550000D03*
X322500000Y-143450000D03*
X322500000Y-140550000D03*
X319000000Y-143450000D03*
X319000000Y-140550000D03*
X315000000Y-143450000D03*
X315000000Y-140550000D03*
D33*
X266550000Y-93500000D03*
X269450000Y-93500000D03*
X266550000Y-91000000D03*
X269450000Y-91000000D03*
X266550000Y-83000000D03*
X269450000Y-83000000D03*
X266550000Y-80500000D03*
X269450000Y-80500000D03*
D35*
X316770000Y-80500000D03*
X324390000Y-80500000D03*
X319310000Y-80500000D03*
X321850000Y-80500000D03*
X309150000Y-80500000D03*
X311690000Y-80500000D03*
D36*
X306610000Y-80500000D03*
D24*
X336000000Y-39500000D03*
X295000000Y-39500000D03*
X295000000Y-80500000D03*
X336000000Y-80500000D03*
D35*
X314230000Y-80500000D03*
D37*
X275050000Y-139275000D03*
X275050000Y-138625000D03*
X275050000Y-137975000D03*
X275050000Y-137325000D03*
X275050000Y-136675000D03*
X275050000Y-136025000D03*
X275050000Y-135375000D03*
X275050000Y-134725000D03*
X280950000Y-134725000D03*
X280950000Y-135375000D03*
X280950000Y-136025000D03*
X280950000Y-136675000D03*
X280950000Y-137325000D03*
X280950000Y-137975000D03*
X280950000Y-138625000D03*
X280950000Y-139275000D03*
X268450000Y-111725000D03*
X268450000Y-112375000D03*
X268450000Y-113025000D03*
X268450000Y-113675000D03*
X268450000Y-114325000D03*
X268450000Y-114975000D03*
X268450000Y-115625000D03*
X268450000Y-116275000D03*
X262550000Y-116275000D03*
X262550000Y-115625000D03*
X262550000Y-114975000D03*
X262550000Y-114325000D03*
X262550000Y-113675000D03*
X262550000Y-113025000D03*
X262550000Y-112375000D03*
X262550000Y-111725000D03*
X268450000Y-161725000D03*
X268450000Y-162375000D03*
X268450000Y-163025000D03*
X268450000Y-163675000D03*
X268450000Y-164325000D03*
X268450000Y-164975000D03*
X268450000Y-165625000D03*
X268450000Y-166275000D03*
X262550000Y-166275000D03*
X262550000Y-165625000D03*
X262550000Y-164975000D03*
X262550000Y-164325000D03*
X262550000Y-163675000D03*
X262550000Y-163025000D03*
X262550000Y-162375000D03*
X262550000Y-161725000D03*
D38*
X304090000Y-108400000D03*
X301410000Y-108400000D03*
X301410000Y-105600000D03*
X304090000Y-105600000D03*
D39*
X335500000Y-96000000D03*
D40*
X335500000Y-98540000D03*
X335500000Y-101080000D03*
X335500000Y-103620000D03*
D41*
X331500000Y-41850000D03*
X326500000Y-41850000D03*
D42*
X332500000Y-39150000D03*
D43*
X325500000Y-39150000D03*
M02*
