M48
; DRILL file {KiCad 5.1.4+dfsg1-1} date 2020 m. vasario 07 d. 22:37:14
; FORMAT={-:-/ absolute / metric / decimal}
; #@! TF.CreationDate,2020-02-07T22:37:14+02:00
; #@! TF.GenerationSoftware,Kicad,Pcbnew,5.1.4+dfsg1-1
; #@! TF.FileFunction,NonPlated,1,2,NPTH
FMAT,2
METRIC
T1C1.200
T2C1.700
T3C2.000
T4C2.200
T5C3.000
%
G90
G05
T1
X299.0Y-40.5
X299.0Y-43.0
X304.0Y-48.0
X309.0Y-40.5
X309.0Y-43.0
X311.5Y-40.5
X311.5Y-43.0
X316.5Y-48.0
X321.5Y-40.5
X321.5Y-43.0
T2
X278.0Y-220.5
X278.0Y-229.5
X328.0Y-170.5
X328.0Y-179.5
X303.0Y-170.5
X303.0Y-179.5
X278.0Y-95.5
X278.0Y-104.5
X278.0Y-145.5
X278.0Y-154.5
X278.0Y-120.5
X278.0Y-129.5
X278.0Y-170.5
X278.0Y-179.5
X278.0Y-45.5
X278.0Y-54.5
X278.0Y-70.5
X278.0Y-79.5
X328.0Y-195.5
X328.0Y-204.5
X303.0Y-195.5
X303.0Y-204.5
X278.0Y-195.5
X278.0Y-204.5
X328.0Y-145.5
X328.0Y-154.5
X303.0Y-145.5
X303.0Y-154.5
T3
X295.0Y-39.5
X295.0Y-80.5
X336.0Y-39.5
X336.0Y-80.5
T4
X168.0Y-40.0
X168.0Y-85.0
X168.0Y-90.0
X168.0Y-135.0
X213.0Y-40.0
X213.0Y-85.0
X213.0Y-90.0
X213.0Y-135.0
X218.0Y-40.0
X218.0Y-85.0
X218.0Y-90.0
X218.0Y-135.0
X263.0Y-40.0
X263.0Y-85.0
X263.0Y-90.0
X263.0Y-135.0
X338.0Y-44.0
X338.0Y-235.0
X68.0Y-40.0
X68.0Y-85.0
X68.0Y-90.0
X68.0Y-135.0
X113.0Y-40.0
X113.0Y-85.0
X113.0Y-90.0
X113.0Y-135.0
X118.0Y-40.0
X118.0Y-85.0
X118.0Y-90.0
X118.0Y-135.0
X163.0Y-40.0
X163.0Y-85.0
X163.0Y-90.0
X163.0Y-135.0
X68.0Y-140.0
X68.0Y-185.0
X68.0Y-190.0
X68.0Y-235.0
X113.0Y-140.0
X113.0Y-185.0
X113.0Y-190.0
X113.0Y-235.0
X118.0Y-140.0
X118.0Y-185.0
X118.0Y-190.0
X118.0Y-235.0
X163.0Y-140.0
X163.0Y-185.0
X163.0Y-190.0
X163.0Y-235.0
X338.0Y-135.0
X168.0Y-140.0
X168.0Y-185.0
X168.0Y-190.0
X168.0Y-235.0
X213.0Y-140.0
X213.0Y-185.0
X213.0Y-190.0
X213.0Y-235.0
X218.0Y-140.0
X218.0Y-185.0
X218.0Y-190.0
X218.0Y-235.0
X263.0Y-140.0
X263.0Y-185.0
X263.0Y-190.0
X263.0Y-235.0
T5
X178.0Y-62.5
X178.0Y-112.5
X190.5Y-50.0
X190.5Y-75.0
X190.5Y-100.0
X190.5Y-125.0
X203.0Y-62.5
X203.0Y-112.5
X228.0Y-62.5
X228.0Y-112.5
X240.5Y-50.0
X240.5Y-75.0
X240.5Y-100.0
X240.5Y-125.0
X253.0Y-62.5
X253.0Y-112.5
X78.0Y-62.5
X78.0Y-112.5
X90.5Y-50.0
X90.5Y-75.0
X90.5Y-100.0
X90.5Y-125.0
X103.0Y-62.5
X103.0Y-112.5
X128.0Y-62.5
X128.0Y-112.5
X140.5Y-50.0
X140.5Y-75.0
X140.5Y-100.0
X140.5Y-125.0
X153.0Y-62.5
X153.0Y-112.5
X78.0Y-162.5
X78.0Y-212.5
X90.5Y-150.0
X90.5Y-175.0
X90.5Y-200.0
X90.5Y-225.0
X103.0Y-162.5
X103.0Y-212.5
X128.0Y-162.5
X128.0Y-212.5
X140.5Y-150.0
X140.5Y-175.0
X140.5Y-200.0
X140.5Y-225.0
X153.0Y-162.5
X153.0Y-212.5
X178.0Y-162.5
X178.0Y-212.5
X190.5Y-150.0
X190.5Y-175.0
X190.5Y-200.0
X190.5Y-225.0
X203.0Y-162.5
X203.0Y-212.5
X228.0Y-162.5
X228.0Y-212.5
X240.5Y-150.0
X240.5Y-175.0
X240.5Y-200.0
X240.5Y-225.0
X253.0Y-162.5
X253.0Y-212.5
T0
M30
