M48
; DRILL file {KiCad 5.1.4+dfsg1-1} date 2020 m. vasario 07 d. 22:37:14
; FORMAT={-:-/ absolute / metric / decimal}
; #@! TF.CreationDate,2020-02-07T22:37:14+02:00
; #@! TF.GenerationSoftware,Kicad,Pcbnew,5.1.4+dfsg1-1
; #@! TF.FileFunction,Plated,1,2,PTH
FMAT,2
METRIC
T1C0.500
T2C0.700
T3C0.800
T4C0.900
T5C1.000
T6C1.200
T7C2.200
%
G90
G05
T1
X68.0Y-45.0
X68.0Y-80.0
X68.0Y-95.0
X68.0Y-130.0
X68.0Y-145.0
X68.0Y-180.0
X68.0Y-195.0
X68.0Y-230.0
X70.0Y-116.5
X70.0Y-166.5
X73.0Y-40.0
X73.0Y-235.0
X77.0Y-57.5
X77.0Y-82.5
X77.0Y-107.5
X77.0Y-132.5
X77.0Y-157.5
X77.0Y-182.5
X77.0Y-207.5
X77.0Y-232.5
X90.5Y-62.5
X90.5Y-87.5
X90.5Y-112.5
X90.5Y-137.5
X90.5Y-162.5
X90.5Y-187.5
X90.5Y-212.5
X95.0Y-118.0
X95.0Y-168.0
X102.0Y-57.5
X102.0Y-82.5
X102.0Y-107.5
X102.0Y-132.5
X102.0Y-157.5
X102.0Y-182.5
X102.0Y-207.5
X102.0Y-232.5
X103.0Y-87.5
X103.0Y-187.5
X108.0Y-40.0
X108.0Y-137.5
X108.0Y-235.0
X115.5Y-62.5
X115.5Y-112.5
X115.5Y-162.5
X115.5Y-212.5
X120.0Y-119.5
X120.0Y-169.5
X123.0Y-40.0
X123.0Y-235.0
X127.0Y-57.5
X127.0Y-82.5
X127.0Y-107.5
X127.0Y-132.5
X127.0Y-157.5
X127.0Y-182.5
X127.0Y-207.5
X127.0Y-232.5
X140.5Y-62.5
X140.5Y-87.5
X140.5Y-112.5
X140.5Y-137.5
X140.5Y-162.5
X140.5Y-187.5
X140.5Y-212.5
X145.0Y-121.0
X145.0Y-171.0
X148.0Y-212.5
X152.0Y-57.5
X152.0Y-82.5
X152.0Y-107.5
X152.0Y-132.5
X152.0Y-157.5
X152.0Y-182.5
X152.0Y-207.5
X152.0Y-232.5
X158.0Y-40.0
X158.0Y-187.5
X158.0Y-235.0
X160.5Y-162.5
X161.5Y-95.5
X161.5Y-153.5
X162.0Y-54.0
X163.0Y-178.5
X163.5Y-79.0
X163.5Y-95.5
X165.5Y-62.5
X165.5Y-82.5
X167.0Y-96.0
X167.5Y-103.5
X167.5Y-204.5
X168.5Y-96.5
X168.5Y-128.5
X169.5Y-228.5
X173.0Y-40.0
X173.0Y-112.5
X173.0Y-193.0
X173.0Y-235.0
X173.5Y-132.5
X175.5Y-140.0
X177.0Y-57.5
X177.0Y-82.5
X177.0Y-107.5
X177.0Y-132.5
X177.0Y-157.5
X177.0Y-182.5
X177.0Y-207.5
X177.0Y-232.5
X178.0Y-87.5
X178.0Y-187.5
X183.0Y-87.5
X185.0Y-137.5
X185.5Y-112.5
X185.5Y-162.5
X186.5Y-52.0
X186.5Y-71.0
X186.5Y-152.5
X188.0Y-178.5
X188.5Y-71.0
X188.5Y-79.0
X190.5Y-62.5
X190.5Y-187.5
X190.5Y-212.5
X192.0Y-71.0
X192.5Y-104.0
X192.5Y-204.0
X193.5Y-71.5
X193.5Y-128.0
X194.5Y-227.0
X195.5Y-144.5
X195.5Y-194.5
X198.0Y-112.5
X198.0Y-212.5
X202.0Y-57.5
X202.0Y-82.5
X202.0Y-107.5
X202.0Y-132.5
X202.0Y-157.5
X202.0Y-182.5
X202.0Y-207.5
X202.0Y-232.5
X203.0Y-87.5
X203.0Y-137.5
X203.0Y-187.5
X207.0Y-160.0
X208.0Y-40.0
X208.0Y-62.5
X208.0Y-235.0
X210.5Y-112.5
X211.5Y-150.0
X212.0Y-50.0
X213.5Y-75.0
X213.5Y-175.0
X215.5Y-62.5
X215.5Y-82.5
X217.5Y-200.0
X218.5Y-100.0
X218.5Y-125.0
X218.5Y-225.0
X220.5Y-146.0
X220.5Y-196.0
X223.0Y-40.0
X223.0Y-112.5
X223.0Y-235.0
X227.0Y-57.5
X227.0Y-82.5
X227.0Y-107.5
X227.0Y-132.5
X227.0Y-157.5
X227.0Y-182.5
X227.0Y-207.5
X227.0Y-232.5
X228.0Y-87.5
X228.0Y-137.5
X228.0Y-187.5
X230.5Y-215.0
X232.0Y-160.0
X233.0Y-87.5
X234.5Y-62.5
X235.5Y-112.5
X236.0Y-181.0
X236.5Y-94.0
X236.5Y-148.0
X237.0Y-48.0
X238.5Y-73.0
X238.5Y-94.0
X238.5Y-173.0
X240.5Y-62.5
X241.5Y-94.0
X242.5Y-198.0
X242.595Y-98.095
X243.5Y-94.0
X243.5Y-122.5
X243.5Y-222.5
X245.5Y-145.5
X245.5Y-195.5
X250.5Y-215.0
X252.0Y-57.5
X252.0Y-82.5
X252.0Y-107.5
X252.0Y-132.5
X252.0Y-157.5
X252.0Y-182.5
X252.0Y-207.5
X252.0Y-232.5
X253.0Y-85.0
X258.0Y-40.0
X258.0Y-107.5
X258.0Y-117.5
X258.0Y-157.5
X258.0Y-235.0
X259.5Y-140.0
X259.5Y-187.5
X259.5Y-205.25
X260.5Y-196.25
X260.75Y-221.5
X261.5Y-110.5
X261.5Y-123.0
X261.5Y-146.75
X261.5Y-160.5
X261.5Y-173.0
X263.0Y-121.75
X263.0Y-130.5
X263.0Y-171.75
X263.0Y-180.5
X263.25Y-105.25
X263.25Y-145.25
X263.25Y-155.25
X263.5Y-65.5
X264.0Y-120.5
X264.0Y-132.0
X264.0Y-170.5
X264.0Y-182.0
X265.0Y-87.5
X265.0Y-121.75
X265.0Y-130.5
X265.0Y-171.75
X265.0Y-180.5
X265.5Y-57.5
X265.5Y-118.75
X265.5Y-168.75
X265.75Y-110.5
X265.75Y-160.5
X266.0Y-120.5
X266.0Y-170.5
X267.0Y-132.0
X267.0Y-182.0
X267.25Y-130.25
X267.25Y-173.25
X267.25Y-180.25
X267.75Y-167.75
X268.0Y-40.0
X268.0Y-117.75
X268.0Y-122.5
X268.0Y-235.0
X268.25Y-138.5
X270.0Y-159.25
X270.0Y-161.0
X270.5Y-105.25
X270.5Y-111.0
X271.0Y-164.25
X271.25Y-93.75
X271.25Y-130.25
X271.25Y-145.25
X271.25Y-155.25
X271.5Y-83.0
X271.5Y-86.75
X271.5Y-90.75
X271.5Y-161.5
X271.75Y-166.75
X272.0Y-111.5
X272.0Y-113.0
X272.0Y-141.5
X272.0Y-163.0
X272.5Y-140.0
X272.75Y-62.5
X272.75Y-66.25
X272.75Y-69.5
X273.0Y-72.5
X273.0Y-115.5
X273.0Y-138.5
X273.5Y-113.0
X273.5Y-117.25
X274.5Y-109.25
X275.0Y-133.25
X275.25Y-145.75
X275.25Y-155.25
X275.25Y-173.25
X275.75Y-122.75
X275.75Y-130.25
X276.0Y-196.5
X276.25Y-83.0
X276.25Y-142.75
X276.75Y-136.25
X277.75Y-89.0
X278.5Y-81.5
X278.75Y-86.5
X279.25Y-77.75
X279.5Y-142.5
X279.5Y-219.0
X279.75Y-227.5
X282.0Y-50.0
X282.0Y-59.75
X282.0Y-75.25
X282.0Y-79.0
X282.0Y-84.75
X282.0Y-100.25
X282.0Y-105.5
X282.0Y-113.0
X282.0Y-116.5
X282.0Y-125.25
X282.0Y-150.0
X282.0Y-166.5
X282.0Y-175.0
X282.0Y-191.5
X282.0Y-200.25
X282.75Y-134.0
X285.0Y-54.75
X285.0Y-59.75
X285.0Y-79.75
X285.0Y-84.75
X285.0Y-110.25
X285.0Y-129.75
X285.0Y-163.75
X285.0Y-179.75
X285.0Y-188.5
X285.0Y-204.75
X285.0Y-213.5
X287.5Y-44.5
X287.5Y-69.5
X287.5Y-90.75
X287.75Y-65.75
X288.25Y-139.5
X288.5Y-46.0
X288.5Y-71.0
X288.5Y-96.0
X288.5Y-115.5
X288.5Y-121.0
X288.5Y-146.0
X288.5Y-171.0
X288.5Y-196.0
X288.5Y-221.0
X290.0Y-77.0
X290.0Y-105.0
X290.0Y-170.0
X290.0Y-220.0
X290.25Y-139.5
X290.5Y-121.0
X290.5Y-147.5
X291.0Y-191.25
X291.75Y-68.75
X292.25Y-93.75
X292.5Y-95.5
X292.5Y-97.0
X293.0Y-63.25
X293.0Y-158.5
X293.75Y-179.75
X294.0Y-97.0
X294.0Y-98.5
X294.5Y-71.5
X294.75Y-59.75
X295.25Y-139.5
X295.25Y-141.75
X295.5Y-98.5
X295.5Y-100.0
X295.75Y-211.25
X296.0Y-132.5
X296.5Y-89.25
X296.75Y-42.25
X296.75Y-73.75
X297.0Y-121.0
X297.25Y-100.0
X297.5Y-115.5
X297.75Y-200.75
X298.0Y-162.0
X298.75Y-102.5
X299.25Y-76.25
X299.25Y-87.0
X299.75Y-51.75
X299.75Y-110.0
X300.25Y-91.75
X300.25Y-116.75
X300.25Y-127.0
X300.5Y-90.25
X301.0Y-99.25
X301.25Y-180.75
X301.75Y-114.0
X302.0Y-93.0
X302.0Y-95.0
X302.75Y-73.0
X303.0Y-235.0
X303.75Y-85.75
X304.0Y-96.5
X304.0Y-111.75
X304.0Y-137.75
X304.5Y-59.75
X304.5Y-63.25
X304.75Y-82.5
X304.75Y-116.75
X305.25Y-110.25
X305.5Y-139.0
X305.5Y-147.5
X305.5Y-154.5
X305.5Y-160.5
X305.5Y-168.0
X305.5Y-176.5
X305.5Y-193.0
X305.5Y-201.75
X305.75Y-98.0
X306.25Y-111.5
X307.0Y-114.0
X307.25Y-110.25
X307.5Y-99.5
X308.0Y-107.0
X308.0Y-127.5
X308.5Y-87.75
X308.5Y-101.0
X308.5Y-204.5
X308.75Y-83.0
X309.0Y-179.75
X309.0Y-189.5
X310.0Y-90.5
X310.0Y-100.0
X310.25Y-66.75
X310.25Y-106.25
X310.5Y-88.75
X311.0Y-78.0
X311.25Y-101.25
X311.25Y-119.75
X311.5Y-84.0
X311.5Y-111.0
X311.75Y-195.25
X312.5Y-136.5
X313.0Y-61.5
X313.25Y-59.75
X313.5Y-146.0
X313.5Y-171.0
X313.75Y-50.75
X314.0Y-55.5
X314.5Y-95.5
X315.25Y-106.75
X315.5Y-171.0
X316.0Y-217.5
X316.25Y-138.5
X316.5Y-88.0
X316.75Y-69.25
X316.75Y-85.25
X317.0Y-156.5
X317.0Y-160.5
X317.25Y-89.5
X317.5Y-71.0
X317.5Y-78.25
X317.5Y-110.0
X317.75Y-97.5
X318.0Y-100.25
X318.25Y-95.25
X318.75Y-69.25
X318.75Y-90.25
X318.75Y-179.75
X319.25Y-72.0
X319.5Y-88.75
X319.75Y-138.5
X320.0Y-97.5
X320.25Y-59.75
X320.25Y-117.75
X320.25Y-132.75
X321.0Y-78.25
X321.0Y-160.5
X321.0Y-186.25
X321.25Y-52.5
X321.25Y-90.5
X321.5Y-94.0
X321.865Y-168.135
X322.0Y-60.0
X322.5Y-144.25
X323.25Y-86.0
X323.25Y-105.5
X323.25Y-138.5
X323.5Y-46.25
X323.5Y-178.0
X324.5Y-144.25
X324.75Y-116.25
X324.75Y-122.5
X324.75Y-128.25
X325.0Y-173.5
X325.25Y-50.75
X325.5Y-56.5
X325.5Y-58.75
X325.5Y-61.0
X326.0Y-48.0
X326.25Y-90.5
X326.25Y-155.75
X326.75Y-55.0
X326.75Y-64.25
X326.75Y-109.0
X327.0Y-138.5
X327.75Y-46.25
X328.0Y-56.5
X328.0Y-58.75
X328.0Y-61.0
X328.0Y-63.0
X328.25Y-106.0
X328.75Y-49.25
X328.75Y-83.25
X329.0Y-109.0
X329.25Y-152.75
X329.5Y-169.0
X329.5Y-177.75
X329.5Y-193.75
X329.5Y-211.25
X330.25Y-134.0
X331.0Y-132.75
X331.25Y-122.5
X331.25Y-129.75
X332.0Y-98.0
X332.25Y-133.5
X332.75Y-49.0
X332.75Y-118.75
X333.0Y-106.0
X333.0Y-173.5
X333.0Y-175.5
X333.0Y-235.0
X334.5Y-122.5
X334.5Y-131.0
X335.25Y-42.75
X336.0Y-90.5
X336.75Y-92.75
X337.0Y-145.5
X337.75Y-54.0
X337.75Y-66.5
X337.75Y-83.25
X338.0Y-205.0
X338.0Y-230.0
X339.25Y-46.75
X339.25Y-51.0
X339.25Y-92.75
X339.25Y-94.5
X339.25Y-112.5
X339.25Y-132.25
X339.25Y-179.75
T2
X128.0Y-198.095
X128.0Y-199.365
X128.0Y-200.635
X128.0Y-201.905
X78.0Y-98.095
X78.0Y-99.365
X78.0Y-100.635
X78.0Y-101.905
X285.5Y-190.595
X285.5Y-191.865
X285.5Y-193.135
X285.5Y-194.405
X203.0Y-223.095
X203.0Y-224.365
X203.0Y-225.635
X203.0Y-226.905
X203.0Y-123.095
X203.0Y-124.365
X203.0Y-125.635
X203.0Y-126.905
X78.0Y-73.095
X78.0Y-74.365
X78.0Y-75.635
X78.0Y-76.905
X153.0Y-198.095
X153.0Y-199.365
X153.0Y-200.635
X153.0Y-201.905
X103.0Y-123.095
X103.0Y-124.365
X103.0Y-125.635
X103.0Y-126.905
X178.0Y-123.095
X178.0Y-124.365
X178.0Y-125.635
X178.0Y-126.905
X253.0Y-48.095
X253.0Y-49.365
X253.0Y-50.635
X253.0Y-51.905
X128.0Y-48.095
X128.0Y-49.365
X128.0Y-50.635
X128.0Y-51.905
X78.0Y-173.095
X78.0Y-174.365
X78.0Y-175.635
X78.0Y-176.905
X203.0Y-73.095
X203.0Y-74.365
X203.0Y-75.635
X203.0Y-76.905
X203.0Y-98.095
X203.0Y-99.365
X203.0Y-100.635
X203.0Y-101.905
X153.0Y-73.095
X153.0Y-74.365
X153.0Y-75.635
X153.0Y-76.905
X103.0Y-98.095
X103.0Y-99.365
X103.0Y-100.635
X103.0Y-101.905
X228.0Y-123.095
X228.0Y-124.365
X228.0Y-125.635
X228.0Y-126.905
X78.0Y-223.095
X78.0Y-224.365
X78.0Y-225.635
X78.0Y-226.905
X228.0Y-48.095
X228.0Y-49.365
X228.0Y-50.635
X228.0Y-51.905
X153.0Y-173.095
X153.0Y-174.365
X153.0Y-175.635
X153.0Y-176.905
X178.0Y-198.095
X178.0Y-199.365
X178.0Y-200.635
X178.0Y-201.905
X228.0Y-198.095
X228.0Y-199.365
X228.0Y-200.635
X228.0Y-201.905
X178.0Y-73.095
X178.0Y-74.365
X178.0Y-75.635
X178.0Y-76.905
X178.0Y-223.095
X178.0Y-224.365
X178.0Y-225.635
X178.0Y-226.905
X103.0Y-198.095
X103.0Y-199.365
X103.0Y-200.635
X103.0Y-201.905
X78.0Y-198.095
X78.0Y-199.365
X78.0Y-200.635
X78.0Y-201.905
X228.0Y-73.095
X228.0Y-74.365
X228.0Y-75.635
X228.0Y-76.905
X310.5Y-165.595
X310.5Y-166.865
X310.5Y-168.135
X310.5Y-169.405
X178.0Y-148.095
X178.0Y-149.365
X178.0Y-150.635
X178.0Y-151.905
X78.0Y-148.095
X78.0Y-149.365
X78.0Y-150.635
X78.0Y-151.905
X128.0Y-123.095
X128.0Y-124.365
X128.0Y-125.635
X128.0Y-126.905
X228.0Y-98.095
X228.0Y-99.365
X228.0Y-100.635
X228.0Y-101.905
X253.0Y-98.095
X253.0Y-99.365
X253.0Y-100.635
X253.0Y-101.905
X285.5Y-140.595
X285.5Y-141.865
X285.5Y-143.135
X285.5Y-144.405
X128.0Y-148.095
X128.0Y-149.365
X128.0Y-150.635
X128.0Y-151.905
X103.0Y-223.095
X103.0Y-224.365
X103.0Y-225.635
X103.0Y-226.905
X285.5Y-65.595
X285.5Y-66.865
X285.5Y-68.135
X285.5Y-69.405
X178.0Y-48.095
X178.0Y-49.365
X178.0Y-50.635
X178.0Y-51.905
X153.0Y-48.095
X153.0Y-49.365
X153.0Y-50.635
X153.0Y-51.905
X203.0Y-198.095
X203.0Y-199.365
X203.0Y-200.635
X203.0Y-201.905
X178.0Y-98.095
X178.0Y-99.365
X178.0Y-100.635
X178.0Y-101.905
X128.0Y-73.095
X128.0Y-74.365
X128.0Y-75.635
X128.0Y-76.905
X285.5Y-215.595
X285.5Y-216.865
X285.5Y-218.135
X285.5Y-219.405
X228.0Y-148.095
X228.0Y-149.365
X228.0Y-150.635
X228.0Y-151.905
X153.0Y-98.095
X153.0Y-99.365
X153.0Y-100.635
X153.0Y-101.905
X203.0Y-173.095
X203.0Y-174.365
X203.0Y-175.635
X203.0Y-176.905
X253.0Y-223.095
X253.0Y-224.365
X253.0Y-225.635
X253.0Y-226.905
X335.5Y-165.595
X335.5Y-166.865
X335.5Y-168.135
X335.5Y-169.405
X203.0Y-48.095
X203.0Y-49.365
X203.0Y-50.635
X203.0Y-51.905
X310.5Y-140.595
X310.5Y-141.865
X310.5Y-143.135
X310.5Y-144.405
X103.0Y-173.095
X103.0Y-174.365
X103.0Y-175.635
X103.0Y-176.905
X78.0Y-48.095
X78.0Y-49.365
X78.0Y-50.635
X78.0Y-51.905
X253.0Y-173.095
X253.0Y-174.365
X253.0Y-175.635
X253.0Y-176.905
X128.0Y-98.095
X128.0Y-99.365
X128.0Y-100.635
X128.0Y-101.905
X228.0Y-173.095
X228.0Y-174.365
X228.0Y-175.635
X228.0Y-176.905
X253.0Y-148.095
X253.0Y-149.365
X253.0Y-150.635
X253.0Y-151.905
X128.0Y-223.095
X128.0Y-224.365
X128.0Y-225.635
X128.0Y-226.905
X153.0Y-223.095
X153.0Y-224.365
X153.0Y-225.635
X153.0Y-226.905
X153.0Y-148.095
X153.0Y-149.365
X153.0Y-150.635
X153.0Y-151.905
X253.0Y-198.095
X253.0Y-199.365
X253.0Y-200.635
X253.0Y-201.905
X103.0Y-73.095
X103.0Y-74.365
X103.0Y-75.635
X103.0Y-76.905
X285.5Y-115.595
X285.5Y-116.865
X285.5Y-118.135
X285.5Y-119.405
X178.0Y-173.095
X178.0Y-174.365
X178.0Y-175.635
X178.0Y-176.905
X285.5Y-90.595
X285.5Y-91.865
X285.5Y-93.135
X285.5Y-94.405
X203.0Y-148.095
X203.0Y-149.365
X203.0Y-150.635
X203.0Y-151.905
X78.0Y-123.095
X78.0Y-124.365
X78.0Y-125.635
X78.0Y-126.905
X253.0Y-73.095
X253.0Y-74.365
X253.0Y-75.635
X253.0Y-76.905
X128.0Y-173.095
X128.0Y-174.365
X128.0Y-175.635
X128.0Y-176.905
X253.0Y-123.095
X253.0Y-124.365
X253.0Y-125.635
X253.0Y-126.905
X285.5Y-165.595
X285.5Y-166.865
X285.5Y-168.135
X285.5Y-169.405
X335.5Y-140.595
X335.5Y-141.865
X335.5Y-143.135
X335.5Y-144.405
X228.0Y-223.095
X228.0Y-224.365
X228.0Y-225.635
X228.0Y-226.905
X103.0Y-48.095
X103.0Y-49.365
X103.0Y-50.635
X103.0Y-51.905
X285.5Y-40.595
X285.5Y-41.865
X285.5Y-43.135
X285.5Y-44.405
X315.5Y-110.595
X315.5Y-111.865
X315.5Y-113.135
X315.5Y-114.405
X103.0Y-148.095
X103.0Y-149.365
X103.0Y-150.635
X103.0Y-151.905
X153.0Y-123.095
X153.0Y-124.365
X153.0Y-125.635
X153.0Y-126.905
T3
X326.5Y-41.85
X331.5Y-41.85
T4
X306.61Y-80.5
X309.15Y-80.5
X311.69Y-80.5
X314.23Y-80.5
X316.77Y-80.5
X319.31Y-80.5
X321.85Y-80.5
X324.39Y-80.5
T5
X335.5Y-96.0
X335.5Y-98.54
X335.5Y-101.08
X335.5Y-103.62
X300.5Y-217.5
X303.0Y-217.5
X305.5Y-217.5
X325.5Y-217.5
X328.0Y-217.5
X330.5Y-217.5
T6
X299.0Y-48.0
X301.5Y-48.0
X304.0Y-43.0
X306.5Y-48.0
X309.0Y-48.0
X325.5Y-39.15
X332.5Y-39.15
X311.5Y-48.0
X314.0Y-48.0
X316.5Y-43.0
X319.0Y-48.0
X321.5Y-48.0
T7
X296.0Y-225.0
X310.0Y-225.0
X321.0Y-225.0
X335.0Y-225.0
T0
M30
