%TF.GenerationSoftware,KiCad,Pcbnew,5.1.6-c6e7f7d~87~ubuntu20.04.1*%
%TF.CreationDate,2020-09-20T16:54:06+03:00*%
%TF.ProjectId,lcd_board,6c63645f-626f-4617-9264-2e6b69636164,rev?*%
%TF.SameCoordinates,Original*%
%TF.FileFunction,Copper,L2,Bot*%
%TF.FilePolarity,Positive*%
%FSLAX46Y46*%
G04 Gerber Fmt 4.6, Leading zero omitted, Abs format (unit mm)*
G04 Created by KiCad (PCBNEW 5.1.6-c6e7f7d~87~ubuntu20.04.1) date 2020-09-20 16:54:06*
%MOMM*%
%LPD*%
G01*
G04 APERTURE LIST*
%TA.AperFunction,EtchedComponent*%
%ADD10C,0.010000*%
%TD*%
%TA.AperFunction,SMDPad,CuDef*%
%ADD11R,1.000000X2.510000*%
%TD*%
%TA.AperFunction,SMDPad,CuDef*%
%ADD12R,0.800000X0.900000*%
%TD*%
%TA.AperFunction,ViaPad*%
%ADD13C,1.000000*%
%TD*%
%TA.AperFunction,Conductor*%
%ADD14C,0.500000*%
%TD*%
%TA.AperFunction,Conductor*%
%ADD15C,0.200000*%
%TD*%
G04 APERTURE END LIST*
D10*
%TO.C,LOGO1*%
G36*
X172080091Y-94709560D02*
G01*
X172027588Y-94735499D01*
X171962842Y-94780700D01*
X171915653Y-94829991D01*
X171883335Y-94891885D01*
X171863203Y-94974896D01*
X171852570Y-95087538D01*
X171848753Y-95238324D01*
X171848530Y-95303149D01*
X171849182Y-95445221D01*
X171851888Y-95546757D01*
X171857776Y-95617015D01*
X171867973Y-95665256D01*
X171883606Y-95700738D01*
X171899872Y-95724943D01*
X172003705Y-95827929D01*
X172125979Y-95889874D01*
X172257886Y-95908506D01*
X172390616Y-95881549D01*
X172432667Y-95862486D01*
X172533334Y-95810015D01*
X172533334Y-96632259D01*
X172459865Y-96594267D01*
X172363059Y-96564872D01*
X172244072Y-96557342D01*
X172125255Y-96571245D01*
X172035527Y-96602476D01*
X171961101Y-96661954D01*
X171897510Y-96747066D01*
X171892729Y-96755805D01*
X171872563Y-96796966D01*
X171857835Y-96838454D01*
X171847697Y-96888713D01*
X171841301Y-96956184D01*
X171837799Y-97049309D01*
X171836342Y-97176531D01*
X171836079Y-97319701D01*
X171836079Y-97776471D01*
X172110000Y-97776471D01*
X172110000Y-96934231D01*
X172186617Y-96869763D01*
X172266207Y-96818194D01*
X172341578Y-96808818D01*
X172417367Y-96832947D01*
X172457759Y-96856574D01*
X172487821Y-96890227D01*
X172509203Y-96941087D01*
X172523550Y-97016334D01*
X172532510Y-97123146D01*
X172537730Y-97268704D01*
X172539569Y-97365588D01*
X172545785Y-97764020D01*
X172676520Y-97771547D01*
X172807255Y-97779073D01*
X172807255Y-95306582D01*
X172533334Y-95306582D01*
X172526350Y-95444423D01*
X172502818Y-95540107D01*
X172458865Y-95599641D01*
X172390618Y-95629029D01*
X172321667Y-95634902D01*
X172243614Y-95628154D01*
X172191811Y-95601594D01*
X172159417Y-95566499D01*
X172133916Y-95528752D01*
X172118735Y-95486700D01*
X172111981Y-95427779D01*
X172111759Y-95339428D01*
X172114032Y-95265448D01*
X172119251Y-95154000D01*
X172127021Y-95080833D01*
X172140105Y-95034422D01*
X172161268Y-95003244D01*
X172181240Y-94985223D01*
X172264686Y-94945925D01*
X172363449Y-94939579D01*
X172420159Y-94953116D01*
X172476308Y-95001233D01*
X172513501Y-95094833D01*
X172531528Y-95233254D01*
X172533334Y-95306582D01*
X172807255Y-95306582D01*
X172807255Y-94688628D01*
X172670295Y-94688628D01*
X172588065Y-94691879D01*
X172545640Y-94703426D01*
X172533339Y-94725952D01*
X172533334Y-94726620D01*
X172527626Y-94748681D01*
X172502453Y-94746176D01*
X172452402Y-94721935D01*
X172335781Y-94684851D01*
X172204571Y-94680953D01*
X172080091Y-94709560D01*
G37*
X172080091Y-94709560D02*
X172027588Y-94735499D01*
X171962842Y-94780700D01*
X171915653Y-94829991D01*
X171883335Y-94891885D01*
X171863203Y-94974896D01*
X171852570Y-95087538D01*
X171848753Y-95238324D01*
X171848530Y-95303149D01*
X171849182Y-95445221D01*
X171851888Y-95546757D01*
X171857776Y-95617015D01*
X171867973Y-95665256D01*
X171883606Y-95700738D01*
X171899872Y-95724943D01*
X172003705Y-95827929D01*
X172125979Y-95889874D01*
X172257886Y-95908506D01*
X172390616Y-95881549D01*
X172432667Y-95862486D01*
X172533334Y-95810015D01*
X172533334Y-96632259D01*
X172459865Y-96594267D01*
X172363059Y-96564872D01*
X172244072Y-96557342D01*
X172125255Y-96571245D01*
X172035527Y-96602476D01*
X171961101Y-96661954D01*
X171897510Y-96747066D01*
X171892729Y-96755805D01*
X171872563Y-96796966D01*
X171857835Y-96838454D01*
X171847697Y-96888713D01*
X171841301Y-96956184D01*
X171837799Y-97049309D01*
X171836342Y-97176531D01*
X171836079Y-97319701D01*
X171836079Y-97776471D01*
X172110000Y-97776471D01*
X172110000Y-96934231D01*
X172186617Y-96869763D01*
X172266207Y-96818194D01*
X172341578Y-96808818D01*
X172417367Y-96832947D01*
X172457759Y-96856574D01*
X172487821Y-96890227D01*
X172509203Y-96941087D01*
X172523550Y-97016334D01*
X172532510Y-97123146D01*
X172537730Y-97268704D01*
X172539569Y-97365588D01*
X172545785Y-97764020D01*
X172676520Y-97771547D01*
X172807255Y-97779073D01*
X172807255Y-95306582D01*
X172533334Y-95306582D01*
X172526350Y-95444423D01*
X172502818Y-95540107D01*
X172458865Y-95599641D01*
X172390618Y-95629029D01*
X172321667Y-95634902D01*
X172243614Y-95628154D01*
X172191811Y-95601594D01*
X172159417Y-95566499D01*
X172133916Y-95528752D01*
X172118735Y-95486700D01*
X172111981Y-95427779D01*
X172111759Y-95339428D01*
X172114032Y-95265448D01*
X172119251Y-95154000D01*
X172127021Y-95080833D01*
X172140105Y-95034422D01*
X172161268Y-95003244D01*
X172181240Y-94985223D01*
X172264686Y-94945925D01*
X172363449Y-94939579D01*
X172420159Y-94953116D01*
X172476308Y-95001233D01*
X172513501Y-95094833D01*
X172531528Y-95233254D01*
X172533334Y-95306582D01*
X172807255Y-95306582D01*
X172807255Y-94688628D01*
X172670295Y-94688628D01*
X172588065Y-94691879D01*
X172545640Y-94703426D01*
X172533339Y-94725952D01*
X172533334Y-94726620D01*
X172527626Y-94748681D01*
X172502453Y-94746176D01*
X172452402Y-94721935D01*
X172335781Y-94684851D01*
X172204571Y-94680953D01*
X172080091Y-94709560D01*
G36*
X171041280Y-96565922D02*
G01*
X170924130Y-96597180D01*
X170834949Y-96653837D01*
X170772016Y-96728045D01*
X170752452Y-96759716D01*
X170738008Y-96792891D01*
X170727911Y-96835329D01*
X170721385Y-96894788D01*
X170717658Y-96979029D01*
X170715954Y-97095810D01*
X170715500Y-97252890D01*
X170715491Y-97294565D01*
X170715491Y-97776471D01*
X170835020Y-97776471D01*
X170911261Y-97771131D01*
X170967634Y-97757604D01*
X170981758Y-97749262D01*
X171020370Y-97734864D01*
X171059808Y-97749262D01*
X171124738Y-97767237D01*
X171219055Y-97774472D01*
X171323593Y-97771333D01*
X171419189Y-97758186D01*
X171475000Y-97741318D01*
X171583002Y-97671986D01*
X171650497Y-97575772D01*
X171680841Y-97447844D01*
X171681123Y-97444559D01*
X171678460Y-97387808D01*
X171437647Y-97387808D01*
X171416595Y-97452358D01*
X171382303Y-97488686D01*
X171313468Y-97516162D01*
X171222610Y-97527129D01*
X171129958Y-97521731D01*
X171055744Y-97500110D01*
X171034951Y-97486239D01*
X170998619Y-97422143D01*
X170989412Y-97349278D01*
X170989412Y-97253530D01*
X171127173Y-97253530D01*
X171258047Y-97263605D01*
X171357259Y-97292148D01*
X171418977Y-97336639D01*
X171437647Y-97387808D01*
X171678460Y-97387808D01*
X171674564Y-97304790D01*
X171628466Y-97194282D01*
X171541800Y-97110712D01*
X171529821Y-97103110D01*
X171478345Y-97078357D01*
X171414632Y-97063368D01*
X171325565Y-97056082D01*
X171219755Y-97054407D01*
X170989412Y-97054314D01*
X170989412Y-96957755D01*
X170999183Y-96882836D01*
X171024116Y-96832644D01*
X171027035Y-96829972D01*
X171082519Y-96808015D01*
X171166273Y-96799505D01*
X171258833Y-96803687D01*
X171340730Y-96819809D01*
X171389327Y-96843990D01*
X171415659Y-96863359D01*
X171443465Y-96867057D01*
X171481839Y-96851188D01*
X171539875Y-96811855D01*
X171626669Y-96745164D01*
X171634635Y-96738916D01*
X171630553Y-96715800D01*
X171596499Y-96677352D01*
X171544740Y-96634627D01*
X171487545Y-96598679D01*
X171469575Y-96590191D01*
X171404028Y-96573252D01*
X171307980Y-96561170D01*
X171200671Y-96556323D01*
X171195653Y-96556313D01*
X171041280Y-96565922D01*
G37*
X171041280Y-96565922D02*
X170924130Y-96597180D01*
X170834949Y-96653837D01*
X170772016Y-96728045D01*
X170752452Y-96759716D01*
X170738008Y-96792891D01*
X170727911Y-96835329D01*
X170721385Y-96894788D01*
X170717658Y-96979029D01*
X170715954Y-97095810D01*
X170715500Y-97252890D01*
X170715491Y-97294565D01*
X170715491Y-97776471D01*
X170835020Y-97776471D01*
X170911261Y-97771131D01*
X170967634Y-97757604D01*
X170981758Y-97749262D01*
X171020370Y-97734864D01*
X171059808Y-97749262D01*
X171124738Y-97767237D01*
X171219055Y-97774472D01*
X171323593Y-97771333D01*
X171419189Y-97758186D01*
X171475000Y-97741318D01*
X171583002Y-97671986D01*
X171650497Y-97575772D01*
X171680841Y-97447844D01*
X171681123Y-97444559D01*
X171678460Y-97387808D01*
X171437647Y-97387808D01*
X171416595Y-97452358D01*
X171382303Y-97488686D01*
X171313468Y-97516162D01*
X171222610Y-97527129D01*
X171129958Y-97521731D01*
X171055744Y-97500110D01*
X171034951Y-97486239D01*
X170998619Y-97422143D01*
X170989412Y-97349278D01*
X170989412Y-97253530D01*
X171127173Y-97253530D01*
X171258047Y-97263605D01*
X171357259Y-97292148D01*
X171418977Y-97336639D01*
X171437647Y-97387808D01*
X171678460Y-97387808D01*
X171674564Y-97304790D01*
X171628466Y-97194282D01*
X171541800Y-97110712D01*
X171529821Y-97103110D01*
X171478345Y-97078357D01*
X171414632Y-97063368D01*
X171325565Y-97056082D01*
X171219755Y-97054407D01*
X170989412Y-97054314D01*
X170989412Y-96957755D01*
X170999183Y-96882836D01*
X171024116Y-96832644D01*
X171027035Y-96829972D01*
X171082519Y-96808015D01*
X171166273Y-96799505D01*
X171258833Y-96803687D01*
X171340730Y-96819809D01*
X171389327Y-96843990D01*
X171415659Y-96863359D01*
X171443465Y-96867057D01*
X171481839Y-96851188D01*
X171539875Y-96811855D01*
X171626669Y-96745164D01*
X171634635Y-96738916D01*
X171630553Y-96715800D01*
X171596499Y-96677352D01*
X171544740Y-96634627D01*
X171487545Y-96598679D01*
X171469575Y-96590191D01*
X171404028Y-96573252D01*
X171307980Y-96561170D01*
X171200671Y-96556323D01*
X171195653Y-96556313D01*
X171041280Y-96565922D01*
G36*
X170267236Y-96558921D02*
G01*
X170229970Y-96570091D01*
X170217957Y-96594633D01*
X170217451Y-96605712D01*
X170215296Y-96636572D01*
X170200449Y-96641417D01*
X170160343Y-96620260D01*
X170136520Y-96605806D01*
X170061362Y-96574850D01*
X169971594Y-96559544D01*
X169877471Y-96558367D01*
X169789246Y-96569799D01*
X169717174Y-96592320D01*
X169671508Y-96624409D01*
X169662502Y-96664545D01*
X169667047Y-96675415D01*
X169700179Y-96720534D01*
X169751555Y-96776026D01*
X169760848Y-96784996D01*
X169809818Y-96826245D01*
X169852069Y-96839572D01*
X169911159Y-96830271D01*
X169934831Y-96824090D01*
X170008496Y-96809246D01*
X170060290Y-96815921D01*
X170104031Y-96839465D01*
X170144098Y-96871061D01*
X170173608Y-96910798D01*
X170194116Y-96966252D01*
X170207176Y-97045003D01*
X170214344Y-97154629D01*
X170217176Y-97302706D01*
X170217451Y-97392111D01*
X170217451Y-97776471D01*
X170466471Y-97776471D01*
X170466471Y-96556275D01*
X170341961Y-96556275D01*
X170267236Y-96558921D01*
G37*
X170267236Y-96558921D02*
X170229970Y-96570091D01*
X170217957Y-96594633D01*
X170217451Y-96605712D01*
X170215296Y-96636572D01*
X170200449Y-96641417D01*
X170160343Y-96620260D01*
X170136520Y-96605806D01*
X170061362Y-96574850D01*
X169971594Y-96559544D01*
X169877471Y-96558367D01*
X169789246Y-96569799D01*
X169717174Y-96592320D01*
X169671508Y-96624409D01*
X169662502Y-96664545D01*
X169667047Y-96675415D01*
X169700179Y-96720534D01*
X169751555Y-96776026D01*
X169760848Y-96784996D01*
X169809818Y-96826245D01*
X169852069Y-96839572D01*
X169911159Y-96830271D01*
X169934831Y-96824090D01*
X170008496Y-96809246D01*
X170060290Y-96815921D01*
X170104031Y-96839465D01*
X170144098Y-96871061D01*
X170173608Y-96910798D01*
X170194116Y-96966252D01*
X170207176Y-97045003D01*
X170214344Y-97154629D01*
X170217176Y-97302706D01*
X170217451Y-97392111D01*
X170217451Y-97776471D01*
X170466471Y-97776471D01*
X170466471Y-96556275D01*
X170341961Y-96556275D01*
X170267236Y-96558921D01*
G36*
X168698432Y-97776471D02*
G01*
X168835393Y-97776471D01*
X168914889Y-97774140D01*
X168956292Y-97764488D01*
X168971199Y-97743525D01*
X168972353Y-97729351D01*
X168974867Y-97700927D01*
X168990720Y-97695475D01*
X169032379Y-97712998D01*
X169064776Y-97729351D01*
X169189151Y-97768103D01*
X169324354Y-97770346D01*
X169434274Y-97741444D01*
X169536634Y-97671619D01*
X169614660Y-97568555D01*
X169657386Y-97446989D01*
X169658474Y-97440192D01*
X169664822Y-97366032D01*
X169667979Y-97259570D01*
X169667725Y-97179052D01*
X169395711Y-97179052D01*
X169389410Y-97286070D01*
X169375075Y-97374278D01*
X169355669Y-97424090D01*
X169282254Y-97492162D01*
X169195086Y-97516564D01*
X169105196Y-97496831D01*
X169028383Y-97437968D01*
X168999292Y-97398379D01*
X168982283Y-97351138D01*
X168974316Y-97282181D01*
X168972353Y-97178607D01*
X168975866Y-97076039D01*
X168985143Y-96985921D01*
X168998294Y-96925613D01*
X169000486Y-96920208D01*
X169053522Y-96855940D01*
X169130933Y-96820656D01*
X169217546Y-96814959D01*
X169298193Y-96839453D01*
X169357703Y-96894742D01*
X169363876Y-96905743D01*
X169383199Y-96972827D01*
X169393726Y-97069284D01*
X169395711Y-97179052D01*
X169667725Y-97179052D01*
X169667596Y-97138225D01*
X169665806Y-97072918D01*
X169653627Y-96911355D01*
X169628315Y-96790053D01*
X169586207Y-96700379D01*
X169523641Y-96633699D01*
X169462900Y-96594557D01*
X169378036Y-96567040D01*
X169272485Y-96557603D01*
X169164402Y-96565290D01*
X169071942Y-96589146D01*
X169023090Y-96617685D01*
X168972353Y-96663601D01*
X168972353Y-96083137D01*
X168698432Y-96083137D01*
X168698432Y-97776471D01*
G37*
X168698432Y-97776471D02*
X168835393Y-97776471D01*
X168914889Y-97774140D01*
X168956292Y-97764488D01*
X168971199Y-97743525D01*
X168972353Y-97729351D01*
X168974867Y-97700927D01*
X168990720Y-97695475D01*
X169032379Y-97712998D01*
X169064776Y-97729351D01*
X169189151Y-97768103D01*
X169324354Y-97770346D01*
X169434274Y-97741444D01*
X169536634Y-97671619D01*
X169614660Y-97568555D01*
X169657386Y-97446989D01*
X169658474Y-97440192D01*
X169664822Y-97366032D01*
X169667979Y-97259570D01*
X169667725Y-97179052D01*
X169395711Y-97179052D01*
X169389410Y-97286070D01*
X169375075Y-97374278D01*
X169355669Y-97424090D01*
X169282254Y-97492162D01*
X169195086Y-97516564D01*
X169105196Y-97496831D01*
X169028383Y-97437968D01*
X168999292Y-97398379D01*
X168982283Y-97351138D01*
X168974316Y-97282181D01*
X168972353Y-97178607D01*
X168975866Y-97076039D01*
X168985143Y-96985921D01*
X168998294Y-96925613D01*
X169000486Y-96920208D01*
X169053522Y-96855940D01*
X169130933Y-96820656D01*
X169217546Y-96814959D01*
X169298193Y-96839453D01*
X169357703Y-96894742D01*
X169363876Y-96905743D01*
X169383199Y-96972827D01*
X169393726Y-97069284D01*
X169395711Y-97179052D01*
X169667725Y-97179052D01*
X169667596Y-97138225D01*
X169665806Y-97072918D01*
X169653627Y-96911355D01*
X169628315Y-96790053D01*
X169586207Y-96700379D01*
X169523641Y-96633699D01*
X169462900Y-96594557D01*
X169378036Y-96567040D01*
X169272485Y-96557603D01*
X169164402Y-96565290D01*
X169071942Y-96589146D01*
X169023090Y-96617685D01*
X168972353Y-96663601D01*
X168972353Y-96083137D01*
X168698432Y-96083137D01*
X168698432Y-97776471D01*
G36*
X167742472Y-96561332D02*
G01*
X167643986Y-96568726D01*
X167515224Y-96954706D01*
X167386463Y-97340686D01*
X167346089Y-97203726D01*
X167321793Y-97119083D01*
X167289833Y-97004697D01*
X167255321Y-96878963D01*
X167237072Y-96811520D01*
X167168429Y-96556275D01*
X166885227Y-96556275D01*
X166969878Y-96823971D01*
X167011565Y-96955638D01*
X167061926Y-97114458D01*
X167114519Y-97280128D01*
X167161470Y-97427843D01*
X167268411Y-97764020D01*
X167499339Y-97779044D01*
X167561950Y-97572316D01*
X167600562Y-97443896D01*
X167642700Y-97302322D01*
X167679528Y-97177285D01*
X167680982Y-97172309D01*
X167708489Y-97087586D01*
X167732758Y-97029778D01*
X167749757Y-97007918D01*
X167753250Y-97010446D01*
X167765510Y-97044336D01*
X167788805Y-97116930D01*
X167820300Y-97219101D01*
X167857158Y-97341720D01*
X167877101Y-97409167D01*
X167985105Y-97776471D01*
X168214321Y-97776471D01*
X168397561Y-97197500D01*
X168449037Y-97035091D01*
X168495930Y-96887602D01*
X168536023Y-96761960D01*
X168567103Y-96665095D01*
X168586955Y-96603934D01*
X168592989Y-96586065D01*
X168588212Y-96567768D01*
X168550703Y-96559755D01*
X168472645Y-96560557D01*
X168460426Y-96561163D01*
X168315674Y-96568726D01*
X168220870Y-96917353D01*
X168186023Y-97044497D01*
X168154883Y-97156265D01*
X168130191Y-97242953D01*
X168114688Y-97294856D01*
X168111824Y-97303318D01*
X168099954Y-97293587D01*
X168076017Y-97243172D01*
X168042761Y-97158935D01*
X168002936Y-97047741D01*
X167969270Y-96947297D01*
X167840959Y-96553939D01*
X167742472Y-96561332D01*
G37*
X167742472Y-96561332D02*
X167643986Y-96568726D01*
X167515224Y-96954706D01*
X167386463Y-97340686D01*
X167346089Y-97203726D01*
X167321793Y-97119083D01*
X167289833Y-97004697D01*
X167255321Y-96878963D01*
X167237072Y-96811520D01*
X167168429Y-96556275D01*
X166885227Y-96556275D01*
X166969878Y-96823971D01*
X167011565Y-96955638D01*
X167061926Y-97114458D01*
X167114519Y-97280128D01*
X167161470Y-97427843D01*
X167268411Y-97764020D01*
X167499339Y-97779044D01*
X167561950Y-97572316D01*
X167600562Y-97443896D01*
X167642700Y-97302322D01*
X167679528Y-97177285D01*
X167680982Y-97172309D01*
X167708489Y-97087586D01*
X167732758Y-97029778D01*
X167749757Y-97007918D01*
X167753250Y-97010446D01*
X167765510Y-97044336D01*
X167788805Y-97116930D01*
X167820300Y-97219101D01*
X167857158Y-97341720D01*
X167877101Y-97409167D01*
X167985105Y-97776471D01*
X168214321Y-97776471D01*
X168397561Y-97197500D01*
X168449037Y-97035091D01*
X168495930Y-96887602D01*
X168536023Y-96761960D01*
X168567103Y-96665095D01*
X168586955Y-96603934D01*
X168592989Y-96586065D01*
X168588212Y-96567768D01*
X168550703Y-96559755D01*
X168472645Y-96560557D01*
X168460426Y-96561163D01*
X168315674Y-96568726D01*
X168220870Y-96917353D01*
X168186023Y-97044497D01*
X168154883Y-97156265D01*
X168130191Y-97242953D01*
X168114688Y-97294856D01*
X168111824Y-97303318D01*
X168099954Y-97293587D01*
X168076017Y-97243172D01*
X168042761Y-97158935D01*
X168002936Y-97047741D01*
X167969270Y-96947297D01*
X167840959Y-96553939D01*
X167742472Y-96561332D01*
G36*
X166243541Y-96563669D02*
G01*
X166138580Y-96589163D01*
X166108239Y-96602669D01*
X166049427Y-96638046D01*
X166004291Y-96677890D01*
X165970894Y-96729120D01*
X165947299Y-96798654D01*
X165931567Y-96893409D01*
X165921761Y-97020305D01*
X165915943Y-97186258D01*
X165913734Y-97297108D01*
X165905604Y-97776471D01*
X166044469Y-97776471D01*
X166128713Y-97772938D01*
X166172116Y-97760866D01*
X166183334Y-97740594D01*
X166189256Y-97718674D01*
X166215734Y-97722865D01*
X166251814Y-97740441D01*
X166342138Y-97767382D01*
X166458223Y-97774642D01*
X166580320Y-97762767D01*
X166688679Y-97732305D01*
X166698398Y-97728077D01*
X166797432Y-97658505D01*
X166862719Y-97561789D01*
X166892760Y-97448738D01*
X166890465Y-97408122D01*
X166645367Y-97408122D01*
X166623771Y-97462782D01*
X166559741Y-97501952D01*
X166456435Y-97522974D01*
X166401226Y-97525766D01*
X166309218Y-97518620D01*
X166248059Y-97490848D01*
X166233138Y-97477647D01*
X166192713Y-97405829D01*
X166183334Y-97340686D01*
X166183334Y-97253530D01*
X166304731Y-97253530D01*
X166445847Y-97260722D01*
X166544827Y-97283345D01*
X166607367Y-97322964D01*
X166621369Y-97340628D01*
X166645367Y-97408122D01*
X166890465Y-97408122D01*
X166886059Y-97330157D01*
X166841120Y-97216855D01*
X166779804Y-97140285D01*
X166742668Y-97107181D01*
X166706313Y-97085425D01*
X166659010Y-97072161D01*
X166589027Y-97064528D01*
X166484636Y-97059670D01*
X166443230Y-97058273D01*
X166183334Y-97049780D01*
X166183715Y-96971116D01*
X166193781Y-96888428D01*
X166230171Y-96838431D01*
X166303689Y-96806489D01*
X166305661Y-96805920D01*
X166409895Y-96793361D01*
X166511892Y-96809766D01*
X166587695Y-96849657D01*
X166618110Y-96869354D01*
X166650868Y-96866629D01*
X166701279Y-96838091D01*
X166730881Y-96817950D01*
X166788782Y-96774919D01*
X166824648Y-96742662D01*
X166830403Y-96733427D01*
X166806705Y-96685636D01*
X166736687Y-96628562D01*
X166706275Y-96609305D01*
X166618845Y-96576140D01*
X166501017Y-96557350D01*
X166370134Y-96553129D01*
X166243541Y-96563669D01*
G37*
X166243541Y-96563669D02*
X166138580Y-96589163D01*
X166108239Y-96602669D01*
X166049427Y-96638046D01*
X166004291Y-96677890D01*
X165970894Y-96729120D01*
X165947299Y-96798654D01*
X165931567Y-96893409D01*
X165921761Y-97020305D01*
X165915943Y-97186258D01*
X165913734Y-97297108D01*
X165905604Y-97776471D01*
X166044469Y-97776471D01*
X166128713Y-97772938D01*
X166172116Y-97760866D01*
X166183334Y-97740594D01*
X166189256Y-97718674D01*
X166215734Y-97722865D01*
X166251814Y-97740441D01*
X166342138Y-97767382D01*
X166458223Y-97774642D01*
X166580320Y-97762767D01*
X166688679Y-97732305D01*
X166698398Y-97728077D01*
X166797432Y-97658505D01*
X166862719Y-97561789D01*
X166892760Y-97448738D01*
X166890465Y-97408122D01*
X166645367Y-97408122D01*
X166623771Y-97462782D01*
X166559741Y-97501952D01*
X166456435Y-97522974D01*
X166401226Y-97525766D01*
X166309218Y-97518620D01*
X166248059Y-97490848D01*
X166233138Y-97477647D01*
X166192713Y-97405829D01*
X166183334Y-97340686D01*
X166183334Y-97253530D01*
X166304731Y-97253530D01*
X166445847Y-97260722D01*
X166544827Y-97283345D01*
X166607367Y-97322964D01*
X166621369Y-97340628D01*
X166645367Y-97408122D01*
X166890465Y-97408122D01*
X166886059Y-97330157D01*
X166841120Y-97216855D01*
X166779804Y-97140285D01*
X166742668Y-97107181D01*
X166706313Y-97085425D01*
X166659010Y-97072161D01*
X166589027Y-97064528D01*
X166484636Y-97059670D01*
X166443230Y-97058273D01*
X166183334Y-97049780D01*
X166183715Y-96971116D01*
X166193781Y-96888428D01*
X166230171Y-96838431D01*
X166303689Y-96806489D01*
X166305661Y-96805920D01*
X166409895Y-96793361D01*
X166511892Y-96809766D01*
X166587695Y-96849657D01*
X166618110Y-96869354D01*
X166650868Y-96866629D01*
X166701279Y-96838091D01*
X166730881Y-96817950D01*
X166788782Y-96774919D01*
X166824648Y-96742662D01*
X166830403Y-96733427D01*
X166806705Y-96685636D01*
X166736687Y-96628562D01*
X166706275Y-96609305D01*
X166618845Y-96576140D01*
X166501017Y-96557350D01*
X166370134Y-96553129D01*
X166243541Y-96563669D01*
G36*
X165061554Y-96555883D02*
G01*
X164965823Y-96574755D01*
X164911323Y-96602699D01*
X164853992Y-96649123D01*
X164935559Y-96752111D01*
X164985850Y-96814479D01*
X165019999Y-96844907D01*
X165053937Y-96849555D01*
X165103594Y-96834586D01*
X165126904Y-96826117D01*
X165221937Y-96813622D01*
X165308968Y-96840406D01*
X165372862Y-96900915D01*
X165383241Y-96920208D01*
X165394544Y-96971314D01*
X165403268Y-97065500D01*
X165409003Y-97196089D01*
X165411340Y-97356405D01*
X165411373Y-97379211D01*
X165411373Y-97776471D01*
X165685295Y-97776471D01*
X165685295Y-96556275D01*
X165548334Y-96556275D01*
X165469362Y-96558337D01*
X165428221Y-96567513D01*
X165413008Y-96588290D01*
X165411373Y-96607886D01*
X165411373Y-96659497D01*
X165345760Y-96607886D01*
X165270525Y-96572675D01*
X165169456Y-96555265D01*
X165061554Y-96555883D01*
G37*
X165061554Y-96555883D02*
X164965823Y-96574755D01*
X164911323Y-96602699D01*
X164853992Y-96649123D01*
X164935559Y-96752111D01*
X164985850Y-96814479D01*
X165019999Y-96844907D01*
X165053937Y-96849555D01*
X165103594Y-96834586D01*
X165126904Y-96826117D01*
X165221937Y-96813622D01*
X165308968Y-96840406D01*
X165372862Y-96900915D01*
X165383241Y-96920208D01*
X165394544Y-96971314D01*
X165403268Y-97065500D01*
X165409003Y-97196089D01*
X165411340Y-97356405D01*
X165411373Y-97379211D01*
X165411373Y-97776471D01*
X165685295Y-97776471D01*
X165685295Y-96556275D01*
X165548334Y-96556275D01*
X165469362Y-96558337D01*
X165428221Y-96567513D01*
X165413008Y-96588290D01*
X165411373Y-96607886D01*
X165411373Y-96659497D01*
X165345760Y-96607886D01*
X165270525Y-96572675D01*
X165169456Y-96555265D01*
X165061554Y-96555883D01*
G36*
X164274693Y-96562784D02*
G01*
X164155663Y-96593731D01*
X164055979Y-96657600D01*
X164007712Y-96705313D01*
X163928592Y-96818106D01*
X163883248Y-96948950D01*
X163867670Y-97109792D01*
X163867590Y-97122794D01*
X163867451Y-97253530D01*
X164619909Y-97253530D01*
X164603870Y-97322010D01*
X164574909Y-97384031D01*
X164524222Y-97448654D01*
X164513621Y-97458971D01*
X164422506Y-97514805D01*
X164318600Y-97524275D01*
X164199000Y-97487540D01*
X164178726Y-97477647D01*
X164116544Y-97447574D01*
X164074894Y-97430440D01*
X164067627Y-97428855D01*
X164042260Y-97444242D01*
X163993880Y-97481887D01*
X163969321Y-97502459D01*
X163918430Y-97549714D01*
X163901719Y-97580917D01*
X163913317Y-97609620D01*
X163919517Y-97617468D01*
X163961507Y-97651819D01*
X164030794Y-97693565D01*
X164079118Y-97717935D01*
X164216289Y-97760873D01*
X164368153Y-97774786D01*
X164511976Y-97758300D01*
X164552255Y-97746496D01*
X164676922Y-97679689D01*
X164769329Y-97576892D01*
X164830010Y-97437105D01*
X164859502Y-97259330D01*
X164862740Y-97166373D01*
X164853286Y-97031033D01*
X164614510Y-97031033D01*
X164591416Y-97041038D01*
X164529338Y-97048888D01*
X164439086Y-97053521D01*
X164377942Y-97054314D01*
X164267960Y-97053549D01*
X164198543Y-97049970D01*
X164160462Y-97041649D01*
X164144485Y-97026657D01*
X164141373Y-97004903D01*
X164162722Y-96937892D01*
X164216471Y-96871664D01*
X164287178Y-96820832D01*
X164357911Y-96800038D01*
X164453984Y-96818484D01*
X164537151Y-96871811D01*
X164594814Y-96948677D01*
X164614510Y-97031033D01*
X164853286Y-97031033D01*
X164848972Y-96969291D01*
X164806480Y-96812271D01*
X164734365Y-96694069D01*
X164631727Y-96613440D01*
X164497668Y-96569139D01*
X164425043Y-96560607D01*
X164274693Y-96562784D01*
G37*
X164274693Y-96562784D02*
X164155663Y-96593731D01*
X164055979Y-96657600D01*
X164007712Y-96705313D01*
X163928592Y-96818106D01*
X163883248Y-96948950D01*
X163867670Y-97109792D01*
X163867590Y-97122794D01*
X163867451Y-97253530D01*
X164619909Y-97253530D01*
X164603870Y-97322010D01*
X164574909Y-97384031D01*
X164524222Y-97448654D01*
X164513621Y-97458971D01*
X164422506Y-97514805D01*
X164318600Y-97524275D01*
X164199000Y-97487540D01*
X164178726Y-97477647D01*
X164116544Y-97447574D01*
X164074894Y-97430440D01*
X164067627Y-97428855D01*
X164042260Y-97444242D01*
X163993880Y-97481887D01*
X163969321Y-97502459D01*
X163918430Y-97549714D01*
X163901719Y-97580917D01*
X163913317Y-97609620D01*
X163919517Y-97617468D01*
X163961507Y-97651819D01*
X164030794Y-97693565D01*
X164079118Y-97717935D01*
X164216289Y-97760873D01*
X164368153Y-97774786D01*
X164511976Y-97758300D01*
X164552255Y-97746496D01*
X164676922Y-97679689D01*
X164769329Y-97576892D01*
X164830010Y-97437105D01*
X164859502Y-97259330D01*
X164862740Y-97166373D01*
X164853286Y-97031033D01*
X164614510Y-97031033D01*
X164591416Y-97041038D01*
X164529338Y-97048888D01*
X164439086Y-97053521D01*
X164377942Y-97054314D01*
X164267960Y-97053549D01*
X164198543Y-97049970D01*
X164160462Y-97041649D01*
X164144485Y-97026657D01*
X164141373Y-97004903D01*
X164162722Y-96937892D01*
X164216471Y-96871664D01*
X164287178Y-96820832D01*
X164357911Y-96800038D01*
X164453984Y-96818484D01*
X164537151Y-96871811D01*
X164594814Y-96948677D01*
X164614510Y-97031033D01*
X164853286Y-97031033D01*
X164848972Y-96969291D01*
X164806480Y-96812271D01*
X164734365Y-96694069D01*
X164631727Y-96613440D01*
X164497668Y-96569139D01*
X164425043Y-96560607D01*
X164274693Y-96562784D01*
G36*
X173326753Y-94701568D02*
G01*
X173196478Y-94759163D01*
X173097581Y-94855334D01*
X173029918Y-94990229D01*
X172993345Y-95163996D01*
X172990724Y-95191126D01*
X172988670Y-95382408D01*
X173015301Y-95550073D01*
X173068999Y-95685967D01*
X173097753Y-95729681D01*
X173197909Y-95822198D01*
X173325463Y-95882119D01*
X173468163Y-95906985D01*
X173613760Y-95894339D01*
X173724438Y-95855391D01*
X173819616Y-95789755D01*
X173897406Y-95703699D01*
X173898751Y-95701685D01*
X173930343Y-95648570D01*
X173950873Y-95595160D01*
X173963305Y-95527754D01*
X173970603Y-95432653D01*
X173973818Y-95354666D01*
X173975156Y-95283944D01*
X173726186Y-95283944D01*
X173723753Y-95354348D01*
X173714920Y-95448068D01*
X173699336Y-95508214D01*
X173671234Y-95551006D01*
X173644914Y-95576002D01*
X173551608Y-95628338D01*
X173453980Y-95635333D01*
X173363058Y-95597676D01*
X173317598Y-95555479D01*
X173284838Y-95512956D01*
X173265677Y-95472267D01*
X173257267Y-95419314D01*
X173256763Y-95339997D01*
X173259355Y-95266950D01*
X173264929Y-95162601D01*
X173273766Y-95094920D01*
X173289693Y-95050774D01*
X173316538Y-95017031D01*
X173337811Y-94997746D01*
X173426794Y-94947086D01*
X173522789Y-94944560D01*
X173603281Y-94974567D01*
X173671947Y-95037231D01*
X173712856Y-95140168D01*
X173726186Y-95283944D01*
X173975156Y-95283944D01*
X173976754Y-95199582D01*
X173971740Y-95083600D01*
X173956717Y-94996367D01*
X173929624Y-94927530D01*
X173888400Y-94866737D01*
X173873115Y-94848686D01*
X173777546Y-94758746D01*
X173675039Y-94706211D01*
X173549679Y-94684201D01*
X173488550Y-94682402D01*
X173326753Y-94701568D01*
G37*
X173326753Y-94701568D02*
X173196478Y-94759163D01*
X173097581Y-94855334D01*
X173029918Y-94990229D01*
X172993345Y-95163996D01*
X172990724Y-95191126D01*
X172988670Y-95382408D01*
X173015301Y-95550073D01*
X173068999Y-95685967D01*
X173097753Y-95729681D01*
X173197909Y-95822198D01*
X173325463Y-95882119D01*
X173468163Y-95906985D01*
X173613760Y-95894339D01*
X173724438Y-95855391D01*
X173819616Y-95789755D01*
X173897406Y-95703699D01*
X173898751Y-95701685D01*
X173930343Y-95648570D01*
X173950873Y-95595160D01*
X173963305Y-95527754D01*
X173970603Y-95432653D01*
X173973818Y-95354666D01*
X173975156Y-95283944D01*
X173726186Y-95283944D01*
X173723753Y-95354348D01*
X173714920Y-95448068D01*
X173699336Y-95508214D01*
X173671234Y-95551006D01*
X173644914Y-95576002D01*
X173551608Y-95628338D01*
X173453980Y-95635333D01*
X173363058Y-95597676D01*
X173317598Y-95555479D01*
X173284838Y-95512956D01*
X173265677Y-95472267D01*
X173257267Y-95419314D01*
X173256763Y-95339997D01*
X173259355Y-95266950D01*
X173264929Y-95162601D01*
X173273766Y-95094920D01*
X173289693Y-95050774D01*
X173316538Y-95017031D01*
X173337811Y-94997746D01*
X173426794Y-94947086D01*
X173522789Y-94944560D01*
X173603281Y-94974567D01*
X173671947Y-95037231D01*
X173712856Y-95140168D01*
X173726186Y-95283944D01*
X173975156Y-95283944D01*
X173976754Y-95199582D01*
X173971740Y-95083600D01*
X173956717Y-94996367D01*
X173929624Y-94927530D01*
X173888400Y-94866737D01*
X173873115Y-94848686D01*
X173777546Y-94758746D01*
X173675039Y-94706211D01*
X173549679Y-94684201D01*
X173488550Y-94682402D01*
X173326753Y-94701568D01*
G36*
X170986796Y-94716354D02*
G01*
X170961981Y-94728037D01*
X170876094Y-94790951D01*
X170794879Y-94882769D01*
X170734236Y-94983868D01*
X170716988Y-95030349D01*
X170701251Y-95113376D01*
X170691867Y-95213713D01*
X170690728Y-95255147D01*
X170690589Y-95385882D01*
X171443047Y-95385882D01*
X171427007Y-95454363D01*
X171387637Y-95535355D01*
X171318806Y-95605351D01*
X171236919Y-95650441D01*
X171184737Y-95659804D01*
X171113971Y-95648441D01*
X171029540Y-95619943D01*
X171000858Y-95606831D01*
X170894791Y-95553858D01*
X170804272Y-95622901D01*
X170752039Y-95669597D01*
X170724247Y-95708140D01*
X170722840Y-95719452D01*
X170747668Y-95746868D01*
X170802083Y-95788532D01*
X170851472Y-95821037D01*
X170984748Y-95879468D01*
X171134161Y-95905915D01*
X171282249Y-95899039D01*
X171400295Y-95863096D01*
X171521982Y-95786101D01*
X171608460Y-95684728D01*
X171662559Y-95553570D01*
X171687109Y-95387224D01*
X171689286Y-95311108D01*
X171680573Y-95136685D01*
X171679503Y-95131611D01*
X171430173Y-95131611D01*
X171423306Y-95147968D01*
X171395083Y-95156988D01*
X171336873Y-95160854D01*
X171240042Y-95161749D01*
X171202757Y-95161765D01*
X171089317Y-95160413D01*
X171017378Y-95155505D01*
X170978687Y-95145760D01*
X170964995Y-95129899D01*
X170964510Y-95124805D01*
X170980137Y-95084326D01*
X171019247Y-95027621D01*
X171036061Y-95007766D01*
X171098481Y-94951611D01*
X171163547Y-94929532D01*
X171198603Y-94927686D01*
X171293442Y-94950766D01*
X171372973Y-95012759D01*
X171423423Y-95102802D01*
X171424317Y-95105735D01*
X171430173Y-95131611D01*
X171679503Y-95131611D01*
X171651601Y-94999343D01*
X171599410Y-94889461D01*
X171535579Y-94811461D01*
X171417567Y-94726882D01*
X171278842Y-94681686D01*
X171131290Y-94677600D01*
X170986796Y-94716354D01*
G37*
X170986796Y-94716354D02*
X170961981Y-94728037D01*
X170876094Y-94790951D01*
X170794879Y-94882769D01*
X170734236Y-94983868D01*
X170716988Y-95030349D01*
X170701251Y-95113376D01*
X170691867Y-95213713D01*
X170690728Y-95255147D01*
X170690589Y-95385882D01*
X171443047Y-95385882D01*
X171427007Y-95454363D01*
X171387637Y-95535355D01*
X171318806Y-95605351D01*
X171236919Y-95650441D01*
X171184737Y-95659804D01*
X171113971Y-95648441D01*
X171029540Y-95619943D01*
X171000858Y-95606831D01*
X170894791Y-95553858D01*
X170804272Y-95622901D01*
X170752039Y-95669597D01*
X170724247Y-95708140D01*
X170722840Y-95719452D01*
X170747668Y-95746868D01*
X170802083Y-95788532D01*
X170851472Y-95821037D01*
X170984748Y-95879468D01*
X171134161Y-95905915D01*
X171282249Y-95899039D01*
X171400295Y-95863096D01*
X171521982Y-95786101D01*
X171608460Y-95684728D01*
X171662559Y-95553570D01*
X171687109Y-95387224D01*
X171689286Y-95311108D01*
X171680573Y-95136685D01*
X171679503Y-95131611D01*
X171430173Y-95131611D01*
X171423306Y-95147968D01*
X171395083Y-95156988D01*
X171336873Y-95160854D01*
X171240042Y-95161749D01*
X171202757Y-95161765D01*
X171089317Y-95160413D01*
X171017378Y-95155505D01*
X170978687Y-95145760D01*
X170964995Y-95129899D01*
X170964510Y-95124805D01*
X170980137Y-95084326D01*
X171019247Y-95027621D01*
X171036061Y-95007766D01*
X171098481Y-94951611D01*
X171163547Y-94929532D01*
X171198603Y-94927686D01*
X171293442Y-94950766D01*
X171372973Y-95012759D01*
X171423423Y-95102802D01*
X171424317Y-95105735D01*
X171430173Y-95131611D01*
X171679503Y-95131611D01*
X171651601Y-94999343D01*
X171599410Y-94889461D01*
X171535579Y-94811461D01*
X171417567Y-94726882D01*
X171278842Y-94681686D01*
X171131290Y-94677600D01*
X170986796Y-94716354D01*
G36*
X168272241Y-94684345D02*
G01*
X168177941Y-94702229D01*
X168080110Y-94739633D01*
X168069657Y-94744402D01*
X167995469Y-94783412D01*
X167944090Y-94819664D01*
X167927483Y-94842887D01*
X167943298Y-94880761D01*
X167981712Y-94936644D01*
X167998763Y-94957505D01*
X168069031Y-95039618D01*
X168159621Y-94986168D01*
X168245836Y-94950561D01*
X168345451Y-94931529D01*
X168440981Y-94930326D01*
X168514939Y-94948210D01*
X168532688Y-94959373D01*
X168566488Y-95010553D01*
X168570596Y-95069509D01*
X168545304Y-95115567D01*
X168530344Y-95124499D01*
X168485514Y-95135592D01*
X168406714Y-95148630D01*
X168309574Y-95161088D01*
X168291654Y-95163042D01*
X168135635Y-95190030D01*
X168022477Y-95235873D01*
X167947431Y-95304803D01*
X167905747Y-95401054D01*
X167892762Y-95518617D01*
X167910701Y-95652254D01*
X167968950Y-95757195D01*
X168067745Y-95833630D01*
X168207318Y-95881748D01*
X168362255Y-95900732D01*
X168488602Y-95900504D01*
X168591087Y-95883262D01*
X168661079Y-95859457D01*
X168749517Y-95817978D01*
X168831246Y-95769842D01*
X168860295Y-95748655D01*
X168935000Y-95687676D01*
X168844902Y-95596508D01*
X168754804Y-95505339D01*
X168652368Y-95573128D01*
X168549626Y-95624042D01*
X168439913Y-95650673D01*
X168334449Y-95653483D01*
X168244454Y-95632935D01*
X168181146Y-95589493D01*
X168160704Y-95552838D01*
X168163771Y-95494053D01*
X168214566Y-95449099D01*
X168312952Y-95418057D01*
X168420744Y-95403710D01*
X168586635Y-95376337D01*
X168709876Y-95324693D01*
X168792114Y-95247266D01*
X168834999Y-95142544D01*
X168840940Y-95018387D01*
X168811594Y-94888702D01*
X168744691Y-94790677D01*
X168639629Y-94723866D01*
X168495810Y-94687820D01*
X168389262Y-94680754D01*
X168272241Y-94684345D01*
G37*
X168272241Y-94684345D02*
X168177941Y-94702229D01*
X168080110Y-94739633D01*
X168069657Y-94744402D01*
X167995469Y-94783412D01*
X167944090Y-94819664D01*
X167927483Y-94842887D01*
X167943298Y-94880761D01*
X167981712Y-94936644D01*
X167998763Y-94957505D01*
X168069031Y-95039618D01*
X168159621Y-94986168D01*
X168245836Y-94950561D01*
X168345451Y-94931529D01*
X168440981Y-94930326D01*
X168514939Y-94948210D01*
X168532688Y-94959373D01*
X168566488Y-95010553D01*
X168570596Y-95069509D01*
X168545304Y-95115567D01*
X168530344Y-95124499D01*
X168485514Y-95135592D01*
X168406714Y-95148630D01*
X168309574Y-95161088D01*
X168291654Y-95163042D01*
X168135635Y-95190030D01*
X168022477Y-95235873D01*
X167947431Y-95304803D01*
X167905747Y-95401054D01*
X167892762Y-95518617D01*
X167910701Y-95652254D01*
X167968950Y-95757195D01*
X168067745Y-95833630D01*
X168207318Y-95881748D01*
X168362255Y-95900732D01*
X168488602Y-95900504D01*
X168591087Y-95883262D01*
X168661079Y-95859457D01*
X168749517Y-95817978D01*
X168831246Y-95769842D01*
X168860295Y-95748655D01*
X168935000Y-95687676D01*
X168844902Y-95596508D01*
X168754804Y-95505339D01*
X168652368Y-95573128D01*
X168549626Y-95624042D01*
X168439913Y-95650673D01*
X168334449Y-95653483D01*
X168244454Y-95632935D01*
X168181146Y-95589493D01*
X168160704Y-95552838D01*
X168163771Y-95494053D01*
X168214566Y-95449099D01*
X168312952Y-95418057D01*
X168420744Y-95403710D01*
X168586635Y-95376337D01*
X168709876Y-95324693D01*
X168792114Y-95247266D01*
X168834999Y-95142544D01*
X168840940Y-95018387D01*
X168811594Y-94888702D01*
X168744691Y-94790677D01*
X168639629Y-94723866D01*
X168495810Y-94687820D01*
X168389262Y-94680754D01*
X168272241Y-94684345D01*
G36*
X167090453Y-94703364D02*
G01*
X166964498Y-94771959D01*
X166865953Y-94880245D01*
X166819522Y-94968315D01*
X166799588Y-95046101D01*
X166786672Y-95156993D01*
X166781137Y-95284738D01*
X166783346Y-95413084D01*
X166793663Y-95525779D01*
X166805714Y-95585969D01*
X166846366Y-95668311D01*
X166916770Y-95755770D01*
X167001618Y-95832251D01*
X167085603Y-95881655D01*
X167087651Y-95882439D01*
X167191866Y-95904027D01*
X167315373Y-95904562D01*
X167432739Y-95884908D01*
X167478058Y-95869155D01*
X167594780Y-95802966D01*
X167678376Y-95716246D01*
X167733299Y-95601438D01*
X167764005Y-95450982D01*
X167770953Y-95372173D01*
X167770067Y-95273145D01*
X167503138Y-95273145D01*
X167494146Y-95417645D01*
X167468264Y-95527760D01*
X167427132Y-95598116D01*
X167397828Y-95618235D01*
X167322749Y-95632265D01*
X167233506Y-95628111D01*
X167156350Y-95607922D01*
X167136117Y-95596815D01*
X167082735Y-95532123D01*
X167047500Y-95433119D01*
X167032502Y-95312632D01*
X167039828Y-95183494D01*
X167056201Y-95105775D01*
X167103210Y-95015771D01*
X167177418Y-94959509D01*
X167266791Y-94940057D01*
X167359293Y-94960481D01*
X167430347Y-95010437D01*
X167467688Y-95051655D01*
X167489482Y-95092281D01*
X167499870Y-95147264D01*
X167502994Y-95231549D01*
X167503138Y-95273145D01*
X167770067Y-95273145D01*
X167769070Y-95161874D01*
X167734820Y-94989423D01*
X167668198Y-94854814D01*
X167569201Y-94758040D01*
X167437825Y-94699094D01*
X167409615Y-94692259D01*
X167240074Y-94676213D01*
X167090453Y-94703364D01*
G37*
X167090453Y-94703364D02*
X166964498Y-94771959D01*
X166865953Y-94880245D01*
X166819522Y-94968315D01*
X166799588Y-95046101D01*
X166786672Y-95156993D01*
X166781137Y-95284738D01*
X166783346Y-95413084D01*
X166793663Y-95525779D01*
X166805714Y-95585969D01*
X166846366Y-95668311D01*
X166916770Y-95755770D01*
X167001618Y-95832251D01*
X167085603Y-95881655D01*
X167087651Y-95882439D01*
X167191866Y-95904027D01*
X167315373Y-95904562D01*
X167432739Y-95884908D01*
X167478058Y-95869155D01*
X167594780Y-95802966D01*
X167678376Y-95716246D01*
X167733299Y-95601438D01*
X167764005Y-95450982D01*
X167770953Y-95372173D01*
X167770067Y-95273145D01*
X167503138Y-95273145D01*
X167494146Y-95417645D01*
X167468264Y-95527760D01*
X167427132Y-95598116D01*
X167397828Y-95618235D01*
X167322749Y-95632265D01*
X167233506Y-95628111D01*
X167156350Y-95607922D01*
X167136117Y-95596815D01*
X167082735Y-95532123D01*
X167047500Y-95433119D01*
X167032502Y-95312632D01*
X167039828Y-95183494D01*
X167056201Y-95105775D01*
X167103210Y-95015771D01*
X167177418Y-94959509D01*
X167266791Y-94940057D01*
X167359293Y-94960481D01*
X167430347Y-95010437D01*
X167467688Y-95051655D01*
X167489482Y-95092281D01*
X167499870Y-95147264D01*
X167502994Y-95231549D01*
X167503138Y-95273145D01*
X167770067Y-95273145D01*
X167769070Y-95161874D01*
X167734820Y-94989423D01*
X167668198Y-94854814D01*
X167569201Y-94758040D01*
X167437825Y-94699094D01*
X167409615Y-94692259D01*
X167240074Y-94676213D01*
X167090453Y-94703364D01*
G36*
X166332746Y-95076245D02*
G01*
X166330392Y-95258879D01*
X166321793Y-95397600D01*
X166304640Y-95498147D01*
X166276626Y-95566254D01*
X166235443Y-95607659D01*
X166178783Y-95628097D01*
X166108628Y-95633318D01*
X166035152Y-95627468D01*
X165979343Y-95606093D01*
X165938891Y-95563458D01*
X165911491Y-95493825D01*
X165894833Y-95391460D01*
X165886611Y-95250624D01*
X165884510Y-95076245D01*
X165884510Y-94688628D01*
X165610589Y-94688628D01*
X165610589Y-95883922D01*
X165747549Y-95883922D01*
X165830116Y-95880576D01*
X165872632Y-95868826D01*
X165884510Y-95846520D01*
X165891664Y-95826654D01*
X165920135Y-95830857D01*
X165977524Y-95858971D01*
X166109055Y-95902342D01*
X166248562Y-95899270D01*
X166382235Y-95852174D01*
X166445892Y-95814971D01*
X166494447Y-95774691D01*
X166529919Y-95724291D01*
X166554326Y-95656729D01*
X166569687Y-95564965D01*
X166578018Y-95441955D01*
X166581338Y-95280659D01*
X166581765Y-95155928D01*
X166581765Y-94688628D01*
X166332746Y-94688628D01*
X166332746Y-95076245D01*
G37*
X166332746Y-95076245D02*
X166330392Y-95258879D01*
X166321793Y-95397600D01*
X166304640Y-95498147D01*
X166276626Y-95566254D01*
X166235443Y-95607659D01*
X166178783Y-95628097D01*
X166108628Y-95633318D01*
X166035152Y-95627468D01*
X165979343Y-95606093D01*
X165938891Y-95563458D01*
X165911491Y-95493825D01*
X165894833Y-95391460D01*
X165886611Y-95250624D01*
X165884510Y-95076245D01*
X165884510Y-94688628D01*
X165610589Y-94688628D01*
X165610589Y-95883922D01*
X165747549Y-95883922D01*
X165830116Y-95880576D01*
X165872632Y-95868826D01*
X165884510Y-95846520D01*
X165891664Y-95826654D01*
X165920135Y-95830857D01*
X165977524Y-95858971D01*
X166109055Y-95902342D01*
X166248562Y-95899270D01*
X166382235Y-95852174D01*
X166445892Y-95814971D01*
X166494447Y-95774691D01*
X166529919Y-95724291D01*
X166554326Y-95656729D01*
X166569687Y-95564965D01*
X166578018Y-95441955D01*
X166581338Y-95280659D01*
X166581765Y-95155928D01*
X166581765Y-94688628D01*
X166332746Y-94688628D01*
X166332746Y-95076245D01*
G36*
X163909024Y-94699056D02*
G01*
X163764744Y-94760348D01*
X163719301Y-94790185D01*
X163661221Y-94836036D01*
X163624762Y-94872089D01*
X163618432Y-94883832D01*
X163636307Y-94909889D01*
X163682050Y-94954105D01*
X163718672Y-94984965D01*
X163818912Y-95065520D01*
X163898065Y-94998918D01*
X163959231Y-94955921D01*
X164018871Y-94941079D01*
X164087128Y-94944704D01*
X164195518Y-94971652D01*
X164270128Y-95027587D01*
X164315470Y-95118014D01*
X164336053Y-95248435D01*
X164336058Y-95248517D01*
X164334278Y-95394290D01*
X164306613Y-95501245D01*
X164251429Y-95574064D01*
X164213808Y-95598723D01*
X164113895Y-95629431D01*
X164007178Y-95629449D01*
X163914331Y-95599655D01*
X163892353Y-95585098D01*
X163837235Y-95547914D01*
X163794141Y-95541820D01*
X163747665Y-95569496D01*
X163696284Y-95619205D01*
X163614954Y-95703116D01*
X163705251Y-95777546D01*
X163844764Y-95861549D01*
X164002088Y-95902947D01*
X164166497Y-95899950D01*
X164274469Y-95872500D01*
X164400669Y-95804620D01*
X164501599Y-95697831D01*
X164547452Y-95622451D01*
X164584590Y-95514297D01*
X164603173Y-95377318D01*
X164603316Y-95228864D01*
X164585135Y-95086281D01*
X164548745Y-94966918D01*
X164543013Y-94954680D01*
X164458135Y-94834655D01*
X164343218Y-94747267D01*
X164207341Y-94694329D01*
X164059583Y-94677654D01*
X163909024Y-94699056D01*
G37*
X163909024Y-94699056D02*
X163764744Y-94760348D01*
X163719301Y-94790185D01*
X163661221Y-94836036D01*
X163624762Y-94872089D01*
X163618432Y-94883832D01*
X163636307Y-94909889D01*
X163682050Y-94954105D01*
X163718672Y-94984965D01*
X163818912Y-95065520D01*
X163898065Y-94998918D01*
X163959231Y-94955921D01*
X164018871Y-94941079D01*
X164087128Y-94944704D01*
X164195518Y-94971652D01*
X164270128Y-95027587D01*
X164315470Y-95118014D01*
X164336053Y-95248435D01*
X164336058Y-95248517D01*
X164334278Y-95394290D01*
X164306613Y-95501245D01*
X164251429Y-95574064D01*
X164213808Y-95598723D01*
X164113895Y-95629431D01*
X164007178Y-95629449D01*
X163914331Y-95599655D01*
X163892353Y-95585098D01*
X163837235Y-95547914D01*
X163794141Y-95541820D01*
X163747665Y-95569496D01*
X163696284Y-95619205D01*
X163614954Y-95703116D01*
X163705251Y-95777546D01*
X163844764Y-95861549D01*
X164002088Y-95902947D01*
X164166497Y-95899950D01*
X164274469Y-95872500D01*
X164400669Y-95804620D01*
X164501599Y-95697831D01*
X164547452Y-95622451D01*
X164584590Y-95514297D01*
X164603173Y-95377318D01*
X164603316Y-95228864D01*
X164585135Y-95086281D01*
X164548745Y-94966918D01*
X164543013Y-94954680D01*
X164458135Y-94834655D01*
X164343218Y-94747267D01*
X164207341Y-94694329D01*
X164059583Y-94677654D01*
X163909024Y-94699056D01*
G36*
X162996713Y-94684355D02*
G01*
X162932949Y-94699845D01*
X162810700Y-94756569D01*
X162706166Y-94843202D01*
X162633820Y-94947074D01*
X162623881Y-94970396D01*
X162610246Y-95031484D01*
X162600702Y-95121853D01*
X162597451Y-95213190D01*
X162597451Y-95385882D01*
X162958530Y-95385882D01*
X163107454Y-95386445D01*
X163212368Y-95389864D01*
X163279063Y-95398731D01*
X163313334Y-95415641D01*
X163320972Y-95443189D01*
X163307771Y-95483968D01*
X163284123Y-95531683D01*
X163218157Y-95611314D01*
X163126488Y-95650987D01*
X163014445Y-95649695D01*
X162887528Y-95606514D01*
X162777842Y-95553224D01*
X162686827Y-95625191D01*
X162595812Y-95697157D01*
X162681437Y-95776269D01*
X162795750Y-95851017D01*
X162936334Y-95896084D01*
X163087551Y-95908696D01*
X163233764Y-95886079D01*
X163257353Y-95878405D01*
X163385859Y-95811296D01*
X163481449Y-95711247D01*
X163546139Y-95575271D01*
X163581943Y-95400380D01*
X163582360Y-95396632D01*
X163585566Y-95206032D01*
X163572607Y-95138035D01*
X163319608Y-95138035D01*
X163296373Y-95148491D01*
X163233290Y-95156500D01*
X163140294Y-95161073D01*
X163081362Y-95161765D01*
X162971463Y-95161332D01*
X162902748Y-95158578D01*
X162866595Y-95151321D01*
X162854385Y-95137376D01*
X162857496Y-95114562D01*
X162860106Y-95105735D01*
X162904656Y-95022800D01*
X162974721Y-94955960D01*
X163036554Y-94926589D01*
X163118699Y-94928362D01*
X163201938Y-94964990D01*
X163271762Y-95025634D01*
X163313663Y-95099456D01*
X163319608Y-95138035D01*
X163572607Y-95138035D01*
X163553615Y-95038395D01*
X163490227Y-94897711D01*
X163399122Y-94787974D01*
X163284022Y-94713174D01*
X163148645Y-94677304D01*
X162996713Y-94684355D01*
G37*
X162996713Y-94684355D02*
X162932949Y-94699845D01*
X162810700Y-94756569D01*
X162706166Y-94843202D01*
X162633820Y-94947074D01*
X162623881Y-94970396D01*
X162610246Y-95031484D01*
X162600702Y-95121853D01*
X162597451Y-95213190D01*
X162597451Y-95385882D01*
X162958530Y-95385882D01*
X163107454Y-95386445D01*
X163212368Y-95389864D01*
X163279063Y-95398731D01*
X163313334Y-95415641D01*
X163320972Y-95443189D01*
X163307771Y-95483968D01*
X163284123Y-95531683D01*
X163218157Y-95611314D01*
X163126488Y-95650987D01*
X163014445Y-95649695D01*
X162887528Y-95606514D01*
X162777842Y-95553224D01*
X162686827Y-95625191D01*
X162595812Y-95697157D01*
X162681437Y-95776269D01*
X162795750Y-95851017D01*
X162936334Y-95896084D01*
X163087551Y-95908696D01*
X163233764Y-95886079D01*
X163257353Y-95878405D01*
X163385859Y-95811296D01*
X163481449Y-95711247D01*
X163546139Y-95575271D01*
X163581943Y-95400380D01*
X163582360Y-95396632D01*
X163585566Y-95206032D01*
X163572607Y-95138035D01*
X163319608Y-95138035D01*
X163296373Y-95148491D01*
X163233290Y-95156500D01*
X163140294Y-95161073D01*
X163081362Y-95161765D01*
X162971463Y-95161332D01*
X162902748Y-95158578D01*
X162866595Y-95151321D01*
X162854385Y-95137376D01*
X162857496Y-95114562D01*
X162860106Y-95105735D01*
X162904656Y-95022800D01*
X162974721Y-94955960D01*
X163036554Y-94926589D01*
X163118699Y-94928362D01*
X163201938Y-94964990D01*
X163271762Y-95025634D01*
X163313663Y-95099456D01*
X163319608Y-95138035D01*
X163572607Y-95138035D01*
X163553615Y-95038395D01*
X163490227Y-94897711D01*
X163399122Y-94787974D01*
X163284022Y-94713174D01*
X163148645Y-94677304D01*
X162996713Y-94684355D01*
G36*
X169793240Y-94709199D02*
G01*
X169731264Y-94738802D01*
X169671241Y-94781561D01*
X169625514Y-94830775D01*
X169592207Y-94893544D01*
X169569445Y-94976971D01*
X169555353Y-95088159D01*
X169548058Y-95234209D01*
X169545682Y-95422223D01*
X169545645Y-95441912D01*
X169545098Y-95883922D01*
X169819020Y-95883922D01*
X169819020Y-95476435D01*
X169819215Y-95325471D01*
X169820564Y-95216056D01*
X169824212Y-95139933D01*
X169831304Y-95088848D01*
X169842987Y-95054545D01*
X169860406Y-95028768D01*
X169884671Y-95003298D01*
X169969565Y-94948571D01*
X170062239Y-94938416D01*
X170150527Y-94973017D01*
X170181230Y-94998770D01*
X170203771Y-95022982D01*
X170219954Y-95048912D01*
X170230832Y-95084708D01*
X170237458Y-95138519D01*
X170240885Y-95218493D01*
X170242166Y-95332779D01*
X170242353Y-95471907D01*
X170242353Y-95883922D01*
X170516275Y-95883922D01*
X170516275Y-94688628D01*
X170379314Y-94688628D01*
X170297084Y-94691879D01*
X170254660Y-94703426D01*
X170242359Y-94725952D01*
X170242353Y-94726620D01*
X170236646Y-94748681D01*
X170211473Y-94746177D01*
X170161422Y-94721937D01*
X170047906Y-94686271D01*
X169918055Y-94682305D01*
X169793240Y-94709199D01*
G37*
X169793240Y-94709199D02*
X169731264Y-94738802D01*
X169671241Y-94781561D01*
X169625514Y-94830775D01*
X169592207Y-94893544D01*
X169569445Y-94976971D01*
X169555353Y-95088159D01*
X169548058Y-95234209D01*
X169545682Y-95422223D01*
X169545645Y-95441912D01*
X169545098Y-95883922D01*
X169819020Y-95883922D01*
X169819020Y-95476435D01*
X169819215Y-95325471D01*
X169820564Y-95216056D01*
X169824212Y-95139933D01*
X169831304Y-95088848D01*
X169842987Y-95054545D01*
X169860406Y-95028768D01*
X169884671Y-95003298D01*
X169969565Y-94948571D01*
X170062239Y-94938416D01*
X170150527Y-94973017D01*
X170181230Y-94998770D01*
X170203771Y-95022982D01*
X170219954Y-95048912D01*
X170230832Y-95084708D01*
X170237458Y-95138519D01*
X170240885Y-95218493D01*
X170242166Y-95332779D01*
X170242353Y-95471907D01*
X170242353Y-95883922D01*
X170516275Y-95883922D01*
X170516275Y-94688628D01*
X170379314Y-94688628D01*
X170297084Y-94691879D01*
X170254660Y-94703426D01*
X170242359Y-94725952D01*
X170242353Y-94726620D01*
X170236646Y-94748681D01*
X170211473Y-94746177D01*
X170161422Y-94721937D01*
X170047906Y-94686271D01*
X169918055Y-94682305D01*
X169793240Y-94709199D01*
G36*
X164736363Y-94687472D02*
G01*
X164650710Y-94713641D01*
X164595563Y-94746707D01*
X164577599Y-94772855D01*
X164582543Y-94803852D01*
X164614628Y-94852547D01*
X164641757Y-94887035D01*
X164697683Y-94949383D01*
X164739701Y-94975615D01*
X164775520Y-94973903D01*
X164881776Y-94946863D01*
X164959811Y-94948091D01*
X165023180Y-94978735D01*
X165044454Y-94996670D01*
X165112549Y-95059779D01*
X165112549Y-95883922D01*
X165386471Y-95883922D01*
X165386471Y-94688628D01*
X165249510Y-94688628D01*
X165167281Y-94691879D01*
X165124856Y-94703426D01*
X165112555Y-94725952D01*
X165112549Y-94726620D01*
X165106740Y-94750215D01*
X165080469Y-94747138D01*
X165044069Y-94730115D01*
X164968889Y-94698439D01*
X164907842Y-94679381D01*
X164829292Y-94674496D01*
X164736363Y-94687472D01*
G37*
X164736363Y-94687472D02*
X164650710Y-94713641D01*
X164595563Y-94746707D01*
X164577599Y-94772855D01*
X164582543Y-94803852D01*
X164614628Y-94852547D01*
X164641757Y-94887035D01*
X164697683Y-94949383D01*
X164739701Y-94975615D01*
X164775520Y-94973903D01*
X164881776Y-94946863D01*
X164959811Y-94948091D01*
X165023180Y-94978735D01*
X165044454Y-94996670D01*
X165112549Y-95059779D01*
X165112549Y-95883922D01*
X165386471Y-95883922D01*
X165386471Y-94688628D01*
X165249510Y-94688628D01*
X165167281Y-94691879D01*
X165124856Y-94703426D01*
X165112555Y-94725952D01*
X165112549Y-94726620D01*
X165106740Y-94750215D01*
X165080469Y-94747138D01*
X165044069Y-94730115D01*
X164968889Y-94698439D01*
X164907842Y-94679381D01*
X164829292Y-94674496D01*
X164736363Y-94687472D01*
G36*
X167553465Y-86433172D02*
G01*
X167440883Y-87030363D01*
X167025469Y-87201610D01*
X166610056Y-87372857D01*
X166111698Y-87033978D01*
X165972132Y-86939622D01*
X165845972Y-86855375D01*
X165739105Y-86785083D01*
X165657418Y-86732592D01*
X165606799Y-86701749D01*
X165593014Y-86695098D01*
X165568180Y-86712203D01*
X165515112Y-86759489D01*
X165439760Y-86830917D01*
X165348071Y-86920445D01*
X165245993Y-87022034D01*
X165139474Y-87129643D01*
X165034464Y-87237232D01*
X164936909Y-87338760D01*
X164852758Y-87428186D01*
X164787960Y-87499471D01*
X164748462Y-87546573D01*
X164739020Y-87562337D01*
X164752609Y-87591398D01*
X164790707Y-87655066D01*
X164849306Y-87747112D01*
X164924403Y-87861309D01*
X165011991Y-87991429D01*
X165062746Y-88065646D01*
X165155255Y-88201167D01*
X165237460Y-88323461D01*
X165305370Y-88426440D01*
X165355000Y-88504018D01*
X165382360Y-88550106D01*
X165386471Y-88559792D01*
X165377151Y-88587319D01*
X165351746Y-88651473D01*
X165314089Y-88743235D01*
X165268014Y-88853584D01*
X165217354Y-88973500D01*
X165165941Y-89093964D01*
X165117611Y-89205954D01*
X165076194Y-89300452D01*
X165045526Y-89368437D01*
X165029438Y-89400888D01*
X165028489Y-89402165D01*
X165003228Y-89408362D01*
X164935954Y-89422185D01*
X164833640Y-89442277D01*
X164703259Y-89467279D01*
X164551784Y-89495831D01*
X164463406Y-89512296D01*
X164301548Y-89543114D01*
X164155351Y-89572439D01*
X164032213Y-89598666D01*
X163939531Y-89620191D01*
X163884699Y-89635410D01*
X163873677Y-89640238D01*
X163862881Y-89672919D01*
X163854171Y-89746730D01*
X163847540Y-89853037D01*
X163842982Y-89983212D01*
X163840491Y-90128621D01*
X163840062Y-90280635D01*
X163841689Y-90430622D01*
X163845365Y-90569951D01*
X163851085Y-90689990D01*
X163858842Y-90782110D01*
X163868632Y-90837677D01*
X163874504Y-90849245D01*
X163909601Y-90863110D01*
X163983972Y-90882933D01*
X164087777Y-90906384D01*
X164211181Y-90931136D01*
X164254259Y-90939143D01*
X164461953Y-90977186D01*
X164626016Y-91007824D01*
X164751870Y-91032274D01*
X164844935Y-91051754D01*
X164910633Y-91067481D01*
X164954383Y-91080673D01*
X164981608Y-91092549D01*
X164997728Y-91104325D01*
X164999983Y-91106653D01*
X165022497Y-91144145D01*
X165056842Y-91217110D01*
X165099589Y-91316612D01*
X165147308Y-91433718D01*
X165196570Y-91559493D01*
X165243945Y-91685002D01*
X165286005Y-91801310D01*
X165319320Y-91899484D01*
X165340459Y-91970588D01*
X165345995Y-92005687D01*
X165345534Y-92006917D01*
X165326777Y-92035606D01*
X165284224Y-92098730D01*
X165222347Y-92189718D01*
X165145618Y-92302000D01*
X165058509Y-92429005D01*
X165033701Y-92465098D01*
X164945247Y-92595948D01*
X164867412Y-92715336D01*
X164804434Y-92816407D01*
X164760555Y-92892304D01*
X164740015Y-92936172D01*
X164739020Y-92941562D01*
X164756278Y-92969889D01*
X164803964Y-93026006D01*
X164875950Y-93103882D01*
X164966103Y-93197485D01*
X165068295Y-93300786D01*
X165176394Y-93407751D01*
X165284272Y-93512351D01*
X165385796Y-93608554D01*
X165474838Y-93690329D01*
X165545267Y-93751645D01*
X165590953Y-93786471D01*
X165603591Y-93792157D01*
X165633009Y-93778765D01*
X165693239Y-93742644D01*
X165774470Y-93689881D01*
X165836970Y-93647412D01*
X165950215Y-93569485D01*
X166084326Y-93477729D01*
X166218845Y-93386120D01*
X166291167Y-93337091D01*
X166535962Y-93171515D01*
X166741449Y-93282620D01*
X166835064Y-93331293D01*
X166914670Y-93369126D01*
X166968533Y-93390703D01*
X166982243Y-93393706D01*
X166998730Y-93371538D01*
X167031255Y-93308894D01*
X167077391Y-93211554D01*
X167134710Y-93085294D01*
X167200784Y-92935895D01*
X167273185Y-92769133D01*
X167349484Y-92590787D01*
X167427254Y-92406636D01*
X167504066Y-92222457D01*
X167577494Y-92044030D01*
X167645108Y-91877132D01*
X167704480Y-91727542D01*
X167753184Y-91601038D01*
X167788790Y-91503399D01*
X167808870Y-91440402D01*
X167812100Y-91418766D01*
X167786504Y-91391169D01*
X167730461Y-91346370D01*
X167655689Y-91293679D01*
X167649413Y-91289510D01*
X167456155Y-91134814D01*
X167300326Y-90954336D01*
X167183276Y-90753847D01*
X167106355Y-90539119D01*
X167070914Y-90315922D01*
X167078303Y-90090026D01*
X167129873Y-89867204D01*
X167226974Y-89653224D01*
X167255542Y-89606409D01*
X167404132Y-89417363D01*
X167579673Y-89265557D01*
X167776090Y-89151779D01*
X167987307Y-89076820D01*
X168207247Y-89041467D01*
X168429837Y-89046512D01*
X168648999Y-89092744D01*
X168858658Y-89180951D01*
X169052739Y-89311924D01*
X169112774Y-89365082D01*
X169265565Y-89531484D01*
X169376903Y-89706657D01*
X169453277Y-89903011D01*
X169495813Y-90097462D01*
X169506314Y-90316087D01*
X169471299Y-90535797D01*
X169394327Y-90749165D01*
X169278953Y-90948767D01*
X169128734Y-91127174D01*
X168947227Y-91276962D01*
X168923373Y-91292751D01*
X168847799Y-91344457D01*
X168790349Y-91389257D01*
X168762883Y-91417862D01*
X168762483Y-91418766D01*
X168768380Y-91449709D01*
X168791755Y-91519936D01*
X168830179Y-91623670D01*
X168881223Y-91755135D01*
X168942458Y-91908552D01*
X169011456Y-92078146D01*
X169085786Y-92258138D01*
X169163022Y-92442753D01*
X169240732Y-92626213D01*
X169316489Y-92802741D01*
X169387863Y-92966559D01*
X169452426Y-93111892D01*
X169507748Y-93232962D01*
X169551400Y-93323992D01*
X169580954Y-93379205D01*
X169592856Y-93393706D01*
X169629223Y-93382414D01*
X169697270Y-93352130D01*
X169785263Y-93308265D01*
X169833649Y-93282620D01*
X170039137Y-93171515D01*
X170283932Y-93337091D01*
X170408894Y-93421915D01*
X170545705Y-93515261D01*
X170673911Y-93603153D01*
X170738129Y-93647412D01*
X170828449Y-93708063D01*
X170904929Y-93756126D01*
X170957593Y-93785515D01*
X170974698Y-93791727D01*
X170999595Y-93774968D01*
X171054695Y-93728181D01*
X171134657Y-93656225D01*
X171234139Y-93563957D01*
X171347800Y-93456235D01*
X171419685Y-93387071D01*
X171545449Y-93263502D01*
X171654137Y-93152979D01*
X171741355Y-93060230D01*
X171802711Y-92989982D01*
X171833809Y-92946965D01*
X171836792Y-92938235D01*
X171822947Y-92905029D01*
X171784688Y-92837887D01*
X171726258Y-92743608D01*
X171651903Y-92628990D01*
X171565865Y-92500828D01*
X171541397Y-92465098D01*
X171452245Y-92335234D01*
X171372262Y-92218314D01*
X171305920Y-92120907D01*
X171257689Y-92049584D01*
X171232043Y-92010915D01*
X171229565Y-92006917D01*
X171233271Y-91976100D01*
X171252939Y-91908344D01*
X171285140Y-91812584D01*
X171326445Y-91697754D01*
X171373425Y-91572789D01*
X171422651Y-91446624D01*
X171470692Y-91328193D01*
X171514119Y-91226430D01*
X171549504Y-91150271D01*
X171573416Y-91108649D01*
X171575116Y-91106653D01*
X171589738Y-91094758D01*
X171614435Y-91082995D01*
X171654628Y-91070146D01*
X171715737Y-91054994D01*
X171803183Y-91036321D01*
X171922388Y-91012910D01*
X172078773Y-90983542D01*
X172277757Y-90947000D01*
X172320840Y-90939143D01*
X172448529Y-90914472D01*
X172559847Y-90890338D01*
X172644955Y-90869069D01*
X172694017Y-90852993D01*
X172700595Y-90849245D01*
X172711436Y-90816018D01*
X172720247Y-90741766D01*
X172727024Y-90635121D01*
X172731760Y-90504712D01*
X172734450Y-90359172D01*
X172735087Y-90207131D01*
X172733666Y-90057221D01*
X172730180Y-89918073D01*
X172724624Y-89798317D01*
X172716992Y-89706586D01*
X172707278Y-89651511D01*
X172701422Y-89640238D01*
X172668820Y-89628868D01*
X172594582Y-89610369D01*
X172486104Y-89586347D01*
X172350783Y-89558407D01*
X172196015Y-89528153D01*
X172111692Y-89512296D01*
X171951704Y-89482389D01*
X171809033Y-89455295D01*
X171690652Y-89432376D01*
X171603535Y-89414988D01*
X171554655Y-89404492D01*
X171546610Y-89402165D01*
X171533013Y-89375931D01*
X171504271Y-89312740D01*
X171464215Y-89221622D01*
X171416676Y-89111602D01*
X171365485Y-88991710D01*
X171314474Y-88870972D01*
X171267474Y-88758416D01*
X171228316Y-88663071D01*
X171200831Y-88593962D01*
X171188851Y-88560119D01*
X171188628Y-88558640D01*
X171202209Y-88531942D01*
X171240285Y-88470505D01*
X171298853Y-88380434D01*
X171373912Y-88267835D01*
X171461460Y-88138815D01*
X171512353Y-88064706D01*
X171605091Y-87928822D01*
X171687459Y-87805454D01*
X171755439Y-87700842D01*
X171805012Y-87621228D01*
X171832158Y-87572852D01*
X171836079Y-87562007D01*
X171819225Y-87536765D01*
X171772632Y-87482869D01*
X171702251Y-87406358D01*
X171614035Y-87313268D01*
X171513935Y-87209640D01*
X171407902Y-87101509D01*
X171301889Y-86994915D01*
X171201848Y-86895895D01*
X171113730Y-86810487D01*
X171043487Y-86744730D01*
X170997072Y-86704661D01*
X170981544Y-86695098D01*
X170956261Y-86708545D01*
X170895789Y-86746320D01*
X170806008Y-86804580D01*
X170692797Y-86879479D01*
X170562036Y-86967170D01*
X170463400Y-87033978D01*
X169965043Y-87372857D01*
X169549629Y-87201610D01*
X169134216Y-87030363D01*
X169021634Y-86433172D01*
X168909051Y-85835980D01*
X167666048Y-85835980D01*
X167553465Y-86433172D01*
G37*
X167553465Y-86433172D02*
X167440883Y-87030363D01*
X167025469Y-87201610D01*
X166610056Y-87372857D01*
X166111698Y-87033978D01*
X165972132Y-86939622D01*
X165845972Y-86855375D01*
X165739105Y-86785083D01*
X165657418Y-86732592D01*
X165606799Y-86701749D01*
X165593014Y-86695098D01*
X165568180Y-86712203D01*
X165515112Y-86759489D01*
X165439760Y-86830917D01*
X165348071Y-86920445D01*
X165245993Y-87022034D01*
X165139474Y-87129643D01*
X165034464Y-87237232D01*
X164936909Y-87338760D01*
X164852758Y-87428186D01*
X164787960Y-87499471D01*
X164748462Y-87546573D01*
X164739020Y-87562337D01*
X164752609Y-87591398D01*
X164790707Y-87655066D01*
X164849306Y-87747112D01*
X164924403Y-87861309D01*
X165011991Y-87991429D01*
X165062746Y-88065646D01*
X165155255Y-88201167D01*
X165237460Y-88323461D01*
X165305370Y-88426440D01*
X165355000Y-88504018D01*
X165382360Y-88550106D01*
X165386471Y-88559792D01*
X165377151Y-88587319D01*
X165351746Y-88651473D01*
X165314089Y-88743235D01*
X165268014Y-88853584D01*
X165217354Y-88973500D01*
X165165941Y-89093964D01*
X165117611Y-89205954D01*
X165076194Y-89300452D01*
X165045526Y-89368437D01*
X165029438Y-89400888D01*
X165028489Y-89402165D01*
X165003228Y-89408362D01*
X164935954Y-89422185D01*
X164833640Y-89442277D01*
X164703259Y-89467279D01*
X164551784Y-89495831D01*
X164463406Y-89512296D01*
X164301548Y-89543114D01*
X164155351Y-89572439D01*
X164032213Y-89598666D01*
X163939531Y-89620191D01*
X163884699Y-89635410D01*
X163873677Y-89640238D01*
X163862881Y-89672919D01*
X163854171Y-89746730D01*
X163847540Y-89853037D01*
X163842982Y-89983212D01*
X163840491Y-90128621D01*
X163840062Y-90280635D01*
X163841689Y-90430622D01*
X163845365Y-90569951D01*
X163851085Y-90689990D01*
X163858842Y-90782110D01*
X163868632Y-90837677D01*
X163874504Y-90849245D01*
X163909601Y-90863110D01*
X163983972Y-90882933D01*
X164087777Y-90906384D01*
X164211181Y-90931136D01*
X164254259Y-90939143D01*
X164461953Y-90977186D01*
X164626016Y-91007824D01*
X164751870Y-91032274D01*
X164844935Y-91051754D01*
X164910633Y-91067481D01*
X164954383Y-91080673D01*
X164981608Y-91092549D01*
X164997728Y-91104325D01*
X164999983Y-91106653D01*
X165022497Y-91144145D01*
X165056842Y-91217110D01*
X165099589Y-91316612D01*
X165147308Y-91433718D01*
X165196570Y-91559493D01*
X165243945Y-91685002D01*
X165286005Y-91801310D01*
X165319320Y-91899484D01*
X165340459Y-91970588D01*
X165345995Y-92005687D01*
X165345534Y-92006917D01*
X165326777Y-92035606D01*
X165284224Y-92098730D01*
X165222347Y-92189718D01*
X165145618Y-92302000D01*
X165058509Y-92429005D01*
X165033701Y-92465098D01*
X164945247Y-92595948D01*
X164867412Y-92715336D01*
X164804434Y-92816407D01*
X164760555Y-92892304D01*
X164740015Y-92936172D01*
X164739020Y-92941562D01*
X164756278Y-92969889D01*
X164803964Y-93026006D01*
X164875950Y-93103882D01*
X164966103Y-93197485D01*
X165068295Y-93300786D01*
X165176394Y-93407751D01*
X165284272Y-93512351D01*
X165385796Y-93608554D01*
X165474838Y-93690329D01*
X165545267Y-93751645D01*
X165590953Y-93786471D01*
X165603591Y-93792157D01*
X165633009Y-93778765D01*
X165693239Y-93742644D01*
X165774470Y-93689881D01*
X165836970Y-93647412D01*
X165950215Y-93569485D01*
X166084326Y-93477729D01*
X166218845Y-93386120D01*
X166291167Y-93337091D01*
X166535962Y-93171515D01*
X166741449Y-93282620D01*
X166835064Y-93331293D01*
X166914670Y-93369126D01*
X166968533Y-93390703D01*
X166982243Y-93393706D01*
X166998730Y-93371538D01*
X167031255Y-93308894D01*
X167077391Y-93211554D01*
X167134710Y-93085294D01*
X167200784Y-92935895D01*
X167273185Y-92769133D01*
X167349484Y-92590787D01*
X167427254Y-92406636D01*
X167504066Y-92222457D01*
X167577494Y-92044030D01*
X167645108Y-91877132D01*
X167704480Y-91727542D01*
X167753184Y-91601038D01*
X167788790Y-91503399D01*
X167808870Y-91440402D01*
X167812100Y-91418766D01*
X167786504Y-91391169D01*
X167730461Y-91346370D01*
X167655689Y-91293679D01*
X167649413Y-91289510D01*
X167456155Y-91134814D01*
X167300326Y-90954336D01*
X167183276Y-90753847D01*
X167106355Y-90539119D01*
X167070914Y-90315922D01*
X167078303Y-90090026D01*
X167129873Y-89867204D01*
X167226974Y-89653224D01*
X167255542Y-89606409D01*
X167404132Y-89417363D01*
X167579673Y-89265557D01*
X167776090Y-89151779D01*
X167987307Y-89076820D01*
X168207247Y-89041467D01*
X168429837Y-89046512D01*
X168648999Y-89092744D01*
X168858658Y-89180951D01*
X169052739Y-89311924D01*
X169112774Y-89365082D01*
X169265565Y-89531484D01*
X169376903Y-89706657D01*
X169453277Y-89903011D01*
X169495813Y-90097462D01*
X169506314Y-90316087D01*
X169471299Y-90535797D01*
X169394327Y-90749165D01*
X169278953Y-90948767D01*
X169128734Y-91127174D01*
X168947227Y-91276962D01*
X168923373Y-91292751D01*
X168847799Y-91344457D01*
X168790349Y-91389257D01*
X168762883Y-91417862D01*
X168762483Y-91418766D01*
X168768380Y-91449709D01*
X168791755Y-91519936D01*
X168830179Y-91623670D01*
X168881223Y-91755135D01*
X168942458Y-91908552D01*
X169011456Y-92078146D01*
X169085786Y-92258138D01*
X169163022Y-92442753D01*
X169240732Y-92626213D01*
X169316489Y-92802741D01*
X169387863Y-92966559D01*
X169452426Y-93111892D01*
X169507748Y-93232962D01*
X169551400Y-93323992D01*
X169580954Y-93379205D01*
X169592856Y-93393706D01*
X169629223Y-93382414D01*
X169697270Y-93352130D01*
X169785263Y-93308265D01*
X169833649Y-93282620D01*
X170039137Y-93171515D01*
X170283932Y-93337091D01*
X170408894Y-93421915D01*
X170545705Y-93515261D01*
X170673911Y-93603153D01*
X170738129Y-93647412D01*
X170828449Y-93708063D01*
X170904929Y-93756126D01*
X170957593Y-93785515D01*
X170974698Y-93791727D01*
X170999595Y-93774968D01*
X171054695Y-93728181D01*
X171134657Y-93656225D01*
X171234139Y-93563957D01*
X171347800Y-93456235D01*
X171419685Y-93387071D01*
X171545449Y-93263502D01*
X171654137Y-93152979D01*
X171741355Y-93060230D01*
X171802711Y-92989982D01*
X171833809Y-92946965D01*
X171836792Y-92938235D01*
X171822947Y-92905029D01*
X171784688Y-92837887D01*
X171726258Y-92743608D01*
X171651903Y-92628990D01*
X171565865Y-92500828D01*
X171541397Y-92465098D01*
X171452245Y-92335234D01*
X171372262Y-92218314D01*
X171305920Y-92120907D01*
X171257689Y-92049584D01*
X171232043Y-92010915D01*
X171229565Y-92006917D01*
X171233271Y-91976100D01*
X171252939Y-91908344D01*
X171285140Y-91812584D01*
X171326445Y-91697754D01*
X171373425Y-91572789D01*
X171422651Y-91446624D01*
X171470692Y-91328193D01*
X171514119Y-91226430D01*
X171549504Y-91150271D01*
X171573416Y-91108649D01*
X171575116Y-91106653D01*
X171589738Y-91094758D01*
X171614435Y-91082995D01*
X171654628Y-91070146D01*
X171715737Y-91054994D01*
X171803183Y-91036321D01*
X171922388Y-91012910D01*
X172078773Y-90983542D01*
X172277757Y-90947000D01*
X172320840Y-90939143D01*
X172448529Y-90914472D01*
X172559847Y-90890338D01*
X172644955Y-90869069D01*
X172694017Y-90852993D01*
X172700595Y-90849245D01*
X172711436Y-90816018D01*
X172720247Y-90741766D01*
X172727024Y-90635121D01*
X172731760Y-90504712D01*
X172734450Y-90359172D01*
X172735087Y-90207131D01*
X172733666Y-90057221D01*
X172730180Y-89918073D01*
X172724624Y-89798317D01*
X172716992Y-89706586D01*
X172707278Y-89651511D01*
X172701422Y-89640238D01*
X172668820Y-89628868D01*
X172594582Y-89610369D01*
X172486104Y-89586347D01*
X172350783Y-89558407D01*
X172196015Y-89528153D01*
X172111692Y-89512296D01*
X171951704Y-89482389D01*
X171809033Y-89455295D01*
X171690652Y-89432376D01*
X171603535Y-89414988D01*
X171554655Y-89404492D01*
X171546610Y-89402165D01*
X171533013Y-89375931D01*
X171504271Y-89312740D01*
X171464215Y-89221622D01*
X171416676Y-89111602D01*
X171365485Y-88991710D01*
X171314474Y-88870972D01*
X171267474Y-88758416D01*
X171228316Y-88663071D01*
X171200831Y-88593962D01*
X171188851Y-88560119D01*
X171188628Y-88558640D01*
X171202209Y-88531942D01*
X171240285Y-88470505D01*
X171298853Y-88380434D01*
X171373912Y-88267835D01*
X171461460Y-88138815D01*
X171512353Y-88064706D01*
X171605091Y-87928822D01*
X171687459Y-87805454D01*
X171755439Y-87700842D01*
X171805012Y-87621228D01*
X171832158Y-87572852D01*
X171836079Y-87562007D01*
X171819225Y-87536765D01*
X171772632Y-87482869D01*
X171702251Y-87406358D01*
X171614035Y-87313268D01*
X171513935Y-87209640D01*
X171407902Y-87101509D01*
X171301889Y-86994915D01*
X171201848Y-86895895D01*
X171113730Y-86810487D01*
X171043487Y-86744730D01*
X170997072Y-86704661D01*
X170981544Y-86695098D01*
X170956261Y-86708545D01*
X170895789Y-86746320D01*
X170806008Y-86804580D01*
X170692797Y-86879479D01*
X170562036Y-86967170D01*
X170463400Y-87033978D01*
X169965043Y-87372857D01*
X169549629Y-87201610D01*
X169134216Y-87030363D01*
X169021634Y-86433172D01*
X168909051Y-85835980D01*
X167666048Y-85835980D01*
X167553465Y-86433172D01*
%TD*%
D11*
%TO.P,J1,1*%
%TO.N,/RESET*%
X146610000Y-114345000D03*
%TO.P,J1,3*%
%TO.N,/DC*%
X151690000Y-114345000D03*
%TO.P,J1,5*%
%TO.N,/SCLK*%
X156770000Y-114345000D03*
%TO.P,J1,7*%
%TO.N,/LED*%
X161850000Y-114345000D03*
%TO.P,J1,2*%
%TO.N,/CS*%
X149150000Y-117655000D03*
%TO.P,J1,4*%
%TO.N,/MOSI*%
X154230000Y-117655000D03*
%TO.P,J1,6*%
%TO.N,Net-(J1-Pad6)*%
X159310000Y-117655000D03*
%TO.P,J1,8*%
%TO.N,GND*%
X164390000Y-117655000D03*
%TD*%
%TO.P,C1,1*%
%TO.N,+3V3*%
%TA.AperFunction,SMDPad,CuDef*%
G36*
G01*
X158125000Y-107343750D02*
X158125000Y-108256250D01*
G75*
G02*
X157881250Y-108500000I-243750J0D01*
G01*
X157393750Y-108500000D01*
G75*
G02*
X157150000Y-108256250I0J243750D01*
G01*
X157150000Y-107343750D01*
G75*
G02*
X157393750Y-107100000I243750J0D01*
G01*
X157881250Y-107100000D01*
G75*
G02*
X158125000Y-107343750I0J-243750D01*
G01*
G37*
%TD.AperFunction*%
%TO.P,C1,2*%
%TO.N,GND*%
%TA.AperFunction,SMDPad,CuDef*%
G36*
G01*
X156250000Y-107343750D02*
X156250000Y-108256250D01*
G75*
G02*
X156006250Y-108500000I-243750J0D01*
G01*
X155518750Y-108500000D01*
G75*
G02*
X155275000Y-108256250I0J243750D01*
G01*
X155275000Y-107343750D01*
G75*
G02*
X155518750Y-107100000I243750J0D01*
G01*
X156006250Y-107100000D01*
G75*
G02*
X156250000Y-107343750I0J-243750D01*
G01*
G37*
%TD.AperFunction*%
%TD*%
D12*
%TO.P,Q1,1*%
%TO.N,GND*%
X158350000Y-109800000D03*
%TO.P,Q1,2*%
%TO.N,+3V3*%
X160250000Y-109800000D03*
%TO.P,Q1,3*%
%TO.N,Net-(J1-Pad6)*%
X159300000Y-111800000D03*
%TD*%
D13*
%TO.N,/RESET*%
X147700000Y-115000000D03*
%TO.N,/DC*%
X150100000Y-114000000D03*
%TO.N,/SCLK*%
X155700000Y-113800000D03*
%TO.N,/LED*%
X161900000Y-112400000D03*
%TO.N,/CS*%
X149300000Y-116000000D03*
%TO.N,/MOSI*%
X154700000Y-114800000D03*
%TO.N,+3V3*%
X157300000Y-106400000D03*
%TO.N,GND*%
X133700000Y-78000000D03*
X133700000Y-98000000D03*
X133700000Y-83000000D03*
X133700000Y-88000000D03*
X133700000Y-103000000D03*
X133700000Y-108000000D03*
X133700000Y-93000000D03*
X155900000Y-106400000D03*
X164500000Y-115400000D03*
X162900000Y-117600000D03*
X165900000Y-117600000D03*
X147500000Y-118800000D03*
X148500000Y-113400000D03*
X155900000Y-118800000D03*
X157700000Y-116600000D03*
X162100000Y-110800000D03*
X159100000Y-105800000D03*
X149100000Y-110000000D03*
X150300000Y-106000000D03*
X145300000Y-112400000D03*
X177300000Y-127400000D03*
X177300000Y-122400000D03*
X171700000Y-127400000D03*
X171700000Y-122400000D03*
X133700000Y-127400000D03*
X140300000Y-127400000D03*
X133700000Y-122400000D03*
X133700000Y-119000000D03*
X133700000Y-113000000D03*
X138300000Y-116000000D03*
X177300000Y-119000000D03*
X177300000Y-113000000D03*
X172700000Y-116000000D03*
X140300000Y-122400000D03*
X177300000Y-108000000D03*
X177300000Y-103000000D03*
X177300000Y-98000000D03*
X177300000Y-93000000D03*
X177300000Y-88000000D03*
X177300000Y-83000000D03*
X177300000Y-78000000D03*
X138300000Y-74200000D03*
X150300000Y-74200000D03*
X160700000Y-74200000D03*
X172700000Y-74200000D03*
X166900000Y-74200000D03*
X156500000Y-76600000D03*
X144100000Y-76600000D03*
X151700000Y-118800000D03*
%TD*%
D14*
%TO.N,/RESET*%
X146610000Y-114710000D02*
X146610000Y-114345000D01*
X146900000Y-115000000D02*
X146610000Y-114710000D01*
X147700000Y-115000000D02*
X146900000Y-115000000D01*
%TO.N,/DC*%
X151345000Y-114000000D02*
X151690000Y-114345000D01*
X150100000Y-114000000D02*
X150100000Y-114000000D01*
X150100000Y-114000000D02*
X150100000Y-114000000D01*
X150100000Y-114000000D02*
X151345000Y-114000000D01*
%TO.N,/SCLK*%
X156770000Y-114070000D02*
X156770000Y-114345000D01*
X156500000Y-113800000D02*
X156770000Y-114070000D01*
X155700000Y-113800000D02*
X156500000Y-113800000D01*
%TO.N,/LED*%
X161850000Y-112450000D02*
X161900000Y-112400000D01*
X161850000Y-114345000D02*
X161850000Y-112450000D01*
%TO.N,/CS*%
X149300000Y-117505000D02*
X149150000Y-117655000D01*
X149300000Y-116000000D02*
X149300000Y-116000000D01*
X149300000Y-116000000D02*
X149300000Y-117505000D01*
%TO.N,/MOSI*%
X154230000Y-115270000D02*
X154700000Y-114800000D01*
X154230000Y-117655000D02*
X154230000Y-115270000D01*
%TO.N,+3V3*%
X157637500Y-107800000D02*
X159300000Y-107800000D01*
X160250000Y-108750000D02*
X160250000Y-109800000D01*
X159300000Y-107800000D02*
X160250000Y-108750000D01*
X157637500Y-106737500D02*
X157637500Y-107800000D01*
X157300000Y-106400000D02*
X157637500Y-106737500D01*
%TO.N,GND*%
X155762500Y-106262500D02*
X155700000Y-106200000D01*
X155762500Y-107800000D02*
X155762500Y-106262500D01*
X160900002Y-110800000D02*
X161000001Y-110899999D01*
X159500000Y-110800000D02*
X160900002Y-110800000D01*
X159300000Y-110600000D02*
X159500000Y-110800000D01*
X158900000Y-109800000D02*
X159300000Y-110200000D01*
X159300000Y-110200000D02*
X159300000Y-110600000D01*
X158350000Y-109800000D02*
X158900000Y-109800000D01*
%TO.N,Net-(J1-Pad6)*%
X159310000Y-111810000D02*
X159300000Y-111800000D01*
X159310000Y-117655000D02*
X159310000Y-111810000D01*
%TD*%
D15*
%TO.N,GND*%
G36*
X140375000Y-75469296D02*
G01*
X140371976Y-75500000D01*
X140384043Y-75622521D01*
X140419781Y-75740334D01*
X140477817Y-75848911D01*
X140555920Y-75944080D01*
X140651089Y-76022183D01*
X140759666Y-76080219D01*
X140877479Y-76115957D01*
X141000000Y-76128024D01*
X141030704Y-76125000D01*
X146969296Y-76125000D01*
X147000000Y-76128024D01*
X147122521Y-76115957D01*
X147240334Y-76080219D01*
X147348911Y-76022183D01*
X147444080Y-75944080D01*
X147522183Y-75848911D01*
X147580219Y-75740334D01*
X147615957Y-75622521D01*
X147625000Y-75530704D01*
X147625000Y-75530703D01*
X147628024Y-75500000D01*
X147625000Y-75469296D01*
X147625000Y-73625000D01*
X152875001Y-73625000D01*
X152875000Y-75469296D01*
X152871976Y-75500000D01*
X152884043Y-75622521D01*
X152919781Y-75740334D01*
X152977817Y-75848911D01*
X153055920Y-75944080D01*
X153151089Y-76022183D01*
X153259666Y-76080219D01*
X153377479Y-76115957D01*
X153500000Y-76128024D01*
X153530704Y-76125000D01*
X159469296Y-76125000D01*
X159500000Y-76128024D01*
X159622521Y-76115957D01*
X159740334Y-76080219D01*
X159848911Y-76022183D01*
X159944080Y-75944080D01*
X160022183Y-75848911D01*
X160080219Y-75740334D01*
X160115957Y-75622521D01*
X160125000Y-75530704D01*
X160125000Y-75530703D01*
X160128024Y-75500000D01*
X160125000Y-75469296D01*
X160125000Y-73625000D01*
X173671483Y-73625000D01*
X173607291Y-73721070D01*
X173403760Y-74212439D01*
X173300000Y-74734073D01*
X173300000Y-75265927D01*
X173403760Y-75787561D01*
X173607291Y-76278930D01*
X173902773Y-76721150D01*
X174278850Y-77097227D01*
X174721070Y-77392709D01*
X175212439Y-77596240D01*
X175734073Y-77700000D01*
X176265927Y-77700000D01*
X176787561Y-77596240D01*
X177278930Y-77392709D01*
X177721150Y-77097227D01*
X177875000Y-76943377D01*
X177875001Y-114056624D01*
X177721150Y-113902773D01*
X177278930Y-113607291D01*
X176787561Y-113403760D01*
X176265927Y-113300000D01*
X175734073Y-113300000D01*
X175212439Y-113403760D01*
X174721070Y-113607291D01*
X174278850Y-113902773D01*
X173902773Y-114278850D01*
X173607291Y-114721070D01*
X173403760Y-115212439D01*
X173300000Y-115734073D01*
X173300000Y-116265927D01*
X173403760Y-116787561D01*
X173607291Y-117278930D01*
X173902773Y-117721150D01*
X174278850Y-118097227D01*
X174721070Y-118392709D01*
X175212439Y-118596240D01*
X175734073Y-118700000D01*
X176265927Y-118700000D01*
X176787561Y-118596240D01*
X177278930Y-118392709D01*
X177721150Y-118097227D01*
X177875001Y-117943376D01*
X177875001Y-127875000D01*
X171125000Y-127875000D01*
X171125000Y-120030704D01*
X171128024Y-120000000D01*
X171115957Y-119877479D01*
X171080219Y-119759666D01*
X171022183Y-119651089D01*
X170944080Y-119555920D01*
X170848911Y-119477817D01*
X170740334Y-119419781D01*
X170622521Y-119384043D01*
X170530704Y-119375000D01*
X170500000Y-119371976D01*
X170469296Y-119375000D01*
X165269182Y-119375000D01*
X165316317Y-119336317D01*
X165391296Y-119244955D01*
X165447010Y-119140721D01*
X165481318Y-119027621D01*
X165492903Y-118910000D01*
X165490000Y-117955000D01*
X165340000Y-117805000D01*
X164540000Y-117805000D01*
X164540000Y-117825000D01*
X164240000Y-117825000D01*
X164240000Y-117805000D01*
X163440000Y-117805000D01*
X163290000Y-117955000D01*
X163287097Y-118910000D01*
X163298682Y-119027621D01*
X163332990Y-119140721D01*
X163388704Y-119244955D01*
X163463683Y-119336317D01*
X163510818Y-119375000D01*
X160189182Y-119375000D01*
X160236317Y-119336317D01*
X160311296Y-119244955D01*
X160367010Y-119140721D01*
X160401318Y-119027621D01*
X160412903Y-118910000D01*
X160412903Y-116400000D01*
X163287097Y-116400000D01*
X163290000Y-117355000D01*
X163440000Y-117505000D01*
X164240000Y-117505000D01*
X164240000Y-115950000D01*
X164540000Y-115950000D01*
X164540000Y-117505000D01*
X165340000Y-117505000D01*
X165490000Y-117355000D01*
X165492903Y-116400000D01*
X165481318Y-116282379D01*
X165447010Y-116169279D01*
X165391296Y-116065045D01*
X165316317Y-115973683D01*
X165224955Y-115898704D01*
X165120721Y-115842990D01*
X165007621Y-115808682D01*
X164890000Y-115797097D01*
X164690000Y-115800000D01*
X164540000Y-115950000D01*
X164240000Y-115950000D01*
X164090000Y-115800000D01*
X163890000Y-115797097D01*
X163772379Y-115808682D01*
X163659279Y-115842990D01*
X163555045Y-115898704D01*
X163463683Y-115973683D01*
X163388704Y-116065045D01*
X163332990Y-116169279D01*
X163298682Y-116282379D01*
X163287097Y-116400000D01*
X160412903Y-116400000D01*
X160401318Y-116282379D01*
X160367010Y-116169279D01*
X160311296Y-116065045D01*
X160236317Y-115973683D01*
X160160000Y-115911051D01*
X160160000Y-113090000D01*
X160747097Y-113090000D01*
X160747097Y-115600000D01*
X160758682Y-115717621D01*
X160792990Y-115830721D01*
X160848704Y-115934955D01*
X160923683Y-116026317D01*
X161015045Y-116101296D01*
X161119279Y-116157010D01*
X161232379Y-116191318D01*
X161350000Y-116202903D01*
X162350000Y-116202903D01*
X162467621Y-116191318D01*
X162580721Y-116157010D01*
X162684955Y-116101296D01*
X162776317Y-116026317D01*
X162851296Y-115934955D01*
X162907010Y-115830721D01*
X162941318Y-115717621D01*
X162952903Y-115600000D01*
X162952903Y-113090000D01*
X162941318Y-112972379D01*
X162907010Y-112859279D01*
X162903281Y-112852303D01*
X162957727Y-112720858D01*
X163000000Y-112508341D01*
X163000000Y-112291659D01*
X162957727Y-112079142D01*
X162874807Y-111878955D01*
X162754425Y-111698791D01*
X162601209Y-111545575D01*
X162421045Y-111425193D01*
X162220858Y-111342273D01*
X162008341Y-111300000D01*
X161791659Y-111300000D01*
X161579142Y-111342273D01*
X161378955Y-111425193D01*
X161198791Y-111545575D01*
X161045575Y-111698791D01*
X160925193Y-111878955D01*
X160842273Y-112079142D01*
X160800000Y-112291659D01*
X160800000Y-112508341D01*
X160842273Y-112720858D01*
X160853841Y-112748786D01*
X160848704Y-112755045D01*
X160792990Y-112859279D01*
X160758682Y-112972379D01*
X160747097Y-113090000D01*
X160160000Y-113090000D01*
X160160000Y-112635274D01*
X160201296Y-112584955D01*
X160257010Y-112480721D01*
X160291318Y-112367621D01*
X160302903Y-112250000D01*
X160302903Y-111350000D01*
X160291318Y-111232379D01*
X160257010Y-111119279D01*
X160201296Y-111015045D01*
X160126317Y-110923683D01*
X160040071Y-110852903D01*
X160650000Y-110852903D01*
X160767621Y-110841318D01*
X160880721Y-110807010D01*
X160984955Y-110751296D01*
X161076317Y-110676317D01*
X161151296Y-110584955D01*
X161207010Y-110480721D01*
X161241318Y-110367621D01*
X161252903Y-110250000D01*
X161252903Y-109350000D01*
X161241318Y-109232379D01*
X161207010Y-109119279D01*
X161151296Y-109015045D01*
X161100000Y-108952541D01*
X161100000Y-108791741D01*
X161104111Y-108750000D01*
X161100000Y-108708259D01*
X161100000Y-108708251D01*
X161087700Y-108583371D01*
X161039097Y-108423145D01*
X160960168Y-108275481D01*
X160853948Y-108146052D01*
X160821520Y-108119440D01*
X159930566Y-107228486D01*
X159903948Y-107196052D01*
X159774519Y-107089832D01*
X159626855Y-107010903D01*
X159466629Y-106962300D01*
X159341749Y-106950000D01*
X159341741Y-106950000D01*
X159300000Y-106945889D01*
X159258259Y-106950000D01*
X158626173Y-106950000D01*
X158585216Y-106873375D01*
X158489692Y-106756979D01*
X158491611Y-106737499D01*
X158487500Y-106695758D01*
X158487500Y-106695751D01*
X158475200Y-106570871D01*
X158473914Y-106566629D01*
X158426597Y-106410645D01*
X158420907Y-106400000D01*
X158400000Y-106360886D01*
X158400000Y-106291659D01*
X158357727Y-106079142D01*
X158274807Y-105878955D01*
X158154425Y-105698791D01*
X158001209Y-105545575D01*
X157821045Y-105425193D01*
X157620858Y-105342273D01*
X157408341Y-105300000D01*
X157191659Y-105300000D01*
X156979142Y-105342273D01*
X156778955Y-105425193D01*
X156598791Y-105545575D01*
X156445575Y-105698791D01*
X156325193Y-105878955D01*
X156242273Y-106079142D01*
X156200000Y-106291659D01*
X156200000Y-106497871D01*
X156062500Y-106500000D01*
X155912500Y-106650000D01*
X155912500Y-107650000D01*
X155932500Y-107650000D01*
X155932500Y-107950000D01*
X155912500Y-107950000D01*
X155912500Y-108950000D01*
X156062500Y-109100000D01*
X156250000Y-109102903D01*
X156367621Y-109091318D01*
X156480721Y-109057010D01*
X156584955Y-109001296D01*
X156676317Y-108926317D01*
X156751296Y-108834955D01*
X156762100Y-108814742D01*
X156795076Y-108854924D01*
X156923375Y-108960216D01*
X157069750Y-109038455D01*
X157228576Y-109086635D01*
X157393750Y-109102903D01*
X157401743Y-109102903D01*
X157392990Y-109119279D01*
X157358682Y-109232379D01*
X157347097Y-109350000D01*
X157350000Y-109500000D01*
X157500000Y-109650000D01*
X158200000Y-109650000D01*
X158200000Y-109630000D01*
X158500000Y-109630000D01*
X158500000Y-109650000D01*
X158520000Y-109650000D01*
X158520000Y-109950000D01*
X158500000Y-109950000D01*
X158500000Y-110700000D01*
X158619563Y-110819563D01*
X158565045Y-110848704D01*
X158473683Y-110923683D01*
X158398704Y-111015045D01*
X158342990Y-111119279D01*
X158308682Y-111232379D01*
X158297097Y-111350000D01*
X158297097Y-112250000D01*
X158308682Y-112367621D01*
X158342990Y-112480721D01*
X158398704Y-112584955D01*
X158460001Y-112659645D01*
X158460000Y-115911051D01*
X158383683Y-115973683D01*
X158308704Y-116065045D01*
X158252990Y-116169279D01*
X158218682Y-116282379D01*
X158207097Y-116400000D01*
X158207097Y-118910000D01*
X158218682Y-119027621D01*
X158252990Y-119140721D01*
X158308704Y-119244955D01*
X158383683Y-119336317D01*
X158430818Y-119375000D01*
X155109182Y-119375000D01*
X155156317Y-119336317D01*
X155231296Y-119244955D01*
X155287010Y-119140721D01*
X155321318Y-119027621D01*
X155332903Y-118910000D01*
X155332903Y-116400000D01*
X155321318Y-116282379D01*
X155287010Y-116169279D01*
X155231296Y-116065045D01*
X155156317Y-115973683D01*
X155080000Y-115911051D01*
X155080000Y-115833230D01*
X155221045Y-115774807D01*
X155401209Y-115654425D01*
X155554425Y-115501209D01*
X155667097Y-115332584D01*
X155667097Y-115600000D01*
X155678682Y-115717621D01*
X155712990Y-115830721D01*
X155768704Y-115934955D01*
X155843683Y-116026317D01*
X155935045Y-116101296D01*
X156039279Y-116157010D01*
X156152379Y-116191318D01*
X156270000Y-116202903D01*
X157270000Y-116202903D01*
X157387621Y-116191318D01*
X157500721Y-116157010D01*
X157604955Y-116101296D01*
X157696317Y-116026317D01*
X157771296Y-115934955D01*
X157827010Y-115830721D01*
X157861318Y-115717621D01*
X157872903Y-115600000D01*
X157872903Y-113090000D01*
X157861318Y-112972379D01*
X157827010Y-112859279D01*
X157771296Y-112755045D01*
X157696317Y-112663683D01*
X157604955Y-112588704D01*
X157500721Y-112532990D01*
X157387621Y-112498682D01*
X157270000Y-112487097D01*
X156270000Y-112487097D01*
X156152379Y-112498682D01*
X156039279Y-112532990D01*
X155935045Y-112588704D01*
X155843683Y-112663683D01*
X155813101Y-112700947D01*
X155808341Y-112700000D01*
X155591659Y-112700000D01*
X155379142Y-112742273D01*
X155178955Y-112825193D01*
X154998791Y-112945575D01*
X154845575Y-113098791D01*
X154725193Y-113278955D01*
X154642273Y-113479142D01*
X154600000Y-113691659D01*
X154600000Y-113700000D01*
X154591659Y-113700000D01*
X154379142Y-113742273D01*
X154178955Y-113825193D01*
X153998791Y-113945575D01*
X153845575Y-114098791D01*
X153725193Y-114278955D01*
X153642273Y-114479142D01*
X153600000Y-114691659D01*
X153600000Y-114697798D01*
X153519833Y-114795481D01*
X153485829Y-114859097D01*
X153440903Y-114943146D01*
X153392300Y-115103371D01*
X153375889Y-115270000D01*
X153380001Y-115311751D01*
X153380001Y-115911051D01*
X153303683Y-115973683D01*
X153228704Y-116065045D01*
X153172990Y-116169279D01*
X153138682Y-116282379D01*
X153127097Y-116400000D01*
X153127097Y-118910000D01*
X153138682Y-119027621D01*
X153172990Y-119140721D01*
X153228704Y-119244955D01*
X153303683Y-119336317D01*
X153350818Y-119375000D01*
X150029182Y-119375000D01*
X150076317Y-119336317D01*
X150151296Y-119244955D01*
X150207010Y-119140721D01*
X150241318Y-119027621D01*
X150252903Y-118910000D01*
X150252903Y-116553827D01*
X150274807Y-116521045D01*
X150357727Y-116320858D01*
X150400000Y-116108341D01*
X150400000Y-115891659D01*
X150357727Y-115679142D01*
X150274807Y-115478955D01*
X150154425Y-115298791D01*
X150001209Y-115145575D01*
X149908137Y-115083386D01*
X149991659Y-115100000D01*
X150208341Y-115100000D01*
X150420858Y-115057727D01*
X150587097Y-114988869D01*
X150587097Y-115600000D01*
X150598682Y-115717621D01*
X150632990Y-115830721D01*
X150688704Y-115934955D01*
X150763683Y-116026317D01*
X150855045Y-116101296D01*
X150959279Y-116157010D01*
X151072379Y-116191318D01*
X151190000Y-116202903D01*
X152190000Y-116202903D01*
X152307621Y-116191318D01*
X152420721Y-116157010D01*
X152524955Y-116101296D01*
X152616317Y-116026317D01*
X152691296Y-115934955D01*
X152747010Y-115830721D01*
X152781318Y-115717621D01*
X152792903Y-115600000D01*
X152792903Y-113090000D01*
X152781318Y-112972379D01*
X152747010Y-112859279D01*
X152691296Y-112755045D01*
X152616317Y-112663683D01*
X152524955Y-112588704D01*
X152420721Y-112532990D01*
X152307621Y-112498682D01*
X152190000Y-112487097D01*
X151190000Y-112487097D01*
X151072379Y-112498682D01*
X150959279Y-112532990D01*
X150855045Y-112588704D01*
X150763683Y-112663683D01*
X150688704Y-112755045D01*
X150632990Y-112859279D01*
X150598682Y-112972379D01*
X150594561Y-113014223D01*
X150420858Y-112942273D01*
X150208341Y-112900000D01*
X149991659Y-112900000D01*
X149779142Y-112942273D01*
X149578955Y-113025193D01*
X149398791Y-113145575D01*
X149245575Y-113298791D01*
X149125193Y-113478955D01*
X149042273Y-113679142D01*
X149000000Y-113891659D01*
X149000000Y-114108341D01*
X149042273Y-114320858D01*
X149125193Y-114521045D01*
X149245575Y-114701209D01*
X149398791Y-114854425D01*
X149491863Y-114916614D01*
X149408341Y-114900000D01*
X149191659Y-114900000D01*
X148979142Y-114942273D01*
X148800000Y-115016476D01*
X148800000Y-114891659D01*
X148757727Y-114679142D01*
X148674807Y-114478955D01*
X148554425Y-114298791D01*
X148401209Y-114145575D01*
X148221045Y-114025193D01*
X148020858Y-113942273D01*
X147808341Y-113900000D01*
X147712903Y-113900000D01*
X147712903Y-113090000D01*
X147701318Y-112972379D01*
X147667010Y-112859279D01*
X147611296Y-112755045D01*
X147536317Y-112663683D01*
X147444955Y-112588704D01*
X147340721Y-112532990D01*
X147227621Y-112498682D01*
X147110000Y-112487097D01*
X146110000Y-112487097D01*
X145992379Y-112498682D01*
X145879279Y-112532990D01*
X145775045Y-112588704D01*
X145683683Y-112663683D01*
X145608704Y-112755045D01*
X145552990Y-112859279D01*
X145518682Y-112972379D01*
X145507097Y-113090000D01*
X145507097Y-115600000D01*
X145518682Y-115717621D01*
X145552990Y-115830721D01*
X145608704Y-115934955D01*
X145683683Y-116026317D01*
X145775045Y-116101296D01*
X145879279Y-116157010D01*
X145992379Y-116191318D01*
X146110000Y-116202903D01*
X147110000Y-116202903D01*
X147227621Y-116191318D01*
X147340721Y-116157010D01*
X147444955Y-116101296D01*
X147474847Y-116076764D01*
X147591659Y-116100000D01*
X147808341Y-116100000D01*
X148020858Y-116057727D01*
X148200000Y-115983524D01*
X148200000Y-116002541D01*
X148148704Y-116065045D01*
X148092990Y-116169279D01*
X148058682Y-116282379D01*
X148047097Y-116400000D01*
X148047097Y-118910000D01*
X148058682Y-119027621D01*
X148092990Y-119140721D01*
X148148704Y-119244955D01*
X148223683Y-119336317D01*
X148270818Y-119375000D01*
X141530704Y-119375000D01*
X141500000Y-119371976D01*
X141469296Y-119375000D01*
X141377479Y-119384043D01*
X141259666Y-119419781D01*
X141151089Y-119477817D01*
X141055920Y-119555920D01*
X140977817Y-119651089D01*
X140919781Y-119759666D01*
X140884043Y-119877479D01*
X140871976Y-120000000D01*
X140875000Y-120030704D01*
X140875001Y-127875000D01*
X133125000Y-127875000D01*
X133125000Y-125391659D01*
X135900000Y-125391659D01*
X135900000Y-125608341D01*
X135942273Y-125820858D01*
X136025193Y-126021045D01*
X136145575Y-126201209D01*
X136298791Y-126354425D01*
X136478955Y-126474807D01*
X136679142Y-126557727D01*
X136891659Y-126600000D01*
X137108341Y-126600000D01*
X137320858Y-126557727D01*
X137521045Y-126474807D01*
X137701209Y-126354425D01*
X137854425Y-126201209D01*
X137974807Y-126021045D01*
X138057727Y-125820858D01*
X138100000Y-125608341D01*
X138100000Y-125391659D01*
X138057727Y-125179142D01*
X137974807Y-124978955D01*
X137854425Y-124798791D01*
X137701209Y-124645575D01*
X137521045Y-124525193D01*
X137320858Y-124442273D01*
X137108341Y-124400000D01*
X136891659Y-124400000D01*
X136679142Y-124442273D01*
X136478955Y-124525193D01*
X136298791Y-124645575D01*
X136145575Y-124798791D01*
X136025193Y-124978955D01*
X135942273Y-125179142D01*
X135900000Y-125391659D01*
X133125000Y-125391659D01*
X133125000Y-117943377D01*
X133278850Y-118097227D01*
X133721070Y-118392709D01*
X134212439Y-118596240D01*
X134734073Y-118700000D01*
X135265927Y-118700000D01*
X135787561Y-118596240D01*
X136278930Y-118392709D01*
X136721150Y-118097227D01*
X137097227Y-117721150D01*
X137392709Y-117278930D01*
X137596240Y-116787561D01*
X137700000Y-116265927D01*
X137700000Y-115734073D01*
X137596240Y-115212439D01*
X137392709Y-114721070D01*
X137097227Y-114278850D01*
X136721150Y-113902773D01*
X136278930Y-113607291D01*
X135787561Y-113403760D01*
X135265927Y-113300000D01*
X134734073Y-113300000D01*
X134212439Y-113403760D01*
X133721070Y-113607291D01*
X133278850Y-113902773D01*
X133125000Y-114056623D01*
X133125000Y-110250000D01*
X157347097Y-110250000D01*
X157358682Y-110367621D01*
X157392990Y-110480721D01*
X157448704Y-110584955D01*
X157523683Y-110676317D01*
X157615045Y-110751296D01*
X157719279Y-110807010D01*
X157832379Y-110841318D01*
X157950000Y-110852903D01*
X158050000Y-110850000D01*
X158200000Y-110700000D01*
X158200000Y-109950000D01*
X157500000Y-109950000D01*
X157350000Y-110100000D01*
X157347097Y-110250000D01*
X133125000Y-110250000D01*
X133125000Y-108500000D01*
X154672097Y-108500000D01*
X154683682Y-108617621D01*
X154717990Y-108730721D01*
X154773704Y-108834955D01*
X154848683Y-108926317D01*
X154940045Y-109001296D01*
X155044279Y-109057010D01*
X155157379Y-109091318D01*
X155275000Y-109102903D01*
X155462500Y-109100000D01*
X155612500Y-108950000D01*
X155612500Y-107950000D01*
X154825000Y-107950000D01*
X154675000Y-108100000D01*
X154672097Y-108500000D01*
X133125000Y-108500000D01*
X133125000Y-107100000D01*
X154672097Y-107100000D01*
X154675000Y-107500000D01*
X154825000Y-107650000D01*
X155612500Y-107650000D01*
X155612500Y-106650000D01*
X155462500Y-106500000D01*
X155275000Y-106497097D01*
X155157379Y-106508682D01*
X155044279Y-106542990D01*
X154940045Y-106598704D01*
X154848683Y-106673683D01*
X154773704Y-106765045D01*
X154717990Y-106869279D01*
X154683682Y-106982379D01*
X154672097Y-107100000D01*
X133125000Y-107100000D01*
X133125000Y-95714725D01*
X161991067Y-95714725D01*
X161992853Y-95728740D01*
X161992541Y-95742873D01*
X162000306Y-95787208D01*
X162005997Y-95831854D01*
X162010474Y-95845261D01*
X162012911Y-95859178D01*
X162029132Y-95901142D01*
X162043392Y-95943850D01*
X162050388Y-95956132D01*
X162055482Y-95969312D01*
X162079553Y-96007339D01*
X162101829Y-96046450D01*
X162111075Y-96057138D01*
X162118634Y-96069079D01*
X162149636Y-96101710D01*
X162179082Y-96135747D01*
X162185247Y-96141523D01*
X162270872Y-96220635D01*
X162307708Y-96248530D01*
X162343299Y-96277953D01*
X162350336Y-96282626D01*
X162464649Y-96357374D01*
X162480622Y-96365718D01*
X162495316Y-96376150D01*
X162532844Y-96392995D01*
X162569306Y-96412041D01*
X162586597Y-96417124D01*
X162603037Y-96424503D01*
X162611063Y-96427138D01*
X162751647Y-96472205D01*
X162756861Y-96473330D01*
X162761797Y-96475361D01*
X162814527Y-96485771D01*
X162867067Y-96497106D01*
X162872403Y-96497197D01*
X162877637Y-96498230D01*
X162886050Y-96498991D01*
X163037267Y-96511603D01*
X163045540Y-96511483D01*
X163053706Y-96512748D01*
X163104463Y-96510627D01*
X163155330Y-96509888D01*
X163163423Y-96508163D01*
X163171679Y-96507818D01*
X163180036Y-96506585D01*
X163326249Y-96483968D01*
X163369324Y-96472914D01*
X163412877Y-96463957D01*
X163420928Y-96461400D01*
X163444517Y-96453726D01*
X163445482Y-96453304D01*
X163433297Y-96470675D01*
X163423064Y-96488801D01*
X163410626Y-96505479D01*
X163394106Y-96540092D01*
X163375247Y-96573496D01*
X163368731Y-96593258D01*
X163359767Y-96612040D01*
X163356945Y-96620002D01*
X163311601Y-96750846D01*
X163309643Y-96758995D01*
X163306351Y-96766700D01*
X163295864Y-96816327D01*
X163284010Y-96865652D01*
X163283672Y-96874025D01*
X163281939Y-96882225D01*
X163281066Y-96890627D01*
X163265488Y-97051469D01*
X163265515Y-97074622D01*
X163262792Y-97097623D01*
X163262681Y-97106070D01*
X163262601Y-97119072D01*
X163262614Y-97119210D01*
X163262590Y-97122151D01*
X163262451Y-97252887D01*
X163267985Y-97309951D01*
X163273167Y-97366896D01*
X163273674Y-97368620D01*
X163273848Y-97370411D01*
X163290350Y-97425279D01*
X163306505Y-97480167D01*
X163307196Y-97481488D01*
X163306684Y-97485777D01*
X163299786Y-97520077D01*
X163299714Y-97544254D01*
X163296851Y-97568269D01*
X163299538Y-97603167D01*
X163299433Y-97638151D01*
X163304057Y-97661879D01*
X163305914Y-97685996D01*
X163315328Y-97719707D01*
X163322020Y-97754046D01*
X163331165Y-97776423D01*
X163337671Y-97799721D01*
X163340781Y-97807575D01*
X163352379Y-97836278D01*
X163362931Y-97856461D01*
X163370985Y-97877764D01*
X163390223Y-97908659D01*
X163407087Y-97940915D01*
X163421360Y-97958666D01*
X163433397Y-97977997D01*
X163438587Y-97984662D01*
X163444787Y-97992510D01*
X163446276Y-97994056D01*
X163447450Y-97995857D01*
X163469071Y-98018002D01*
X163481077Y-98032933D01*
X163494709Y-98044371D01*
X163526674Y-98077577D01*
X163528439Y-98078808D01*
X163529937Y-98080342D01*
X163536438Y-98085737D01*
X163578428Y-98120088D01*
X163611010Y-98141805D01*
X163642077Y-98165618D01*
X163649282Y-98170028D01*
X163718568Y-98211774D01*
X163735326Y-98219756D01*
X163750856Y-98229904D01*
X163758371Y-98233760D01*
X163806695Y-98258130D01*
X163848921Y-98274476D01*
X163890342Y-98292729D01*
X163898385Y-98295309D01*
X164035556Y-98338247D01*
X164036321Y-98338407D01*
X164037037Y-98338708D01*
X164093975Y-98350432D01*
X164151144Y-98362356D01*
X164151924Y-98362364D01*
X164152687Y-98362521D01*
X164161093Y-98363350D01*
X164312957Y-98377263D01*
X164370925Y-98376893D01*
X164428652Y-98376753D01*
X164430905Y-98376511D01*
X164431030Y-98376510D01*
X164431160Y-98376483D01*
X164437051Y-98375850D01*
X164580874Y-98359364D01*
X164627263Y-98349386D01*
X164673997Y-98341202D01*
X164682119Y-98338883D01*
X164722398Y-98327079D01*
X164776575Y-98305263D01*
X164830546Y-98283692D01*
X164831849Y-98283006D01*
X164831927Y-98282974D01*
X164832004Y-98282923D01*
X164838019Y-98279754D01*
X164962686Y-98212947D01*
X164980567Y-98200983D01*
X164980741Y-98201130D01*
X164982083Y-98202775D01*
X165025951Y-98239066D01*
X165069568Y-98275665D01*
X165071426Y-98276687D01*
X165073061Y-98278039D01*
X165123132Y-98305112D01*
X165173038Y-98332548D01*
X165175062Y-98333190D01*
X165176926Y-98334198D01*
X165231299Y-98351029D01*
X165285586Y-98368250D01*
X165287694Y-98368486D01*
X165289721Y-98369114D01*
X165346347Y-98375066D01*
X165402926Y-98381412D01*
X165407001Y-98381440D01*
X165407149Y-98381456D01*
X165407297Y-98381443D01*
X165411373Y-98381471D01*
X165685295Y-98381471D01*
X165741972Y-98375914D01*
X165798661Y-98370755D01*
X165799624Y-98370472D01*
X165835519Y-98374498D01*
X165891122Y-98381297D01*
X165894142Y-98381074D01*
X165897157Y-98381412D01*
X165905604Y-98381471D01*
X166044469Y-98381471D01*
X166052911Y-98380643D01*
X166061377Y-98381235D01*
X166069819Y-98380940D01*
X166154063Y-98377407D01*
X166160060Y-98376564D01*
X166166103Y-98376781D01*
X166218441Y-98368358D01*
X166253173Y-98363475D01*
X166285115Y-98369689D01*
X166290575Y-98369671D01*
X166295948Y-98370616D01*
X166304375Y-98371202D01*
X166420460Y-98378462D01*
X166464406Y-98376911D01*
X166508375Y-98377560D01*
X166516788Y-98376801D01*
X166638885Y-98364926D01*
X166687245Y-98355390D01*
X166735904Y-98347420D01*
X166744051Y-98345190D01*
X166852410Y-98314728D01*
X166886880Y-98301288D01*
X166922252Y-98290399D01*
X166930021Y-98287083D01*
X166939740Y-98282855D01*
X166951591Y-98276256D01*
X166988551Y-98300400D01*
X166991653Y-98301650D01*
X166994477Y-98303451D01*
X167046343Y-98323696D01*
X167098064Y-98344544D01*
X167101359Y-98345170D01*
X167104470Y-98346384D01*
X167159252Y-98356164D01*
X167214066Y-98366574D01*
X167217414Y-98366548D01*
X167220708Y-98367136D01*
X167229133Y-98367744D01*
X167460061Y-98382768D01*
X167506851Y-98381234D01*
X167553648Y-98381601D01*
X167565752Y-98379303D01*
X167578073Y-98378899D01*
X167623675Y-98368306D01*
X167669651Y-98359577D01*
X167681080Y-98354971D01*
X167693086Y-98352182D01*
X167735748Y-98332939D01*
X167742518Y-98330211D01*
X167746770Y-98332548D01*
X167774900Y-98341471D01*
X167802027Y-98353106D01*
X167831047Y-98359282D01*
X167859318Y-98368250D01*
X167888643Y-98371539D01*
X167917516Y-98377684D01*
X167947181Y-98378106D01*
X167976658Y-98381412D01*
X167985105Y-98381471D01*
X168214321Y-98381471D01*
X168237674Y-98379181D01*
X168261134Y-98379657D01*
X168296293Y-98373434D01*
X168331833Y-98369949D01*
X168354297Y-98363167D01*
X168377402Y-98359077D01*
X168410686Y-98346142D01*
X168444869Y-98335821D01*
X168455636Y-98330096D01*
X168460097Y-98332548D01*
X168462121Y-98333190D01*
X168463985Y-98334198D01*
X168518358Y-98351029D01*
X168572645Y-98368250D01*
X168574753Y-98368486D01*
X168576780Y-98369114D01*
X168633406Y-98375066D01*
X168689985Y-98381412D01*
X168694060Y-98381440D01*
X168694208Y-98381456D01*
X168694356Y-98381443D01*
X168698432Y-98381471D01*
X168835393Y-98381471D01*
X168840032Y-98381016D01*
X168844680Y-98381400D01*
X168853125Y-98381211D01*
X168932621Y-98378880D01*
X168988265Y-98371772D01*
X169044006Y-98365202D01*
X169049609Y-98363936D01*
X169049745Y-98363919D01*
X169049868Y-98363878D01*
X169052245Y-98363341D01*
X169068254Y-98359609D01*
X169089412Y-98362338D01*
X169124802Y-98369671D01*
X169147828Y-98369874D01*
X169170671Y-98372821D01*
X169179116Y-98373020D01*
X169314319Y-98375263D01*
X169333739Y-98373684D01*
X169353187Y-98374658D01*
X169392439Y-98368910D01*
X169432006Y-98365692D01*
X169450748Y-98360371D01*
X169470017Y-98357549D01*
X169478201Y-98355458D01*
X169588121Y-98326556D01*
X169625585Y-98312674D01*
X169663843Y-98301196D01*
X169680820Y-98292207D01*
X169698840Y-98285530D01*
X169732895Y-98264635D01*
X169768195Y-98245945D01*
X169775206Y-98241234D01*
X169807786Y-98219010D01*
X169832029Y-98239066D01*
X169875646Y-98275665D01*
X169877504Y-98276687D01*
X169879139Y-98278039D01*
X169929210Y-98305112D01*
X169979116Y-98332548D01*
X169981140Y-98333190D01*
X169983004Y-98334198D01*
X170037377Y-98351029D01*
X170091664Y-98368250D01*
X170093772Y-98368486D01*
X170095799Y-98369114D01*
X170152425Y-98375066D01*
X170209004Y-98381412D01*
X170213079Y-98381440D01*
X170213227Y-98381456D01*
X170213375Y-98381443D01*
X170217451Y-98381471D01*
X170466471Y-98381471D01*
X170523148Y-98375914D01*
X170579837Y-98370755D01*
X170581872Y-98370156D01*
X170583983Y-98369949D01*
X170589658Y-98368236D01*
X170589704Y-98368250D01*
X170591812Y-98368486D01*
X170593839Y-98369114D01*
X170650465Y-98375066D01*
X170707044Y-98381412D01*
X170711119Y-98381440D01*
X170711267Y-98381456D01*
X170711415Y-98381443D01*
X170715491Y-98381471D01*
X170835020Y-98381471D01*
X170851907Y-98379815D01*
X170868861Y-98380524D01*
X170877291Y-98379992D01*
X170953532Y-98374652D01*
X170998718Y-98367004D01*
X171033116Y-98362724D01*
X171070047Y-98369760D01*
X171078465Y-98370465D01*
X171172782Y-98377700D01*
X171200819Y-98377106D01*
X171228768Y-98379394D01*
X171237213Y-98379199D01*
X171341751Y-98376060D01*
X171369585Y-98372485D01*
X171397645Y-98371784D01*
X171406021Y-98370692D01*
X171501617Y-98357545D01*
X171543646Y-98347509D01*
X171586118Y-98339701D01*
X171594221Y-98337314D01*
X171603064Y-98334641D01*
X171656005Y-98351029D01*
X171710292Y-98368250D01*
X171712400Y-98368486D01*
X171714427Y-98369114D01*
X171771053Y-98375066D01*
X171827632Y-98381412D01*
X171831707Y-98381440D01*
X171831855Y-98381456D01*
X171832003Y-98381443D01*
X171836079Y-98381471D01*
X172110000Y-98381471D01*
X172166677Y-98375914D01*
X172223366Y-98370755D01*
X172225401Y-98370156D01*
X172227512Y-98369949D01*
X172282013Y-98353494D01*
X172336637Y-98337417D01*
X172338517Y-98336434D01*
X172340548Y-98335821D01*
X172346000Y-98332922D01*
X172353573Y-98335138D01*
X172386191Y-98347590D01*
X172410107Y-98351676D01*
X172433393Y-98358488D01*
X172468164Y-98361595D01*
X172502580Y-98367475D01*
X172511010Y-98368020D01*
X172641746Y-98375547D01*
X172641750Y-98375547D01*
X172772484Y-98383073D01*
X172787795Y-98382457D01*
X172803031Y-98384058D01*
X172846668Y-98380087D01*
X172890464Y-98378324D01*
X172905363Y-98374746D01*
X172920621Y-98373357D01*
X172962670Y-98360981D01*
X173005275Y-98350748D01*
X173019191Y-98344346D01*
X173033892Y-98340019D01*
X173072732Y-98319714D01*
X173112542Y-98301399D01*
X173124952Y-98292414D01*
X173138531Y-98285315D01*
X173172685Y-98257854D01*
X173208182Y-98232154D01*
X173218611Y-98220929D01*
X173230551Y-98211329D01*
X173258720Y-98177759D01*
X173288550Y-98145652D01*
X173296599Y-98132616D01*
X173306449Y-98120878D01*
X173327565Y-98082468D01*
X173350586Y-98045186D01*
X173355949Y-98030838D01*
X173363332Y-98017408D01*
X173376588Y-97975621D01*
X173391926Y-97934584D01*
X173394400Y-97919469D01*
X173399034Y-97904860D01*
X173403920Y-97861297D01*
X173410997Y-97818059D01*
X173410488Y-97802749D01*
X173412196Y-97787520D01*
X173412255Y-97779073D01*
X173412255Y-96507885D01*
X173438101Y-96508533D01*
X173482050Y-96511826D01*
X173497021Y-96510010D01*
X173512093Y-96510388D01*
X173520514Y-96509716D01*
X173666111Y-96497070D01*
X173678728Y-96494717D01*
X173691546Y-96494317D01*
X173736646Y-96483916D01*
X173782185Y-96475423D01*
X173794104Y-96470664D01*
X173806602Y-96467782D01*
X173814590Y-96465034D01*
X173925268Y-96426086D01*
X173940637Y-96418923D01*
X173956845Y-96413971D01*
X173994029Y-96394041D01*
X174032292Y-96376209D01*
X174045978Y-96366197D01*
X174060915Y-96358191D01*
X174067902Y-96353445D01*
X174163080Y-96287809D01*
X174168334Y-96283371D01*
X174174269Y-96279904D01*
X174213375Y-96245320D01*
X174253278Y-96211611D01*
X174257569Y-96206237D01*
X174262719Y-96201683D01*
X174268427Y-96195456D01*
X174346217Y-96109400D01*
X174370007Y-96077264D01*
X174395787Y-96046688D01*
X174400527Y-96039696D01*
X174401872Y-96037682D01*
X174407347Y-96027443D01*
X174414358Y-96018188D01*
X174418727Y-96010959D01*
X174450319Y-95957844D01*
X174470313Y-95915245D01*
X174491975Y-95873502D01*
X174495061Y-95865639D01*
X174515591Y-95812229D01*
X174529315Y-95762492D01*
X174544248Y-95713188D01*
X174545838Y-95704892D01*
X174558270Y-95637486D01*
X174560621Y-95609780D01*
X174565826Y-95582463D01*
X174566531Y-95574045D01*
X174573829Y-95478944D01*
X174573692Y-95472444D01*
X174574683Y-95466010D01*
X174575090Y-95457573D01*
X174578305Y-95379586D01*
X174578162Y-95377059D01*
X174578491Y-95374554D01*
X174578710Y-95366110D01*
X174580048Y-95295388D01*
X174580047Y-95295380D01*
X174581645Y-95211040D01*
X174580495Y-95196473D01*
X174581495Y-95181893D01*
X174581189Y-95173451D01*
X174576175Y-95057470D01*
X174571355Y-95023495D01*
X174569338Y-94989255D01*
X174567963Y-94980920D01*
X174552940Y-94893687D01*
X174537642Y-94838039D01*
X174522721Y-94782676D01*
X174521677Y-94779968D01*
X174521641Y-94779836D01*
X174521577Y-94779708D01*
X174519683Y-94774794D01*
X174492590Y-94705957D01*
X174491001Y-94702849D01*
X174490009Y-94699510D01*
X174464162Y-94650366D01*
X174438831Y-94600829D01*
X174436669Y-94598090D01*
X174435047Y-94595006D01*
X174430355Y-94587982D01*
X174389131Y-94527189D01*
X174371263Y-94505699D01*
X174370284Y-94503942D01*
X174369253Y-94502728D01*
X174355522Y-94482261D01*
X174350109Y-94475777D01*
X174334824Y-94457726D01*
X174316973Y-94440401D01*
X174313643Y-94436396D01*
X174311329Y-94434519D01*
X174293854Y-94413940D01*
X174287743Y-94408108D01*
X174192174Y-94318168D01*
X174174892Y-94304829D01*
X174159393Y-94289473D01*
X174128271Y-94268846D01*
X174098702Y-94246024D01*
X174079162Y-94236298D01*
X174060972Y-94224242D01*
X174053481Y-94220337D01*
X173950975Y-94167802D01*
X173925522Y-94157758D01*
X173901267Y-94145100D01*
X173870745Y-94136141D01*
X173841142Y-94124459D01*
X173814218Y-94119549D01*
X173787971Y-94111845D01*
X173779662Y-94110326D01*
X173654301Y-94088316D01*
X173614974Y-94085319D01*
X173575917Y-94079770D01*
X173567476Y-94079463D01*
X173506347Y-94077664D01*
X173466101Y-94080418D01*
X173425776Y-94080668D01*
X173417381Y-94081603D01*
X173255584Y-94100769D01*
X173229283Y-94106530D01*
X173202513Y-94109462D01*
X173171748Y-94119133D01*
X173140243Y-94126034D01*
X173115556Y-94136797D01*
X173089871Y-94144871D01*
X173082122Y-94148232D01*
X173077683Y-94150194D01*
X173045590Y-94132551D01*
X173043566Y-94131909D01*
X173041702Y-94130901D01*
X172987329Y-94114070D01*
X172933042Y-94096849D01*
X172930934Y-94096613D01*
X172928907Y-94095985D01*
X172872281Y-94090033D01*
X172815702Y-94083687D01*
X172811627Y-94083659D01*
X172811479Y-94083643D01*
X172811331Y-94083656D01*
X172807255Y-94083628D01*
X172670295Y-94083628D01*
X172662571Y-94084385D01*
X172654837Y-94083826D01*
X172646394Y-94084100D01*
X172564165Y-94087351D01*
X172559112Y-94088049D01*
X172554023Y-94087838D01*
X172500699Y-94096117D01*
X172483252Y-94098527D01*
X172479086Y-94097068D01*
X172441136Y-94091666D01*
X172403639Y-94083668D01*
X172382805Y-94083363D01*
X172362188Y-94080428D01*
X172353747Y-94080118D01*
X172222536Y-94076220D01*
X172208572Y-94077172D01*
X172194620Y-94076035D01*
X172149775Y-94081178D01*
X172104734Y-94084247D01*
X172091220Y-94087893D01*
X172077313Y-94089488D01*
X172069067Y-94091323D01*
X171944587Y-94119930D01*
X171937808Y-94122204D01*
X171930743Y-94123284D01*
X171881907Y-94140954D01*
X171832641Y-94157479D01*
X171826433Y-94161026D01*
X171819712Y-94163458D01*
X171812113Y-94167146D01*
X171759610Y-94193085D01*
X171731126Y-94210809D01*
X171720483Y-94203177D01*
X171693469Y-94190897D01*
X171667775Y-94176045D01*
X171639848Y-94166522D01*
X171612992Y-94154314D01*
X171604978Y-94151641D01*
X171519513Y-94123797D01*
X171539350Y-94105946D01*
X171539574Y-94105701D01*
X171539838Y-94105506D01*
X171546071Y-94099805D01*
X171645553Y-94007537D01*
X171645624Y-94007457D01*
X171650312Y-94003075D01*
X171763974Y-93895353D01*
X171764076Y-93895235D01*
X171767269Y-93892206D01*
X171839154Y-93823042D01*
X171839232Y-93822951D01*
X171843702Y-93818620D01*
X171969466Y-93695051D01*
X171970092Y-93694303D01*
X171970850Y-93693687D01*
X171976815Y-93687706D01*
X172085503Y-93577183D01*
X172087107Y-93575197D01*
X172089047Y-93573548D01*
X172094876Y-93567435D01*
X172182094Y-93474686D01*
X172186316Y-93469211D01*
X172191419Y-93464541D01*
X172197021Y-93458217D01*
X172258376Y-93387970D01*
X172272114Y-93368734D01*
X172288012Y-93351241D01*
X172293009Y-93344430D01*
X172324107Y-93301412D01*
X172337424Y-93278589D01*
X172353127Y-93257341D01*
X172367106Y-93227721D01*
X172383615Y-93199429D01*
X172389627Y-93182033D01*
X172393835Y-93174304D01*
X172396817Y-93164769D01*
X172403523Y-93150560D01*
X172406310Y-93142586D01*
X172409293Y-93133856D01*
X172415769Y-93106388D01*
X172422182Y-93087829D01*
X172423212Y-93080370D01*
X172429079Y-93061611D01*
X172431410Y-93040038D01*
X172436386Y-93018930D01*
X172437736Y-92981488D01*
X172441763Y-92944219D01*
X172439859Y-92922607D01*
X172440641Y-92900931D01*
X172434691Y-92863930D01*
X172431403Y-92826599D01*
X172425339Y-92805772D01*
X172421895Y-92784354D01*
X172408871Y-92749210D01*
X172398395Y-92713231D01*
X172395199Y-92705412D01*
X172381354Y-92672205D01*
X172365754Y-92643152D01*
X172352728Y-92612870D01*
X172348597Y-92605501D01*
X172310338Y-92538360D01*
X172306321Y-92532681D01*
X172303335Y-92526390D01*
X172298935Y-92519179D01*
X172240505Y-92424900D01*
X172239269Y-92423283D01*
X172238360Y-92421465D01*
X172233813Y-92414347D01*
X172159458Y-92299729D01*
X172159119Y-92299304D01*
X172158870Y-92298825D01*
X172154211Y-92291779D01*
X172068174Y-92163617D01*
X172068081Y-92163504D01*
X172065038Y-92158993D01*
X172040570Y-92123263D01*
X172040545Y-92123233D01*
X172040175Y-92122686D01*
X171951498Y-91993516D01*
X171893503Y-91908737D01*
X171894264Y-91906621D01*
X171938414Y-91789182D01*
X171984807Y-91670280D01*
X172008198Y-91612615D01*
X172036566Y-91607044D01*
X172189273Y-91578366D01*
X172386276Y-91542188D01*
X172386300Y-91542184D01*
X172429383Y-91534326D01*
X172429488Y-91534296D01*
X172435610Y-91533157D01*
X172563300Y-91508486D01*
X172565827Y-91507736D01*
X172568449Y-91507468D01*
X172576716Y-91505736D01*
X172688034Y-91481602D01*
X172693073Y-91479981D01*
X172698320Y-91479278D01*
X172706529Y-91477287D01*
X172791637Y-91456018D01*
X172808140Y-91450132D01*
X172825293Y-91446566D01*
X172833338Y-91443992D01*
X172882401Y-91427916D01*
X172934210Y-91405128D01*
X172944003Y-91400915D01*
X172968937Y-91391479D01*
X172975608Y-91387322D01*
X172986158Y-91382784D01*
X172990346Y-91380436D01*
X172990483Y-91380376D01*
X172990603Y-91380292D01*
X172993527Y-91378653D01*
X173000105Y-91374905D01*
X173033951Y-91350964D01*
X173069147Y-91329031D01*
X173082060Y-91316934D01*
X173096502Y-91306719D01*
X173125055Y-91276659D01*
X173155319Y-91248308D01*
X173165636Y-91233934D01*
X173177820Y-91221107D01*
X173199993Y-91186069D01*
X173224170Y-91152385D01*
X173231498Y-91136282D01*
X173240959Y-91121332D01*
X173255905Y-91082653D01*
X173273079Y-91044915D01*
X173275755Y-91036903D01*
X173286596Y-91003676D01*
X173298549Y-90949628D01*
X173311167Y-90895690D01*
X173312077Y-90888454D01*
X173312092Y-90888386D01*
X173312093Y-90888324D01*
X173312221Y-90887309D01*
X173321032Y-90813057D01*
X173321283Y-90800718D01*
X173323435Y-90788561D01*
X173324029Y-90780135D01*
X173330806Y-90673490D01*
X173330669Y-90669483D01*
X173331260Y-90665517D01*
X173331625Y-90657078D01*
X173336361Y-90526669D01*
X173336289Y-90525503D01*
X173336442Y-90524337D01*
X173336657Y-90515892D01*
X173339347Y-90370352D01*
X173339339Y-90370249D01*
X173339350Y-90370153D01*
X173339445Y-90361707D01*
X173340082Y-90209666D01*
X173340081Y-90209650D01*
X173340060Y-90201397D01*
X173338639Y-90051486D01*
X173338587Y-90051001D01*
X173338629Y-90050515D01*
X173338476Y-90042069D01*
X173334990Y-89902921D01*
X173334716Y-89900703D01*
X173334862Y-89898475D01*
X173334530Y-89890035D01*
X173328974Y-89770279D01*
X173327984Y-89763460D01*
X173328182Y-89756577D01*
X173327541Y-89748155D01*
X173319909Y-89656423D01*
X173315682Y-89633292D01*
X173314205Y-89609828D01*
X173312796Y-89601499D01*
X173303082Y-89546425D01*
X173295337Y-89518691D01*
X173290413Y-89490335D01*
X173279499Y-89461977D01*
X173271323Y-89432700D01*
X173258342Y-89407005D01*
X173248002Y-89380139D01*
X173244160Y-89372616D01*
X173238304Y-89361343D01*
X173224748Y-89340509D01*
X173218080Y-89327310D01*
X173208754Y-89315375D01*
X173188548Y-89281443D01*
X173180482Y-89272477D01*
X173173908Y-89262373D01*
X173141068Y-89228663D01*
X173109580Y-89193660D01*
X173099927Y-89186431D01*
X173091515Y-89177797D01*
X173052748Y-89151104D01*
X173015066Y-89122887D01*
X173004196Y-89117673D01*
X172994264Y-89110834D01*
X172951045Y-89092177D01*
X172908605Y-89071819D01*
X172900649Y-89068982D01*
X172868047Y-89057612D01*
X172845263Y-89052089D01*
X172823286Y-89043919D01*
X172815104Y-89041819D01*
X172740866Y-89023320D01*
X172737159Y-89022773D01*
X172733622Y-89021563D01*
X172725388Y-89019679D01*
X172616910Y-88995657D01*
X172616804Y-88995644D01*
X172616699Y-88995610D01*
X172608439Y-88993845D01*
X172473118Y-88965905D01*
X172473004Y-88965893D01*
X172466851Y-88964645D01*
X172312083Y-88934391D01*
X172311929Y-88934376D01*
X172307826Y-88933575D01*
X172223503Y-88917718D01*
X172223467Y-88917715D01*
X172222860Y-88917597D01*
X172063602Y-88887826D01*
X171971502Y-88870336D01*
X171922311Y-88755127D01*
X171872239Y-88636611D01*
X171865670Y-88620880D01*
X171875961Y-88605441D01*
X171961126Y-88479933D01*
X172011077Y-88407196D01*
X172011123Y-88407112D01*
X172012067Y-88405750D01*
X172104805Y-88269866D01*
X172104866Y-88269756D01*
X172108250Y-88264762D01*
X172190618Y-88141394D01*
X172190645Y-88141344D01*
X172194757Y-88135111D01*
X172262737Y-88030499D01*
X172263488Y-88029051D01*
X172264501Y-88027769D01*
X172269016Y-88020629D01*
X172318589Y-87941016D01*
X172322841Y-87932416D01*
X172328435Y-87924631D01*
X172332620Y-87917293D01*
X172359766Y-87868917D01*
X172378049Y-87827265D01*
X172385181Y-87812821D01*
X172392699Y-87799071D01*
X172393981Y-87794998D01*
X172398186Y-87786481D01*
X172401113Y-87778557D01*
X172405034Y-87767712D01*
X172406199Y-87763134D01*
X172407224Y-87760799D01*
X172410134Y-87747670D01*
X172415455Y-87726762D01*
X172428144Y-87686442D01*
X172429988Y-87669653D01*
X172434154Y-87653284D01*
X172436423Y-87611081D01*
X172441038Y-87569072D01*
X172439586Y-87552245D01*
X172440493Y-87535379D01*
X172434522Y-87493546D01*
X172430889Y-87451434D01*
X172426195Y-87435203D01*
X172423809Y-87418488D01*
X172409829Y-87378617D01*
X172398084Y-87338008D01*
X172390328Y-87323001D01*
X172384740Y-87307064D01*
X172363274Y-87270655D01*
X172343872Y-87233113D01*
X172339230Y-87226055D01*
X172322376Y-87200813D01*
X172301242Y-87175021D01*
X172282387Y-87147528D01*
X172276908Y-87141099D01*
X172230315Y-87087203D01*
X172226600Y-87083670D01*
X172223572Y-87079535D01*
X172217897Y-87073279D01*
X172147516Y-86996768D01*
X172147320Y-86996593D01*
X172147160Y-86996381D01*
X172141392Y-86990209D01*
X172053176Y-86897119D01*
X172053077Y-86897033D01*
X172049178Y-86892940D01*
X171949078Y-86789312D01*
X171948966Y-86789216D01*
X171945905Y-86786051D01*
X171839872Y-86677921D01*
X171839757Y-86677825D01*
X171836869Y-86674880D01*
X171730856Y-86568286D01*
X171730741Y-86568191D01*
X171727489Y-86564927D01*
X171627448Y-86465907D01*
X171627357Y-86465833D01*
X171622915Y-86461467D01*
X171534797Y-86376059D01*
X171533990Y-86375417D01*
X171533320Y-86374632D01*
X171527194Y-86368817D01*
X171456951Y-86303060D01*
X171450615Y-86298196D01*
X171445188Y-86292335D01*
X171438833Y-86286771D01*
X171392418Y-86246702D01*
X171356303Y-86221222D01*
X171321488Y-86193995D01*
X171314326Y-86189516D01*
X171298799Y-86179953D01*
X171285322Y-86173372D01*
X171272943Y-86164898D01*
X171232360Y-86147510D01*
X171192698Y-86128142D01*
X171178200Y-86124304D01*
X171164411Y-86118396D01*
X171121223Y-86109221D01*
X171078554Y-86097926D01*
X171063587Y-86096977D01*
X171048913Y-86093860D01*
X171004757Y-86093249D01*
X170960715Y-86090457D01*
X170945854Y-86092433D01*
X170930849Y-86092225D01*
X170887415Y-86100202D01*
X170843669Y-86106018D01*
X170829469Y-86110844D01*
X170814716Y-86113554D01*
X170773675Y-86129809D01*
X170731876Y-86144016D01*
X170718882Y-86151510D01*
X170704937Y-86157033D01*
X170697452Y-86160948D01*
X170672168Y-86174395D01*
X170658128Y-86183726D01*
X170642929Y-86191005D01*
X170635734Y-86195430D01*
X170575262Y-86233205D01*
X170574472Y-86233813D01*
X170573577Y-86234261D01*
X170566459Y-86238810D01*
X170476678Y-86297070D01*
X170476569Y-86297157D01*
X170472191Y-86300010D01*
X170358980Y-86374909D01*
X170358867Y-86375000D01*
X170355830Y-86377007D01*
X170225068Y-86464698D01*
X170224961Y-86464786D01*
X170222758Y-86466256D01*
X170124121Y-86533064D01*
X170124068Y-86533108D01*
X170123205Y-86533686D01*
X169894332Y-86689318D01*
X169780257Y-86642293D01*
X169780207Y-86642272D01*
X169667990Y-86596012D01*
X169616162Y-86321092D01*
X169616160Y-86321084D01*
X169503578Y-85723899D01*
X169503395Y-85723272D01*
X169503335Y-85722614D01*
X169486833Y-85666546D01*
X169470486Y-85610556D01*
X169470182Y-85609971D01*
X169469997Y-85609343D01*
X169443001Y-85557705D01*
X169416008Y-85505799D01*
X169415597Y-85505286D01*
X169415293Y-85504704D01*
X169378758Y-85459264D01*
X169342221Y-85413619D01*
X169341718Y-85413195D01*
X169341307Y-85412684D01*
X169296602Y-85375172D01*
X169251934Y-85337526D01*
X169251360Y-85337209D01*
X169250856Y-85336786D01*
X169199808Y-85308722D01*
X169148588Y-85280419D01*
X169147959Y-85280218D01*
X169147386Y-85279903D01*
X169091935Y-85262313D01*
X169036117Y-85244474D01*
X169035463Y-85244399D01*
X169034838Y-85244201D01*
X168976817Y-85237693D01*
X168918806Y-85231059D01*
X168918153Y-85231112D01*
X168917498Y-85231039D01*
X168909051Y-85230980D01*
X167666048Y-85230980D01*
X167665391Y-85231044D01*
X167664740Y-85230982D01*
X167606902Y-85236779D01*
X167548536Y-85242502D01*
X167547904Y-85242693D01*
X167547253Y-85242758D01*
X167491538Y-85259711D01*
X167435500Y-85276630D01*
X167434919Y-85276939D01*
X167434291Y-85277130D01*
X167382883Y-85304607D01*
X167331246Y-85332063D01*
X167330736Y-85332479D01*
X167330158Y-85332788D01*
X167285127Y-85369677D01*
X167239744Y-85406690D01*
X167239324Y-85407198D01*
X167238817Y-85407613D01*
X167201849Y-85452497D01*
X167164480Y-85497668D01*
X167164166Y-85498249D01*
X167163750Y-85498754D01*
X167136195Y-85549981D01*
X167108321Y-85601533D01*
X167108126Y-85602162D01*
X167107816Y-85602739D01*
X167090686Y-85658504D01*
X167073405Y-85714328D01*
X167073336Y-85714980D01*
X167073143Y-85715610D01*
X167071520Y-85723900D01*
X166958959Y-86320981D01*
X166958937Y-86321092D01*
X166907109Y-86596012D01*
X166794892Y-86642272D01*
X166680767Y-86689318D01*
X166451893Y-86533685D01*
X166451809Y-86533639D01*
X166450547Y-86532773D01*
X166310980Y-86438417D01*
X166310858Y-86438351D01*
X166308113Y-86436490D01*
X166181953Y-86352243D01*
X166181820Y-86352172D01*
X166178440Y-86349914D01*
X166071573Y-86279623D01*
X166071476Y-86279572D01*
X166066166Y-86276107D01*
X165984479Y-86223616D01*
X165981787Y-86222237D01*
X165979402Y-86220390D01*
X165972220Y-86215944D01*
X165921601Y-86185101D01*
X165898752Y-86174078D01*
X165877282Y-86160580D01*
X165869700Y-86156856D01*
X165855914Y-86150205D01*
X165838460Y-86143798D01*
X165822018Y-86135114D01*
X165783152Y-86123496D01*
X165745071Y-86109518D01*
X165726705Y-86106624D01*
X165708889Y-86101298D01*
X165668498Y-86097450D01*
X165628434Y-86091136D01*
X165609858Y-86091864D01*
X165591345Y-86090100D01*
X165550979Y-86094170D01*
X165510450Y-86095758D01*
X165492367Y-86100080D01*
X165473866Y-86101946D01*
X165435067Y-86113777D01*
X165395610Y-86123209D01*
X165378705Y-86130964D01*
X165360925Y-86136386D01*
X165325172Y-86155523D01*
X165288289Y-86172443D01*
X165273213Y-86183334D01*
X165256824Y-86192106D01*
X165249834Y-86196849D01*
X165224999Y-86213954D01*
X165199387Y-86235566D01*
X165172042Y-86254929D01*
X165165696Y-86260504D01*
X165112628Y-86307790D01*
X165109154Y-86311555D01*
X165105069Y-86314641D01*
X165098898Y-86320410D01*
X165023546Y-86391838D01*
X165023379Y-86392031D01*
X165023177Y-86392188D01*
X165017092Y-86398047D01*
X164925403Y-86487575D01*
X164925317Y-86487678D01*
X164921300Y-86491619D01*
X164819222Y-86593208D01*
X164819125Y-86593325D01*
X164816021Y-86596418D01*
X164709502Y-86704027D01*
X164709407Y-86704144D01*
X164706517Y-86707064D01*
X164601507Y-86814653D01*
X164601415Y-86814768D01*
X164598214Y-86818053D01*
X164500659Y-86919581D01*
X164500582Y-86919679D01*
X164496312Y-86924153D01*
X164412161Y-87013579D01*
X164411550Y-87014370D01*
X164410799Y-87015031D01*
X164405073Y-87021242D01*
X164340276Y-87092526D01*
X164335565Y-87098854D01*
X164329853Y-87104296D01*
X164324381Y-87110731D01*
X164284883Y-87157832D01*
X164260257Y-87193821D01*
X164233832Y-87228484D01*
X164229441Y-87235701D01*
X164219999Y-87251464D01*
X164196595Y-87300931D01*
X164172478Y-87350075D01*
X164171358Y-87354271D01*
X164169501Y-87358197D01*
X164156153Y-87411261D01*
X164142039Y-87464160D01*
X164141756Y-87468497D01*
X164140697Y-87472705D01*
X164137911Y-87527332D01*
X164134339Y-87581983D01*
X164134903Y-87586291D01*
X164134682Y-87590627D01*
X164142563Y-87644780D01*
X164149671Y-87699059D01*
X164151061Y-87703174D01*
X164151686Y-87707471D01*
X164169941Y-87759079D01*
X164187451Y-87810927D01*
X164190976Y-87818604D01*
X164191059Y-87818782D01*
X164191061Y-87818787D01*
X164191064Y-87818792D01*
X164204565Y-87847665D01*
X164218137Y-87870559D01*
X164229170Y-87894773D01*
X164233456Y-87902051D01*
X164271554Y-87965719D01*
X164274034Y-87969070D01*
X164275866Y-87972814D01*
X164280353Y-87979971D01*
X164338952Y-88072017D01*
X164339104Y-88072212D01*
X164339220Y-88072439D01*
X164343812Y-88079529D01*
X164418910Y-88193727D01*
X164418976Y-88193809D01*
X164422515Y-88199146D01*
X164510103Y-88329266D01*
X164510203Y-88329387D01*
X164512602Y-88332948D01*
X164563356Y-88407165D01*
X164654380Y-88540510D01*
X164709107Y-88621926D01*
X164660486Y-88737017D01*
X164610010Y-88855286D01*
X164603493Y-88870387D01*
X164590166Y-88872943D01*
X164440379Y-88901177D01*
X164352600Y-88917530D01*
X164352489Y-88917562D01*
X164350246Y-88917973D01*
X164188388Y-88948791D01*
X164188263Y-88948828D01*
X164182564Y-88949930D01*
X164036367Y-88979255D01*
X164036292Y-88979278D01*
X164029320Y-88980712D01*
X163906182Y-89006939D01*
X163904913Y-89007342D01*
X163903589Y-89007497D01*
X163895347Y-89009350D01*
X163802665Y-89030876D01*
X163794450Y-89033653D01*
X163785881Y-89035027D01*
X163777726Y-89037229D01*
X163722894Y-89052448D01*
X163686730Y-89066412D01*
X163649717Y-89077908D01*
X163641956Y-89081243D01*
X163630934Y-89086071D01*
X163620105Y-89092137D01*
X163612744Y-89094979D01*
X163612682Y-89095018D01*
X163607331Y-89097021D01*
X163568137Y-89121246D01*
X163527918Y-89143774D01*
X163517987Y-89152242D01*
X163506892Y-89159100D01*
X163473143Y-89190483D01*
X163438073Y-89220388D01*
X163429980Y-89230619D01*
X163420424Y-89239505D01*
X163393407Y-89276854D01*
X163364820Y-89312993D01*
X163358869Y-89324600D01*
X163351220Y-89335174D01*
X163331971Y-89377063D01*
X163310949Y-89418063D01*
X163307365Y-89430606D01*
X163301916Y-89442464D01*
X163299211Y-89450466D01*
X163288415Y-89483147D01*
X163275973Y-89538444D01*
X163263098Y-89593637D01*
X163262528Y-89598195D01*
X163262495Y-89598342D01*
X163262491Y-89598491D01*
X163262050Y-89602019D01*
X163253340Y-89675829D01*
X163253093Y-89688324D01*
X163250929Y-89700638D01*
X163250345Y-89709065D01*
X163243714Y-89815373D01*
X163243857Y-89819417D01*
X163243265Y-89823426D01*
X163242911Y-89831866D01*
X163238353Y-89962041D01*
X163238427Y-89963222D01*
X163238274Y-89964405D01*
X163238071Y-89972850D01*
X163235580Y-90118258D01*
X163235588Y-90118360D01*
X163235576Y-90118466D01*
X163235493Y-90126913D01*
X163235064Y-90278928D01*
X163235066Y-90278947D01*
X163235098Y-90287197D01*
X163236725Y-90437185D01*
X163236777Y-90437658D01*
X163236736Y-90438133D01*
X163236899Y-90446579D01*
X163240575Y-90585907D01*
X163240849Y-90588105D01*
X163240708Y-90590307D01*
X163241051Y-90598747D01*
X163246771Y-90718786D01*
X163247758Y-90725525D01*
X163247569Y-90732332D01*
X163248219Y-90740755D01*
X163255976Y-90832875D01*
X163260160Y-90855645D01*
X163261611Y-90878755D01*
X163263019Y-90887084D01*
X163272809Y-90942652D01*
X163279800Y-90967705D01*
X163284009Y-90993371D01*
X163295631Y-91024434D01*
X163304546Y-91056382D01*
X163314410Y-91075916D01*
X163316955Y-91084116D01*
X163320203Y-91090112D01*
X163325384Y-91103960D01*
X163329155Y-91111519D01*
X163335027Y-91123087D01*
X163350442Y-91147272D01*
X163357769Y-91161782D01*
X163361868Y-91167030D01*
X163373194Y-91187939D01*
X163386926Y-91204512D01*
X163398491Y-91222657D01*
X163424504Y-91249866D01*
X163448527Y-91278860D01*
X163465215Y-91292450D01*
X163480086Y-91308004D01*
X163510888Y-91329642D01*
X163540085Y-91353417D01*
X163559099Y-91363509D01*
X163576705Y-91375876D01*
X163611121Y-91391118D01*
X163644382Y-91408771D01*
X163652217Y-91411929D01*
X163687313Y-91425794D01*
X163716936Y-91434264D01*
X163745636Y-91445468D01*
X163753783Y-91447700D01*
X163828155Y-91467523D01*
X163835444Y-91468720D01*
X163842427Y-91471142D01*
X163850654Y-91473061D01*
X163954459Y-91496512D01*
X163957556Y-91496899D01*
X163960527Y-91497850D01*
X163968798Y-91499569D01*
X164092202Y-91524321D01*
X164092263Y-91524327D01*
X164092328Y-91524347D01*
X164100622Y-91525948D01*
X164143700Y-91533955D01*
X164143789Y-91533963D01*
X164145256Y-91534242D01*
X164351793Y-91572073D01*
X164512873Y-91602154D01*
X164566921Y-91612654D01*
X164585500Y-91658249D01*
X164631852Y-91776593D01*
X164676442Y-91894722D01*
X164681537Y-91908812D01*
X164646395Y-91960238D01*
X164559584Y-92086807D01*
X164535117Y-92122404D01*
X164535043Y-92122539D01*
X164532479Y-92126275D01*
X164444025Y-92257124D01*
X164443630Y-92257853D01*
X164443103Y-92258492D01*
X164438440Y-92265536D01*
X164360606Y-92384924D01*
X164359687Y-92386689D01*
X164358454Y-92388249D01*
X164353936Y-92395386D01*
X164290959Y-92496457D01*
X164288390Y-92501648D01*
X164284946Y-92506314D01*
X164280667Y-92513598D01*
X164236789Y-92589494D01*
X164227724Y-92609446D01*
X164216277Y-92628133D01*
X164212642Y-92635758D01*
X164192101Y-92679626D01*
X164187453Y-92692758D01*
X164180903Y-92705047D01*
X164167794Y-92748305D01*
X164152706Y-92790936D01*
X164150697Y-92804722D01*
X164146659Y-92818048D01*
X164145067Y-92826344D01*
X164144072Y-92831734D01*
X164140758Y-92870721D01*
X164134876Y-92909388D01*
X164135768Y-92929410D01*
X164134070Y-92949385D01*
X164138391Y-92988265D01*
X164140132Y-93027346D01*
X164144897Y-93046817D01*
X164147111Y-93066738D01*
X164158902Y-93104042D01*
X164168201Y-93142036D01*
X164176656Y-93160208D01*
X164182698Y-93179323D01*
X164201508Y-93213623D01*
X164218011Y-93249092D01*
X164222355Y-93256336D01*
X164239613Y-93284663D01*
X164265643Y-93319267D01*
X164289825Y-93355177D01*
X164295250Y-93361652D01*
X164342937Y-93417770D01*
X164349001Y-93423635D01*
X164354003Y-93430432D01*
X164359694Y-93436675D01*
X164431679Y-93514551D01*
X164433168Y-93515875D01*
X164434378Y-93517451D01*
X164440195Y-93523576D01*
X164530348Y-93617179D01*
X164530370Y-93617198D01*
X164536001Y-93622970D01*
X164638193Y-93726271D01*
X164638282Y-93726345D01*
X164642757Y-93730835D01*
X164750856Y-93837800D01*
X164750951Y-93837877D01*
X164755244Y-93842099D01*
X164863123Y-93946699D01*
X164863195Y-93946757D01*
X164868135Y-93951504D01*
X164969660Y-94047707D01*
X164970055Y-94048014D01*
X164970385Y-94048393D01*
X164976566Y-94054150D01*
X165011097Y-94085863D01*
X164972527Y-94077849D01*
X164963103Y-94077761D01*
X164953822Y-94076131D01*
X164945394Y-94075548D01*
X164866844Y-94070663D01*
X164810421Y-94072674D01*
X164754000Y-94074199D01*
X164748993Y-94074863D01*
X164748844Y-94074868D01*
X164748703Y-94074901D01*
X164745626Y-94075309D01*
X164652696Y-94088285D01*
X164610407Y-94098476D01*
X164567683Y-94106463D01*
X164559587Y-94108874D01*
X164473935Y-94135043D01*
X164464359Y-94139027D01*
X164454561Y-94141352D01*
X164426970Y-94130602D01*
X164412459Y-94126527D01*
X164398698Y-94120389D01*
X164355736Y-94110598D01*
X164313292Y-94098678D01*
X164298265Y-94097499D01*
X164283574Y-94094151D01*
X164275187Y-94093145D01*
X164127429Y-94076470D01*
X164114039Y-94076274D01*
X164100834Y-94074062D01*
X164055106Y-94075411D01*
X164009366Y-94074742D01*
X163996196Y-94077150D01*
X163982810Y-94077545D01*
X163974438Y-94078675D01*
X163823879Y-94100077D01*
X163808827Y-94103744D01*
X163793415Y-94105205D01*
X163751589Y-94117687D01*
X163709158Y-94128023D01*
X163695107Y-94134542D01*
X163680270Y-94138970D01*
X163672472Y-94142218D01*
X163574009Y-94184046D01*
X163557183Y-94173352D01*
X163532445Y-94163736D01*
X163508882Y-94151513D01*
X163477548Y-94142399D01*
X163447129Y-94130575D01*
X163438978Y-94128355D01*
X163303601Y-94092485D01*
X163274931Y-94087821D01*
X163246863Y-94080330D01*
X163216797Y-94078363D01*
X163187058Y-94073525D01*
X163158027Y-94074518D01*
X163129039Y-94072622D01*
X163120598Y-94072954D01*
X162968666Y-94080005D01*
X162915434Y-94087730D01*
X162862118Y-94094517D01*
X162853896Y-94096453D01*
X162790132Y-94111943D01*
X162738131Y-94130107D01*
X162685991Y-94147544D01*
X162678693Y-94150869D01*
X162678661Y-94150880D01*
X162678636Y-94150895D01*
X162678304Y-94151046D01*
X162556055Y-94207769D01*
X162543470Y-94215180D01*
X162529935Y-94220662D01*
X162492688Y-94245083D01*
X162454309Y-94267682D01*
X162443404Y-94277395D01*
X162431190Y-94285403D01*
X162424649Y-94290748D01*
X162320115Y-94377381D01*
X162307107Y-94390503D01*
X162292453Y-94401765D01*
X162265629Y-94432345D01*
X162236988Y-94461237D01*
X162226773Y-94476641D01*
X162214590Y-94490530D01*
X162209714Y-94497427D01*
X162137368Y-94601299D01*
X162109099Y-94651762D01*
X162080619Y-94702137D01*
X162079717Y-94704212D01*
X162079661Y-94704313D01*
X162079623Y-94704430D01*
X162077253Y-94709885D01*
X162067314Y-94733207D01*
X162051946Y-94782003D01*
X162035308Y-94830370D01*
X162033411Y-94838602D01*
X162019776Y-94899689D01*
X162016081Y-94929861D01*
X162009538Y-94959548D01*
X162008592Y-94967942D01*
X161999048Y-95058311D01*
X161998922Y-95075193D01*
X161996444Y-95091893D01*
X161996085Y-95100332D01*
X161992834Y-95191670D01*
X161993242Y-95198220D01*
X161992510Y-95204743D01*
X161992451Y-95213190D01*
X161992451Y-95385882D01*
X161998007Y-95442549D01*
X162003167Y-95499248D01*
X162003766Y-95501283D01*
X162003973Y-95503394D01*
X162014378Y-95537858D01*
X162010924Y-95553482D01*
X161999172Y-95596929D01*
X161998202Y-95611027D01*
X161995151Y-95624827D01*
X161994156Y-95669831D01*
X161991067Y-95714725D01*
X133125000Y-95714725D01*
X133125000Y-78391659D01*
X172900000Y-78391659D01*
X172900000Y-78608341D01*
X172942273Y-78820858D01*
X173025193Y-79021045D01*
X173145575Y-79201209D01*
X173298791Y-79354425D01*
X173478955Y-79474807D01*
X173679142Y-79557727D01*
X173891659Y-79600000D01*
X174108341Y-79600000D01*
X174320858Y-79557727D01*
X174521045Y-79474807D01*
X174701209Y-79354425D01*
X174854425Y-79201209D01*
X174974807Y-79021045D01*
X175057727Y-78820858D01*
X175100000Y-78608341D01*
X175100000Y-78391659D01*
X175057727Y-78179142D01*
X174974807Y-77978955D01*
X174854425Y-77798791D01*
X174701209Y-77645575D01*
X174521045Y-77525193D01*
X174320858Y-77442273D01*
X174108341Y-77400000D01*
X173891659Y-77400000D01*
X173679142Y-77442273D01*
X173478955Y-77525193D01*
X173298791Y-77645575D01*
X173145575Y-77798791D01*
X173025193Y-77978955D01*
X172942273Y-78179142D01*
X172900000Y-78391659D01*
X133125000Y-78391659D01*
X133125000Y-76943377D01*
X133278850Y-77097227D01*
X133721070Y-77392709D01*
X134212439Y-77596240D01*
X134734073Y-77700000D01*
X135265927Y-77700000D01*
X135787561Y-77596240D01*
X136278930Y-77392709D01*
X136721150Y-77097227D01*
X137097227Y-76721150D01*
X137392709Y-76278930D01*
X137596240Y-75787561D01*
X137700000Y-75265927D01*
X137700000Y-74734073D01*
X137596240Y-74212439D01*
X137392709Y-73721070D01*
X137328517Y-73625000D01*
X140375001Y-73625000D01*
X140375000Y-75469296D01*
G37*
X140375000Y-75469296D02*
X140371976Y-75500000D01*
X140384043Y-75622521D01*
X140419781Y-75740334D01*
X140477817Y-75848911D01*
X140555920Y-75944080D01*
X140651089Y-76022183D01*
X140759666Y-76080219D01*
X140877479Y-76115957D01*
X141000000Y-76128024D01*
X141030704Y-76125000D01*
X146969296Y-76125000D01*
X147000000Y-76128024D01*
X147122521Y-76115957D01*
X147240334Y-76080219D01*
X147348911Y-76022183D01*
X147444080Y-75944080D01*
X147522183Y-75848911D01*
X147580219Y-75740334D01*
X147615957Y-75622521D01*
X147625000Y-75530704D01*
X147625000Y-75530703D01*
X147628024Y-75500000D01*
X147625000Y-75469296D01*
X147625000Y-73625000D01*
X152875001Y-73625000D01*
X152875000Y-75469296D01*
X152871976Y-75500000D01*
X152884043Y-75622521D01*
X152919781Y-75740334D01*
X152977817Y-75848911D01*
X153055920Y-75944080D01*
X153151089Y-76022183D01*
X153259666Y-76080219D01*
X153377479Y-76115957D01*
X153500000Y-76128024D01*
X153530704Y-76125000D01*
X159469296Y-76125000D01*
X159500000Y-76128024D01*
X159622521Y-76115957D01*
X159740334Y-76080219D01*
X159848911Y-76022183D01*
X159944080Y-75944080D01*
X160022183Y-75848911D01*
X160080219Y-75740334D01*
X160115957Y-75622521D01*
X160125000Y-75530704D01*
X160125000Y-75530703D01*
X160128024Y-75500000D01*
X160125000Y-75469296D01*
X160125000Y-73625000D01*
X173671483Y-73625000D01*
X173607291Y-73721070D01*
X173403760Y-74212439D01*
X173300000Y-74734073D01*
X173300000Y-75265927D01*
X173403760Y-75787561D01*
X173607291Y-76278930D01*
X173902773Y-76721150D01*
X174278850Y-77097227D01*
X174721070Y-77392709D01*
X175212439Y-77596240D01*
X175734073Y-77700000D01*
X176265927Y-77700000D01*
X176787561Y-77596240D01*
X177278930Y-77392709D01*
X177721150Y-77097227D01*
X177875000Y-76943377D01*
X177875001Y-114056624D01*
X177721150Y-113902773D01*
X177278930Y-113607291D01*
X176787561Y-113403760D01*
X176265927Y-113300000D01*
X175734073Y-113300000D01*
X175212439Y-113403760D01*
X174721070Y-113607291D01*
X174278850Y-113902773D01*
X173902773Y-114278850D01*
X173607291Y-114721070D01*
X173403760Y-115212439D01*
X173300000Y-115734073D01*
X173300000Y-116265927D01*
X173403760Y-116787561D01*
X173607291Y-117278930D01*
X173902773Y-117721150D01*
X174278850Y-118097227D01*
X174721070Y-118392709D01*
X175212439Y-118596240D01*
X175734073Y-118700000D01*
X176265927Y-118700000D01*
X176787561Y-118596240D01*
X177278930Y-118392709D01*
X177721150Y-118097227D01*
X177875001Y-117943376D01*
X177875001Y-127875000D01*
X171125000Y-127875000D01*
X171125000Y-120030704D01*
X171128024Y-120000000D01*
X171115957Y-119877479D01*
X171080219Y-119759666D01*
X171022183Y-119651089D01*
X170944080Y-119555920D01*
X170848911Y-119477817D01*
X170740334Y-119419781D01*
X170622521Y-119384043D01*
X170530704Y-119375000D01*
X170500000Y-119371976D01*
X170469296Y-119375000D01*
X165269182Y-119375000D01*
X165316317Y-119336317D01*
X165391296Y-119244955D01*
X165447010Y-119140721D01*
X165481318Y-119027621D01*
X165492903Y-118910000D01*
X165490000Y-117955000D01*
X165340000Y-117805000D01*
X164540000Y-117805000D01*
X164540000Y-117825000D01*
X164240000Y-117825000D01*
X164240000Y-117805000D01*
X163440000Y-117805000D01*
X163290000Y-117955000D01*
X163287097Y-118910000D01*
X163298682Y-119027621D01*
X163332990Y-119140721D01*
X163388704Y-119244955D01*
X163463683Y-119336317D01*
X163510818Y-119375000D01*
X160189182Y-119375000D01*
X160236317Y-119336317D01*
X160311296Y-119244955D01*
X160367010Y-119140721D01*
X160401318Y-119027621D01*
X160412903Y-118910000D01*
X160412903Y-116400000D01*
X163287097Y-116400000D01*
X163290000Y-117355000D01*
X163440000Y-117505000D01*
X164240000Y-117505000D01*
X164240000Y-115950000D01*
X164540000Y-115950000D01*
X164540000Y-117505000D01*
X165340000Y-117505000D01*
X165490000Y-117355000D01*
X165492903Y-116400000D01*
X165481318Y-116282379D01*
X165447010Y-116169279D01*
X165391296Y-116065045D01*
X165316317Y-115973683D01*
X165224955Y-115898704D01*
X165120721Y-115842990D01*
X165007621Y-115808682D01*
X164890000Y-115797097D01*
X164690000Y-115800000D01*
X164540000Y-115950000D01*
X164240000Y-115950000D01*
X164090000Y-115800000D01*
X163890000Y-115797097D01*
X163772379Y-115808682D01*
X163659279Y-115842990D01*
X163555045Y-115898704D01*
X163463683Y-115973683D01*
X163388704Y-116065045D01*
X163332990Y-116169279D01*
X163298682Y-116282379D01*
X163287097Y-116400000D01*
X160412903Y-116400000D01*
X160401318Y-116282379D01*
X160367010Y-116169279D01*
X160311296Y-116065045D01*
X160236317Y-115973683D01*
X160160000Y-115911051D01*
X160160000Y-113090000D01*
X160747097Y-113090000D01*
X160747097Y-115600000D01*
X160758682Y-115717621D01*
X160792990Y-115830721D01*
X160848704Y-115934955D01*
X160923683Y-116026317D01*
X161015045Y-116101296D01*
X161119279Y-116157010D01*
X161232379Y-116191318D01*
X161350000Y-116202903D01*
X162350000Y-116202903D01*
X162467621Y-116191318D01*
X162580721Y-116157010D01*
X162684955Y-116101296D01*
X162776317Y-116026317D01*
X162851296Y-115934955D01*
X162907010Y-115830721D01*
X162941318Y-115717621D01*
X162952903Y-115600000D01*
X162952903Y-113090000D01*
X162941318Y-112972379D01*
X162907010Y-112859279D01*
X162903281Y-112852303D01*
X162957727Y-112720858D01*
X163000000Y-112508341D01*
X163000000Y-112291659D01*
X162957727Y-112079142D01*
X162874807Y-111878955D01*
X162754425Y-111698791D01*
X162601209Y-111545575D01*
X162421045Y-111425193D01*
X162220858Y-111342273D01*
X162008341Y-111300000D01*
X161791659Y-111300000D01*
X161579142Y-111342273D01*
X161378955Y-111425193D01*
X161198791Y-111545575D01*
X161045575Y-111698791D01*
X160925193Y-111878955D01*
X160842273Y-112079142D01*
X160800000Y-112291659D01*
X160800000Y-112508341D01*
X160842273Y-112720858D01*
X160853841Y-112748786D01*
X160848704Y-112755045D01*
X160792990Y-112859279D01*
X160758682Y-112972379D01*
X160747097Y-113090000D01*
X160160000Y-113090000D01*
X160160000Y-112635274D01*
X160201296Y-112584955D01*
X160257010Y-112480721D01*
X160291318Y-112367621D01*
X160302903Y-112250000D01*
X160302903Y-111350000D01*
X160291318Y-111232379D01*
X160257010Y-111119279D01*
X160201296Y-111015045D01*
X160126317Y-110923683D01*
X160040071Y-110852903D01*
X160650000Y-110852903D01*
X160767621Y-110841318D01*
X160880721Y-110807010D01*
X160984955Y-110751296D01*
X161076317Y-110676317D01*
X161151296Y-110584955D01*
X161207010Y-110480721D01*
X161241318Y-110367621D01*
X161252903Y-110250000D01*
X161252903Y-109350000D01*
X161241318Y-109232379D01*
X161207010Y-109119279D01*
X161151296Y-109015045D01*
X161100000Y-108952541D01*
X161100000Y-108791741D01*
X161104111Y-108750000D01*
X161100000Y-108708259D01*
X161100000Y-108708251D01*
X161087700Y-108583371D01*
X161039097Y-108423145D01*
X160960168Y-108275481D01*
X160853948Y-108146052D01*
X160821520Y-108119440D01*
X159930566Y-107228486D01*
X159903948Y-107196052D01*
X159774519Y-107089832D01*
X159626855Y-107010903D01*
X159466629Y-106962300D01*
X159341749Y-106950000D01*
X159341741Y-106950000D01*
X159300000Y-106945889D01*
X159258259Y-106950000D01*
X158626173Y-106950000D01*
X158585216Y-106873375D01*
X158489692Y-106756979D01*
X158491611Y-106737499D01*
X158487500Y-106695758D01*
X158487500Y-106695751D01*
X158475200Y-106570871D01*
X158473914Y-106566629D01*
X158426597Y-106410645D01*
X158420907Y-106400000D01*
X158400000Y-106360886D01*
X158400000Y-106291659D01*
X158357727Y-106079142D01*
X158274807Y-105878955D01*
X158154425Y-105698791D01*
X158001209Y-105545575D01*
X157821045Y-105425193D01*
X157620858Y-105342273D01*
X157408341Y-105300000D01*
X157191659Y-105300000D01*
X156979142Y-105342273D01*
X156778955Y-105425193D01*
X156598791Y-105545575D01*
X156445575Y-105698791D01*
X156325193Y-105878955D01*
X156242273Y-106079142D01*
X156200000Y-106291659D01*
X156200000Y-106497871D01*
X156062500Y-106500000D01*
X155912500Y-106650000D01*
X155912500Y-107650000D01*
X155932500Y-107650000D01*
X155932500Y-107950000D01*
X155912500Y-107950000D01*
X155912500Y-108950000D01*
X156062500Y-109100000D01*
X156250000Y-109102903D01*
X156367621Y-109091318D01*
X156480721Y-109057010D01*
X156584955Y-109001296D01*
X156676317Y-108926317D01*
X156751296Y-108834955D01*
X156762100Y-108814742D01*
X156795076Y-108854924D01*
X156923375Y-108960216D01*
X157069750Y-109038455D01*
X157228576Y-109086635D01*
X157393750Y-109102903D01*
X157401743Y-109102903D01*
X157392990Y-109119279D01*
X157358682Y-109232379D01*
X157347097Y-109350000D01*
X157350000Y-109500000D01*
X157500000Y-109650000D01*
X158200000Y-109650000D01*
X158200000Y-109630000D01*
X158500000Y-109630000D01*
X158500000Y-109650000D01*
X158520000Y-109650000D01*
X158520000Y-109950000D01*
X158500000Y-109950000D01*
X158500000Y-110700000D01*
X158619563Y-110819563D01*
X158565045Y-110848704D01*
X158473683Y-110923683D01*
X158398704Y-111015045D01*
X158342990Y-111119279D01*
X158308682Y-111232379D01*
X158297097Y-111350000D01*
X158297097Y-112250000D01*
X158308682Y-112367621D01*
X158342990Y-112480721D01*
X158398704Y-112584955D01*
X158460001Y-112659645D01*
X158460000Y-115911051D01*
X158383683Y-115973683D01*
X158308704Y-116065045D01*
X158252990Y-116169279D01*
X158218682Y-116282379D01*
X158207097Y-116400000D01*
X158207097Y-118910000D01*
X158218682Y-119027621D01*
X158252990Y-119140721D01*
X158308704Y-119244955D01*
X158383683Y-119336317D01*
X158430818Y-119375000D01*
X155109182Y-119375000D01*
X155156317Y-119336317D01*
X155231296Y-119244955D01*
X155287010Y-119140721D01*
X155321318Y-119027621D01*
X155332903Y-118910000D01*
X155332903Y-116400000D01*
X155321318Y-116282379D01*
X155287010Y-116169279D01*
X155231296Y-116065045D01*
X155156317Y-115973683D01*
X155080000Y-115911051D01*
X155080000Y-115833230D01*
X155221045Y-115774807D01*
X155401209Y-115654425D01*
X155554425Y-115501209D01*
X155667097Y-115332584D01*
X155667097Y-115600000D01*
X155678682Y-115717621D01*
X155712990Y-115830721D01*
X155768704Y-115934955D01*
X155843683Y-116026317D01*
X155935045Y-116101296D01*
X156039279Y-116157010D01*
X156152379Y-116191318D01*
X156270000Y-116202903D01*
X157270000Y-116202903D01*
X157387621Y-116191318D01*
X157500721Y-116157010D01*
X157604955Y-116101296D01*
X157696317Y-116026317D01*
X157771296Y-115934955D01*
X157827010Y-115830721D01*
X157861318Y-115717621D01*
X157872903Y-115600000D01*
X157872903Y-113090000D01*
X157861318Y-112972379D01*
X157827010Y-112859279D01*
X157771296Y-112755045D01*
X157696317Y-112663683D01*
X157604955Y-112588704D01*
X157500721Y-112532990D01*
X157387621Y-112498682D01*
X157270000Y-112487097D01*
X156270000Y-112487097D01*
X156152379Y-112498682D01*
X156039279Y-112532990D01*
X155935045Y-112588704D01*
X155843683Y-112663683D01*
X155813101Y-112700947D01*
X155808341Y-112700000D01*
X155591659Y-112700000D01*
X155379142Y-112742273D01*
X155178955Y-112825193D01*
X154998791Y-112945575D01*
X154845575Y-113098791D01*
X154725193Y-113278955D01*
X154642273Y-113479142D01*
X154600000Y-113691659D01*
X154600000Y-113700000D01*
X154591659Y-113700000D01*
X154379142Y-113742273D01*
X154178955Y-113825193D01*
X153998791Y-113945575D01*
X153845575Y-114098791D01*
X153725193Y-114278955D01*
X153642273Y-114479142D01*
X153600000Y-114691659D01*
X153600000Y-114697798D01*
X153519833Y-114795481D01*
X153485829Y-114859097D01*
X153440903Y-114943146D01*
X153392300Y-115103371D01*
X153375889Y-115270000D01*
X153380001Y-115311751D01*
X153380001Y-115911051D01*
X153303683Y-115973683D01*
X153228704Y-116065045D01*
X153172990Y-116169279D01*
X153138682Y-116282379D01*
X153127097Y-116400000D01*
X153127097Y-118910000D01*
X153138682Y-119027621D01*
X153172990Y-119140721D01*
X153228704Y-119244955D01*
X153303683Y-119336317D01*
X153350818Y-119375000D01*
X150029182Y-119375000D01*
X150076317Y-119336317D01*
X150151296Y-119244955D01*
X150207010Y-119140721D01*
X150241318Y-119027621D01*
X150252903Y-118910000D01*
X150252903Y-116553827D01*
X150274807Y-116521045D01*
X150357727Y-116320858D01*
X150400000Y-116108341D01*
X150400000Y-115891659D01*
X150357727Y-115679142D01*
X150274807Y-115478955D01*
X150154425Y-115298791D01*
X150001209Y-115145575D01*
X149908137Y-115083386D01*
X149991659Y-115100000D01*
X150208341Y-115100000D01*
X150420858Y-115057727D01*
X150587097Y-114988869D01*
X150587097Y-115600000D01*
X150598682Y-115717621D01*
X150632990Y-115830721D01*
X150688704Y-115934955D01*
X150763683Y-116026317D01*
X150855045Y-116101296D01*
X150959279Y-116157010D01*
X151072379Y-116191318D01*
X151190000Y-116202903D01*
X152190000Y-116202903D01*
X152307621Y-116191318D01*
X152420721Y-116157010D01*
X152524955Y-116101296D01*
X152616317Y-116026317D01*
X152691296Y-115934955D01*
X152747010Y-115830721D01*
X152781318Y-115717621D01*
X152792903Y-115600000D01*
X152792903Y-113090000D01*
X152781318Y-112972379D01*
X152747010Y-112859279D01*
X152691296Y-112755045D01*
X152616317Y-112663683D01*
X152524955Y-112588704D01*
X152420721Y-112532990D01*
X152307621Y-112498682D01*
X152190000Y-112487097D01*
X151190000Y-112487097D01*
X151072379Y-112498682D01*
X150959279Y-112532990D01*
X150855045Y-112588704D01*
X150763683Y-112663683D01*
X150688704Y-112755045D01*
X150632990Y-112859279D01*
X150598682Y-112972379D01*
X150594561Y-113014223D01*
X150420858Y-112942273D01*
X150208341Y-112900000D01*
X149991659Y-112900000D01*
X149779142Y-112942273D01*
X149578955Y-113025193D01*
X149398791Y-113145575D01*
X149245575Y-113298791D01*
X149125193Y-113478955D01*
X149042273Y-113679142D01*
X149000000Y-113891659D01*
X149000000Y-114108341D01*
X149042273Y-114320858D01*
X149125193Y-114521045D01*
X149245575Y-114701209D01*
X149398791Y-114854425D01*
X149491863Y-114916614D01*
X149408341Y-114900000D01*
X149191659Y-114900000D01*
X148979142Y-114942273D01*
X148800000Y-115016476D01*
X148800000Y-114891659D01*
X148757727Y-114679142D01*
X148674807Y-114478955D01*
X148554425Y-114298791D01*
X148401209Y-114145575D01*
X148221045Y-114025193D01*
X148020858Y-113942273D01*
X147808341Y-113900000D01*
X147712903Y-113900000D01*
X147712903Y-113090000D01*
X147701318Y-112972379D01*
X147667010Y-112859279D01*
X147611296Y-112755045D01*
X147536317Y-112663683D01*
X147444955Y-112588704D01*
X147340721Y-112532990D01*
X147227621Y-112498682D01*
X147110000Y-112487097D01*
X146110000Y-112487097D01*
X145992379Y-112498682D01*
X145879279Y-112532990D01*
X145775045Y-112588704D01*
X145683683Y-112663683D01*
X145608704Y-112755045D01*
X145552990Y-112859279D01*
X145518682Y-112972379D01*
X145507097Y-113090000D01*
X145507097Y-115600000D01*
X145518682Y-115717621D01*
X145552990Y-115830721D01*
X145608704Y-115934955D01*
X145683683Y-116026317D01*
X145775045Y-116101296D01*
X145879279Y-116157010D01*
X145992379Y-116191318D01*
X146110000Y-116202903D01*
X147110000Y-116202903D01*
X147227621Y-116191318D01*
X147340721Y-116157010D01*
X147444955Y-116101296D01*
X147474847Y-116076764D01*
X147591659Y-116100000D01*
X147808341Y-116100000D01*
X148020858Y-116057727D01*
X148200000Y-115983524D01*
X148200000Y-116002541D01*
X148148704Y-116065045D01*
X148092990Y-116169279D01*
X148058682Y-116282379D01*
X148047097Y-116400000D01*
X148047097Y-118910000D01*
X148058682Y-119027621D01*
X148092990Y-119140721D01*
X148148704Y-119244955D01*
X148223683Y-119336317D01*
X148270818Y-119375000D01*
X141530704Y-119375000D01*
X141500000Y-119371976D01*
X141469296Y-119375000D01*
X141377479Y-119384043D01*
X141259666Y-119419781D01*
X141151089Y-119477817D01*
X141055920Y-119555920D01*
X140977817Y-119651089D01*
X140919781Y-119759666D01*
X140884043Y-119877479D01*
X140871976Y-120000000D01*
X140875000Y-120030704D01*
X140875001Y-127875000D01*
X133125000Y-127875000D01*
X133125000Y-125391659D01*
X135900000Y-125391659D01*
X135900000Y-125608341D01*
X135942273Y-125820858D01*
X136025193Y-126021045D01*
X136145575Y-126201209D01*
X136298791Y-126354425D01*
X136478955Y-126474807D01*
X136679142Y-126557727D01*
X136891659Y-126600000D01*
X137108341Y-126600000D01*
X137320858Y-126557727D01*
X137521045Y-126474807D01*
X137701209Y-126354425D01*
X137854425Y-126201209D01*
X137974807Y-126021045D01*
X138057727Y-125820858D01*
X138100000Y-125608341D01*
X138100000Y-125391659D01*
X138057727Y-125179142D01*
X137974807Y-124978955D01*
X137854425Y-124798791D01*
X137701209Y-124645575D01*
X137521045Y-124525193D01*
X137320858Y-124442273D01*
X137108341Y-124400000D01*
X136891659Y-124400000D01*
X136679142Y-124442273D01*
X136478955Y-124525193D01*
X136298791Y-124645575D01*
X136145575Y-124798791D01*
X136025193Y-124978955D01*
X135942273Y-125179142D01*
X135900000Y-125391659D01*
X133125000Y-125391659D01*
X133125000Y-117943377D01*
X133278850Y-118097227D01*
X133721070Y-118392709D01*
X134212439Y-118596240D01*
X134734073Y-118700000D01*
X135265927Y-118700000D01*
X135787561Y-118596240D01*
X136278930Y-118392709D01*
X136721150Y-118097227D01*
X137097227Y-117721150D01*
X137392709Y-117278930D01*
X137596240Y-116787561D01*
X137700000Y-116265927D01*
X137700000Y-115734073D01*
X137596240Y-115212439D01*
X137392709Y-114721070D01*
X137097227Y-114278850D01*
X136721150Y-113902773D01*
X136278930Y-113607291D01*
X135787561Y-113403760D01*
X135265927Y-113300000D01*
X134734073Y-113300000D01*
X134212439Y-113403760D01*
X133721070Y-113607291D01*
X133278850Y-113902773D01*
X133125000Y-114056623D01*
X133125000Y-110250000D01*
X157347097Y-110250000D01*
X157358682Y-110367621D01*
X157392990Y-110480721D01*
X157448704Y-110584955D01*
X157523683Y-110676317D01*
X157615045Y-110751296D01*
X157719279Y-110807010D01*
X157832379Y-110841318D01*
X157950000Y-110852903D01*
X158050000Y-110850000D01*
X158200000Y-110700000D01*
X158200000Y-109950000D01*
X157500000Y-109950000D01*
X157350000Y-110100000D01*
X157347097Y-110250000D01*
X133125000Y-110250000D01*
X133125000Y-108500000D01*
X154672097Y-108500000D01*
X154683682Y-108617621D01*
X154717990Y-108730721D01*
X154773704Y-108834955D01*
X154848683Y-108926317D01*
X154940045Y-109001296D01*
X155044279Y-109057010D01*
X155157379Y-109091318D01*
X155275000Y-109102903D01*
X155462500Y-109100000D01*
X155612500Y-108950000D01*
X155612500Y-107950000D01*
X154825000Y-107950000D01*
X154675000Y-108100000D01*
X154672097Y-108500000D01*
X133125000Y-108500000D01*
X133125000Y-107100000D01*
X154672097Y-107100000D01*
X154675000Y-107500000D01*
X154825000Y-107650000D01*
X155612500Y-107650000D01*
X155612500Y-106650000D01*
X155462500Y-106500000D01*
X155275000Y-106497097D01*
X155157379Y-106508682D01*
X155044279Y-106542990D01*
X154940045Y-106598704D01*
X154848683Y-106673683D01*
X154773704Y-106765045D01*
X154717990Y-106869279D01*
X154683682Y-106982379D01*
X154672097Y-107100000D01*
X133125000Y-107100000D01*
X133125000Y-95714725D01*
X161991067Y-95714725D01*
X161992853Y-95728740D01*
X161992541Y-95742873D01*
X162000306Y-95787208D01*
X162005997Y-95831854D01*
X162010474Y-95845261D01*
X162012911Y-95859178D01*
X162029132Y-95901142D01*
X162043392Y-95943850D01*
X162050388Y-95956132D01*
X162055482Y-95969312D01*
X162079553Y-96007339D01*
X162101829Y-96046450D01*
X162111075Y-96057138D01*
X162118634Y-96069079D01*
X162149636Y-96101710D01*
X162179082Y-96135747D01*
X162185247Y-96141523D01*
X162270872Y-96220635D01*
X162307708Y-96248530D01*
X162343299Y-96277953D01*
X162350336Y-96282626D01*
X162464649Y-96357374D01*
X162480622Y-96365718D01*
X162495316Y-96376150D01*
X162532844Y-96392995D01*
X162569306Y-96412041D01*
X162586597Y-96417124D01*
X162603037Y-96424503D01*
X162611063Y-96427138D01*
X162751647Y-96472205D01*
X162756861Y-96473330D01*
X162761797Y-96475361D01*
X162814527Y-96485771D01*
X162867067Y-96497106D01*
X162872403Y-96497197D01*
X162877637Y-96498230D01*
X162886050Y-96498991D01*
X163037267Y-96511603D01*
X163045540Y-96511483D01*
X163053706Y-96512748D01*
X163104463Y-96510627D01*
X163155330Y-96509888D01*
X163163423Y-96508163D01*
X163171679Y-96507818D01*
X163180036Y-96506585D01*
X163326249Y-96483968D01*
X163369324Y-96472914D01*
X163412877Y-96463957D01*
X163420928Y-96461400D01*
X163444517Y-96453726D01*
X163445482Y-96453304D01*
X163433297Y-96470675D01*
X163423064Y-96488801D01*
X163410626Y-96505479D01*
X163394106Y-96540092D01*
X163375247Y-96573496D01*
X163368731Y-96593258D01*
X163359767Y-96612040D01*
X163356945Y-96620002D01*
X163311601Y-96750846D01*
X163309643Y-96758995D01*
X163306351Y-96766700D01*
X163295864Y-96816327D01*
X163284010Y-96865652D01*
X163283672Y-96874025D01*
X163281939Y-96882225D01*
X163281066Y-96890627D01*
X163265488Y-97051469D01*
X163265515Y-97074622D01*
X163262792Y-97097623D01*
X163262681Y-97106070D01*
X163262601Y-97119072D01*
X163262614Y-97119210D01*
X163262590Y-97122151D01*
X163262451Y-97252887D01*
X163267985Y-97309951D01*
X163273167Y-97366896D01*
X163273674Y-97368620D01*
X163273848Y-97370411D01*
X163290350Y-97425279D01*
X163306505Y-97480167D01*
X163307196Y-97481488D01*
X163306684Y-97485777D01*
X163299786Y-97520077D01*
X163299714Y-97544254D01*
X163296851Y-97568269D01*
X163299538Y-97603167D01*
X163299433Y-97638151D01*
X163304057Y-97661879D01*
X163305914Y-97685996D01*
X163315328Y-97719707D01*
X163322020Y-97754046D01*
X163331165Y-97776423D01*
X163337671Y-97799721D01*
X163340781Y-97807575D01*
X163352379Y-97836278D01*
X163362931Y-97856461D01*
X163370985Y-97877764D01*
X163390223Y-97908659D01*
X163407087Y-97940915D01*
X163421360Y-97958666D01*
X163433397Y-97977997D01*
X163438587Y-97984662D01*
X163444787Y-97992510D01*
X163446276Y-97994056D01*
X163447450Y-97995857D01*
X163469071Y-98018002D01*
X163481077Y-98032933D01*
X163494709Y-98044371D01*
X163526674Y-98077577D01*
X163528439Y-98078808D01*
X163529937Y-98080342D01*
X163536438Y-98085737D01*
X163578428Y-98120088D01*
X163611010Y-98141805D01*
X163642077Y-98165618D01*
X163649282Y-98170028D01*
X163718568Y-98211774D01*
X163735326Y-98219756D01*
X163750856Y-98229904D01*
X163758371Y-98233760D01*
X163806695Y-98258130D01*
X163848921Y-98274476D01*
X163890342Y-98292729D01*
X163898385Y-98295309D01*
X164035556Y-98338247D01*
X164036321Y-98338407D01*
X164037037Y-98338708D01*
X164093975Y-98350432D01*
X164151144Y-98362356D01*
X164151924Y-98362364D01*
X164152687Y-98362521D01*
X164161093Y-98363350D01*
X164312957Y-98377263D01*
X164370925Y-98376893D01*
X164428652Y-98376753D01*
X164430905Y-98376511D01*
X164431030Y-98376510D01*
X164431160Y-98376483D01*
X164437051Y-98375850D01*
X164580874Y-98359364D01*
X164627263Y-98349386D01*
X164673997Y-98341202D01*
X164682119Y-98338883D01*
X164722398Y-98327079D01*
X164776575Y-98305263D01*
X164830546Y-98283692D01*
X164831849Y-98283006D01*
X164831927Y-98282974D01*
X164832004Y-98282923D01*
X164838019Y-98279754D01*
X164962686Y-98212947D01*
X164980567Y-98200983D01*
X164980741Y-98201130D01*
X164982083Y-98202775D01*
X165025951Y-98239066D01*
X165069568Y-98275665D01*
X165071426Y-98276687D01*
X165073061Y-98278039D01*
X165123132Y-98305112D01*
X165173038Y-98332548D01*
X165175062Y-98333190D01*
X165176926Y-98334198D01*
X165231299Y-98351029D01*
X165285586Y-98368250D01*
X165287694Y-98368486D01*
X165289721Y-98369114D01*
X165346347Y-98375066D01*
X165402926Y-98381412D01*
X165407001Y-98381440D01*
X165407149Y-98381456D01*
X165407297Y-98381443D01*
X165411373Y-98381471D01*
X165685295Y-98381471D01*
X165741972Y-98375914D01*
X165798661Y-98370755D01*
X165799624Y-98370472D01*
X165835519Y-98374498D01*
X165891122Y-98381297D01*
X165894142Y-98381074D01*
X165897157Y-98381412D01*
X165905604Y-98381471D01*
X166044469Y-98381471D01*
X166052911Y-98380643D01*
X166061377Y-98381235D01*
X166069819Y-98380940D01*
X166154063Y-98377407D01*
X166160060Y-98376564D01*
X166166103Y-98376781D01*
X166218441Y-98368358D01*
X166253173Y-98363475D01*
X166285115Y-98369689D01*
X166290575Y-98369671D01*
X166295948Y-98370616D01*
X166304375Y-98371202D01*
X166420460Y-98378462D01*
X166464406Y-98376911D01*
X166508375Y-98377560D01*
X166516788Y-98376801D01*
X166638885Y-98364926D01*
X166687245Y-98355390D01*
X166735904Y-98347420D01*
X166744051Y-98345190D01*
X166852410Y-98314728D01*
X166886880Y-98301288D01*
X166922252Y-98290399D01*
X166930021Y-98287083D01*
X166939740Y-98282855D01*
X166951591Y-98276256D01*
X166988551Y-98300400D01*
X166991653Y-98301650D01*
X166994477Y-98303451D01*
X167046343Y-98323696D01*
X167098064Y-98344544D01*
X167101359Y-98345170D01*
X167104470Y-98346384D01*
X167159252Y-98356164D01*
X167214066Y-98366574D01*
X167217414Y-98366548D01*
X167220708Y-98367136D01*
X167229133Y-98367744D01*
X167460061Y-98382768D01*
X167506851Y-98381234D01*
X167553648Y-98381601D01*
X167565752Y-98379303D01*
X167578073Y-98378899D01*
X167623675Y-98368306D01*
X167669651Y-98359577D01*
X167681080Y-98354971D01*
X167693086Y-98352182D01*
X167735748Y-98332939D01*
X167742518Y-98330211D01*
X167746770Y-98332548D01*
X167774900Y-98341471D01*
X167802027Y-98353106D01*
X167831047Y-98359282D01*
X167859318Y-98368250D01*
X167888643Y-98371539D01*
X167917516Y-98377684D01*
X167947181Y-98378106D01*
X167976658Y-98381412D01*
X167985105Y-98381471D01*
X168214321Y-98381471D01*
X168237674Y-98379181D01*
X168261134Y-98379657D01*
X168296293Y-98373434D01*
X168331833Y-98369949D01*
X168354297Y-98363167D01*
X168377402Y-98359077D01*
X168410686Y-98346142D01*
X168444869Y-98335821D01*
X168455636Y-98330096D01*
X168460097Y-98332548D01*
X168462121Y-98333190D01*
X168463985Y-98334198D01*
X168518358Y-98351029D01*
X168572645Y-98368250D01*
X168574753Y-98368486D01*
X168576780Y-98369114D01*
X168633406Y-98375066D01*
X168689985Y-98381412D01*
X168694060Y-98381440D01*
X168694208Y-98381456D01*
X168694356Y-98381443D01*
X168698432Y-98381471D01*
X168835393Y-98381471D01*
X168840032Y-98381016D01*
X168844680Y-98381400D01*
X168853125Y-98381211D01*
X168932621Y-98378880D01*
X168988265Y-98371772D01*
X169044006Y-98365202D01*
X169049609Y-98363936D01*
X169049745Y-98363919D01*
X169049868Y-98363878D01*
X169052245Y-98363341D01*
X169068254Y-98359609D01*
X169089412Y-98362338D01*
X169124802Y-98369671D01*
X169147828Y-98369874D01*
X169170671Y-98372821D01*
X169179116Y-98373020D01*
X169314319Y-98375263D01*
X169333739Y-98373684D01*
X169353187Y-98374658D01*
X169392439Y-98368910D01*
X169432006Y-98365692D01*
X169450748Y-98360371D01*
X169470017Y-98357549D01*
X169478201Y-98355458D01*
X169588121Y-98326556D01*
X169625585Y-98312674D01*
X169663843Y-98301196D01*
X169680820Y-98292207D01*
X169698840Y-98285530D01*
X169732895Y-98264635D01*
X169768195Y-98245945D01*
X169775206Y-98241234D01*
X169807786Y-98219010D01*
X169832029Y-98239066D01*
X169875646Y-98275665D01*
X169877504Y-98276687D01*
X169879139Y-98278039D01*
X169929210Y-98305112D01*
X169979116Y-98332548D01*
X169981140Y-98333190D01*
X169983004Y-98334198D01*
X170037377Y-98351029D01*
X170091664Y-98368250D01*
X170093772Y-98368486D01*
X170095799Y-98369114D01*
X170152425Y-98375066D01*
X170209004Y-98381412D01*
X170213079Y-98381440D01*
X170213227Y-98381456D01*
X170213375Y-98381443D01*
X170217451Y-98381471D01*
X170466471Y-98381471D01*
X170523148Y-98375914D01*
X170579837Y-98370755D01*
X170581872Y-98370156D01*
X170583983Y-98369949D01*
X170589658Y-98368236D01*
X170589704Y-98368250D01*
X170591812Y-98368486D01*
X170593839Y-98369114D01*
X170650465Y-98375066D01*
X170707044Y-98381412D01*
X170711119Y-98381440D01*
X170711267Y-98381456D01*
X170711415Y-98381443D01*
X170715491Y-98381471D01*
X170835020Y-98381471D01*
X170851907Y-98379815D01*
X170868861Y-98380524D01*
X170877291Y-98379992D01*
X170953532Y-98374652D01*
X170998718Y-98367004D01*
X171033116Y-98362724D01*
X171070047Y-98369760D01*
X171078465Y-98370465D01*
X171172782Y-98377700D01*
X171200819Y-98377106D01*
X171228768Y-98379394D01*
X171237213Y-98379199D01*
X171341751Y-98376060D01*
X171369585Y-98372485D01*
X171397645Y-98371784D01*
X171406021Y-98370692D01*
X171501617Y-98357545D01*
X171543646Y-98347509D01*
X171586118Y-98339701D01*
X171594221Y-98337314D01*
X171603064Y-98334641D01*
X171656005Y-98351029D01*
X171710292Y-98368250D01*
X171712400Y-98368486D01*
X171714427Y-98369114D01*
X171771053Y-98375066D01*
X171827632Y-98381412D01*
X171831707Y-98381440D01*
X171831855Y-98381456D01*
X171832003Y-98381443D01*
X171836079Y-98381471D01*
X172110000Y-98381471D01*
X172166677Y-98375914D01*
X172223366Y-98370755D01*
X172225401Y-98370156D01*
X172227512Y-98369949D01*
X172282013Y-98353494D01*
X172336637Y-98337417D01*
X172338517Y-98336434D01*
X172340548Y-98335821D01*
X172346000Y-98332922D01*
X172353573Y-98335138D01*
X172386191Y-98347590D01*
X172410107Y-98351676D01*
X172433393Y-98358488D01*
X172468164Y-98361595D01*
X172502580Y-98367475D01*
X172511010Y-98368020D01*
X172641746Y-98375547D01*
X172641750Y-98375547D01*
X172772484Y-98383073D01*
X172787795Y-98382457D01*
X172803031Y-98384058D01*
X172846668Y-98380087D01*
X172890464Y-98378324D01*
X172905363Y-98374746D01*
X172920621Y-98373357D01*
X172962670Y-98360981D01*
X173005275Y-98350748D01*
X173019191Y-98344346D01*
X173033892Y-98340019D01*
X173072732Y-98319714D01*
X173112542Y-98301399D01*
X173124952Y-98292414D01*
X173138531Y-98285315D01*
X173172685Y-98257854D01*
X173208182Y-98232154D01*
X173218611Y-98220929D01*
X173230551Y-98211329D01*
X173258720Y-98177759D01*
X173288550Y-98145652D01*
X173296599Y-98132616D01*
X173306449Y-98120878D01*
X173327565Y-98082468D01*
X173350586Y-98045186D01*
X173355949Y-98030838D01*
X173363332Y-98017408D01*
X173376588Y-97975621D01*
X173391926Y-97934584D01*
X173394400Y-97919469D01*
X173399034Y-97904860D01*
X173403920Y-97861297D01*
X173410997Y-97818059D01*
X173410488Y-97802749D01*
X173412196Y-97787520D01*
X173412255Y-97779073D01*
X173412255Y-96507885D01*
X173438101Y-96508533D01*
X173482050Y-96511826D01*
X173497021Y-96510010D01*
X173512093Y-96510388D01*
X173520514Y-96509716D01*
X173666111Y-96497070D01*
X173678728Y-96494717D01*
X173691546Y-96494317D01*
X173736646Y-96483916D01*
X173782185Y-96475423D01*
X173794104Y-96470664D01*
X173806602Y-96467782D01*
X173814590Y-96465034D01*
X173925268Y-96426086D01*
X173940637Y-96418923D01*
X173956845Y-96413971D01*
X173994029Y-96394041D01*
X174032292Y-96376209D01*
X174045978Y-96366197D01*
X174060915Y-96358191D01*
X174067902Y-96353445D01*
X174163080Y-96287809D01*
X174168334Y-96283371D01*
X174174269Y-96279904D01*
X174213375Y-96245320D01*
X174253278Y-96211611D01*
X174257569Y-96206237D01*
X174262719Y-96201683D01*
X174268427Y-96195456D01*
X174346217Y-96109400D01*
X174370007Y-96077264D01*
X174395787Y-96046688D01*
X174400527Y-96039696D01*
X174401872Y-96037682D01*
X174407347Y-96027443D01*
X174414358Y-96018188D01*
X174418727Y-96010959D01*
X174450319Y-95957844D01*
X174470313Y-95915245D01*
X174491975Y-95873502D01*
X174495061Y-95865639D01*
X174515591Y-95812229D01*
X174529315Y-95762492D01*
X174544248Y-95713188D01*
X174545838Y-95704892D01*
X174558270Y-95637486D01*
X174560621Y-95609780D01*
X174565826Y-95582463D01*
X174566531Y-95574045D01*
X174573829Y-95478944D01*
X174573692Y-95472444D01*
X174574683Y-95466010D01*
X174575090Y-95457573D01*
X174578305Y-95379586D01*
X174578162Y-95377059D01*
X174578491Y-95374554D01*
X174578710Y-95366110D01*
X174580048Y-95295388D01*
X174580047Y-95295380D01*
X174581645Y-95211040D01*
X174580495Y-95196473D01*
X174581495Y-95181893D01*
X174581189Y-95173451D01*
X174576175Y-95057470D01*
X174571355Y-95023495D01*
X174569338Y-94989255D01*
X174567963Y-94980920D01*
X174552940Y-94893687D01*
X174537642Y-94838039D01*
X174522721Y-94782676D01*
X174521677Y-94779968D01*
X174521641Y-94779836D01*
X174521577Y-94779708D01*
X174519683Y-94774794D01*
X174492590Y-94705957D01*
X174491001Y-94702849D01*
X174490009Y-94699510D01*
X174464162Y-94650366D01*
X174438831Y-94600829D01*
X174436669Y-94598090D01*
X174435047Y-94595006D01*
X174430355Y-94587982D01*
X174389131Y-94527189D01*
X174371263Y-94505699D01*
X174370284Y-94503942D01*
X174369253Y-94502728D01*
X174355522Y-94482261D01*
X174350109Y-94475777D01*
X174334824Y-94457726D01*
X174316973Y-94440401D01*
X174313643Y-94436396D01*
X174311329Y-94434519D01*
X174293854Y-94413940D01*
X174287743Y-94408108D01*
X174192174Y-94318168D01*
X174174892Y-94304829D01*
X174159393Y-94289473D01*
X174128271Y-94268846D01*
X174098702Y-94246024D01*
X174079162Y-94236298D01*
X174060972Y-94224242D01*
X174053481Y-94220337D01*
X173950975Y-94167802D01*
X173925522Y-94157758D01*
X173901267Y-94145100D01*
X173870745Y-94136141D01*
X173841142Y-94124459D01*
X173814218Y-94119549D01*
X173787971Y-94111845D01*
X173779662Y-94110326D01*
X173654301Y-94088316D01*
X173614974Y-94085319D01*
X173575917Y-94079770D01*
X173567476Y-94079463D01*
X173506347Y-94077664D01*
X173466101Y-94080418D01*
X173425776Y-94080668D01*
X173417381Y-94081603D01*
X173255584Y-94100769D01*
X173229283Y-94106530D01*
X173202513Y-94109462D01*
X173171748Y-94119133D01*
X173140243Y-94126034D01*
X173115556Y-94136797D01*
X173089871Y-94144871D01*
X173082122Y-94148232D01*
X173077683Y-94150194D01*
X173045590Y-94132551D01*
X173043566Y-94131909D01*
X173041702Y-94130901D01*
X172987329Y-94114070D01*
X172933042Y-94096849D01*
X172930934Y-94096613D01*
X172928907Y-94095985D01*
X172872281Y-94090033D01*
X172815702Y-94083687D01*
X172811627Y-94083659D01*
X172811479Y-94083643D01*
X172811331Y-94083656D01*
X172807255Y-94083628D01*
X172670295Y-94083628D01*
X172662571Y-94084385D01*
X172654837Y-94083826D01*
X172646394Y-94084100D01*
X172564165Y-94087351D01*
X172559112Y-94088049D01*
X172554023Y-94087838D01*
X172500699Y-94096117D01*
X172483252Y-94098527D01*
X172479086Y-94097068D01*
X172441136Y-94091666D01*
X172403639Y-94083668D01*
X172382805Y-94083363D01*
X172362188Y-94080428D01*
X172353747Y-94080118D01*
X172222536Y-94076220D01*
X172208572Y-94077172D01*
X172194620Y-94076035D01*
X172149775Y-94081178D01*
X172104734Y-94084247D01*
X172091220Y-94087893D01*
X172077313Y-94089488D01*
X172069067Y-94091323D01*
X171944587Y-94119930D01*
X171937808Y-94122204D01*
X171930743Y-94123284D01*
X171881907Y-94140954D01*
X171832641Y-94157479D01*
X171826433Y-94161026D01*
X171819712Y-94163458D01*
X171812113Y-94167146D01*
X171759610Y-94193085D01*
X171731126Y-94210809D01*
X171720483Y-94203177D01*
X171693469Y-94190897D01*
X171667775Y-94176045D01*
X171639848Y-94166522D01*
X171612992Y-94154314D01*
X171604978Y-94151641D01*
X171519513Y-94123797D01*
X171539350Y-94105946D01*
X171539574Y-94105701D01*
X171539838Y-94105506D01*
X171546071Y-94099805D01*
X171645553Y-94007537D01*
X171645624Y-94007457D01*
X171650312Y-94003075D01*
X171763974Y-93895353D01*
X171764076Y-93895235D01*
X171767269Y-93892206D01*
X171839154Y-93823042D01*
X171839232Y-93822951D01*
X171843702Y-93818620D01*
X171969466Y-93695051D01*
X171970092Y-93694303D01*
X171970850Y-93693687D01*
X171976815Y-93687706D01*
X172085503Y-93577183D01*
X172087107Y-93575197D01*
X172089047Y-93573548D01*
X172094876Y-93567435D01*
X172182094Y-93474686D01*
X172186316Y-93469211D01*
X172191419Y-93464541D01*
X172197021Y-93458217D01*
X172258376Y-93387970D01*
X172272114Y-93368734D01*
X172288012Y-93351241D01*
X172293009Y-93344430D01*
X172324107Y-93301412D01*
X172337424Y-93278589D01*
X172353127Y-93257341D01*
X172367106Y-93227721D01*
X172383615Y-93199429D01*
X172389627Y-93182033D01*
X172393835Y-93174304D01*
X172396817Y-93164769D01*
X172403523Y-93150560D01*
X172406310Y-93142586D01*
X172409293Y-93133856D01*
X172415769Y-93106388D01*
X172422182Y-93087829D01*
X172423212Y-93080370D01*
X172429079Y-93061611D01*
X172431410Y-93040038D01*
X172436386Y-93018930D01*
X172437736Y-92981488D01*
X172441763Y-92944219D01*
X172439859Y-92922607D01*
X172440641Y-92900931D01*
X172434691Y-92863930D01*
X172431403Y-92826599D01*
X172425339Y-92805772D01*
X172421895Y-92784354D01*
X172408871Y-92749210D01*
X172398395Y-92713231D01*
X172395199Y-92705412D01*
X172381354Y-92672205D01*
X172365754Y-92643152D01*
X172352728Y-92612870D01*
X172348597Y-92605501D01*
X172310338Y-92538360D01*
X172306321Y-92532681D01*
X172303335Y-92526390D01*
X172298935Y-92519179D01*
X172240505Y-92424900D01*
X172239269Y-92423283D01*
X172238360Y-92421465D01*
X172233813Y-92414347D01*
X172159458Y-92299729D01*
X172159119Y-92299304D01*
X172158870Y-92298825D01*
X172154211Y-92291779D01*
X172068174Y-92163617D01*
X172068081Y-92163504D01*
X172065038Y-92158993D01*
X172040570Y-92123263D01*
X172040545Y-92123233D01*
X172040175Y-92122686D01*
X171951498Y-91993516D01*
X171893503Y-91908737D01*
X171894264Y-91906621D01*
X171938414Y-91789182D01*
X171984807Y-91670280D01*
X172008198Y-91612615D01*
X172036566Y-91607044D01*
X172189273Y-91578366D01*
X172386276Y-91542188D01*
X172386300Y-91542184D01*
X172429383Y-91534326D01*
X172429488Y-91534296D01*
X172435610Y-91533157D01*
X172563300Y-91508486D01*
X172565827Y-91507736D01*
X172568449Y-91507468D01*
X172576716Y-91505736D01*
X172688034Y-91481602D01*
X172693073Y-91479981D01*
X172698320Y-91479278D01*
X172706529Y-91477287D01*
X172791637Y-91456018D01*
X172808140Y-91450132D01*
X172825293Y-91446566D01*
X172833338Y-91443992D01*
X172882401Y-91427916D01*
X172934210Y-91405128D01*
X172944003Y-91400915D01*
X172968937Y-91391479D01*
X172975608Y-91387322D01*
X172986158Y-91382784D01*
X172990346Y-91380436D01*
X172990483Y-91380376D01*
X172990603Y-91380292D01*
X172993527Y-91378653D01*
X173000105Y-91374905D01*
X173033951Y-91350964D01*
X173069147Y-91329031D01*
X173082060Y-91316934D01*
X173096502Y-91306719D01*
X173125055Y-91276659D01*
X173155319Y-91248308D01*
X173165636Y-91233934D01*
X173177820Y-91221107D01*
X173199993Y-91186069D01*
X173224170Y-91152385D01*
X173231498Y-91136282D01*
X173240959Y-91121332D01*
X173255905Y-91082653D01*
X173273079Y-91044915D01*
X173275755Y-91036903D01*
X173286596Y-91003676D01*
X173298549Y-90949628D01*
X173311167Y-90895690D01*
X173312077Y-90888454D01*
X173312092Y-90888386D01*
X173312093Y-90888324D01*
X173312221Y-90887309D01*
X173321032Y-90813057D01*
X173321283Y-90800718D01*
X173323435Y-90788561D01*
X173324029Y-90780135D01*
X173330806Y-90673490D01*
X173330669Y-90669483D01*
X173331260Y-90665517D01*
X173331625Y-90657078D01*
X173336361Y-90526669D01*
X173336289Y-90525503D01*
X173336442Y-90524337D01*
X173336657Y-90515892D01*
X173339347Y-90370352D01*
X173339339Y-90370249D01*
X173339350Y-90370153D01*
X173339445Y-90361707D01*
X173340082Y-90209666D01*
X173340081Y-90209650D01*
X173340060Y-90201397D01*
X173338639Y-90051486D01*
X173338587Y-90051001D01*
X173338629Y-90050515D01*
X173338476Y-90042069D01*
X173334990Y-89902921D01*
X173334716Y-89900703D01*
X173334862Y-89898475D01*
X173334530Y-89890035D01*
X173328974Y-89770279D01*
X173327984Y-89763460D01*
X173328182Y-89756577D01*
X173327541Y-89748155D01*
X173319909Y-89656423D01*
X173315682Y-89633292D01*
X173314205Y-89609828D01*
X173312796Y-89601499D01*
X173303082Y-89546425D01*
X173295337Y-89518691D01*
X173290413Y-89490335D01*
X173279499Y-89461977D01*
X173271323Y-89432700D01*
X173258342Y-89407005D01*
X173248002Y-89380139D01*
X173244160Y-89372616D01*
X173238304Y-89361343D01*
X173224748Y-89340509D01*
X173218080Y-89327310D01*
X173208754Y-89315375D01*
X173188548Y-89281443D01*
X173180482Y-89272477D01*
X173173908Y-89262373D01*
X173141068Y-89228663D01*
X173109580Y-89193660D01*
X173099927Y-89186431D01*
X173091515Y-89177797D01*
X173052748Y-89151104D01*
X173015066Y-89122887D01*
X173004196Y-89117673D01*
X172994264Y-89110834D01*
X172951045Y-89092177D01*
X172908605Y-89071819D01*
X172900649Y-89068982D01*
X172868047Y-89057612D01*
X172845263Y-89052089D01*
X172823286Y-89043919D01*
X172815104Y-89041819D01*
X172740866Y-89023320D01*
X172737159Y-89022773D01*
X172733622Y-89021563D01*
X172725388Y-89019679D01*
X172616910Y-88995657D01*
X172616804Y-88995644D01*
X172616699Y-88995610D01*
X172608439Y-88993845D01*
X172473118Y-88965905D01*
X172473004Y-88965893D01*
X172466851Y-88964645D01*
X172312083Y-88934391D01*
X172311929Y-88934376D01*
X172307826Y-88933575D01*
X172223503Y-88917718D01*
X172223467Y-88917715D01*
X172222860Y-88917597D01*
X172063602Y-88887826D01*
X171971502Y-88870336D01*
X171922311Y-88755127D01*
X171872239Y-88636611D01*
X171865670Y-88620880D01*
X171875961Y-88605441D01*
X171961126Y-88479933D01*
X172011077Y-88407196D01*
X172011123Y-88407112D01*
X172012067Y-88405750D01*
X172104805Y-88269866D01*
X172104866Y-88269756D01*
X172108250Y-88264762D01*
X172190618Y-88141394D01*
X172190645Y-88141344D01*
X172194757Y-88135111D01*
X172262737Y-88030499D01*
X172263488Y-88029051D01*
X172264501Y-88027769D01*
X172269016Y-88020629D01*
X172318589Y-87941016D01*
X172322841Y-87932416D01*
X172328435Y-87924631D01*
X172332620Y-87917293D01*
X172359766Y-87868917D01*
X172378049Y-87827265D01*
X172385181Y-87812821D01*
X172392699Y-87799071D01*
X172393981Y-87794998D01*
X172398186Y-87786481D01*
X172401113Y-87778557D01*
X172405034Y-87767712D01*
X172406199Y-87763134D01*
X172407224Y-87760799D01*
X172410134Y-87747670D01*
X172415455Y-87726762D01*
X172428144Y-87686442D01*
X172429988Y-87669653D01*
X172434154Y-87653284D01*
X172436423Y-87611081D01*
X172441038Y-87569072D01*
X172439586Y-87552245D01*
X172440493Y-87535379D01*
X172434522Y-87493546D01*
X172430889Y-87451434D01*
X172426195Y-87435203D01*
X172423809Y-87418488D01*
X172409829Y-87378617D01*
X172398084Y-87338008D01*
X172390328Y-87323001D01*
X172384740Y-87307064D01*
X172363274Y-87270655D01*
X172343872Y-87233113D01*
X172339230Y-87226055D01*
X172322376Y-87200813D01*
X172301242Y-87175021D01*
X172282387Y-87147528D01*
X172276908Y-87141099D01*
X172230315Y-87087203D01*
X172226600Y-87083670D01*
X172223572Y-87079535D01*
X172217897Y-87073279D01*
X172147516Y-86996768D01*
X172147320Y-86996593D01*
X172147160Y-86996381D01*
X172141392Y-86990209D01*
X172053176Y-86897119D01*
X172053077Y-86897033D01*
X172049178Y-86892940D01*
X171949078Y-86789312D01*
X171948966Y-86789216D01*
X171945905Y-86786051D01*
X171839872Y-86677921D01*
X171839757Y-86677825D01*
X171836869Y-86674880D01*
X171730856Y-86568286D01*
X171730741Y-86568191D01*
X171727489Y-86564927D01*
X171627448Y-86465907D01*
X171627357Y-86465833D01*
X171622915Y-86461467D01*
X171534797Y-86376059D01*
X171533990Y-86375417D01*
X171533320Y-86374632D01*
X171527194Y-86368817D01*
X171456951Y-86303060D01*
X171450615Y-86298196D01*
X171445188Y-86292335D01*
X171438833Y-86286771D01*
X171392418Y-86246702D01*
X171356303Y-86221222D01*
X171321488Y-86193995D01*
X171314326Y-86189516D01*
X171298799Y-86179953D01*
X171285322Y-86173372D01*
X171272943Y-86164898D01*
X171232360Y-86147510D01*
X171192698Y-86128142D01*
X171178200Y-86124304D01*
X171164411Y-86118396D01*
X171121223Y-86109221D01*
X171078554Y-86097926D01*
X171063587Y-86096977D01*
X171048913Y-86093860D01*
X171004757Y-86093249D01*
X170960715Y-86090457D01*
X170945854Y-86092433D01*
X170930849Y-86092225D01*
X170887415Y-86100202D01*
X170843669Y-86106018D01*
X170829469Y-86110844D01*
X170814716Y-86113554D01*
X170773675Y-86129809D01*
X170731876Y-86144016D01*
X170718882Y-86151510D01*
X170704937Y-86157033D01*
X170697452Y-86160948D01*
X170672168Y-86174395D01*
X170658128Y-86183726D01*
X170642929Y-86191005D01*
X170635734Y-86195430D01*
X170575262Y-86233205D01*
X170574472Y-86233813D01*
X170573577Y-86234261D01*
X170566459Y-86238810D01*
X170476678Y-86297070D01*
X170476569Y-86297157D01*
X170472191Y-86300010D01*
X170358980Y-86374909D01*
X170358867Y-86375000D01*
X170355830Y-86377007D01*
X170225068Y-86464698D01*
X170224961Y-86464786D01*
X170222758Y-86466256D01*
X170124121Y-86533064D01*
X170124068Y-86533108D01*
X170123205Y-86533686D01*
X169894332Y-86689318D01*
X169780257Y-86642293D01*
X169780207Y-86642272D01*
X169667990Y-86596012D01*
X169616162Y-86321092D01*
X169616160Y-86321084D01*
X169503578Y-85723899D01*
X169503395Y-85723272D01*
X169503335Y-85722614D01*
X169486833Y-85666546D01*
X169470486Y-85610556D01*
X169470182Y-85609971D01*
X169469997Y-85609343D01*
X169443001Y-85557705D01*
X169416008Y-85505799D01*
X169415597Y-85505286D01*
X169415293Y-85504704D01*
X169378758Y-85459264D01*
X169342221Y-85413619D01*
X169341718Y-85413195D01*
X169341307Y-85412684D01*
X169296602Y-85375172D01*
X169251934Y-85337526D01*
X169251360Y-85337209D01*
X169250856Y-85336786D01*
X169199808Y-85308722D01*
X169148588Y-85280419D01*
X169147959Y-85280218D01*
X169147386Y-85279903D01*
X169091935Y-85262313D01*
X169036117Y-85244474D01*
X169035463Y-85244399D01*
X169034838Y-85244201D01*
X168976817Y-85237693D01*
X168918806Y-85231059D01*
X168918153Y-85231112D01*
X168917498Y-85231039D01*
X168909051Y-85230980D01*
X167666048Y-85230980D01*
X167665391Y-85231044D01*
X167664740Y-85230982D01*
X167606902Y-85236779D01*
X167548536Y-85242502D01*
X167547904Y-85242693D01*
X167547253Y-85242758D01*
X167491538Y-85259711D01*
X167435500Y-85276630D01*
X167434919Y-85276939D01*
X167434291Y-85277130D01*
X167382883Y-85304607D01*
X167331246Y-85332063D01*
X167330736Y-85332479D01*
X167330158Y-85332788D01*
X167285127Y-85369677D01*
X167239744Y-85406690D01*
X167239324Y-85407198D01*
X167238817Y-85407613D01*
X167201849Y-85452497D01*
X167164480Y-85497668D01*
X167164166Y-85498249D01*
X167163750Y-85498754D01*
X167136195Y-85549981D01*
X167108321Y-85601533D01*
X167108126Y-85602162D01*
X167107816Y-85602739D01*
X167090686Y-85658504D01*
X167073405Y-85714328D01*
X167073336Y-85714980D01*
X167073143Y-85715610D01*
X167071520Y-85723900D01*
X166958959Y-86320981D01*
X166958937Y-86321092D01*
X166907109Y-86596012D01*
X166794892Y-86642272D01*
X166680767Y-86689318D01*
X166451893Y-86533685D01*
X166451809Y-86533639D01*
X166450547Y-86532773D01*
X166310980Y-86438417D01*
X166310858Y-86438351D01*
X166308113Y-86436490D01*
X166181953Y-86352243D01*
X166181820Y-86352172D01*
X166178440Y-86349914D01*
X166071573Y-86279623D01*
X166071476Y-86279572D01*
X166066166Y-86276107D01*
X165984479Y-86223616D01*
X165981787Y-86222237D01*
X165979402Y-86220390D01*
X165972220Y-86215944D01*
X165921601Y-86185101D01*
X165898752Y-86174078D01*
X165877282Y-86160580D01*
X165869700Y-86156856D01*
X165855914Y-86150205D01*
X165838460Y-86143798D01*
X165822018Y-86135114D01*
X165783152Y-86123496D01*
X165745071Y-86109518D01*
X165726705Y-86106624D01*
X165708889Y-86101298D01*
X165668498Y-86097450D01*
X165628434Y-86091136D01*
X165609858Y-86091864D01*
X165591345Y-86090100D01*
X165550979Y-86094170D01*
X165510450Y-86095758D01*
X165492367Y-86100080D01*
X165473866Y-86101946D01*
X165435067Y-86113777D01*
X165395610Y-86123209D01*
X165378705Y-86130964D01*
X165360925Y-86136386D01*
X165325172Y-86155523D01*
X165288289Y-86172443D01*
X165273213Y-86183334D01*
X165256824Y-86192106D01*
X165249834Y-86196849D01*
X165224999Y-86213954D01*
X165199387Y-86235566D01*
X165172042Y-86254929D01*
X165165696Y-86260504D01*
X165112628Y-86307790D01*
X165109154Y-86311555D01*
X165105069Y-86314641D01*
X165098898Y-86320410D01*
X165023546Y-86391838D01*
X165023379Y-86392031D01*
X165023177Y-86392188D01*
X165017092Y-86398047D01*
X164925403Y-86487575D01*
X164925317Y-86487678D01*
X164921300Y-86491619D01*
X164819222Y-86593208D01*
X164819125Y-86593325D01*
X164816021Y-86596418D01*
X164709502Y-86704027D01*
X164709407Y-86704144D01*
X164706517Y-86707064D01*
X164601507Y-86814653D01*
X164601415Y-86814768D01*
X164598214Y-86818053D01*
X164500659Y-86919581D01*
X164500582Y-86919679D01*
X164496312Y-86924153D01*
X164412161Y-87013579D01*
X164411550Y-87014370D01*
X164410799Y-87015031D01*
X164405073Y-87021242D01*
X164340276Y-87092526D01*
X164335565Y-87098854D01*
X164329853Y-87104296D01*
X164324381Y-87110731D01*
X164284883Y-87157832D01*
X164260257Y-87193821D01*
X164233832Y-87228484D01*
X164229441Y-87235701D01*
X164219999Y-87251464D01*
X164196595Y-87300931D01*
X164172478Y-87350075D01*
X164171358Y-87354271D01*
X164169501Y-87358197D01*
X164156153Y-87411261D01*
X164142039Y-87464160D01*
X164141756Y-87468497D01*
X164140697Y-87472705D01*
X164137911Y-87527332D01*
X164134339Y-87581983D01*
X164134903Y-87586291D01*
X164134682Y-87590627D01*
X164142563Y-87644780D01*
X164149671Y-87699059D01*
X164151061Y-87703174D01*
X164151686Y-87707471D01*
X164169941Y-87759079D01*
X164187451Y-87810927D01*
X164190976Y-87818604D01*
X164191059Y-87818782D01*
X164191061Y-87818787D01*
X164191064Y-87818792D01*
X164204565Y-87847665D01*
X164218137Y-87870559D01*
X164229170Y-87894773D01*
X164233456Y-87902051D01*
X164271554Y-87965719D01*
X164274034Y-87969070D01*
X164275866Y-87972814D01*
X164280353Y-87979971D01*
X164338952Y-88072017D01*
X164339104Y-88072212D01*
X164339220Y-88072439D01*
X164343812Y-88079529D01*
X164418910Y-88193727D01*
X164418976Y-88193809D01*
X164422515Y-88199146D01*
X164510103Y-88329266D01*
X164510203Y-88329387D01*
X164512602Y-88332948D01*
X164563356Y-88407165D01*
X164654380Y-88540510D01*
X164709107Y-88621926D01*
X164660486Y-88737017D01*
X164610010Y-88855286D01*
X164603493Y-88870387D01*
X164590166Y-88872943D01*
X164440379Y-88901177D01*
X164352600Y-88917530D01*
X164352489Y-88917562D01*
X164350246Y-88917973D01*
X164188388Y-88948791D01*
X164188263Y-88948828D01*
X164182564Y-88949930D01*
X164036367Y-88979255D01*
X164036292Y-88979278D01*
X164029320Y-88980712D01*
X163906182Y-89006939D01*
X163904913Y-89007342D01*
X163903589Y-89007497D01*
X163895347Y-89009350D01*
X163802665Y-89030876D01*
X163794450Y-89033653D01*
X163785881Y-89035027D01*
X163777726Y-89037229D01*
X163722894Y-89052448D01*
X163686730Y-89066412D01*
X163649717Y-89077908D01*
X163641956Y-89081243D01*
X163630934Y-89086071D01*
X163620105Y-89092137D01*
X163612744Y-89094979D01*
X163612682Y-89095018D01*
X163607331Y-89097021D01*
X163568137Y-89121246D01*
X163527918Y-89143774D01*
X163517987Y-89152242D01*
X163506892Y-89159100D01*
X163473143Y-89190483D01*
X163438073Y-89220388D01*
X163429980Y-89230619D01*
X163420424Y-89239505D01*
X163393407Y-89276854D01*
X163364820Y-89312993D01*
X163358869Y-89324600D01*
X163351220Y-89335174D01*
X163331971Y-89377063D01*
X163310949Y-89418063D01*
X163307365Y-89430606D01*
X163301916Y-89442464D01*
X163299211Y-89450466D01*
X163288415Y-89483147D01*
X163275973Y-89538444D01*
X163263098Y-89593637D01*
X163262528Y-89598195D01*
X163262495Y-89598342D01*
X163262491Y-89598491D01*
X163262050Y-89602019D01*
X163253340Y-89675829D01*
X163253093Y-89688324D01*
X163250929Y-89700638D01*
X163250345Y-89709065D01*
X163243714Y-89815373D01*
X163243857Y-89819417D01*
X163243265Y-89823426D01*
X163242911Y-89831866D01*
X163238353Y-89962041D01*
X163238427Y-89963222D01*
X163238274Y-89964405D01*
X163238071Y-89972850D01*
X163235580Y-90118258D01*
X163235588Y-90118360D01*
X163235576Y-90118466D01*
X163235493Y-90126913D01*
X163235064Y-90278928D01*
X163235066Y-90278947D01*
X163235098Y-90287197D01*
X163236725Y-90437185D01*
X163236777Y-90437658D01*
X163236736Y-90438133D01*
X163236899Y-90446579D01*
X163240575Y-90585907D01*
X163240849Y-90588105D01*
X163240708Y-90590307D01*
X163241051Y-90598747D01*
X163246771Y-90718786D01*
X163247758Y-90725525D01*
X163247569Y-90732332D01*
X163248219Y-90740755D01*
X163255976Y-90832875D01*
X163260160Y-90855645D01*
X163261611Y-90878755D01*
X163263019Y-90887084D01*
X163272809Y-90942652D01*
X163279800Y-90967705D01*
X163284009Y-90993371D01*
X163295631Y-91024434D01*
X163304546Y-91056382D01*
X163314410Y-91075916D01*
X163316955Y-91084116D01*
X163320203Y-91090112D01*
X163325384Y-91103960D01*
X163329155Y-91111519D01*
X163335027Y-91123087D01*
X163350442Y-91147272D01*
X163357769Y-91161782D01*
X163361868Y-91167030D01*
X163373194Y-91187939D01*
X163386926Y-91204512D01*
X163398491Y-91222657D01*
X163424504Y-91249866D01*
X163448527Y-91278860D01*
X163465215Y-91292450D01*
X163480086Y-91308004D01*
X163510888Y-91329642D01*
X163540085Y-91353417D01*
X163559099Y-91363509D01*
X163576705Y-91375876D01*
X163611121Y-91391118D01*
X163644382Y-91408771D01*
X163652217Y-91411929D01*
X163687313Y-91425794D01*
X163716936Y-91434264D01*
X163745636Y-91445468D01*
X163753783Y-91447700D01*
X163828155Y-91467523D01*
X163835444Y-91468720D01*
X163842427Y-91471142D01*
X163850654Y-91473061D01*
X163954459Y-91496512D01*
X163957556Y-91496899D01*
X163960527Y-91497850D01*
X163968798Y-91499569D01*
X164092202Y-91524321D01*
X164092263Y-91524327D01*
X164092328Y-91524347D01*
X164100622Y-91525948D01*
X164143700Y-91533955D01*
X164143789Y-91533963D01*
X164145256Y-91534242D01*
X164351793Y-91572073D01*
X164512873Y-91602154D01*
X164566921Y-91612654D01*
X164585500Y-91658249D01*
X164631852Y-91776593D01*
X164676442Y-91894722D01*
X164681537Y-91908812D01*
X164646395Y-91960238D01*
X164559584Y-92086807D01*
X164535117Y-92122404D01*
X164535043Y-92122539D01*
X164532479Y-92126275D01*
X164444025Y-92257124D01*
X164443630Y-92257853D01*
X164443103Y-92258492D01*
X164438440Y-92265536D01*
X164360606Y-92384924D01*
X164359687Y-92386689D01*
X164358454Y-92388249D01*
X164353936Y-92395386D01*
X164290959Y-92496457D01*
X164288390Y-92501648D01*
X164284946Y-92506314D01*
X164280667Y-92513598D01*
X164236789Y-92589494D01*
X164227724Y-92609446D01*
X164216277Y-92628133D01*
X164212642Y-92635758D01*
X164192101Y-92679626D01*
X164187453Y-92692758D01*
X164180903Y-92705047D01*
X164167794Y-92748305D01*
X164152706Y-92790936D01*
X164150697Y-92804722D01*
X164146659Y-92818048D01*
X164145067Y-92826344D01*
X164144072Y-92831734D01*
X164140758Y-92870721D01*
X164134876Y-92909388D01*
X164135768Y-92929410D01*
X164134070Y-92949385D01*
X164138391Y-92988265D01*
X164140132Y-93027346D01*
X164144897Y-93046817D01*
X164147111Y-93066738D01*
X164158902Y-93104042D01*
X164168201Y-93142036D01*
X164176656Y-93160208D01*
X164182698Y-93179323D01*
X164201508Y-93213623D01*
X164218011Y-93249092D01*
X164222355Y-93256336D01*
X164239613Y-93284663D01*
X164265643Y-93319267D01*
X164289825Y-93355177D01*
X164295250Y-93361652D01*
X164342937Y-93417770D01*
X164349001Y-93423635D01*
X164354003Y-93430432D01*
X164359694Y-93436675D01*
X164431679Y-93514551D01*
X164433168Y-93515875D01*
X164434378Y-93517451D01*
X164440195Y-93523576D01*
X164530348Y-93617179D01*
X164530370Y-93617198D01*
X164536001Y-93622970D01*
X164638193Y-93726271D01*
X164638282Y-93726345D01*
X164642757Y-93730835D01*
X164750856Y-93837800D01*
X164750951Y-93837877D01*
X164755244Y-93842099D01*
X164863123Y-93946699D01*
X164863195Y-93946757D01*
X164868135Y-93951504D01*
X164969660Y-94047707D01*
X164970055Y-94048014D01*
X164970385Y-94048393D01*
X164976566Y-94054150D01*
X165011097Y-94085863D01*
X164972527Y-94077849D01*
X164963103Y-94077761D01*
X164953822Y-94076131D01*
X164945394Y-94075548D01*
X164866844Y-94070663D01*
X164810421Y-94072674D01*
X164754000Y-94074199D01*
X164748993Y-94074863D01*
X164748844Y-94074868D01*
X164748703Y-94074901D01*
X164745626Y-94075309D01*
X164652696Y-94088285D01*
X164610407Y-94098476D01*
X164567683Y-94106463D01*
X164559587Y-94108874D01*
X164473935Y-94135043D01*
X164464359Y-94139027D01*
X164454561Y-94141352D01*
X164426970Y-94130602D01*
X164412459Y-94126527D01*
X164398698Y-94120389D01*
X164355736Y-94110598D01*
X164313292Y-94098678D01*
X164298265Y-94097499D01*
X164283574Y-94094151D01*
X164275187Y-94093145D01*
X164127429Y-94076470D01*
X164114039Y-94076274D01*
X164100834Y-94074062D01*
X164055106Y-94075411D01*
X164009366Y-94074742D01*
X163996196Y-94077150D01*
X163982810Y-94077545D01*
X163974438Y-94078675D01*
X163823879Y-94100077D01*
X163808827Y-94103744D01*
X163793415Y-94105205D01*
X163751589Y-94117687D01*
X163709158Y-94128023D01*
X163695107Y-94134542D01*
X163680270Y-94138970D01*
X163672472Y-94142218D01*
X163574009Y-94184046D01*
X163557183Y-94173352D01*
X163532445Y-94163736D01*
X163508882Y-94151513D01*
X163477548Y-94142399D01*
X163447129Y-94130575D01*
X163438978Y-94128355D01*
X163303601Y-94092485D01*
X163274931Y-94087821D01*
X163246863Y-94080330D01*
X163216797Y-94078363D01*
X163187058Y-94073525D01*
X163158027Y-94074518D01*
X163129039Y-94072622D01*
X163120598Y-94072954D01*
X162968666Y-94080005D01*
X162915434Y-94087730D01*
X162862118Y-94094517D01*
X162853896Y-94096453D01*
X162790132Y-94111943D01*
X162738131Y-94130107D01*
X162685991Y-94147544D01*
X162678693Y-94150869D01*
X162678661Y-94150880D01*
X162678636Y-94150895D01*
X162678304Y-94151046D01*
X162556055Y-94207769D01*
X162543470Y-94215180D01*
X162529935Y-94220662D01*
X162492688Y-94245083D01*
X162454309Y-94267682D01*
X162443404Y-94277395D01*
X162431190Y-94285403D01*
X162424649Y-94290748D01*
X162320115Y-94377381D01*
X162307107Y-94390503D01*
X162292453Y-94401765D01*
X162265629Y-94432345D01*
X162236988Y-94461237D01*
X162226773Y-94476641D01*
X162214590Y-94490530D01*
X162209714Y-94497427D01*
X162137368Y-94601299D01*
X162109099Y-94651762D01*
X162080619Y-94702137D01*
X162079717Y-94704212D01*
X162079661Y-94704313D01*
X162079623Y-94704430D01*
X162077253Y-94709885D01*
X162067314Y-94733207D01*
X162051946Y-94782003D01*
X162035308Y-94830370D01*
X162033411Y-94838602D01*
X162019776Y-94899689D01*
X162016081Y-94929861D01*
X162009538Y-94959548D01*
X162008592Y-94967942D01*
X161999048Y-95058311D01*
X161998922Y-95075193D01*
X161996444Y-95091893D01*
X161996085Y-95100332D01*
X161992834Y-95191670D01*
X161993242Y-95198220D01*
X161992510Y-95204743D01*
X161992451Y-95213190D01*
X161992451Y-95385882D01*
X161998007Y-95442549D01*
X162003167Y-95499248D01*
X162003766Y-95501283D01*
X162003973Y-95503394D01*
X162014378Y-95537858D01*
X162010924Y-95553482D01*
X161999172Y-95596929D01*
X161998202Y-95611027D01*
X161995151Y-95624827D01*
X161994156Y-95669831D01*
X161991067Y-95714725D01*
X133125000Y-95714725D01*
X133125000Y-78391659D01*
X172900000Y-78391659D01*
X172900000Y-78608341D01*
X172942273Y-78820858D01*
X173025193Y-79021045D01*
X173145575Y-79201209D01*
X173298791Y-79354425D01*
X173478955Y-79474807D01*
X173679142Y-79557727D01*
X173891659Y-79600000D01*
X174108341Y-79600000D01*
X174320858Y-79557727D01*
X174521045Y-79474807D01*
X174701209Y-79354425D01*
X174854425Y-79201209D01*
X174974807Y-79021045D01*
X175057727Y-78820858D01*
X175100000Y-78608341D01*
X175100000Y-78391659D01*
X175057727Y-78179142D01*
X174974807Y-77978955D01*
X174854425Y-77798791D01*
X174701209Y-77645575D01*
X174521045Y-77525193D01*
X174320858Y-77442273D01*
X174108341Y-77400000D01*
X173891659Y-77400000D01*
X173679142Y-77442273D01*
X173478955Y-77525193D01*
X173298791Y-77645575D01*
X173145575Y-77798791D01*
X173025193Y-77978955D01*
X172942273Y-78179142D01*
X172900000Y-78391659D01*
X133125000Y-78391659D01*
X133125000Y-76943377D01*
X133278850Y-77097227D01*
X133721070Y-77392709D01*
X134212439Y-77596240D01*
X134734073Y-77700000D01*
X135265927Y-77700000D01*
X135787561Y-77596240D01*
X136278930Y-77392709D01*
X136721150Y-77097227D01*
X137097227Y-76721150D01*
X137392709Y-76278930D01*
X137596240Y-75787561D01*
X137700000Y-75265927D01*
X137700000Y-74734073D01*
X137596240Y-74212439D01*
X137392709Y-73721070D01*
X137328517Y-73625000D01*
X140375001Y-73625000D01*
X140375000Y-75469296D01*
G36*
X159348704Y-110584955D02*
G01*
X159423683Y-110676317D01*
X159509929Y-110747097D01*
X159090071Y-110747097D01*
X159176317Y-110676317D01*
X159251296Y-110584955D01*
X159300000Y-110493836D01*
X159348704Y-110584955D01*
G37*
X159348704Y-110584955D02*
X159423683Y-110676317D01*
X159509929Y-110747097D01*
X159090071Y-110747097D01*
X159176317Y-110676317D01*
X159251296Y-110584955D01*
X159300000Y-110493836D01*
X159348704Y-110584955D01*
%TD*%
M02*
