%TF.GenerationSoftware,KiCad,Pcbnew,5.1.6-c6e7f7d~87~ubuntu20.04.1*%
%TF.CreationDate,2020-09-20T16:54:06+03:00*%
%TF.ProjectId,lcd_board,6c63645f-626f-4617-9264-2e6b69636164,rev?*%
%TF.SameCoordinates,Original*%
%TF.FileFunction,Legend,Bot*%
%TF.FilePolarity,Positive*%
%FSLAX46Y46*%
G04 Gerber Fmt 4.6, Leading zero omitted, Abs format (unit mm)*
G04 Created by KiCad (PCBNEW 5.1.6-c6e7f7d~87~ubuntu20.04.1) date 2020-09-20 16:54:06*
%MOMM*%
%LPD*%
G01*
G04 APERTURE LIST*
%ADD10C,0.150000*%
%ADD11C,0.120000*%
G04 APERTURE END LIST*
D10*
X161364404Y-88177380D02*
X161364404Y-87510714D01*
X161364404Y-87605952D02*
X161316785Y-87558333D01*
X161221547Y-87510714D01*
X161078690Y-87510714D01*
X160983452Y-87558333D01*
X160935833Y-87653571D01*
X160935833Y-88177380D01*
X160935833Y-87653571D02*
X160888214Y-87558333D01*
X160792976Y-87510714D01*
X160650119Y-87510714D01*
X160554880Y-87558333D01*
X160507261Y-87653571D01*
X160507261Y-88177380D01*
X160031071Y-88177380D02*
X160031071Y-87510714D01*
X160031071Y-87177380D02*
X160078690Y-87225000D01*
X160031071Y-87272619D01*
X159983452Y-87225000D01*
X160031071Y-87177380D01*
X160031071Y-87272619D01*
X159126309Y-88177380D02*
X159126309Y-87177380D01*
X159126309Y-88129761D02*
X159221547Y-88177380D01*
X159412023Y-88177380D01*
X159507261Y-88129761D01*
X159554880Y-88082142D01*
X159602500Y-87986904D01*
X159602500Y-87701190D01*
X159554880Y-87605952D01*
X159507261Y-87558333D01*
X159412023Y-87510714D01*
X159221547Y-87510714D01*
X159126309Y-87558333D01*
X158650119Y-88177380D02*
X158650119Y-87510714D01*
X158650119Y-87177380D02*
X158697738Y-87225000D01*
X158650119Y-87272619D01*
X158602500Y-87225000D01*
X158650119Y-87177380D01*
X158650119Y-87272619D01*
X158173928Y-87796428D02*
X157412023Y-87796428D01*
X156507261Y-87510714D02*
X156507261Y-88320238D01*
X156554880Y-88415476D01*
X156602500Y-88463095D01*
X156697738Y-88510714D01*
X156840595Y-88510714D01*
X156935833Y-88463095D01*
X156507261Y-88129761D02*
X156602500Y-88177380D01*
X156792976Y-88177380D01*
X156888214Y-88129761D01*
X156935833Y-88082142D01*
X156983452Y-87986904D01*
X156983452Y-87701190D01*
X156935833Y-87605952D01*
X156888214Y-87558333D01*
X156792976Y-87510714D01*
X156602500Y-87510714D01*
X156507261Y-87558333D01*
X156031071Y-88177380D02*
X156031071Y-87510714D01*
X156031071Y-87701190D02*
X155983452Y-87605952D01*
X155935833Y-87558333D01*
X155840595Y-87510714D01*
X155745357Y-87510714D01*
X155412023Y-88177380D02*
X155412023Y-87510714D01*
X155412023Y-87177380D02*
X155459642Y-87225000D01*
X155412023Y-87272619D01*
X155364404Y-87225000D01*
X155412023Y-87177380D01*
X155412023Y-87272619D01*
X154507261Y-88177380D02*
X154507261Y-87177380D01*
X154507261Y-88129761D02*
X154602500Y-88177380D01*
X154792976Y-88177380D01*
X154888214Y-88129761D01*
X154935833Y-88082142D01*
X154983452Y-87986904D01*
X154983452Y-87701190D01*
X154935833Y-87605952D01*
X154888214Y-87558333D01*
X154792976Y-87510714D01*
X154602500Y-87510714D01*
X154507261Y-87558333D01*
X152792976Y-88177380D02*
X153269166Y-88177380D01*
X153269166Y-87177380D01*
X151888214Y-88082142D02*
X151935833Y-88129761D01*
X152078690Y-88177380D01*
X152173928Y-88177380D01*
X152316785Y-88129761D01*
X152412023Y-88034523D01*
X152459642Y-87939285D01*
X152507261Y-87748809D01*
X152507261Y-87605952D01*
X152459642Y-87415476D01*
X152412023Y-87320238D01*
X152316785Y-87225000D01*
X152173928Y-87177380D01*
X152078690Y-87177380D01*
X151935833Y-87225000D01*
X151888214Y-87272619D01*
X151459642Y-88177380D02*
X151459642Y-87177380D01*
X151221547Y-87177380D01*
X151078690Y-87225000D01*
X150983452Y-87320238D01*
X150935833Y-87415476D01*
X150888214Y-87605952D01*
X150888214Y-87748809D01*
X150935833Y-87939285D01*
X150983452Y-88034523D01*
X151078690Y-88129761D01*
X151221547Y-88177380D01*
X151459642Y-88177380D01*
X149697738Y-88177380D02*
X149697738Y-87177380D01*
X149697738Y-87558333D02*
X149602500Y-87510714D01*
X149412023Y-87510714D01*
X149316785Y-87558333D01*
X149269166Y-87605952D01*
X149221547Y-87701190D01*
X149221547Y-87986904D01*
X149269166Y-88082142D01*
X149316785Y-88129761D01*
X149412023Y-88177380D01*
X149602500Y-88177380D01*
X149697738Y-88129761D01*
X148650119Y-88177380D02*
X148745357Y-88129761D01*
X148792976Y-88082142D01*
X148840595Y-87986904D01*
X148840595Y-87701190D01*
X148792976Y-87605952D01*
X148745357Y-87558333D01*
X148650119Y-87510714D01*
X148507261Y-87510714D01*
X148412023Y-87558333D01*
X148364404Y-87605952D01*
X148316785Y-87701190D01*
X148316785Y-87986904D01*
X148364404Y-88082142D01*
X148412023Y-88129761D01*
X148507261Y-88177380D01*
X148650119Y-88177380D01*
X147459642Y-88177380D02*
X147459642Y-87653571D01*
X147507261Y-87558333D01*
X147602500Y-87510714D01*
X147792976Y-87510714D01*
X147888214Y-87558333D01*
X147459642Y-88129761D02*
X147554880Y-88177380D01*
X147792976Y-88177380D01*
X147888214Y-88129761D01*
X147935833Y-88034523D01*
X147935833Y-87939285D01*
X147888214Y-87844047D01*
X147792976Y-87796428D01*
X147554880Y-87796428D01*
X147459642Y-87748809D01*
X146983452Y-88177380D02*
X146983452Y-87510714D01*
X146983452Y-87701190D02*
X146935833Y-87605952D01*
X146888214Y-87558333D01*
X146792976Y-87510714D01*
X146697738Y-87510714D01*
X145935833Y-88177380D02*
X145935833Y-87177380D01*
X145935833Y-88129761D02*
X146031071Y-88177380D01*
X146221547Y-88177380D01*
X146316785Y-88129761D01*
X146364404Y-88082142D01*
X146412023Y-87986904D01*
X146412023Y-87701190D01*
X146364404Y-87605952D01*
X146316785Y-87558333D01*
X146221547Y-87510714D01*
X146031071Y-87510714D01*
X145935833Y-87558333D01*
X161459642Y-89160714D02*
X161221547Y-89827380D01*
X160983452Y-89160714D01*
X160221547Y-89779761D02*
X160316785Y-89827380D01*
X160507261Y-89827380D01*
X160602500Y-89779761D01*
X160650119Y-89684523D01*
X160650119Y-89303571D01*
X160602500Y-89208333D01*
X160507261Y-89160714D01*
X160316785Y-89160714D01*
X160221547Y-89208333D01*
X160173928Y-89303571D01*
X160173928Y-89398809D01*
X160650119Y-89494047D01*
X159745357Y-89827380D02*
X159745357Y-89160714D01*
X159745357Y-89351190D02*
X159697738Y-89255952D01*
X159650119Y-89208333D01*
X159554880Y-89160714D01*
X159459642Y-89160714D01*
X159173928Y-89779761D02*
X159078690Y-89827380D01*
X158888214Y-89827380D01*
X158792976Y-89779761D01*
X158745357Y-89684523D01*
X158745357Y-89636904D01*
X158792976Y-89541666D01*
X158888214Y-89494047D01*
X159031071Y-89494047D01*
X159126309Y-89446428D01*
X159173928Y-89351190D01*
X159173928Y-89303571D01*
X159126309Y-89208333D01*
X159031071Y-89160714D01*
X158888214Y-89160714D01*
X158792976Y-89208333D01*
X158316785Y-89827380D02*
X158316785Y-89160714D01*
X158316785Y-88827380D02*
X158364404Y-88875000D01*
X158316785Y-88922619D01*
X158269166Y-88875000D01*
X158316785Y-88827380D01*
X158316785Y-88922619D01*
X157697738Y-89827380D02*
X157792976Y-89779761D01*
X157840595Y-89732142D01*
X157888214Y-89636904D01*
X157888214Y-89351190D01*
X157840595Y-89255952D01*
X157792976Y-89208333D01*
X157697738Y-89160714D01*
X157554880Y-89160714D01*
X157459642Y-89208333D01*
X157412023Y-89255952D01*
X157364404Y-89351190D01*
X157364404Y-89636904D01*
X157412023Y-89732142D01*
X157459642Y-89779761D01*
X157554880Y-89827380D01*
X157697738Y-89827380D01*
X156935833Y-89160714D02*
X156935833Y-89827380D01*
X156935833Y-89255952D02*
X156888214Y-89208333D01*
X156792976Y-89160714D01*
X156650119Y-89160714D01*
X156554880Y-89208333D01*
X156507261Y-89303571D01*
X156507261Y-89827380D01*
X156031071Y-89732142D02*
X155983452Y-89779761D01*
X156031071Y-89827380D01*
X156078690Y-89779761D01*
X156031071Y-89732142D01*
X156031071Y-89827380D01*
X156031071Y-89208333D02*
X155983452Y-89255952D01*
X156031071Y-89303571D01*
X156078690Y-89255952D01*
X156031071Y-89208333D01*
X156031071Y-89303571D01*
X154269166Y-89827380D02*
X154840595Y-89827380D01*
X154554880Y-89827380D02*
X154554880Y-88827380D01*
X154650119Y-88970238D01*
X154745357Y-89065476D01*
X154840595Y-89113095D01*
X153840595Y-89732142D02*
X153792976Y-89779761D01*
X153840595Y-89827380D01*
X153888214Y-89779761D01*
X153840595Y-89732142D01*
X153840595Y-89827380D01*
X153173928Y-88827380D02*
X153078690Y-88827380D01*
X152983452Y-88875000D01*
X152935833Y-88922619D01*
X152888214Y-89017857D01*
X152840595Y-89208333D01*
X152840595Y-89446428D01*
X152888214Y-89636904D01*
X152935833Y-89732142D01*
X152983452Y-89779761D01*
X153078690Y-89827380D01*
X153173928Y-89827380D01*
X153269166Y-89779761D01*
X153316785Y-89732142D01*
X153364404Y-89636904D01*
X153412023Y-89446428D01*
X153412023Y-89208333D01*
X153364404Y-89017857D01*
X153316785Y-88922619D01*
X153269166Y-88875000D01*
X153173928Y-88827380D01*
X152412023Y-89732142D02*
X152364404Y-89779761D01*
X152412023Y-89827380D01*
X152459642Y-89779761D01*
X152412023Y-89732142D01*
X152412023Y-89827380D01*
X151745357Y-88827380D02*
X151650119Y-88827380D01*
X151554880Y-88875000D01*
X151507261Y-88922619D01*
X151459642Y-89017857D01*
X151412023Y-89208333D01*
X151412023Y-89446428D01*
X151459642Y-89636904D01*
X151507261Y-89732142D01*
X151554880Y-89779761D01*
X151650119Y-89827380D01*
X151745357Y-89827380D01*
X151840595Y-89779761D01*
X151888214Y-89732142D01*
X151935833Y-89636904D01*
X151983452Y-89446428D01*
X151983452Y-89208333D01*
X151935833Y-89017857D01*
X151888214Y-88922619D01*
X151840595Y-88875000D01*
X151745357Y-88827380D01*
X161364404Y-91477380D02*
X161364404Y-90810714D01*
X161364404Y-91001190D02*
X161316785Y-90905952D01*
X161269166Y-90858333D01*
X161173928Y-90810714D01*
X161078690Y-90810714D01*
X160364404Y-91429761D02*
X160459642Y-91477380D01*
X160650119Y-91477380D01*
X160745357Y-91429761D01*
X160792976Y-91334523D01*
X160792976Y-90953571D01*
X160745357Y-90858333D01*
X160650119Y-90810714D01*
X160459642Y-90810714D01*
X160364404Y-90858333D01*
X160316785Y-90953571D01*
X160316785Y-91048809D01*
X160792976Y-91144047D01*
X159983452Y-90810714D02*
X159745357Y-91477380D01*
X159507261Y-90810714D01*
X159126309Y-91477380D02*
X159126309Y-90810714D01*
X159126309Y-90477380D02*
X159173928Y-90525000D01*
X159126309Y-90572619D01*
X159078690Y-90525000D01*
X159126309Y-90477380D01*
X159126309Y-90572619D01*
X158697738Y-91429761D02*
X158602500Y-91477380D01*
X158412023Y-91477380D01*
X158316785Y-91429761D01*
X158269166Y-91334523D01*
X158269166Y-91286904D01*
X158316785Y-91191666D01*
X158412023Y-91144047D01*
X158554880Y-91144047D01*
X158650119Y-91096428D01*
X158697738Y-91001190D01*
X158697738Y-90953571D01*
X158650119Y-90858333D01*
X158554880Y-90810714D01*
X158412023Y-90810714D01*
X158316785Y-90858333D01*
X157840595Y-91477380D02*
X157840595Y-90810714D01*
X157840595Y-90477380D02*
X157888214Y-90525000D01*
X157840595Y-90572619D01*
X157792976Y-90525000D01*
X157840595Y-90477380D01*
X157840595Y-90572619D01*
X157221547Y-91477380D02*
X157316785Y-91429761D01*
X157364404Y-91382142D01*
X157412023Y-91286904D01*
X157412023Y-91001190D01*
X157364404Y-90905952D01*
X157316785Y-90858333D01*
X157221547Y-90810714D01*
X157078690Y-90810714D01*
X156983452Y-90858333D01*
X156935833Y-90905952D01*
X156888214Y-91001190D01*
X156888214Y-91286904D01*
X156935833Y-91382142D01*
X156983452Y-91429761D01*
X157078690Y-91477380D01*
X157221547Y-91477380D01*
X156459642Y-90810714D02*
X156459642Y-91477380D01*
X156459642Y-90905952D02*
X156412023Y-90858333D01*
X156316785Y-90810714D01*
X156173928Y-90810714D01*
X156078690Y-90858333D01*
X156031071Y-90953571D01*
X156031071Y-91477380D01*
X154364404Y-91477380D02*
X154364404Y-90477380D01*
X154364404Y-91429761D02*
X154459642Y-91477380D01*
X154650119Y-91477380D01*
X154745357Y-91429761D01*
X154792976Y-91382142D01*
X154840595Y-91286904D01*
X154840595Y-91001190D01*
X154792976Y-90905952D01*
X154745357Y-90858333D01*
X154650119Y-90810714D01*
X154459642Y-90810714D01*
X154364404Y-90858333D01*
X153459642Y-91477380D02*
X153459642Y-90953571D01*
X153507261Y-90858333D01*
X153602500Y-90810714D01*
X153792976Y-90810714D01*
X153888214Y-90858333D01*
X153459642Y-91429761D02*
X153554880Y-91477380D01*
X153792976Y-91477380D01*
X153888214Y-91429761D01*
X153935833Y-91334523D01*
X153935833Y-91239285D01*
X153888214Y-91144047D01*
X153792976Y-91096428D01*
X153554880Y-91096428D01*
X153459642Y-91048809D01*
X153126309Y-90810714D02*
X152745357Y-90810714D01*
X152983452Y-90477380D02*
X152983452Y-91334523D01*
X152935833Y-91429761D01*
X152840595Y-91477380D01*
X152745357Y-91477380D01*
X152031071Y-91429761D02*
X152126309Y-91477380D01*
X152316785Y-91477380D01*
X152412023Y-91429761D01*
X152459642Y-91334523D01*
X152459642Y-90953571D01*
X152412023Y-90858333D01*
X152316785Y-90810714D01*
X152126309Y-90810714D01*
X152031071Y-90858333D01*
X151983452Y-90953571D01*
X151983452Y-91048809D01*
X152459642Y-91144047D01*
X151554880Y-91382142D02*
X151507261Y-91429761D01*
X151554880Y-91477380D01*
X151602500Y-91429761D01*
X151554880Y-91382142D01*
X151554880Y-91477380D01*
X151554880Y-90858333D02*
X151507261Y-90905952D01*
X151554880Y-90953571D01*
X151602500Y-90905952D01*
X151554880Y-90858333D01*
X151554880Y-90953571D01*
X150364404Y-90572619D02*
X150316785Y-90525000D01*
X150221547Y-90477380D01*
X149983452Y-90477380D01*
X149888214Y-90525000D01*
X149840595Y-90572619D01*
X149792976Y-90667857D01*
X149792976Y-90763095D01*
X149840595Y-90905952D01*
X150412023Y-91477380D01*
X149792976Y-91477380D01*
X149173928Y-90477380D02*
X149078690Y-90477380D01*
X148983452Y-90525000D01*
X148935833Y-90572619D01*
X148888214Y-90667857D01*
X148840595Y-90858333D01*
X148840595Y-91096428D01*
X148888214Y-91286904D01*
X148935833Y-91382142D01*
X148983452Y-91429761D01*
X149078690Y-91477380D01*
X149173928Y-91477380D01*
X149269166Y-91429761D01*
X149316785Y-91382142D01*
X149364404Y-91286904D01*
X149412023Y-91096428D01*
X149412023Y-90858333D01*
X149364404Y-90667857D01*
X149316785Y-90572619D01*
X149269166Y-90525000D01*
X149173928Y-90477380D01*
X148459642Y-90572619D02*
X148412023Y-90525000D01*
X148316785Y-90477380D01*
X148078690Y-90477380D01*
X147983452Y-90525000D01*
X147935833Y-90572619D01*
X147888214Y-90667857D01*
X147888214Y-90763095D01*
X147935833Y-90905952D01*
X148507261Y-91477380D01*
X147888214Y-91477380D01*
X147269166Y-90477380D02*
X147173928Y-90477380D01*
X147078690Y-90525000D01*
X147031071Y-90572619D01*
X146983452Y-90667857D01*
X146935833Y-90858333D01*
X146935833Y-91096428D01*
X146983452Y-91286904D01*
X147031071Y-91382142D01*
X147078690Y-91429761D01*
X147173928Y-91477380D01*
X147269166Y-91477380D01*
X147364404Y-91429761D01*
X147412023Y-91382142D01*
X147459642Y-91286904D01*
X147507261Y-91096428D01*
X147507261Y-90858333D01*
X147459642Y-90667857D01*
X147412023Y-90572619D01*
X147364404Y-90525000D01*
X147269166Y-90477380D01*
X146507261Y-91096428D02*
X145745357Y-91096428D01*
X145078690Y-90477380D02*
X144983452Y-90477380D01*
X144888214Y-90525000D01*
X144840595Y-90572619D01*
X144792976Y-90667857D01*
X144745357Y-90858333D01*
X144745357Y-91096428D01*
X144792976Y-91286904D01*
X144840595Y-91382142D01*
X144888214Y-91429761D01*
X144983452Y-91477380D01*
X145078690Y-91477380D01*
X145173928Y-91429761D01*
X145221547Y-91382142D01*
X145269166Y-91286904D01*
X145316785Y-91096428D01*
X145316785Y-90858333D01*
X145269166Y-90667857D01*
X145221547Y-90572619D01*
X145173928Y-90525000D01*
X145078690Y-90477380D01*
X144269166Y-91477380D02*
X144078690Y-91477380D01*
X143983452Y-91429761D01*
X143935833Y-91382142D01*
X143840595Y-91239285D01*
X143792976Y-91048809D01*
X143792976Y-90667857D01*
X143840595Y-90572619D01*
X143888214Y-90525000D01*
X143983452Y-90477380D01*
X144173928Y-90477380D01*
X144269166Y-90525000D01*
X144316785Y-90572619D01*
X144364404Y-90667857D01*
X144364404Y-90905952D01*
X144316785Y-91001190D01*
X144269166Y-91048809D01*
X144173928Y-91096428D01*
X143983452Y-91096428D01*
X143888214Y-91048809D01*
X143840595Y-91001190D01*
X143792976Y-90905952D01*
X143364404Y-91096428D02*
X142602500Y-91096428D01*
X142173928Y-90572619D02*
X142126309Y-90525000D01*
X142031071Y-90477380D01*
X141792976Y-90477380D01*
X141697738Y-90525000D01*
X141650119Y-90572619D01*
X141602500Y-90667857D01*
X141602500Y-90763095D01*
X141650119Y-90905952D01*
X142221547Y-91477380D01*
X141602500Y-91477380D01*
X140983452Y-90477380D02*
X140888214Y-90477380D01*
X140792976Y-90525000D01*
X140745357Y-90572619D01*
X140697738Y-90667857D01*
X140650119Y-90858333D01*
X140650119Y-91096428D01*
X140697738Y-91286904D01*
X140745357Y-91382142D01*
X140792976Y-91429761D01*
X140888214Y-91477380D01*
X140983452Y-91477380D01*
X141078690Y-91429761D01*
X141126309Y-91382142D01*
X141173928Y-91286904D01*
X141221547Y-91096428D01*
X141221547Y-90858333D01*
X141173928Y-90667857D01*
X141126309Y-90572619D01*
X141078690Y-90525000D01*
X140983452Y-90477380D01*
X160935833Y-92460714D02*
X160935833Y-93270238D01*
X160983452Y-93365476D01*
X161031071Y-93413095D01*
X161126309Y-93460714D01*
X161269166Y-93460714D01*
X161364404Y-93413095D01*
X160935833Y-93079761D02*
X161031071Y-93127380D01*
X161221547Y-93127380D01*
X161316785Y-93079761D01*
X161364404Y-93032142D01*
X161412023Y-92936904D01*
X161412023Y-92651190D01*
X161364404Y-92555952D01*
X161316785Y-92508333D01*
X161221547Y-92460714D01*
X161031071Y-92460714D01*
X160935833Y-92508333D01*
X160459642Y-93127380D02*
X160459642Y-92460714D01*
X160459642Y-92127380D02*
X160507261Y-92175000D01*
X160459642Y-92222619D01*
X160412023Y-92175000D01*
X160459642Y-92127380D01*
X160459642Y-92222619D01*
X160126309Y-92460714D02*
X159745357Y-92460714D01*
X159983452Y-92127380D02*
X159983452Y-92984523D01*
X159935833Y-93079761D01*
X159840595Y-93127380D01*
X159745357Y-93127380D01*
X159412023Y-93127380D02*
X159412023Y-92127380D01*
X158983452Y-93127380D02*
X158983452Y-92603571D01*
X159031071Y-92508333D01*
X159126309Y-92460714D01*
X159269166Y-92460714D01*
X159364404Y-92508333D01*
X159412023Y-92555952D01*
X158078690Y-92460714D02*
X158078690Y-93127380D01*
X158507261Y-92460714D02*
X158507261Y-92984523D01*
X158459642Y-93079761D01*
X158364404Y-93127380D01*
X158221547Y-93127380D01*
X158126309Y-93079761D01*
X158078690Y-93032142D01*
X157602500Y-93127380D02*
X157602500Y-92127380D01*
X157602500Y-92508333D02*
X157507261Y-92460714D01*
X157316785Y-92460714D01*
X157221547Y-92508333D01*
X157173928Y-92555952D01*
X157126309Y-92651190D01*
X157126309Y-92936904D01*
X157173928Y-93032142D01*
X157221547Y-93079761D01*
X157316785Y-93127380D01*
X157507261Y-93127380D01*
X157602500Y-93079761D01*
X156697738Y-93032142D02*
X156650119Y-93079761D01*
X156697738Y-93127380D01*
X156745357Y-93079761D01*
X156697738Y-93032142D01*
X156697738Y-93127380D01*
X155792976Y-93079761D02*
X155888214Y-93127380D01*
X156078690Y-93127380D01*
X156173928Y-93079761D01*
X156221547Y-93032142D01*
X156269166Y-92936904D01*
X156269166Y-92651190D01*
X156221547Y-92555952D01*
X156173928Y-92508333D01*
X156078690Y-92460714D01*
X155888214Y-92460714D01*
X155792976Y-92508333D01*
X155221547Y-93127380D02*
X155316785Y-93079761D01*
X155364404Y-93032142D01*
X155412023Y-92936904D01*
X155412023Y-92651190D01*
X155364404Y-92555952D01*
X155316785Y-92508333D01*
X155221547Y-92460714D01*
X155078690Y-92460714D01*
X154983452Y-92508333D01*
X154935833Y-92555952D01*
X154888214Y-92651190D01*
X154888214Y-92936904D01*
X154935833Y-93032142D01*
X154983452Y-93079761D01*
X155078690Y-93127380D01*
X155221547Y-93127380D01*
X154459642Y-93127380D02*
X154459642Y-92460714D01*
X154459642Y-92555952D02*
X154412023Y-92508333D01*
X154316785Y-92460714D01*
X154173928Y-92460714D01*
X154078690Y-92508333D01*
X154031071Y-92603571D01*
X154031071Y-93127380D01*
X154031071Y-92603571D02*
X153983452Y-92508333D01*
X153888214Y-92460714D01*
X153745357Y-92460714D01*
X153650119Y-92508333D01*
X153602500Y-92603571D01*
X153602500Y-93127380D01*
X152412023Y-92079761D02*
X153269166Y-93365476D01*
X152173928Y-92460714D02*
X151650119Y-92460714D01*
X152173928Y-93127380D01*
X151650119Y-93127380D01*
X150840595Y-92460714D02*
X150840595Y-93127380D01*
X151269166Y-92460714D02*
X151269166Y-92984523D01*
X151221547Y-93079761D01*
X151126309Y-93127380D01*
X150983452Y-93127380D01*
X150888214Y-93079761D01*
X150840595Y-93032142D01*
X150364404Y-93127380D02*
X150364404Y-92127380D01*
X150269166Y-92746428D02*
X149983452Y-93127380D01*
X149983452Y-92460714D02*
X150364404Y-92841666D01*
X149126309Y-93127380D02*
X149126309Y-92603571D01*
X149173928Y-92508333D01*
X149269166Y-92460714D01*
X149459642Y-92460714D01*
X149554880Y-92508333D01*
X149126309Y-93079761D02*
X149221547Y-93127380D01*
X149459642Y-93127380D01*
X149554880Y-93079761D01*
X149602500Y-92984523D01*
X149602500Y-92889285D01*
X149554880Y-92794047D01*
X149459642Y-92746428D01*
X149221547Y-92746428D01*
X149126309Y-92698809D01*
X148650119Y-93127380D02*
X148650119Y-92460714D01*
X148650119Y-92127380D02*
X148697738Y-92175000D01*
X148650119Y-92222619D01*
X148602500Y-92175000D01*
X148650119Y-92127380D01*
X148650119Y-92222619D01*
X148316785Y-92460714D02*
X147935833Y-92460714D01*
X148173928Y-92127380D02*
X148173928Y-92984523D01*
X148126309Y-93079761D01*
X148031071Y-93127380D01*
X147935833Y-93127380D01*
X147602500Y-93127380D02*
X147602500Y-92460714D01*
X147602500Y-92127380D02*
X147650119Y-92175000D01*
X147602500Y-92222619D01*
X147554880Y-92175000D01*
X147602500Y-92127380D01*
X147602500Y-92222619D01*
X147173928Y-93079761D02*
X147078690Y-93127380D01*
X146888214Y-93127380D01*
X146792976Y-93079761D01*
X146745357Y-92984523D01*
X146745357Y-92936904D01*
X146792976Y-92841666D01*
X146888214Y-92794047D01*
X147031071Y-92794047D01*
X147126309Y-92746428D01*
X147173928Y-92651190D01*
X147173928Y-92603571D01*
X147126309Y-92508333D01*
X147031071Y-92460714D01*
X146888214Y-92460714D01*
X146792976Y-92508333D01*
X145602500Y-92079761D02*
X146459642Y-93365476D01*
X145269166Y-93127380D02*
X145269166Y-92460714D01*
X145269166Y-92555952D02*
X145221547Y-92508333D01*
X145126309Y-92460714D01*
X144983452Y-92460714D01*
X144888214Y-92508333D01*
X144840595Y-92603571D01*
X144840595Y-93127380D01*
X144840595Y-92603571D02*
X144792976Y-92508333D01*
X144697738Y-92460714D01*
X144554880Y-92460714D01*
X144459642Y-92508333D01*
X144412023Y-92603571D01*
X144412023Y-93127380D01*
X143935833Y-93127380D02*
X143935833Y-92460714D01*
X143935833Y-92127380D02*
X143983452Y-92175000D01*
X143935833Y-92222619D01*
X143888214Y-92175000D01*
X143935833Y-92127380D01*
X143935833Y-92222619D01*
X143031071Y-93127380D02*
X143031071Y-92127380D01*
X143031071Y-93079761D02*
X143126309Y-93127380D01*
X143316785Y-93127380D01*
X143412023Y-93079761D01*
X143459642Y-93032142D01*
X143507261Y-92936904D01*
X143507261Y-92651190D01*
X143459642Y-92555952D01*
X143412023Y-92508333D01*
X143316785Y-92460714D01*
X143126309Y-92460714D01*
X143031071Y-92508333D01*
X142554880Y-93127380D02*
X142554880Y-92460714D01*
X142554880Y-92127380D02*
X142602500Y-92175000D01*
X142554880Y-92222619D01*
X142507261Y-92175000D01*
X142554880Y-92127380D01*
X142554880Y-92222619D01*
X142078690Y-92746428D02*
X141316785Y-92746428D01*
X140412023Y-92460714D02*
X140412023Y-93270238D01*
X140459642Y-93365476D01*
X140507261Y-93413095D01*
X140602500Y-93460714D01*
X140745357Y-93460714D01*
X140840595Y-93413095D01*
X140412023Y-93079761D02*
X140507261Y-93127380D01*
X140697738Y-93127380D01*
X140792976Y-93079761D01*
X140840595Y-93032142D01*
X140888214Y-92936904D01*
X140888214Y-92651190D01*
X140840595Y-92555952D01*
X140792976Y-92508333D01*
X140697738Y-92460714D01*
X140507261Y-92460714D01*
X140412023Y-92508333D01*
X139935833Y-93127380D02*
X139935833Y-92460714D01*
X139935833Y-92651190D02*
X139888214Y-92555952D01*
X139840595Y-92508333D01*
X139745357Y-92460714D01*
X139650119Y-92460714D01*
X139316785Y-93127380D02*
X139316785Y-92460714D01*
X139316785Y-92127380D02*
X139364404Y-92175000D01*
X139316785Y-92222619D01*
X139269166Y-92175000D01*
X139316785Y-92127380D01*
X139316785Y-92222619D01*
X138412023Y-93127380D02*
X138412023Y-92127380D01*
X138412023Y-93079761D02*
X138507261Y-93127380D01*
X138697738Y-93127380D01*
X138792976Y-93079761D01*
X138840595Y-93032142D01*
X138888214Y-92936904D01*
X138888214Y-92651190D01*
X138840595Y-92555952D01*
X138792976Y-92508333D01*
X138697738Y-92460714D01*
X138507261Y-92460714D01*
X138412023Y-92508333D01*
D11*
%TO.C,J1*%
X145280000Y-114670000D02*
X145280000Y-117330000D01*
X165720000Y-114670000D02*
X165720000Y-117330000D01*
X145280000Y-117330000D02*
X148390000Y-117330000D01*
X145850000Y-114670000D02*
X145850000Y-113150000D01*
X145280000Y-114670000D02*
X145850000Y-114670000D01*
X165150000Y-117330000D02*
X165720000Y-117330000D01*
X149910000Y-117330000D02*
X153470000Y-117330000D01*
X154990000Y-117330000D02*
X158550000Y-117330000D01*
X160070000Y-117330000D02*
X163630000Y-117330000D01*
X147370000Y-114670000D02*
X150930000Y-114670000D01*
X152450000Y-114670000D02*
X156010000Y-114670000D01*
X157530000Y-114670000D02*
X161090000Y-114670000D01*
X162610000Y-114670000D02*
X165720000Y-114670000D01*
%TO.C,C1*%
X156958578Y-107090000D02*
X156441422Y-107090000D01*
X156958578Y-108510000D02*
X156441422Y-108510000D01*
%TO.C,Q1*%
X160880000Y-111560000D02*
X159950000Y-111560000D01*
X157720000Y-111560000D02*
X158650000Y-111560000D01*
X157720000Y-111560000D02*
X157720000Y-109400000D01*
X160880000Y-111560000D02*
X160880000Y-110100000D01*
%TO.C,J1*%
D10*
X143732380Y-115666666D02*
X144446666Y-115666666D01*
X144589523Y-115619047D01*
X144684761Y-115523809D01*
X144732380Y-115380952D01*
X144732380Y-115285714D01*
X144732380Y-116666666D02*
X144732380Y-116095238D01*
X144732380Y-116380952D02*
X143732380Y-116380952D01*
X143875238Y-116285714D01*
X143970476Y-116190476D01*
X144018095Y-116095238D01*
%TO.C,C1*%
X154266666Y-108157142D02*
X154314285Y-108204761D01*
X154457142Y-108252380D01*
X154552380Y-108252380D01*
X154695238Y-108204761D01*
X154790476Y-108109523D01*
X154838095Y-108014285D01*
X154885714Y-107823809D01*
X154885714Y-107680952D01*
X154838095Y-107490476D01*
X154790476Y-107395238D01*
X154695238Y-107300000D01*
X154552380Y-107252380D01*
X154457142Y-107252380D01*
X154314285Y-107300000D01*
X154266666Y-107347619D01*
X153314285Y-108252380D02*
X153885714Y-108252380D01*
X153600000Y-108252380D02*
X153600000Y-107252380D01*
X153695238Y-107395238D01*
X153790476Y-107490476D01*
X153885714Y-107538095D01*
%TO.C,Q1*%
X157347619Y-110704761D02*
X157300000Y-110609523D01*
X157204761Y-110514285D01*
X157061904Y-110371428D01*
X157014285Y-110276190D01*
X157014285Y-110180952D01*
X157252380Y-110228571D02*
X157204761Y-110133333D01*
X157109523Y-110038095D01*
X156919047Y-109990476D01*
X156585714Y-109990476D01*
X156395238Y-110038095D01*
X156300000Y-110133333D01*
X156252380Y-110228571D01*
X156252380Y-110419047D01*
X156300000Y-110514285D01*
X156395238Y-110609523D01*
X156585714Y-110657142D01*
X156919047Y-110657142D01*
X157109523Y-110609523D01*
X157204761Y-110514285D01*
X157252380Y-110419047D01*
X157252380Y-110228571D01*
X157252380Y-111609523D02*
X157252380Y-111038095D01*
X157252380Y-111323809D02*
X156252380Y-111323809D01*
X156395238Y-111228571D01*
X156490476Y-111133333D01*
X156538095Y-111038095D01*
%TD*%
M02*
