M48
; DRILL file {KiCad 5.1.6-c6e7f7d~87~ubuntu20.04.1} date Sun Sep 20 16:42:44 2020
; FORMAT={-:-/ absolute / metric / decimal}
; #@! TF.CreationDate,2020-09-20T16:42:44+03:00
; #@! TF.GenerationSoftware,Kicad,Pcbnew,5.1.6-c6e7f7d~87~ubuntu20.04.1
; #@! TF.FileFunction,Plated,1,2,PTH
FMAT,2
METRIC
T1C0.500
%
G90
G05
T1
X133.7Y-78.0
X133.7Y-83.0
X133.7Y-88.0
X133.7Y-93.0
X133.7Y-98.0
X133.7Y-103.0
X133.7Y-108.0
X133.7Y-113.0
X133.7Y-119.0
X133.7Y-122.4
X133.7Y-127.4
X138.3Y-74.2
X138.3Y-116.0
X140.3Y-122.4
X140.3Y-127.4
X144.1Y-76.6
X145.3Y-112.4
X147.5Y-118.8
X147.7Y-115.0
X148.5Y-113.4
X149.1Y-110.0
X150.1Y-114.0
X150.3Y-74.2
X150.3Y-106.0
X152.7Y-115.2
X154.7Y-114.8
X155.7Y-113.8
X155.9Y-106.4
X155.9Y-118.8
X156.5Y-76.6
X157.3Y-106.4
X157.7Y-116.6
X159.1Y-105.8
X160.7Y-74.2
X161.9Y-112.4
X162.1Y-110.8
X162.9Y-117.6
X164.5Y-115.4
X165.9Y-117.6
X166.9Y-74.2
X171.7Y-122.4
X171.7Y-127.4
X172.7Y-74.2
X172.7Y-116.0
X177.3Y-78.0
X177.3Y-83.0
X177.3Y-88.0
X177.3Y-93.0
X177.3Y-98.0
X177.3Y-103.0
X177.3Y-108.0
X177.3Y-113.0
X177.3Y-119.0
X177.3Y-122.4
X177.3Y-127.4
T0
M30
