%TF.GenerationSoftware,KiCad,Pcbnew,5.1.6-c6e7f7d~87~ubuntu20.04.1*%
%TF.CreationDate,2020-09-20T16:43:26+03:00*%
%TF.ProjectId,lcd_board,6c63645f-626f-4617-9264-2e6b69636164,rev?*%
%TF.SameCoordinates,Original*%
%TF.FileFunction,Legend,Top*%
%TF.FilePolarity,Positive*%
%FSLAX46Y46*%
G04 Gerber Fmt 4.6, Leading zero omitted, Abs format (unit mm)*
G04 Created by KiCad (PCBNEW 5.1.6-c6e7f7d~87~ubuntu20.04.1) date 2020-09-20 16:43:26*
%MOMM*%
%LPD*%
G01*
G04 APERTURE LIST*
%ADD10C,1.000000*%
%ADD11C,0.200000*%
%ADD12C,0.150000*%
G04 APERTURE END LIST*
D10*
%TO.C,LCD1*%
X173500000Y-75000000D02*
X173500000Y-76500000D01*
X173500000Y-121000000D02*
X173500000Y-80500000D01*
X137500000Y-121000000D02*
X173500000Y-121000000D01*
X137500000Y-75000000D02*
X137500000Y-121000000D01*
X137500000Y-75000000D02*
X173500000Y-75000000D01*
D11*
X173500000Y-109000000D02*
X161500000Y-109000000D01*
X149500000Y-109000000D02*
X137500000Y-109000000D01*
D12*
X151933333Y-105252380D02*
X151457142Y-105252380D01*
X151457142Y-104252380D01*
X152838095Y-105157142D02*
X152790476Y-105204761D01*
X152647619Y-105252380D01*
X152552380Y-105252380D01*
X152409523Y-105204761D01*
X152314285Y-105109523D01*
X152266666Y-105014285D01*
X152219047Y-104823809D01*
X152219047Y-104680952D01*
X152266666Y-104490476D01*
X152314285Y-104395238D01*
X152409523Y-104300000D01*
X152552380Y-104252380D01*
X152647619Y-104252380D01*
X152790476Y-104300000D01*
X152838095Y-104347619D01*
X153266666Y-105252380D02*
X153266666Y-104252380D01*
X153504761Y-104252380D01*
X153647619Y-104300000D01*
X153742857Y-104395238D01*
X153790476Y-104490476D01*
X153838095Y-104680952D01*
X153838095Y-104823809D01*
X153790476Y-105014285D01*
X153742857Y-105109523D01*
X153647619Y-105204761D01*
X153504761Y-105252380D01*
X153266666Y-105252380D01*
X154790476Y-105252380D02*
X154219047Y-105252380D01*
X154504761Y-105252380D02*
X154504761Y-104252380D01*
X154409523Y-104395238D01*
X154314285Y-104490476D01*
X154219047Y-104538095D01*
%TD*%
M02*
